<svg xmlns="http://www.w3.org/2000/svg" xmlns:xlink="http://www.w3.org/1999/xlink" width="159.08633" height="159.08633" viewBox="0 0 159.08633 159.08633">
  <defs>
    <style>
      .cls-1 {
        fill: #fff;
      }

      .cls-2 {
        fill: url(#linear-gradient);
      }
    </style>
    <linearGradient id="linear-gradient" x1="51.79627" y1="79.54317" x2="107.29006" y2="79.54317" gradientUnits="userSpaceOnUse">
      <stop offset="0" stop-color="#006837"/>
      <stop offset="0.2591" stop-color="#00773c"/>
      <stop offset="0.7006" stop-color="#008b43"/>
      <stop offset="1" stop-color="#009245"/>
    </linearGradient>
  </defs>
  <g id="Layer_2" data-name="Layer 2">
    <g id="HOME">
      <g>
        <circle class="cls-1" cx="79.54317" cy="79.54317" r="79.54317"/>
        <path class="cls-2" d="M92.44626,107.14618v3.17021a5.032,5.032,0,0,1-4.45314,4.91928l-.79928,2.84225a3.74691,3.74691,0,0,1-3.53968,2.62362H75.66134a3.54451,3.54451,0,0,1-3.53967-2.62362l-.79929-2.84225a5.03205,5.03205,0,0,1-4.45314-4.91928v-3.17021a3.12484,3.12484,0,0,1,3.19713-3.06089H89.36332A3.17267,3.17267,0,0,1,92.44626,107.14618Zm14.8438-42.30583a25.75383,25.75383,0,0,1-7.76445,18.36533,23.79666,23.79666,0,0,0-6.851,13.2274,4.60513,4.60513,0,0,1-4.56732,3.71679H70.97983a4.5039,4.5039,0,0,1-4.56733-3.71679,24.15777,24.15777,0,0,0-6.851-13.2274A26.14452,26.14452,0,0,1,51.79706,65.1683C51.68288,50.41045,63.90048,38.49486,79.201,38.38554,94.84411,38.27622,107.29006,50.19181,107.29006,64.84035Z"/>
      </g>
    </g>
  </g>
</svg>
