<svg xmlns="http://www.w3.org/2000/svg" xmlns:xlink="http://www.w3.org/1999/xlink" width="490.851" height="977.33104" viewBox="0 0 490.851 977.33104">
  <defs>
    <style>
      .cls-1 {
        fill: none;
      }

      .cls-2 {
        opacity: 0.3;
      }

      .cls-3 {
        isolation: isolate;
      }

      .cls-4 {
        clip-path: url(#clip-path);
      }

      .cls-5 {
        fill: #949494;
      }

      .cls-6 {
        clip-path: url(#clip-path-2);
      }

      .cls-7 {
        clip-path: url(#clip-path-3);
      }

      .cls-8 {
        clip-path: url(#clip-path-4);
      }

      .cls-9 {
        fill: #858585;
      }

      .cls-10 {
        fill: gray;
      }

      .cls-11 {
        fill: #e5e5e5;
      }

      .cls-12 {
        clip-path: url(#clip-path-5);
      }

      .cls-13 {
        fill: #8a8a8a;
      }

      .cls-14 {
        fill: #8f8f8f;
      }

      .cls-15 {
        clip-path: url(#clip-path-6);
      }

      .cls-16 {
        clip-path: url(#clip-path-7);
      }

      .cls-17 {
        clip-path: url(#clip-path-8);
      }

      .cls-18 {
        clip-path: url(#clip-path-9);
      }

      .cls-19 {
        clip-path: url(#clip-path-10);
      }

      .cls-20 {
        clip-path: url(#clip-path-11);
      }

      .cls-21 {
        clip-path: url(#clip-path-12);
      }

      .cls-22 {
        clip-path: url(#clip-path-13);
      }

      .cls-23 {
        clip-path: url(#clip-path-14);
      }

      .cls-24 {
        clip-path: url(#clip-path-15);
      }

      .cls-25 {
        clip-path: url(#clip-path-16);
      }

      .cls-26 {
        clip-path: url(#clip-path-17);
      }

      .cls-27 {
        clip-path: url(#clip-path-18);
      }

      .cls-28 {
        clip-path: url(#clip-path-19);
      }

      .cls-29 {
        clip-path: url(#clip-path-20);
      }

      .cls-30 {
        clip-path: url(#clip-path-21);
      }

      .cls-31 {
        clip-path: url(#clip-path-22);
      }

      .cls-32 {
        clip-path: url(#clip-path-23);
      }
    </style>
    <clipPath id="clip-path" transform="translate(-0.00059 -2.69106)">
      <path class="cls-1" d="M490.85159,2.69106v9.55066q-.9855,8.76138-1.764,17.54044V20.23152Q489.87058,11.45678,490.85159,2.69106Z"/>
    </clipPath>
    <clipPath id="clip-path-2" transform="translate(-0.00059 -2.69106)">
      <path class="cls-1" d="M487.33258,43.17842v9.55066q-.54,8.76136-.936,17.54043V60.71887Q486.78808,51.94431,487.33258,43.17842Z"/>
    </clipPath>
    <clipPath id="clip-path-3" transform="translate(-0.00059 -2.69106)">
      <path class="cls-1" d="M485.60458,83.66589v9.55066q-.216,8.76138-.315,17.54032v-9.55065Q485.38408,92.43167,485.60458,83.66589Z"/>
    </clipPath>
    <clipPath id="clip-path-4" transform="translate(-0.00059 -2.69106)">
      <path class="cls-1" d="M485.28958,101.20622v9.55066a393.15116,393.15116,0,0,0-264.456,107.13041v-9.55063A393.15118,393.15118,0,0,1,485.28958,101.20622Z"/>
    </clipPath>
    <clipPath id="clip-path-5" transform="translate(-0.00059 -2.69106)">
      <path class="cls-1" d="M487.04459,222.6065v9.55065c-136.701,2.15378-248.841,105.54381-262.377,237.21653V459.823C238.20359,328.15031,350.34359,224.76028,487.04459,222.6065Z"/>
    </clipPath>
    <clipPath id="clip-path-6" transform="translate(-0.00059 -2.69106)">
      <path class="cls-1" d="M486.04559,182.15448v9.55066c-164.907,2.77421-298.773,133.29478-303.723,295.19119v-9.55064C187.27259,315.44927,321.13859,184.9287,486.04559,182.15448Z"/>
    </clipPath>
    <clipPath id="clip-path-7" transform="translate(-0.00059 -2.69106)">
      <path class="cls-1" d="M487.85458,263.06729v9.55065c-123.561,1.87019-223.506,101.42245-223.506,223.54943v-9.55064C264.34858,364.48974,364.29359,264.93748,487.85458,263.06729Z"/>
    </clipPath>
    <clipPath id="clip-path-8" transform="translate(-0.00059 -2.69106)">
      <path class="cls-1" d="M489.08759,20.23151v9.55066c-260.082,1.232-471.285,209.97081-471.285,466.3852v-9.55064C17.80259,230.20233,229.00559,21.46348,489.08759,20.23151Z"/>
    </clipPath>
    <clipPath id="clip-path-9" transform="translate(-0.00059 -2.69106)">
      <path class="cls-1" d="M464.68859,142.61551v9.55066c-180.738,13.481-323.613,162.62322-323.613,344.0012v-9.55064C141.0756,305.23874,283.9506,156.09651,464.68859,142.61551Z"/>
    </clipPath>
    <clipPath id="clip-path-10" transform="translate(-0.00059 -2.69106)">
      <path class="cls-1" d="M486.39658,60.71886v9.55066c-236.187,2.65015-427.5,192.68751-427.5,425.89785v-9.55064C58.89658,253.40638,250.2096,63.369,486.39658,60.71886Z"/>
    </clipPath>
    <clipPath id="clip-path-11" transform="translate(-0.00059 -2.69106)">
      <path class="cls-1" d="M208.25159,220.7452v9.55065c-67.041,69.21327-108.261,162.88914-108.261,265.87152v-9.55064C99.99061,383.63435,141.21061,289.95848,208.25159,220.7452Z"/>
    </clipPath>
    <clipPath id="clip-path-12" transform="translate(-0.00059 -2.69106)">
      <path class="cls-1" d="M481.12258,727.52929v9.55065c-121.5-4.96347-220.419-97.54033-233.172-215.11162v-9.55064C260.70359,629.989,359.62258,722.56582,481.12258,727.52929Z"/>
    </clipPath>
    <clipPath id="clip-path-13" transform="translate(-0.00059 -2.69106)">
      <path class="cls-1" d="M223.47059,734.9567v9.55066c-62.091-64.93241-100.197-152.32424-100.197-248.34v-9.55064C123.2736,582.63247,161.37959,670.0243,223.47059,734.9567Z"/>
    </clipPath>
    <clipPath id="clip-path-14" transform="translate(-0.00059 -2.69106)">
      <path class="cls-1" d="M182.3856,750.50277v9.55065c-62.379-70.75541-100.206-163.04868-100.206-263.886v-9.55064C82.1796,587.45409,120.0066,679.74736,182.3856,750.50277Z"/>
    </clipPath>
    <clipPath id="clip-path-15" transform="translate(-0.00059 -2.69106)">
      <path class="cls-1" d="M481.12258,768.00787v9.55065c-144.171-5.0433-261.495-115.68354-274.455-255.5902v-9.55064C219.6276,652.32433,336.95158,762.96457,481.12258,768.00787Z"/>
    </clipPath>
    <clipPath id="clip-path-16" transform="translate(-0.00059 -2.69106)">
      <path class="cls-1" d="M177.91261,804.64844v9.55066c-84.33-80.64678-136.818-193.40534-136.818-318.03173v-9.55064C41.09458,611.24311,93.58259,724.00168,177.91261,804.64844Z"/>
    </clipPath>
    <clipPath id="clip-path-17" transform="translate(-0.00059 -2.69106)">
      <path class="cls-1" d="M481.13158,808.504v9.55066c-175.599-5.36212-316.764-147.6886-316.764-321.88729v-9.55064C164.36759,660.81541,305.5326,803.14189,481.13158,808.504Z"/>
    </clipPath>
    <clipPath id="clip-path-18" transform="translate(-0.00059 -2.69106)">
      <path class="cls-1" d="M481.15858,849.00037V858.551a369.71326,369.71326,0,0,1-245.178-101.57322v-9.55064A369.71329,369.71329,0,0,0,481.15858,849.00037Z"/>
    </clipPath>
    <clipPath id="clip-path-19" transform="translate(-0.00059 -2.69106)">
      <path class="cls-1" d="M480.58258,889.47006v9.55065a410.95826,410.95826,0,0,1-260.568-101.51984v-9.55064A410.95831,410.95831,0,0,0,480.58258,889.47006Z"/>
    </clipPath>
    <clipPath id="clip-path-20" transform="translate(-0.00059 -2.69106)">
      <path class="cls-1" d="M481.08659,871.93851v9.55066c-.072,5.84079-.261,11.69049-.504,17.53153v-9.55064C480.82558,883.629,481.01459,877.77931,481.08659,871.93851Z"/>
    </clipPath>
    <clipPath id="clip-path-21" transform="translate(-0.00059 -2.69106)">
      <path class="cls-1" d="M479.27758,929.91305v9.55065a452.221,452.221,0,0,1-288.342-113.29016V816.6229A452.221,452.221,0,0,0,479.27758,929.91305Z"/>
    </clipPath>
    <clipPath id="clip-path-22" transform="translate(-0.00059 -2.69106)">
      <path class="cls-1" d="M479.60159,912.3815v9.55066c-.135,3.97072-.252,7.95034-.297,11.92107-.027,1.87032-.027,3.74039-.027,5.61047v-9.55064c0-1.87008,0-3.74016.027-5.61048C479.34959,920.33185,479.46658,916.35223,479.60159,912.3815Z"/>
    </clipPath>
    <clipPath id="clip-path-23" transform="translate(-0.00059 -2.69106)">
      <path class="cls-1" d="M483.03059,970.47146v9.55065C215.91959,975.60826.00059,760.2573.00059,496.16737v-9.55064C.00059,750.70665,215.91959,966.05761,483.03059,970.47146Z"/>
    </clipPath>
  </defs>
  <title>Asset 1</title>
  <g id="Layer_2" data-name="Layer 2">
    <g id="Laag_1" data-name="Laag 1">
      <g class="cls-2">
        <g class="cls-3">
          <g class="cls-3">
            <g class="cls-4">
              <g class="cls-3">
                <path class="cls-5" d="M490.85159,2.69106v9.55065q-.98552,8.7614-1.764,17.54045V20.23151q.783-8.77473,1.764-17.54045" transform="translate(-0.00059 -2.69106)"/>
              </g>
            </g>
          </g>
          <g class="cls-3">
            <g class="cls-6">
              <g class="cls-3">
                <path class="cls-5" d="M487.33258,43.17842v9.55065q-.54,8.76138-.936,17.54044V60.71886q.3915-8.77455.936-17.54044" transform="translate(-0.00059 -2.69106)"/>
              </g>
            </g>
          </g>
          <g class="cls-3">
            <g class="cls-7">
              <g class="cls-3">
                <path class="cls-5" d="M485.60458,83.66589v9.55065q-.216,8.7614-.315,17.54033v-9.55065q.0945-8.77455.315-17.54033" transform="translate(-0.00059 -2.69106)"/>
              </g>
            </g>
          </g>
          <g class="cls-3">
            <g class="cls-8">
              <g class="cls-3">
                <path class="cls-9" d="M485.28958,101.20622v9.55065a393.15121,393.15121,0,0,0-264.456,107.13042v-9.55065a393.15121,393.15121,0,0,1,264.456-107.13042" transform="translate(-0.00059 -2.69106)"/>
              </g>
            </g>
          </g>
          <polygon class="cls-10" points="224.73 234.283 224.73 243.833 208.251 227.605 208.251 218.054 224.73 234.283"/>
          <rect class="cls-10" x="206.77499" y="457.13196" width="17.892" height="9.55065"/>
          <path class="cls-11" d="M486.60358,205.075q.081,2.69891.144,5.39769.1485,6.06247.297,12.13386c-136.701,2.15378-248.841,105.54381-262.377,237.21653h-17.892C220.38358,318.61347,340.28159,207.45919,486.60358,205.075Z" transform="translate(-0.00059 -2.69106)"/>
          <g class="cls-3">
            <g class="cls-12">
              <g class="cls-3">
                <path class="cls-9" d="M487.04459,222.6065v9.55065A269.20617,269.20617,0,0,0,280.06653,333.8505v-9.55065A269.20617,269.20617,0,0,1,487.04459,222.6065" transform="translate(-0.00059 -2.69106)"/>
                <path class="cls-13" d="M280.06653,324.29985v9.55065a263.7686,263.7686,0,0,0-32.46579,52.48777v-9.55064a263.76867,263.76867,0,0,1,32.46579-52.48778" transform="translate(-0.00059 -2.69106)"/>
                <path class="cls-14" d="M247.60074,376.78763v9.55064a259.1908,259.1908,0,0,0-18.24746,53.88348V430.6711a259.19071,259.19071,0,0,1,18.24746-53.88347" transform="translate(-0.00059 -2.69106)"/>
                <path class="cls-5" d="M229.35328,430.6711v9.55065a259.11408,259.11408,0,0,0-4.6857,29.15193V459.823a259.11408,259.11408,0,0,1,4.6857-29.15193" transform="translate(-0.00059 -2.69106)"/>
              </g>
            </g>
          </g>
          <g class="cls-3">
            <g class="cls-15">
              <g class="cls-3">
                <path class="cls-9" d="M486.04559,182.15448v9.55065A310.521,310.521,0,0,0,247.66265,308.981v-9.55065A310.521,310.521,0,0,1,486.04559,182.15448" transform="translate(-0.00059 -2.69106)"/>
                <path class="cls-13" d="M247.66265,299.43037V308.981a304.2013,304.2013,0,0,0-37.469,60.57716v-9.55064a304.20138,304.20138,0,0,1,37.469-60.57717" transform="translate(-0.00059 -2.69106)"/>
                <path class="cls-14" d="M210.19361,360.00754v9.55064a298.87776,298.87776,0,0,0-21.02767,62.09857V422.1061a298.87767,298.87767,0,0,1,21.02767-62.09856" transform="translate(-0.00059 -2.69106)"/>
                <path class="cls-5" d="M189.16594,422.1061v9.55065a299.66309,299.66309,0,0,0-6.84336,55.23958v-9.55065a299.66309,299.66309,0,0,1,6.84336-55.23958" transform="translate(-0.00059 -2.69106)"/>
              </g>
            </g>
          </g>
          <g class="cls-3">
            <g class="cls-16">
              <g class="cls-3">
                <path class="cls-9" d="M487.85458,263.06729v9.55064a228.01671,228.01671,0,0,0-175.4,86.07769V349.145a228.01666,228.01666,0,0,1,175.4-86.07768" transform="translate(-0.00059 -2.69106)"/>
                <path class="cls-13" d="M312.45455,349.145v9.55065A223.34054,223.34054,0,0,0,284.925,403.18479v-9.55065A223.34083,223.34083,0,0,1,312.45455,349.145" transform="translate(-0.00059 -2.69106)"/>
                <path class="cls-14" d="M284.925,393.63414v9.55065a219.40783,219.40783,0,0,0-15.45213,45.62807v-9.55065A219.40783,219.40783,0,0,1,284.925,393.63414" transform="translate(-0.00059 -2.69106)"/>
                <path class="cls-5" d="M269.4729,439.26221v9.55065a220.34614,220.34614,0,0,0-5.12432,47.35451v-9.55065a220.34614,220.34614,0,0,1,5.12432-47.35451" transform="translate(-0.00059 -2.69106)"/>
              </g>
            </g>
          </g>
          <g class="cls-3">
            <g class="cls-17">
              <g class="cls-3">
                <path class="cls-9" d="M489.08759,20.23151v9.55065a475.6499,475.6499,0,0,0-370.92908,179.6002v-9.55064A475.64988,475.64988,0,0,1,489.08759,20.23151" transform="translate(-0.00059 -2.69106)"/>
                <path class="cls-13" d="M118.15851,199.83172v9.55064a465.91943,465.91943,0,0,0-57.42984,92.80986v-9.55065a465.91936,465.91936,0,0,1,57.42984-92.80985" transform="translate(-0.00059 -2.69106)"/>
                <path class="cls-14" d="M60.72867,292.64157v9.55065a457.72259,457.72259,0,0,0-32.23718,95.19354v-9.55065a457.72279,457.72279,0,0,1,32.23718-95.19354" transform="translate(-0.00059 -2.69106)"/>
                <path class="cls-5" d="M28.49149,387.83511v9.55065a459.66548,459.66548,0,0,0-10.6889,98.78161v-9.55065a459.66548,459.66548,0,0,1,10.6889-98.78161" transform="translate(-0.00059 -2.69106)"/>
              </g>
            </g>
          </g>
          <g class="cls-3">
            <g class="cls-18">
              <g class="cls-3">
                <path class="cls-9" d="M464.68859,142.61551v9.55065a351.66811,351.66811,0,0,0-249.477,131.98951V274.605a351.66809,351.66809,0,0,1,249.477-131.98952" transform="translate(-0.00059 -2.69106)"/>
                <path class="cls-13" d="M215.21156,274.605v9.55064a344.64983,344.64983,0,0,0-42.39293,68.55007v-9.55065A344.64947,344.64947,0,0,1,215.21156,274.605" transform="translate(-0.00059 -2.69106)"/>
                <path class="cls-14" d="M172.81863,343.15509v9.55065a338.58482,338.58482,0,0,0-23.82957,70.36312v-9.55065a338.58482,338.58482,0,0,1,23.82957-70.36312" transform="translate(-0.00059 -2.69106)"/>
                <path class="cls-5" d="M148.98906,413.51821v9.55065a340.00262,340.00262,0,0,0-7.91346,73.09851v-9.55065a340.00268,340.00268,0,0,1,7.91346-73.09851" transform="translate(-0.00059 -2.69106)"/>
              </g>
            </g>
          </g>
          <g class="cls-3">
            <g class="cls-19">
              <g class="cls-3">
                <path class="cls-9" d="M486.39658,60.71886v9.55065a434.34728,434.34728,0,0,0-335.84888,163.993v-9.55065a434.34731,434.34731,0,0,1,335.84888-163.993" transform="translate(-0.00059 -2.69106)"/>
                <path class="cls-13" d="M150.5477,224.71187v9.55065a425.50541,425.50541,0,0,0-52.44931,84.76072v-9.55065a425.50541,425.50541,0,0,1,52.44931-84.76072" transform="translate(-0.00059 -2.69106)"/>
                <path class="cls-14" d="M98.09839,309.47259v9.55065a418.013,418.013,0,0,0-29.43983,86.93214v-9.55065a418.0132,418.0132,0,0,1,29.43983-86.93214" transform="translate(-0.00059 -2.69106)"/>
                <path class="cls-5" d="M68.65856,396.40473v9.55065a419.77526,419.77526,0,0,0-9.762,90.212v-9.55065a419.77526,419.77526,0,0,1,9.762-90.212" transform="translate(-0.00059 -2.69106)"/>
              </g>
            </g>
          </g>
          <g class="cls-3">
            <g class="cls-20">
              <g class="cls-3">
                <path class="cls-9" d="M208.25159,220.7452v9.55064q-13.4719,13.90845-25.51657,29.09755v-9.55065q12.02615-15.17088,25.51657-29.09754" transform="translate(-0.00059 -2.69106)"/>
                <path class="cls-13" d="M182.735,249.84274v9.55065A385.06344,385.06344,0,0,0,135.42217,335.949v-9.55065A385.06372,385.06372,0,0,1,182.735,249.84274" transform="translate(-0.00059 -2.69106)"/>
                <path class="cls-14" d="M135.42217,326.39837V335.949a378.30255,378.30255,0,0,0-26.5731,78.46677v-9.55064a378.30263,378.30263,0,0,1,26.5731-78.46678" transform="translate(-0.00059 -2.69106)"/>
                <path class="cls-5" d="M108.84907,404.86515v9.55064a379.90042,379.90042,0,0,0-8.85846,81.75158v-9.55065a379.90026,379.90026,0,0,1,8.85846-81.75157" transform="translate(-0.00059 -2.69106)"/>
              </g>
            </g>
          </g>
          <rect class="cls-10" x="182.28601" y="492.18617" width="82.233" height="9.55065"/>
          <g class="cls-3">
            <g class="cls-21">
              <g class="cls-3">
                <path class="cls-9" d="M481.12258,727.52929v9.55065c-121.5-4.96347-220.419-97.54033-233.172-215.11162v-9.55064c12.753,117.57128,111.672,210.14814,233.172,215.11161" transform="translate(-0.00059 -2.69106)"/>
              </g>
            </g>
          </g>
          <path class="cls-11" d="M265.86958,512.41768c12.645,107.89259,103.581,192.64316,215.253,197.56227v17.54934c-121.5-4.96347-220.419-97.54033-233.172-215.11161Z" transform="translate(-0.00059 -2.69106)"/>
          <g class="cls-3">
            <g class="cls-22">
              <g class="cls-3">
                <path class="cls-9" d="M223.47059,734.9567v9.55065c-62.091-64.9324-100.197-152.32423-100.197-248.34v-9.55065c0,96.01575,38.106,183.40758,100.197,248.34" transform="translate(-0.00059 -2.69106)"/>
              </g>
            </g>
          </g>
          <g class="cls-3">
            <g class="cls-23">
              <g class="cls-3">
                <path class="cls-9" d="M182.3856,750.50277v9.55064c-62.379-70.7554-100.206-163.04867-100.206-263.886v-9.55065c0,100.83737,37.827,193.13064,100.206,263.88605" transform="translate(-0.00059 -2.69106)"/>
              </g>
            </g>
          </g>
          <polygon class="cls-9" points="195.03 735.421 195.03 744.971 182.385 757.362 182.385 747.812 195.03 735.421"/>
          <polygon class="cls-9" points="235.98 744.736 235.98 754.287 224.811 765.295 224.811 755.744 235.98 744.736"/>
          <g class="cls-3">
            <g class="cls-24">
              <g class="cls-3">
                <path class="cls-9" d="M481.12258,768.00787v9.55065c-144.171-5.0433-261.495-115.68354-274.455-255.5902v-9.55064c12.96,139.90665,130.284,250.54689,274.455,255.59019" transform="translate(-0.00059 -2.69106)"/>
              </g>
            </g>
          </g>
          <path class="cls-11" d="M224.5416,512.41768c12.888,130.23685,122.238,233.042,256.581,238.04974v17.54045c-144.171-5.0433-261.495-115.68354-274.455-255.59019Z" transform="translate(-0.00059 -2.69106)"/>
          <polygon class="cls-9" points="224.811 755.744 224.811 765.295 202.914 786.851 202.914 777.3 224.811 755.744"/>
          <polygon class="cls-9" points="202.914 777.3 202.914 786.851 190.485 799.1 190.485 789.549 202.914 777.3"/>
          <g class="cls-3">
            <g class="cls-25">
              <g class="cls-3">
                <path class="cls-9" d="M177.91261,804.64844v9.55065c-84.33-80.64677-136.818-193.40533-136.818-318.03172v-9.55065c0,124.62639,52.488,237.385,136.818,318.03172" transform="translate(-0.00059 -2.69106)"/>
              </g>
            </g>
          </g>
          <polygon class="cls-9" points="190.485 789.549 190.485 799.1 177.912 811.508 177.912 801.957 190.485 789.549"/>
          <g class="cls-3">
            <g class="cls-26">
              <g class="cls-3">
                <path class="cls-9" d="M481.13158,808.504v9.55065c-175.599-5.36211-316.764-147.68859-316.764-321.88728v-9.55065c0,174.19869,141.165,316.52517,316.764,321.88728" transform="translate(-0.00059 -2.69106)"/>
              </g>
            </g>
          </g>
          <path class="cls-11" d="M485.19058,124.14447c.054,19.3485.405,38.697.855,58.01-164.907,2.77422-298.773,133.29479-303.723,295.1912h11.376l44.748.0089,8.298-.0089c4.914-127.42717,110.709-229.83336,240.813-231.80994q.162,8.76138.297,17.53155c-123.561,1.87019-223.506,101.42245-223.506,223.54943,0,2.76533.072,5.52175.171,8.26051h-82.233c4.374,160.75316,135.855,290.8127,298.836,296.07767v12.64766c0,1.63085.009,3.27059.009,4.90144-175.599-5.36211-316.764-147.68859-316.764-321.88728,0-174.6507,141.894-317.27844,318.123-321.94053V124.19761Q483.84059,124.17093,485.19058,124.14447Z" transform="translate(-0.00059 -2.69106)"/>
          <path class="cls-11" d="M487.33258,43.17842q-.54,8.76138-.936,17.54044c-236.187,2.65016-427.5,192.68752-427.5,425.89786,0,113.4676,45.324,216.68031,119.034,293.09944l16.434-16.18441,12.618-12.382,16.488-16.19307c-62.091-64.9324-100.197-152.32423-100.197-248.34,0-96.66287,38.628-184.58654,101.457-249.64287l-16.479-16.22865c-67.041,69.21328-108.261,162.88915-108.261,265.87152,0,96.02465,35.847,183.94832,95.04,251.49516l-12.645,12.39089c-62.379-70.75541-100.206-163.04868-100.206-263.88605,0-220.30541,180.441-399.893,403.425-402.95083q-.216,8.7614-.315,17.54033a393.15121,393.15121,0,0,0-264.456,107.13042l16.479,16.22865a369.54688,369.54688,0,0,1,227.376-99.51679v17.567c-180.738,13.481-323.613,162.62323-323.613,344.00121,0,186.85537,151.632,339.48976,340.074,344.84321q.0135,8.77455.009,17.54044a369.7132,369.7132,0,0,1-245.178-101.57321l-11.169,11.00816-21.897,21.55566-12.429,12.249-12.573,12.40843c-84.33-80.64676-136.818-193.40533-136.818-318.03172C41.09458,243.42631,240.9036,45.3322,487.33258,43.17842Z" transform="translate(-0.00059 -2.69106)"/>
          <g class="cls-3">
            <g class="cls-27">
              <g class="cls-3">
                <path class="cls-9" d="M481.15858,849.00037V858.551a369.7132,369.7132,0,0,1-245.178-101.57321v-9.55065a369.7132,369.7132,0,0,0,245.178,101.57321" transform="translate(-0.00059 -2.69106)"/>
              </g>
            </g>
          </g>
          <g class="cls-3">
            <g class="cls-28">
              <g class="cls-3">
                <path class="cls-9" d="M480.58258,889.47006v9.55064a410.9582,410.9582,0,0,1-260.568-101.51983v-9.55065a410.95826,410.95826,0,0,0,260.568,101.51984" transform="translate(-0.00059 -2.69106)"/>
              </g>
            </g>
          </g>
          <path class="cls-11" d="M232.6146,775.54155a393.12091,393.12091,0,0,0,248.472,96.397c-.072,5.8408-.261,11.6905-.504,17.53155a410.95826,410.95826,0,0,1-260.568-101.51984Z" transform="translate(-0.00059 -2.69106)"/>
          <g class="cls-3">
            <g class="cls-29">
              <g class="cls-3">
                <path class="cls-5" d="M481.08659,871.93851v9.55064c-.072,5.84081-.261,11.69051-.504,17.53155v-9.55064c.243-5.841.432-11.69075.504-17.53155" transform="translate(-0.00059 -2.69106)"/>
              </g>
            </g>
          </g>
          <path class="cls-11" d="M203.53559,804.20532a434.34774,434.34774,0,0,0,276.066,108.17618c-.135,3.97073-.252,7.95035-.297,11.92108-.027,1.87032-.027,3.7404-.027,5.61047a452.22091,452.22091,0,0,1-288.342-113.29016Z" transform="translate(-0.00059 -2.69106)"/>
          <g class="cls-3">
            <g class="cls-30">
              <g class="cls-3">
                <path class="cls-9" d="M479.27758,929.91305v9.55065a452.221,452.221,0,0,1-288.342-113.29016v-9.55065a452.22091,452.22091,0,0,0,288.342,113.29016" transform="translate(-0.00059 -2.69106)"/>
              </g>
            </g>
          </g>
          <g class="cls-3">
            <g class="cls-31">
              <g class="cls-3">
                <path class="cls-5" d="M479.60159,912.3815v9.55065c-.135,3.97073-.252,7.95035-.297,11.92108-.027,1.87032-.027,3.74039-.027,5.61047v-9.55065c0-1.87007,0-3.74015.027-5.61047.045-3.97073.162-7.95035.297-11.92108" transform="translate(-0.00059 -2.69106)"/>
              </g>
            </g>
          </g>
          <g class="cls-3">
            <g class="cls-32">
              <g class="cls-3">
                <path class="cls-9" d="M483.03059,970.47146v9.55064c-267.111-4.41384-483.03-219.7648-483.03-483.85473v-9.55065c0,264.08993,215.919,479.44089,483.03,483.85474" transform="translate(-0.00059 -2.69106)"/>
              </g>
            </g>
          </g>
          <path class="cls-11" d="M490.85159,2.69106q-.98552,8.7614-1.764,17.54045c-260.082,1.232-471.285,209.97082-471.285,466.38521,0,253.53378,206.478,460.45569,462.528,466.26115a156.0954,156.0954,0,0,0,2.7,17.59359c-267.111-4.41385-483.03-219.76481-483.03-483.85474C.00059,219.95634,220.1496,2.97465,490.85159,2.69106Z" transform="translate(-0.00059 -2.69106)"/>
        </g>
      </g>
    </g>
  </g>
</svg>
