<svg xmlns="http://www.w3.org/2000/svg" width="141.42903" height="104.72958" viewBox="0 0 141.42903 104.72958">
  <defs>
    <style>
      .cls-1 {
        fill: #fff;
      }
    </style>
  </defs>
  <g id="Layer_2" data-name="Layer 2">
    <g id="HOME">
      <g>
        <path class="cls-1" d="M1.18738,31.24105A4.01384,4.01384,0,0,0,.00017,34.06774a3.87257,3.87257,0,0,0,1.18721,2.82669l66.65338,66.65339a3.9715,3.9715,0,0,0,5.61643.037l.037-.037,66.66752-66.65339a3.99977,3.99977,0,1,0-5.46482-5.84194q-.0974.09111-.18856.18856L70.66745,95.06774,6.84076,31.24105a3.98564,3.98564,0,0,0-5.63652-.01687Z"/>
        <path class="cls-1" d="M26.502.80593a2.55241,2.55241,0,0,0-.75495,1.7975,2.46256,2.46256,0,0,0,.75495,1.7975L68.88709,46.786a2.52549,2.52549,0,0,0,3.5715.0235l.0235-.0235L114.87616,4.40093A2.54347,2.54347,0,0,0,111.40106.686q-.06194.05793-.11991.11991L70.68459,41.3935,30.097.80593A2.53447,2.53447,0,0,0,26.51273.7952Z"/>
      </g>
    </g>
  </g>
</svg>
