<svg xmlns="http://www.w3.org/2000/svg" width="81.34075" height="126.94172" viewBox="0 0 81.34075 126.94172">
  <title>Asset 1</title>
  <g id="Layer_2" data-name="Layer 2">
    <g id="Layer_1-2" data-name="Layer 1">
      <g>
        <path d="M.62368,126.09563A111.08436,111.08436,0,0,1,2.50185,90.93908,125.85575,125.85575,0,0,1,14.702,57.79333,122.54727,122.54727,0,0,1,24.28268,42.816,112.98535,112.98535,0,0,1,36.08444,29.47076,91.87129,91.87129,0,0,1,65.62008,9.9407a.951.951,0,0,1,.85712,1.68911A170.54771,170.54771,0,0,0,39.175,32.68066,135.91144,135.91144,0,0,0,27.55453,45.36413,123.83434,123.83434,0,0,0,17.6376,59.47131,109.8783,109.8783,0,0,0,4.43881,91.37261a96.26663,96.26663,0,0,0-1.93458,34.497.94714.94714,0,0,1-1.87774.24976Z"/>
        <path d="M56.29507,1.72381a42.73589,42.73589,0,0,0,5.756.59894,49.48635,49.48635,0,0,0,5.78607-.09339,49.76451,49.76451,0,0,0,5.72394-.77179c1.887-.376,3.74811-.85147,5.5816-1.38806A1.71584,1.71584,0,0,1,81.2189,2.35037l-.10321.25875L79.1921,7.436c-.64667,1.60333-1.32562,3.19027-1.99365,4.78186-.67456,1.58877-1.41321,3.14987-2.22821,4.68582a32.94611,32.94611,0,0,1-2.80249,4.49359.99093.99093,0,0,1-1.38873.18826,1.00567,1.00567,0,0,1-.38935-.84118,25.32265,25.32265,0,0,1,.93567-5.28839,38.92449,38.92449,0,0,1,1.76379-4.9954c.70453-1.618,1.43976-3.2228,2.2483-4.79245.80505-1.57113,1.66644-3.11392,2.56451-4.63458L79.87484,3.573c-1.99542.26346-3.99738.42423-5.99341.52014-1.99542.101-3.98529.15757-5.97113.1496-1.98559.00815-3.96686-.06668-5.94488-.16541-1.97809-.11032-3.95014-.28973-5.92578-.47671a.9479.9479,0,0,1,.17669-1.88754C56.242,1.71548,56.27017,1.71944,56.29507,1.72381Z"/>
      </g>
    </g>
  </g>
</svg>
