<svg xmlns="http://www.w3.org/2000/svg" width="245" height="245" viewBox="0 0 245 245">
  <defs>
    <style>
      .cls-1 {
        fill: #fff;
      }
    </style>
  </defs>
  <g id="Layer_2" data-name="Layer 2">
    <g id="PROJECTS">
      <g>
        <path class="cls-1" d="M58.25539,107.54421a5.40342,5.40342,0,0,0,.62832-2.80067,16.47766,16.47766,0,0,0-1.71447-6.32544,8.46966,8.46966,0,0,0-3.97206-3.972h-.27687q-.4581,0-1.08615,1.53344a7.04821,7.04821,0,0,0-.44729,2.43856v.99036q0,.85206-.08517,1.72513.10632,3.34392.71349,3.34375a1.06325,1.06325,0,0,1,.36205.71349,12.08828,12.08828,0,0,1-2.5238.7241q0,.09585-1.001.362,0,.36234,2.2682,1.54411a8.58836,8.58836,0,0,0,3.61.99036Q57.45666,108.81145,58.25539,107.54421Z"/>
        <path class="cls-1" d="M23.25788,136.26332q-.12787,0-.26627.27687-.213,4.53637-.08518,7.67779,0,1.53348.71349,1.53351a4.956,4.956,0,0,0,2.08719.54307,5.75172,5.75172,0,0,0,1.53343-4.06791q0-2.27832-2.53447-5.14339A3.04574,3.04574,0,0,0,23.25788,136.26332Z"/>
        <path class="cls-1" d="M73.39813,101.51692a17.48788,17.48788,0,0,0-2.61965-2.07651,2.19885,2.19885,0,0,0-.181.7241.7563.7563,0,0,0,.08517.36211l-.181,3.16272a3.0127,3.0127,0,0,1,.09585.80928v.362h.08517a16.6024,16.6024,0,0,0,1.81031-2.25754A6.51553,6.51553,0,0,0,73.39813,101.51692Z"/>
        <path class="cls-1" d="M39.12471,136.52952q-.31945,0-.46323,1.57606-.14377,1.57625-.16508,3.3863,0,3.44005,1.71446,4.24893a1.83108,1.83108,0,0,0,.99036.4579q.78774-.06393.63892-8.40195Q41.84014,137.28559,39.12471,136.52952Z"/>
        <path class="cls-1" d="M104.37042,136.52952q-.31946,0-.46323,1.57606-.14377,1.57625-.16508,3.3863,0,3.44005,1.71446,4.24893a1.83126,1.83126,0,0,0,.99036.4579q.78783-.06393.63892-8.40195Q107.08585,137.28559,104.37042,136.52952Z"/>
        <path class="cls-1" d="M90.59077,142.31189a3.31621,3.31621,0,0,0-1.26724-.54314q-2.70489-.1917-5.68652,4.69616a8.92625,8.92625,0,0,0-.90512,3.4396v.54313q0,2.66172,3.06687,4.05718l.90512.09584h1.44826q1.9059,0,4.06791-2.80067a9.4867,9.4867,0,0,0,.9903-3.88682A6.75558,6.75558,0,0,0,90.59077,142.31189Z"/>
        <path class="cls-1" d="M195.32812,104.49862v.362h.08517a16.62237,16.62237,0,0,0,1.81031-2.25754,6.53206,6.53206,0,0,0,.90519-1.08621,17.51164,17.51164,0,0,0-2.61965-2.07651,2.19222,2.19222,0,0,0-.181.7241.75332.75332,0,0,0,.08517.36211l-.181,3.16272A3.0127,3.0127,0,0,1,195.32812,104.49862Z"/>
        <path class="cls-1" d="M179.82333,108.02339a26.17436,26.17436,0,0,0,3.07754,1.54411,5.80324,5.80324,0,0,0,.181-1.54411,22.10187,22.10187,0,0,0-2.44923-9.66919h-.17042a2.73169,2.73169,0,0,0-1.363,2.26827q-.08566.69228,0,5.68646Q179.09923,107.6507,179.82333,108.02339Z"/>
        <path class="cls-1" d="M130.24215,107.39514q2.08662-1.66124,2.08718-2.35338.26571-4.9518.2662-5.9634,0-.87311-3.06687-1.17139-.91629.11728-.8679,2.758a18.04847,18.04847,0,0,1-.03729,2.75806Q128.93206,107.39534,130.24215,107.39514Z"/>
        <path class="cls-1" d="M131.50932,113.98678q0,.1169,1.08621.27688h.4579a4.93174,4.93174,0,0,0,.99036-.80934v-.09579q-1.81083-2.64105-1.81031-4.06791l-.181-.08517a14.49217,14.49217,0,0,0-2.88585,2.70482,2.31947,2.31947,0,0,0-.72416,1.363Q128.44245,113.50747,131.50932,113.98678Z"/>
        <path class="cls-1" d="M96.71918,101.95354h.181a7.40467,7.40467,0,0,0,.99037-3.791q0-.43636.181-4.06791l-.08517-.4579a.656.656,0,0,1,.08517-.2662,7.64764,7.64764,0,0,1-.08517-1.001V91.9223q0-.22362-.362-.2662-.90542.30888-.90519.44722v.54308a21.84546,21.84546,0,0,0,.181,3.16272l-.09584.181a36.43127,36.43127,0,0,1,.181,4.15309v.54307Q96.719,101.86839,96.71918,101.95354Z"/>
        <path class="cls-1" d="M114.20463,104.49862v.362h.08524a16.61161,16.61161,0,0,0,1.81031-2.25754,6.5184,6.5184,0,0,0,.90512-1.08621,17.48636,17.48636,0,0,0-2.61958-2.07651,2.19781,2.19781,0,0,0-.18109.7241.75564.75564,0,0,0,.08524.36211l-.181,3.16272A3.01573,3.01573,0,0,1,114.20463,104.49862Z"/>
        <path class="cls-1" d="M140.3421,135.52855a2.73186,2.73186,0,0,0-1.363,2.26821q-.08567.69267,0,5.68645,0,1.34178.7241,1.71453a26.17508,26.17508,0,0,0,3.07754,1.544,5.80406,5.80406,0,0,0,.181-1.544,22.1023,22.1023,0,0,0-2.44923-9.66919Z"/>
        <path class="cls-1" d="M187.29308,136.26332c-.08524,0-.1743.09242-.26626.27687q-.21343,4.53637-.08518,7.67779,0,1.53348.71349,1.53351a4.95592,4.95592,0,0,0,2.08718.54307,5.75168,5.75168,0,0,0,1.53344-4.06791q0-2.27832-2.53447-5.14339A3.0469,3.0469,0,0,0,187.29308,136.26332Z"/>
        <path class="cls-1" d="M172.23552,137.13649h-.181q-.18153,2.56665-.181,6.14442v1.182q0,.91628,1.35241,1.35241a3.8446,3.8446,0,0,0,1.72514.62831h.44722q.54308,0,.82-2.34277A9.36481,9.36481,0,0,0,173.95,138.2227Q172.73608,137.13646,172.23552,137.13649Z"/>
        <path class="cls-1" d="M149.18647,101.51692a17.51116,17.51116,0,0,0-2.61958-2.07651,2.192,2.192,0,0,0-.181.7241.75321.75321,0,0,0,.08518.36211l-.181,3.16272a3.0127,3.0127,0,0,1,.09585.80928v.362h.08518a16.62853,16.62853,0,0,0,1.81031-2.25754A6.52861,6.52861,0,0,0,149.18647,101.51692Z"/>
        <path class="cls-1" d="M202.35058,137.33886a.75316.75316,0,0,0,.08518.362l-.181,3.16272a3.014,3.014,0,0,1,.09585.80927v.36212h.08518a16.61054,16.61054,0,0,0,1.81031-2.2576,6.53425,6.53425,0,0,0,.90519-1.08615,17.50761,17.50761,0,0,0-2.61965-2.07657A2.19342,2.19342,0,0,0,202.35058,137.33886Z"/>
        <path class="cls-1" d="M122.5,0A122.5,122.5,0,1,0,245,122.5,122.5,122.5,0,0,0,122.5,0Zm69.38852,96.91661q2.77939-1.874,4.52581-3.25857h.2662q.79869,0,1.99133,1.44826l4.43,3.88688v.2662q0,.54308-1.18206,1.53344a11.28564,11.28564,0,0,1-2.16169,2.26821,30.81294,30.81294,0,0,1-2.81134,3.16272,2.52367,2.52367,0,0,0-.44723.62831,12.3222,12.3222,0,0,0,3.60995,1.17133q2.26824.21313,2.26821.639v.181q0,.44722-1.544,2.16169a7.0609,7.0609,0,0,1-1.17138,1.44826q-.88438,1.35234-1.53344,1.35241a29.95941,29.95941,0,0,1-3.88689-1.89549,23.76437,23.76437,0,0,1-3.88682-1.7997,1.40407,1.40407,0,0,1-.09584-1.08615,58.22359,58.22359,0,0,0-.08518-10.39335Q190.17406,97.53435,191.88852,96.91661Zm-15.59,1.43759q3.25852-1.55442,3.25857-2.43856v-.08518a50.67171,50.67171,0,0,0-3.52478-5.154q0-.7239,1.72514-1.85294a5.625,5.625,0,0,1,2.52373-1.12876h.08525a20.63672,20.63672,0,0,1,3.52477,5.05821,9.61142,9.61142,0,0,1,1.26717,2.17235,13.43354,13.43354,0,0,1,1.26723,2.61965,34.08139,34.08139,0,0,1,2.2576,8.85985v.54308q0,.85206-1.54411,1.89555a44.86888,44.86888,0,0,0-4.69615,5.50543l-.90519.27687a25.69853,25.69853,0,0,1-6.59165-3.43959,2.9088,2.9088,0,0,1-.81994-1.25657,31.54425,31.54425,0,0,0-.08518-10.48913Q174.041,98.80149,176.29856,98.3542Zm-52.82914,18.62495a36.77479,36.77479,0,0,0,2.35344-3.43959,2.61365,2.61365,0,0,0,.62825-1.08621,12.26849,12.26849,0,0,0-2.25753-1.89549,1.35878,1.35878,0,0,1-.63892-1.08621,53.62561,53.62561,0,0,0,.213-7.83227q-.21352-2.24127-.213-2.742a6.42533,6.42533,0,0,1,1.72507-1.08622,42.37092,42.37092,0,0,1,3.88688-2.5238q2.364-1.81,2.88585-1.81031h.27687a20.70752,20.70752,0,0,1,3.42893.99037,25.10159,25.10159,0,0,1,3.80164,1.18206.61533.61533,0,0,1,.181.362,33.32165,33.32165,0,0,0-1.26723,3.70579q-.82044.3834-.82.90519v5.96333a4.81329,4.81329,0,0,0,1.001,2.61965,2.802,2.802,0,0,1,.9903,1.79964q0,.10641-4.33412,4.43-3.14163,3.62049-3.43952,3.80165h-.62832a28.27243,28.27243,0,0,0-7.04954-1.363,1.26306,1.26306,0,0,1-.72416-.54314ZM110.7651,96.91661q2.7793-1.874,4.52574-3.25857h.2662q.79871,0,1.9914,1.44826l4.43016,3.88688v.2662q0,.54308-1.18226,1.53344a11.285,11.285,0,0,1-2.16175,2.26821,30.8065,30.8065,0,0,1-2.81128,3.16272,2.52269,2.52269,0,0,0-.44729.62831,12.32185,12.32185,0,0,0,3.61,1.17133q2.26815.21313,2.26821.639v.181q0,.44722-1.54411,2.16169a7.06119,7.06119,0,0,1-1.17139,1.44826q-.884,1.35234-1.53344,1.35241a29.95745,29.95745,0,0,1-3.88681-1.89549,23.7673,23.7673,0,0,1-3.88689-1.7997,1.40386,1.40386,0,0,1-.09578-1.08615,58.20529,58.20529,0,0,0-.08524-10.39335Q109.05058,97.53435,110.7651,96.91661ZM88.58343,109.63139a23.5261,23.5261,0,0,0,3.88688-4.78133,9.67847,9.67847,0,0,0,.90512-3.07755A31.05469,31.05469,0,0,0,91.661,94.542a6.46037,6.46037,0,0,1-.36205-1.81031v-.181q0-.71341,2.16169-1.35241a60.1176,60.1176,0,0,1,8.67889-3.16272,7.69257,7.69257,0,0,1,2.35339-.72416q.66.06393,1.53343,1.18206.7239.33033.7241.62824-.24505.80958-2.17236.80934a.92638.92638,0,0,0-.44722-.08517q-1.44849.36225-1.44826.54307.2661,5.1009.2662,7.23057a4.11971,4.11971,0,0,1-1.71446,3.16272,59.71564,59.71564,0,0,1-5.78238,5.32447,2.11966,2.11966,0,0,0-.362.4579v.181a34.72455,34.72455,0,0,1,8.13575,1.62929,10.19338,10.19338,0,0,0,1.44826.17035h2.25753q.62807,0,.62832.54314-2.17239,3.39687-2.17236,3.52477-1.23544,1.4481-1.43759,1.44826l-.54314.09585a71.3697,71.3697,0,0,0-6.78334-2.26827,51.90014,51.90014,0,0,0-7.41159-1.43759q-.62844-.33033-.62831-.4579Zm-56.913,29.89043a11.88051,11.88051,0,0,1-.81995,3.06694,43.01343,43.01343,0,0,1-3.16272,4.70677l-1.71446,2.07657q-1.30977,1.98071-2.07651,1.98067-.13873,0-3.16273-1.71447-1.9382-.72459-3.62061-1.17138v-.181A4.08884,4.08884,0,0,0,18.3274,145.251a55.90168,55.90168,0,0,0-.05856-6.54909q-.20762-2.25727-.69749-2.25754-1.08624-1.19256-1.08621-1.53343a5.27638,5.27638,0,0,1,1.53344-2.53448q.84119-1.2564,1.001-1.25656h.08518a19.38826,19.38826,0,0,0,3.70579,2.80067.60654.60654,0,0,0,.62832.36205q.70275,0,3.07748-2.89645a.75873.75873,0,0,1,.36211-.08525h.08518q3.54607,3.81258,4.06784,5.78237a4.43319,4.43319,0,0,1,.63893,2.34278Zm14.68484,10.46786q-1.01173,1.352-1.53344,1.35241-.63893,0-1.81031-1.89548l-.80934-.80934h-.36205a23.40565,23.40565,0,0,0-2.80067,2.34278,2.278,2.278,0,0,1-.7241.27687h-.36205a38.66167,38.66167,0,0,0-4.42995-3.16272,1.0977,1.0977,0,0,1-.362-.7241,30.98622,30.98622,0,0,0,.181-10.21233q0-.64909,1.08621-1.17132a42.59641,42.59641,0,0,0,5.86749-4.792h.36211q.15968,0,3.88682,1.81031,3.365,1.71459,3.52477,1.71446l.181.2662v.181a6.82252,6.82252,0,0,1-1.17138,1.8103q-.09576.68181-.181,1.89556,0,6.60275.72417,6.60231,0,.33033.99029.80928a1.07051,1.07051,0,0,1,.18109.54307Q48.7939,147.47606,46.35528,149.98968Zm-3.18934-39.46377a1.32479,1.32479,0,0,1-1.26723-.62831v-.362q3.88659-3.56714,3.88688-4.52574a21.64913,21.64913,0,0,0,.36205-5.32448l.08518-.63892a4.55683,4.55683,0,0,0-1.71446-3.52477v-.181q0-.607,3.16272-.89452a10.32422,10.32422,0,0,0,2.80067-1.001,6.92034,6.92034,0,0,0-3.97206-.99029q0-.15978-.90519-.181H44.25216l-.54314.08518q-1.182-.11689-1.182-.62832a3.05205,3.05205,0,0,1,1.182-1.26717q4.1422-3.24766,5.23929-3.248h.181q8.31664,2.5452,11.11738,5.5055a13.10906,13.10906,0,0,1,3.06694,6.32544q.27658,1.90629.4579,2.63026v1.07554a4.94835,4.94835,0,0,0,.181,1.26723,6.41711,6.41711,0,0,1-1.81031,2.9817,56.61407,56.61407,0,0,1-5.9634,5.60128q-1.87437,1.62932-2.61965,1.62929-.213,0-4.42989-1.99134A31.073,31.073,0,0,0,43.16594,110.52591ZM65.651,149.40405q-1.4056,1.99078-1.99133,1.99134-.55395,0-2.80068-1.81031-.9903-.3413-.9903-.99037v-.181a68.60363,68.60363,0,0,0,.44723-7.86955q0-3.60992-.7241-3.60995a5.08435,5.08435,0,0,0-2.07657-.72416q-.80947,0-.80928,3.791-.09585,2.396,0,4.792a2.01211,2.01211,0,0,0,1.25657,2.17236l.09584.36205a24.24156,24.24156,0,0,1-2.98169,3.97206h-.54308a8.38607,8.38607,0,0,1-2.61965-1.61868q-.50058,0-1.44826-1.44819a4.67851,4.67851,0,0,0,.80934-2.53448,49.28648,49.28648,0,0,0,.362-8.31678,2.73713,2.73713,0,0,0-.54307-.99036q-.59653,0-.80934-.9903a11.09821,11.09821,0,0,1,1.81031-1.90616,10.483,10.483,0,0,1,1.44826-1.71446q0-.44732.62825-.44729.46838,0,2.80067,2.43863a.65444.65444,0,0,1,.36205.181h.54314a25.28492,25.28492,0,0,0,2.88585-2.35338l.36205-.26627h.4579q.46827,0,2.43855,1.71446a6.078,6.078,0,0,1,2.17243,1.44826A38.49379,38.49379,0,0,0,65.47,141.2683q-.3089,4.82392.72416,4.88779.9903.33044.9903.99036A7.90537,7.90537,0,0,1,65.651,149.40405Zm9.28053-36.9507q-.884,1.35234-1.53344,1.35241a29.95642,29.95642,0,0,1-3.88682-1.89549,23.76371,23.76371,0,0,1-3.88688-1.7997,1.40406,1.40406,0,0,1-.09585-1.08615,58.19823,58.19823,0,0,0-.08518-10.39335q0-1.09672,1.71446-1.71446,2.77939-1.874,4.52581-3.25857h.2662q.7987,0,1.99133,1.44826l4.43,3.88688v.2662q0,.54308-1.18206,1.53344a11.28575,11.28575,0,0,1-2.16168,2.26821,30.814,30.814,0,0,1-2.81135,3.16272,2.52345,2.52345,0,0,0-.44722.62831,12.32216,12.32216,0,0,0,3.60994,1.17133q2.26824.21313,2.26828.639v.181q0,.44722-1.54411,2.16169A7.06119,7.06119,0,0,1,74.93157,112.45335ZM92.7099,154.68584a12.12408,12.12408,0,0,1-9.07289,3.07755,3.87529,3.87529,0,0,1-3.759-3.19467,15.60958,15.60958,0,0,1,.86256-7.56067,17.90077,17.90077,0,0,1,3.07748-4.24893,22.81035,22.81035,0,0,1,3.61-3.2479v-.181a18.90759,18.90759,0,0,0-4.43-2.53447q-.41532-.16986-.44723-.362v-.2662a27.91115,27.91115,0,0,1,3.52477-2.35345,18.25223,18.25223,0,0,0,2.9817-2.88585v-.09578q0-.1489-1.22461-.4739a17.01334,17.01334,0,0,0-9.62664.83595h-.44723q-.36234-.18082-.362-.44729a34.15494,34.15494,0,0,1,1.89548-3.34375l1.44826-3.34374.44723-.09585h.45789a33.57909,33.57909,0,0,0,4.611.99036,76.92966,76.92966,0,0,0,9.21129.90519h.181a.93991.93991,0,0,1,.81994.54307,15.67073,15.67073,0,0,1-2.9817,3.07755,31.16718,31.16718,0,0,0-3.16272,3.52477A7.32269,7.32269,0,0,0,92.039,134.453a10.84214,10.84214,0,0,1,3.06687,3.69512,15.879,15.879,0,0,1,1.81031,6.05925Q97.59763,149.8721,92.7099,154.68584Zm18.89109-4.69616q-1.01173,1.352-1.53344,1.35241-.63891,0-1.81031-1.89548l-.80927-.80934h-.36212a23.4003,23.4003,0,0,0-2.8006,2.34278,2.27875,2.27875,0,0,1-.72417.27687h-.362a38.663,38.663,0,0,0-4.43-3.16272,1.0977,1.0977,0,0,1-.362-.7241,30.98433,30.98433,0,0,0,.181-10.21233q0-.64909,1.08621-1.17132a42.59547,42.59547,0,0,0,5.86755-4.792h.362q.15968,0,3.88682,1.81031,3.365,1.71459,3.52477,1.71446l.18109.2662v.181a6.82454,6.82454,0,0,1-1.17139,1.8103q-.09585.68181-.181,1.89556,0,6.60275.7241,6.60231,0,.33033.99036.80928a1.07092,1.07092,0,0,1,.181.54307Q114.03961,147.47606,111.601,149.98968Zm19.29556-.58563q-1.40569,1.99078-1.99133,1.99134-.55325,0-2.80067-1.81031-.9903-.3413-.99037-.99037v-.181a68.58774,68.58774,0,0,0,.44729-7.86955q0-3.60992-.72416-3.60995a5.08411,5.08411,0,0,0-2.07651-.72416q-.80888,0-.80908,3.791-.09585,2.396,0,4.792a2.01254,2.01254,0,0,0,1.2563,2.17236l.09585.36205a24.21111,24.21111,0,0,1-2.98143,3.97206h-.54308a8.386,8.386,0,0,1-2.61964-1.61868q-.50059,0-1.44827-1.44819a4.67792,4.67792,0,0,0,.80934-2.53448,49.28648,49.28648,0,0,0,.362-8.31678,2.73713,2.73713,0,0,0-.54307-.99036q-.59643,0-.80934-.9903a11.09821,11.09821,0,0,1,1.81031-1.90616,10.483,10.483,0,0,1,1.44826-1.71446q0-.44732.62832-.44729.46827,0,2.80041,2.43863a.65386.65386,0,0,1,.362.181h.54308a25.30619,25.30619,0,0,0,2.88585-2.35338l.362-.26627h.45789q.46907,0,2.43863,1.71446a6.06662,6.06662,0,0,1,2.17236,1.44826,38.52206,38.52206,0,0,0-.7241,6.77274q-.30928,4.82392.7241,4.88779.99039.33044.99036.99036A7.91709,7.91709,0,0,1,130.89655,149.40405ZM148.563,144.1222q0,.85236-1.544,1.89549a44.85329,44.85329,0,0,0-4.69616,5.50543l-.90519.27687a25.70742,25.70742,0,0,1-6.59165-3.43953,2.91077,2.91077,0,0,1-.81994-1.25663,31.54282,31.54282,0,0,0-.08524-10.48913q0-.63893,2.2576-1.08615,3.25852-1.55453,3.25857-2.43863v-.08517a50.684,50.684,0,0,0-3.52477-5.15406q0-.7239,1.72506-1.85293a5.62526,5.62526,0,0,1,2.5238-1.12877h.08518a20.63308,20.63308,0,0,1,3.52477,5.05821,9.61,9.61,0,0,1,1.26724,2.17236,13.4354,13.4354,0,0,1,1.26723,2.61965,34.08211,34.08211,0,0,1,2.25754,8.85985Zm.62344-30.31644a29.96152,29.96152,0,0,1-3.88682-1.89549,23.76437,23.76437,0,0,1-3.88682-1.7997,1.40347,1.40347,0,0,1-.09585-1.08615,58.22915,58.22915,0,0,0-.08517-10.39335q0-1.09672,1.71446-1.71446,2.77929-1.874,4.52574-3.25857h.26626q.79861,0,1.99134,1.44826l4.42989,3.88688v.2662q0,.54308-1.182,1.53344a11.28493,11.28493,0,0,1-2.16176,2.26821,30.8065,30.8065,0,0,1-2.81128,3.16272,2.52494,2.52494,0,0,0-.44729.62831,12.3219,12.3219,0,0,0,3.61,1.17133q2.26824.21313,2.2682.639v.181q0,.44722-1.54411,2.16169a7.05835,7.05835,0,0,1-1.17138,1.44826Q149.83563,113.80569,149.18647,113.80576Zm12.79417,35.09778-1.81031,2.98169a58.64755,58.64755,0,0,1-4.33411,5.15406,6.79988,6.79988,0,0,1-1.99134.36205l-.2662-.36205V156.592a16.12216,16.12216,0,0,0,4.15309-4.52574,15.34069,15.34069,0,0,0,2.35338-6.59165l-.09585-.18109a.0847.0847,0,0,1,.09585-.09578,13.77589,13.77589,0,0,0-1.99133-6.41069,12.04759,12.04759,0,0,0-1.79971-2.25753h-.181a60.78764,60.78764,0,0,0,.08524,8.03991,6.29715,6.29715,0,0,0,2.07651,1.71446l.09585.181v.27687a14.76445,14.76445,0,0,1-2.07658,2.2576q0,.23379-.7241.80928-1.02231,1.35195-1.44826,1.35241a17.16038,17.16038,0,0,1-4.06784-2.88585v-.181a6.91994,6.91994,0,0,0,.62825-2.43856q.40444-9.62612.181-15.00434-.18152-1.92723-.44722-3.60995,0-.67083,1.89548-1.26723,2.57683-1.49059,3.52478-2.17236a.54354.54354,0,0,1,.80933.63892v.26627a76.12357,76.12357,0,0,0-.62831,7.67785q.0422,1.182.27687,1.182a35.69593,35.69593,0,0,1,3.248-2.53441q0-.15978.44722-.18109.84079,0,3.25857,4.87725a28.57911,28.57911,0,0,1,1.81031,5.60128l.08518.4579Q165.11144,142.75964,161.98064,148.90354Zm3.25376-37.48311v-.181a68.607,68.607,0,0,0,.44722-7.86955q0-3.61-.7241-3.60995a5.08463,5.08463,0,0,0-2.07657-.72416q-.80958,0-.80928,3.791-.09584,2.396,0,4.792a2.01249,2.01249,0,0,0,1.25657,2.17236l.09585.362a24.23594,24.23594,0,0,1-2.9817,3.97206h-.54314a8.38064,8.38064,0,0,1-2.61958-1.61868q-.501,0-1.44826-1.44819a4.68073,4.68073,0,0,0,.80934-2.53447,49.31674,49.31674,0,0,0,.362-8.31678,2.73629,2.73629,0,0,0-.54313-.99037q-.59684,0-.80928-.9903a11.08487,11.08487,0,0,1,1.81031-1.90615,10.479,10.479,0,0,1,1.44826-1.71446q0-.44733.62825-.44729.46837,0,2.80068,2.43862a.65522.65522,0,0,1,.362.181h.54308a25.3035,25.3035,0,0,0,2.88585-2.35344l.36211-.2662h.4579q.46827,0,2.43856,1.71446a6.07717,6.07717,0,0,1,2.17235,1.44826,38.47647,38.47647,0,0,0-.72409,6.77267q-.30928,4.824.72409,4.88785.99041.33033.99037.99037a7.9164,7.9164,0,0,1-1.53344,2.25753q-1.4056,1.99127-1.99133,1.9914-.554,0-2.80068-1.81038Q165.23441,112.06992,165.2344,111.42043Zm15.13687,31.59428a48.81945,48.81945,0,0,1-4.69616,5.69713q-2.03444,2.4381-2.71543,2.43862a13.83548,13.83548,0,0,1-4.15308-1.62928q-2.17239-.72459-2.17236-1.44826v-.181a11.83714,11.83714,0,0,0,.44722-3.24789v-2.2576l.09585-.54308q-.09585-.40443-.27687-3.62062v-.72416q0-.12777-.181-1.43759,0-.48972,2.08718-1.544,2.14036-1.59741,3.791-2.9817.39357-.7239.90519-.72416.95838.11729,4.06784,3.16272a13.60252,13.60252,0,0,1,2.5238,4.70683q.27668,2.70528.27687,3.42892Zm15.33437-3.49289a11.88034,11.88034,0,0,1-.81994,3.06694,43.01343,43.01343,0,0,1-3.16272,4.70677l-1.71446,2.07657q-1.30986,1.98071-2.07651,1.98067-.13873,0-3.16273-1.71447-1.9386-.72459-3.62062-1.17138v-.181a4.0888,4.0888,0,0,0,1.21395-3.03492,55.91463,55.91463,0,0,0-.05857-6.54909q-.2076-2.25727-.69748-2.25754-1.08624-1.19256-1.08621-1.53343a5.27638,5.27638,0,0,1,1.53344-2.53448q.8408-1.2564,1.001-1.25656H183.14a19.386,19.386,0,0,0,3.70579,2.80067.60653.60653,0,0,0,.62832.36205q.70275,0,3.07748-2.89645a.75853.75853,0,0,1,.36211-.08525h.08518q3.54608,3.81258,4.06784,5.78237a4.43318,4.43318,0,0,1,.63892,2.34278Zm14.41865-3.08815q0,.54307-1.18206,1.53344a11.28363,11.28363,0,0,1-2.16169,2.2682,30.8138,30.8138,0,0,1-2.81134,3.16273,2.52367,2.52367,0,0,0-.44723.62831,12.31793,12.31793,0,0,0,3.60995,1.17139q2.26824.21344,2.2682.63892v.181q0,.44723-1.544,2.16168a7.06058,7.06058,0,0,1-1.17139,1.44826q-.88437,1.35195-1.53343,1.35242a29.99189,29.99189,0,0,1-3.88689-1.89549,23.775,23.775,0,0,1-3.88682-1.79964,1.40433,1.40433,0,0,1-.09585-1.08621,58.22189,58.22189,0,0,0-.08517-10.39329q0-1.09671,1.71446-1.71453,2.7794-1.87387,4.5258-3.2585h.2662q.7987,0,1.99134,1.4482l4.43,3.88688Zm14.8658,14.96172q-.554,0-2.80061-1.81031-.99039-.3413-.99036-.99037v-.181a68.60364,68.60364,0,0,0,.44722-7.86955q0-3.60992-.72409-3.60995a5.08448,5.08448,0,0,0-2.07651-.72416q-.80958,0-.80934,3.791-.09585,2.396,0,4.792a2.01211,2.01211,0,0,0,1.25656,2.17236l.09585.36205a24.24157,24.24157,0,0,1-2.9817,3.97206H215.864a8.37975,8.37975,0,0,1-2.61965-1.61868q-.501,0-1.44826-1.44819a4.68018,4.68018,0,0,0,.80934-2.53448,49.31609,49.31609,0,0,0,.36205-8.31678,2.73718,2.73718,0,0,0-.54308-.99036q-.59682,0-.80934-.9903a11.08813,11.08813,0,0,1,1.81031-1.90616,10.483,10.483,0,0,1,1.44826-1.71446q0-.44732.62825-.44729.46837,0,2.80068,2.43863a.65522.65522,0,0,1,.362.181h.54314a25.31258,25.31258,0,0,0,2.88585-2.35338l.36205-.26627h.4579q.46827,0,2.43862,1.71446a6.07806,6.07806,0,0,1,2.17236,1.44826,38.4736,38.4736,0,0,0-.72416,6.77274q-.30928,4.82392.72416,4.88779.9903.33044.9903.99036a7.91574,7.91574,0,0,1-1.53344,2.2576Q225.57582,151.39484,224.99009,151.39539Z"/>
      </g>
    </g>
  </g>
</svg>
