<svg xmlns="http://www.w3.org/2000/svg" width="15.9567" height="34.3473" viewBox="0 0 15.9567 34.3473">
  <defs>
    <style>
      .cls-1 {
        fill: #000;
        fill-rule: evenodd;
      }
    </style>
  </defs>
  <title>Asset 2</title>
  <g id="Layer_2" data-name="Layer 2">
    <g id="Layer_1-2" data-name="Layer 1">
      <path class="cls-1" d="M3.5159,17.3089V33.9148a.43246.43246,0,0,0,.4324.4325h6.1668a.43246.43246,0,0,0,.4325-.4324V17.0384h4.4707a.43259.43259,0,0,0,.431-.3961l.4299-5.0848a.43247.43247,0,0,0-.3944-.46745q-.01825-.00156-.0366-.00155H10.5476V7.4808a1.531,1.531,0,0,1,1.5309-1.5309h3.4456a.4326.4326,0,0,0,.4326-.4325V.4325A.43254.43254,0,0,0,15.52412,0H9.7021A6.18619,6.18619,0,0,0,3.5159,6.18618V11.0885H.4325A.43244.43244,0,0,0,0,11.5209v5.085a.43244.43244,0,0,0,.4324.4325H3.5159Z"/>
    </g>
  </g>
</svg>
