<svg xmlns="http://www.w3.org/2000/svg" width="16.6441" height="35.82696" viewBox="0 0 16.6441 35.82696">
  <defs>
    <style>
      .cls-1 {
        fill: #000;
        fill-rule: evenodd;
      }
    </style>
  </defs>
  <g id="Layer_2" data-name="Layer 2">
    <g id="Layer_1-2" data-name="Layer 1">
      <g id="Layer_2-2" data-name="Layer 2">
        <g id="Layer_1-2-2" data-name="Layer 1-2">
          <path class="cls-1" d="M3.66736,18.05456V35.37583a.4511.4511,0,0,0,.451.45113h6.43246a.45109.45109,0,0,0,.45113-.451V17.7724h4.6633a.4512.4512,0,0,0,.44956-.41316l.44842-5.30385a.4511.4511,0,0,0-.41139-.48759h0q-.019-.00162-.03817-.00161H11.002V7.80307a1.597,1.597,0,0,1,1.59685-1.59685h3.594a.45122.45122,0,0,0,.45123-.45113V.45113A.45118.45118,0,0,0,16.19289,0H10.12006a6.45269,6.45269,0,0,0-6.4527,6.45268v5.11351H.45113A.45105.45105,0,0,0,0,12.01719v5.30408a.45106.45106,0,0,0,.451.45113H3.66736Z"/>
        </g>
      </g>
    </g>
  </g>
</svg>
