<svg xmlns="http://www.w3.org/2000/svg" width="245" height="245" viewBox="0 0 245 245">
  <defs>
    <style>
      .cls-1 {
        fill: #fff;
      }
    </style>
  </defs>
  <g id="Layer_2" data-name="Layer 2">
    <g id="PROJECTS">
      <path class="cls-1" d="M122.5,0A122.5,122.5,0,1,0,245,122.5,122.5,122.5,0,0,0,122.5,0Zm59.30458,64.79493-.001.02668h.001A14.82018,14.82018,0,0,1,166.9843,79.64229H154.5286a13.15073,13.15073,0,0,0-13.151,13.15074v23.40623H159.6509a7.41069,7.41069,0,0,1,7.394,7.90381,7.57893,7.57893,0,0,1-7.64814,6.91667h-9.32783a8.69147,8.69147,0,0,0-8.69134,8.69161V171.044a10.36612,10.36612,0,0,0,10.36588,10.36529,14.77148,14.77148,0,0,1-14.77107,14.77108H108.09051A14.77122,14.77122,0,0,1,93.3197,181.40933a10.82459,10.82459,0,0,0,10.82444-10.82424V139.71135a8.69185,8.69185,0,0,0-8.69134-8.69161H85.42024a7.41025,7.41025,0,0,1-7.39374-7.90315,7.578,7.578,0,0,1,7.64756-6.91733h18.47008V92.79251A13.15072,13.15072,0,0,0,90.99346,79.64229H78.016A14.82073,14.82073,0,0,1,63.19529,64.82161H63.197l-.00171-.02668V48.81959A14.7741,14.7741,0,0,1,77.83053,61.57812a3.74234,3.74234,0,0,0,3.66126,3.24349h11.1776A27.28328,27.28328,0,0,1,119.95215,92.1053v73.55781h5.61749V92.1053a27.28349,27.28349,0,0,1,27.28277-27.28369h10.65178a3.751,3.751,0,0,0,3.66614-3.25034,14.77515,14.77515,0,0,1,14.63425-12.75168Z"/>
    </g>
  </g>
</svg>
