<svg xmlns="http://www.w3.org/2000/svg" width="245" height="245" viewBox="0 0 245 245">
  <defs>
    <style>
      .cls-1 {
        fill: #fff;
      }
    </style>
  </defs>
  <g id="Layer_2" data-name="Layer 2">
    <g id="PROJECTS">
      <g>
        <path class="cls-1" d="M93.84413,170.56243a8.48968,8.48968,0,0,0-2.58045-1.76631,7.63857,7.63857,0,0,0-3.13723-.65078,7.8032,7.8032,0,0,0-3.16068.65078,8.40746,8.40746,0,0,0-2.60311,1.76631,8.15047,8.15047,0,0,0-1.74279,2.57946,7.87477,7.87477,0,0,0-.62713,3.13776,8.1569,8.1569,0,0,0,.62713,3.20725,7.80418,7.80418,0,0,0,1.74279,2.57947,8.2717,8.2717,0,0,0,2.60311,1.71986,8.047,8.047,0,0,0,3.16068.62772,7.87656,7.87656,0,0,0,3.13723-.62772,8.34728,8.34728,0,0,0,2.58045-1.71986,8.12034,8.12034,0,0,0,1.76637-2.57947,7.91478,7.91478,0,0,0,.65072-3.20725,7.64255,7.64255,0,0,0-.65072-3.13776A8.49716,8.49716,0,0,0,93.84413,170.56243Z"/>
        <path class="cls-1" d="M79.80645,131.70622a9.293,9.293,0,0,0,2.9284-1.97526,9.63652,9.63652,0,0,0,1.99878-2.92834,8.71293,8.71293,0,0,0,.7436-3.57912,8.4496,8.4496,0,0,0-.7436-3.50962,9.63129,9.63129,0,0,0-4.92718-4.90353,8.60666,8.60666,0,0,0-3.53261-.74373,8.71194,8.71194,0,0,0-3.579.74373,9.33714,9.33714,0,0,0-2.90495,1.99871,9.57381,9.57381,0,0,0-1.95214,2.90482,8.66554,8.66554,0,0,0-.72081,3.50962,8.937,8.937,0,0,0,.72081,3.57912A9.487,9.487,0,0,0,69.7899,129.731a9.04934,9.04934,0,0,0,6.48394,2.69593A8.83034,8.83034,0,0,0,79.80645,131.70622Z"/>
        <path class="cls-1" d="M112.18135,75.06483a8.35024,8.35024,0,0,0,2.5794-1.71986A8.11594,8.11594,0,0,0,116.527,70.7655a7.91486,7.91486,0,0,0,.65084-3.20725,7.64255,7.64255,0,0,0-.65084-3.13775,8.49851,8.49851,0,0,0-4.34564-4.34577,7.64444,7.64444,0,0,0-3.13776-.65078,7.80317,7.80317,0,0,0-3.16081.65078,8.405,8.405,0,0,0-2.603,1.7663A8.15487,8.15487,0,0,0,101.537,64.4205a7.87961,7.87961,0,0,0-.62779,3.13775,8.1619,8.1619,0,0,0,.62779,3.20725A7.80827,7.80827,0,0,0,103.2798,73.345a8.26935,8.26935,0,0,0,2.603,1.71986,8.04718,8.04718,0,0,0,3.16081.62773A7.88281,7.88281,0,0,0,112.18135,75.06483Z"/>
        <path class="cls-1" d="M151.43491,117.22737a8.493,8.493,0,0,0-2.58045-1.76631,7.64031,7.64031,0,0,0-3.13723-.65071,7.80386,7.80386,0,0,0-3.16094.65071,8.40617,8.40617,0,0,0-2.60285,1.76631,8.14725,8.14725,0,0,0-1.74279,2.57953,7.86979,7.86979,0,0,0-.62739,3.13776,8.15169,8.15169,0,0,0,.62739,3.20718,7.80112,7.80112,0,0,0,1.74279,2.57953,8.26991,8.26991,0,0,0,2.60285,1.7198,8.04676,8.04676,0,0,0,3.16094.62779,7.87743,7.87743,0,0,0,3.13723-.62779,8.34993,8.34993,0,0,0,2.58045-1.7198,8.12741,8.12741,0,0,0,1.76624-2.57953,7.91649,7.91649,0,0,0,.65085-3.20718,7.64427,7.64427,0,0,0-.65085-3.13776A8.50508,8.50508,0,0,0,151.43491,117.22737Z"/>
        <path class="cls-1" d="M122.5,0A122.5,122.5,0,1,0,245,122.5,122.5,122.5,0,0,0,122.5,0Zm5.22915,51.47554h26.07621v10.226H139.34963v5.85668l7.99484-3.95091V72.1135l-7.99484-3.62562v5.62434h14.45573V84.803H127.72915Zm-36.53464,0h15.339a20.96054,20.96054,0,0,1,7.71607,1.255,16.03611,16.03611,0,0,1,5.48475,3.57905,16.31956,16.31956,0,0,1,3.57911,5.36842,16.96988,16.96988,0,0,1,1.25505,6.531,16.43641,16.43641,0,0,1-1.30155,6.53045,16.05162,16.05162,0,0,1-3.672,5.32236,16.41885,16.41885,0,0,1-5.36841,3.46265A20.5642,20.5642,0,0,1,106.487,84.803H91.19451ZM55.84588,130.10283a16.63537,16.63537,0,0,1-3.27714,5.48488,15.622,15.622,0,0,1-5.206,3.765,16.67443,16.67443,0,0,1-6.97234,1.39444,18.95338,18.95338,0,0,1-7.27417-1.348,16.72251,16.72251,0,0,1-5.60135-3.69551,16.96455,16.96455,0,0,1-3.62549-5.46137,17.25323,17.25323,0,0,1,9.134-22.59016,16.954,16.954,0,0,1,6.76272-1.34794,19.2995,19.2995,0,0,1,4.43931.48781,16.90709,16.90709,0,0,1,3.765,1.34793,13.96881,13.96881,0,0,1,2.99783,2.02223,12.08563,12.08563,0,0,1,2.13817,2.46352l-3.06779,3.43967a7.8686,7.8686,0,0,0-2.78889-1.65037,11.553,11.553,0,0,0-3.57911-.4878,10.12331,10.12331,0,0,0-3.8579.72021,8.87868,8.87868,0,0,0-3.02142,1.99871,9.07053,9.07053,0,0,0-1.95214,3.02135,9.98453,9.98453,0,0,0-.69722,3.742,8.658,8.658,0,0,0,.72067,3.50909,9.15367,9.15367,0,0,0,4.85709,4.8341,9.05853,9.05853,0,0,0,3.6255.72074,9.74983,9.74983,0,0,0,3.858-.69722,8.7198,8.7198,0,0,0,2.696-1.74331,8.44291,8.44291,0,0,0,1.69667-2.32407,10.219,10.219,0,0,0,.8598-2.39357H43.96955v-4.18339H56.79843a9.454,9.454,0,0,1,.13953.97614q.04625.51224.04651,1.441A18.93473,18.93473,0,0,1,55.84588,130.10283Zm8.24979,5.60082a17.61758,17.61758,0,0,1-3.672-5.46137,16.65133,16.65133,0,0,1-1.34806-6.69335,16.82372,16.82372,0,0,1,1.34806-6.71688,17.55917,17.55917,0,0,1,3.672-5.48488,17.109,17.109,0,0,1,5.46182-3.69505,17.408,17.408,0,0,1,13.43322,0,17.27933,17.27933,0,0,1,9.17994,9.17993,16.84169,16.84169,0,0,1,1.34793,6.71688,16.669,16.669,0,0,1-1.34793,6.69335,17.34539,17.34539,0,0,1-9.17994,9.15688,17.40725,17.40725,0,0,1-13.43322,0A17.08579,17.08579,0,0,1,64.09567,135.70365Zm38.25424,47.75722a16.04854,16.04854,0,0,1-3.67161,5.32237,16.4177,16.4177,0,0,1-5.36933,3.46265,20.55659,20.55659,0,0,1-7.73847,1.2785H70.2775V160.197h15.339a20.96141,20.96141,0,0,1,7.71594,1.255,16.037,16.037,0,0,1,5.48488,3.57912,16.32173,16.32173,0,0,1,3.57951,5.36834,16.96738,16.96738,0,0,1,1.25452,6.531A16.44775,16.44775,0,0,1,102.34991,183.46087Zm16.08271,10.06352H106.81214V160.197h11.62048ZM106.998,153.736a5.61616,5.61616,0,0,1,.44137-2.20813,5.55389,5.55389,0,0,1,1.186-1.78929,5.65329,5.65329,0,0,1,7.99485,7.99484,5.55063,5.55063,0,0,1-1.78969,1.18509,5.61126,5.61126,0,0,1-2.20774.44183,5.60132,5.60132,0,0,1-3.99742-1.62692A5.59435,5.59435,0,0,1,106.998,153.736Zm13.06169-17.12571a13.72373,13.72373,0,0,1-4.46237,2.97485,14.07836,14.07836,0,0,1-5.48475,1.06908,13.81218,13.81218,0,0,1-5.48488-1.0926,13.6619,13.6619,0,0,1-4.46224-3.04428,14.01767,14.01767,0,0,1-2.90482-4.50874,17.09578,17.09578,0,0,1-1.0926-6.50746V106.862h9.94712v15.61789a5.46225,5.46225,0,0,0,.34874,2.09166,4.84456,4.84456,0,0,0,.90618,1.441,5.26138,5.26138,0,0,0,1.34806.90611,3.89142,3.89142,0,0,0,1.67322.34888,3.98148,3.98148,0,0,0,1.71987-.37187,5.099,5.099,0,0,0,1.44108-1.02258,4.78758,4.78758,0,0,0,.81355-1.39444,5.65643,5.65643,0,0,0,.30184-1.99871V106.862h9.43593v18.68569a17.48257,17.48257,0,0,1-1.06862,6.48394A13.46147,13.46147,0,0,1,120.05973,136.61028Zm28.726,33.81269H134.3293v5.85668l7.99484-3.95092v8.50617l-7.99484-3.62562v5.62433h14.45639v10.69078H122.709V160.197h26.07673Zm-5.62454-30.23357h-15.293V106.862h15.339a20.96179,20.96179,0,0,1,7.71593,1.255,16.03912,16.03912,0,0,1,5.48488,3.57912,16.32215,16.32215,0,0,1,3.57965,5.36841,16.96945,16.96945,0,0,1,1.25452,6.53091,16.44524,16.44524,0,0,1-1.30156,6.53045,16.05158,16.05158,0,0,1-3.67147,5.32243,16.41936,16.41936,0,0,1-5.36947,3.46265A20.5565,20.5565,0,0,1,143.16115,140.1894ZM174.7225,170.423H164.17065v7.25112l9.901-4.8341v10.27247l-9.901-4.50868v14.92061H152.55018V160.197H174.7225Zm15.757-53.33506H176.02326v5.85675l7.99485-3.951v8.50617l-7.99485-3.62556v5.62427h14.45626V140.1894H164.40279V106.862h26.07673Zm11.75947,6.554V140.1894h-7.99485V106.862h7.11213l13.20081,12.31769V106.862H222.412V141.026Z"/>
      </g>
    </g>
  </g>
</svg>
