<svg xmlns="http://www.w3.org/2000/svg" width="35.828" height="35.8281" viewBox="0 0 35.828 35.8281">
  <defs>
    <style>
      .cls-1 {
        fill: #fff;
      }
    </style>
  </defs>
  <title>Asset 3</title>
  <g id="Layer_2" data-name="Layer 2">
    <g id="Layer_1-2" data-name="Layer 1">
      <path class="cls-1" d="M27.339,6.5962a2.1063,2.1063,0,1,0,2.1063,2.1063A2.1063,2.1063,0,0,0,27.339,6.5962ZM17.9749,9.2973a8.8479,8.8479,0,1,0,8.8478,8.848v-.0001A8.85807,8.85807,0,0,0,17.9749,9.2973Zm0,14.5157a5.6677,5.6677,0,1,1,5.6676-5.6678A5.66771,5.66771,0,0,1,17.9749,23.813ZM35.828,10.7916A10.7919,10.7919,0,0,0,25.0358,0H10.7922A10.792,10.792,0,0,0,0,10.7916V25.0365A10.792,10.792,0,0,0,10.7922,35.8281H25.0358A10.79192,10.79192,0,0,0,35.828,25.0365Zm-3.38,14.2449a7.41187,7.41187,0,0,1-7.41214,7.4116H10.7922A7.41194,7.41194,0,0,1,3.38,25.0365V10.7916A7.41194,7.41194,0,0,1,10.7922,3.38H25.0358a7.41188,7.41188,0,0,1,7.4122,7.41154v14.245Z"/>
    </g>
  </g>
</svg>
