<svg xmlns="http://www.w3.org/2000/svg" width="37.26811" height="35.59442" viewBox="0 0 37.26811 35.59442">
  <defs>
    <style>
      .cls-1 {
        fill: #fff;
      }
    </style>
  </defs>
  <g id="Layer_2" data-name="Layer 2">
    <g id="Layer_1-2" data-name="Layer 1">
      <g id="Layer_2-2" data-name="Layer 2">
        <g id="Layer_1-2-2" data-name="Layer 1-2">
          <g>
            <path class="cls-1" d="M37.26811,21.83144V35.00507a.58932.58932,0,0,1-.5893.58935H29.87805a.58933.58933,0,0,1-.58935-.5893V22.75382c0-3.22415-1.152-5.42588-4.04118-5.42588a4.36464,4.36464,0,0,0-4.09288,2.91763,5.46166,5.46166,0,0,0-.26422,1.94468V35.00446a.58934.58934,0,0,1-.5893.58935H13.50259a.587.587,0,0,1-.58935-.58463v-.00484c.01505-3.26227.08387-19.09229.01406-22.81291a.5862.5862,0,0,1,.57578-.59642l.01332-.00008h6.78528a.58931.58931,0,0,1,.58935.58929v2.81161c-.01615.02677-.03873.05292-.053.07857h.053v-.07857a7.92267,7.92267,0,0,1,7.19146-3.96435C33.33224,11.03148,37.26811,14.4615,37.26811,21.83144ZM1.11086,35.59442H7.9092a.58931.58931,0,0,0,.58935-.5893h0V12.18428a.58932.58932,0,0,0-.5893-.58935H1.11086a.58931.58931,0,0,0-.58935.5893h0V35.00507a.58931.58931,0,0,0,.5893.58935h0Z"/>
            <path class="cls-1" d="M8.54235,4.27111A4.27118,4.27118,0,1,1,4.27111,0h.00013A4.2712,4.2712,0,0,1,8.54235,4.27111Z"/>
          </g>
        </g>
      </g>
    </g>
  </g>
</svg>
