<svg xmlns="http://www.w3.org/2000/svg" width="30.2142" height="28.8573" viewBox="0 0 30.2142 28.8573">
  <defs>
    <style>
      .cls-1 {
        fill: #000;
      }
    </style>
  </defs>
  <title>Asset 4</title>
  <g id="Layer_2" data-name="Layer 2">
    <g id="Layer_1-2" data-name="Layer 1">
      <g>
        <path class="cls-1" d="M30.2142,17.6993V28.3795a.47778.47778,0,0,1-.47776.4778H24.22289a.47779.47779,0,0,1-.4778-.47776V18.4471c0-2.6139-.934-4.3989-3.27629-4.3989a3.53852,3.53852,0,0,0-3.3182,2.3654,4.42812,4.42812,0,0,0-.21421,1.5766V28.379a.47778.47778,0,0,1-.47776.4778H10.94689a.47589.47589,0,0,1-.4778-.474V28.3789c.0122-2.6448.068-15.4786.0114-18.495a.47524.47524,0,0,1,.4668-.48353l.0108-.00007h5.501a.47778.47778,0,0,1,.4778.47776V12.1575c-.0131.0217-.0314.0429-.043.0637h.043v-.0637a6.42311,6.42311,0,0,1,5.8303-3.214C27.02329,8.9435,30.2142,11.7243,30.2142,17.6993ZM.9006,28.8573H6.41219a.47778.47778,0,0,0,.4778-.47776V9.8781a.47778.47778,0,0,0-.47776-.4778H.9006a.47778.47778,0,0,0-.4778.47776V28.3795a.47778.47778,0,0,0,.47776.4778Z"/>
        <path class="cls-1" d="M6.9255,3.4627A3.46275,3.46275,0,1,1,3.4627,0h.0001A3.46278,3.46278,0,0,1,6.9255,3.4627Z"/>
      </g>
    </g>
  </g>
</svg>
