<svg xmlns="http://www.w3.org/2000/svg" xmlns:xlink="http://www.w3.org/1999/xlink" viewBox="0 0 625.98 587.62"><defs><style>.a{fill:url(#a);}.b{fill:url(#b);}.c{fill:url(#c);}.d{fill:#fff;}</style><linearGradient id="a" x1="394.08" y1="479.67" x2="476.24" y2="479.67" gradientUnits="userSpaceOnUse"><stop offset="0" stop-color="#006837"/><stop offset="0.26" stop-color="#00773c"/><stop offset="0.7" stop-color="#008b43"/><stop offset="1" stop-color="#009245"/></linearGradient><linearGradient id="b" x1="288.64" y1="351.87" x2="609.11" y2="351.87" xlink:href="#a"/><linearGradient id="c" x1="566.51" y1="387.33" x2="707.51" y2="387.33" xlink:href="#a"/></defs><title>LOGO_AMAZE</title><path class="a" d="M473.92,426.05a19.25,19.25,0,0,0-11.42-10.44c-4-1.52-8.66-2.33-12.87-1.29a20.7,20.7,0,0,0-5.85,2.48,26.14,26.14,0,0,0-9.68,11.09,41.49,41.49,0,0,0-1.61,4.32l-.62,1.8-.71,2.1-.81,2.4c-.31.89-.61,1.79-.91,2.69s-.67,2-1,3-.73,2.16-1.1,3.24-.79,2.34-1.19,3.51l-1.27,3.76c-.46,1.34-.91,2.68-1.36,4s-1,2.84-1.45,4.26-1,3-1.52,4.5-1.07,3.16-1.61,4.73l-1.68,5q-.87,2.58-1.75,5.16c-.61,1.8-1.21,3.59-1.82,5.38l-1.89,5.58-2,5.77c-.67,2-1.35,4-2,6s-1.39,4.09-2.08,6.14-1.43,4.2-2.14,6.31-1.46,4.31-2.2,6.47-1.49,4.43-2.24,6.64-1.54,4.52-2.3,6.78-1.57,4.62-2.35,6.93l-.42,1.22h45.86l35.27-103.3C476.93,437,476.5,431.66,473.92,426.05Z" transform="translate(-185.08 -158.26)"/><path class="b" d="M455.85,217.63,563.52,545.48h45.59l-122.28-373q-6.48-14.19-20.65-14.2H448.11q-14.22,0-20.65,14.2l-138.82,373h45.43Z" transform="translate(-185.08 -158.26)"/><path class="c" d="M608.14,243.44a20.59,20.59,0,0,0-27.1-12.9q-19.37,6.47-12.91,27.1l93.76,287.84h45.62Z" transform="translate(-185.08 -158.26)"/><path class="d" d="M517.82,740.9" transform="translate(-185.08 -158.26)"/><polygon class="d" points="117.74 452.15 74.74 558.97 30.86 452.15 25.49 452.15 0 584.11 15.89 584.13 31.18 486.69 71.11 587.57 75.54 587.62 116.35 487.17 130.4 584.11 147.22 584.11 123.11 452.15 117.74 452.15"/><path class="d" d="M426.28,610.41l-56.36,132,16.61,0L403,702.49h51.14l16.41,39.87h18l-58.09-132Zm-19.47,80.46,20.84-55.39,21.54,55.39Z" transform="translate(-185.08 -158.26)"/><polygon class="d" points="463.68 455.79 379.4 455.79 379.4 468.97 441.3 468.97 368.83 581.34 368.82 584.11 462.98 584.11 462.98 570.93 391.63 570.93 463.71 460.15 463.68 455.79"/><polygon class="d" points="625.98 469.67 625.98 455.79 556.27 455.79 556.27 584.11 625.98 584.11 625.98 570.24 571.7 570.24 571.7 520.82 625.98 520.82 625.98 507.64 571.7 507.64 571.7 469.67 625.98 469.67"/></svg>