<svg xmlns="http://www.w3.org/2000/svg" xmlns:xlink="http://www.w3.org/1999/xlink" width="418.86927" height="387.21414" viewBox="0 0 418.86927 387.21414">
  <defs>
    <style>
      .cls-1 {
        fill: url(#Naamloos_verloop_69);
      }

      .cls-2 {
        fill: url(#Naamloos_verloop_69-2);
      }

      .cls-3 {
        fill: url(#Naamloos_verloop_69-3);
      }
    </style>
    <linearGradient id="Naamloos_verloop_69" data-name="Naamloos verloop 69" x1="105.44546" y1="321.40223" x2="187.60295" y2="321.40223" gradientUnits="userSpaceOnUse">
      <stop offset="0" stop-color="#006837"/>
      <stop offset="0.25906" stop-color="#00773c"/>
      <stop offset="0.70058" stop-color="#008b43"/>
      <stop offset="1" stop-color="#009245"/>
    </linearGradient>
    <linearGradient id="Naamloos_verloop_69-2" x1="0" y1="193.60707" x2="320.47141" y2="193.60707" xlink:href="#Naamloos_verloop_69"/>
    <linearGradient id="Naamloos_verloop_69-3" x1="277.87415" y1="229.06275" x2="418.86927" y2="229.06275" xlink:href="#Naamloos_verloop_69"/>
  </defs>
  <g id="Layer_2" data-name="Layer 2">
    <g id="Laag_4" data-name="Laag 4">
      <g>
        <path class="cls-1" d="M185.28174,267.79035A19.29012,19.29012,0,0,0,173.86088,257.343c-4.002-1.51855-8.6582-2.32517-12.8702-1.2817a20.47182,20.47182,0,0,0-5.85306,2.47635,26.15088,26.15088,0,0,0-9.67332,11.08549,41.76455,41.76455,0,0,0-1.61739,4.32061q-.30526.90036-.61054,1.80094l-.71309,2.10329q-.40656,1.19911-.8131,2.39832-.45528,1.34323-.91067,2.68634-.50289,1.48337-1.00589,2.96693-.54923,1.62015-1.09857,3.2404-.59445,1.75328-1.18881,3.50655-.63825,1.88274-1.2766,3.76559-.68109,2.00869-1.36207,4.0174-.72233,2.131-1.44487,4.262-.76262,2.24964-1.52534,4.49939-.80179,2.36462-1.60348,4.72943-.83939,2.4761-1.679,4.95238-.876,2.58405-1.7521,5.168-.91135,2.68835-1.82271,5.3766-.94558,2.78885-1.89107,5.57778-.9784,2.88582-1.95679,5.77185-1.01009,2.9793-2.02006,5.95859-1.0405,3.0691-2.08111,6.13832-1.06964,3.15526-2.13939,6.31062-1.09782,3.23791-2.19544,6.47581-1.12458,3.31691-2.24905,6.63368-1.15006,3.39222-2.3,6.78453-1.17441,3.46388-2.34884,6.928-.20638.60879-.41287,1.21769h45.85725l35.27156-103.29429C188.28753,278.759,187.86341,273.39648,185.28174,267.79035Z"/>
        <path class="cls-2" d="M167.21638,59.36538,274.8818,387.21414h45.58961L198.18867,14.19691Q191.71334.01179,177.53825,0H159.47288q-14.2154,0-20.64958,14.19691L0,387.21414H45.42952Z"/>
        <path class="cls-3" d="M319.50109,85.17669a20.60989,20.60989,0,0,0-27.10384-12.90438Q273.042,78.74255,279.49372,99.37285l93.75791,287.84129h45.61764Z"/>
      </g>
    </g>
  </g>
</svg>
