<svg xmlns="http://www.w3.org/2000/svg" width="267.47865" height="251.08971" viewBox="0 0 267.47865 251.08971">
  <title>Asset 1</title>
  <g id="Layer_2" data-name="Layer 2">
    <g id="Laag_2" data-name="Laag 2">
      <g>
        <g>
          <path d="M123.41883,114.42644a8.24263,8.24263,0,0,0-4.88012-4.46414,9.47613,9.47613,0,0,0-5.49942-.54767,8.74768,8.74768,0,0,0-2.501,1.05814,11.17424,11.17424,0,0,0-4.1334,4.73682,17.8467,17.8467,0,0,0-.69111,1.84618l-.26088.76954-.3047.89874-.34744,1.0248q-.19454.57394-.38913,1.14787-.21488.63383-.42981,1.26776-.23469.69228-.46942,1.38462-.254.74918-.508,1.49834l-.54549,1.609q-.291.85831-.582,1.71663-.30864.91058-.61739,1.82115-.32586.96128-.65177,1.92258-.34261,1.0104-.68517,2.02088-.35866,1.058-.71742,2.11615-.37431,1.10415-.74867,2.20827l-.77884,2.29742q-.40406,1.19166-.80805,2.38338-.41806,1.2331-.83614,2.4663-.43159,1.27305-.86317,2.5461-.4446,1.31142-.88925,2.62289-.457,1.34824-.91416,2.69652-.46909,1.38356-.93811,2.76711-.48053,1.4173-.961,2.83456-.49143,1.44948-.9828,2.899-.50183,1.48011-1.00366,2.9603l-.17641.52032h19.59474l15.07148-44.1375A9.11329,9.11329,0,0,0,123.41883,114.42644Z"/>
          <path d="M115.69952,25.36674l46.00529,140.08931h19.48037L128.93394,6.06632Q126.167.005,120.11,0h-7.7193q-6.07422,0-8.82354,6.06632L44.2482,165.45605h19.412Z"/>
          <path d="M180.77056,36.39588a8.80657,8.80657,0,0,0-11.58143-5.514q-8.27049,2.76472-5.51366,11.58l40.06262,122.99417h19.49236Z"/>
        </g>
        <g>
          <polygon points="50.308 193.204 31.935 238.845 13.188 193.204 10.892 193.204 0 249.59 6.79 249.599 13.324 207.961 30.387 251.068 32.278 251.09 49.715 208.169 55.718 249.59 62.906 249.59 52.607 193.204 50.308 193.204"/>
          <path d="M103.06367,193.20361,78.98112,249.58966l7.09592-.00838,7.031-17.03377h21.84923l7.01421,17.03586,7.693.00629-24.8221-56.38605ZM94.74424,227.5833l8.90185-23.66982,9.20563,23.66982Z"/>
          <polygon points="198.128 194.76 162.119 194.76 162.119 200.392 188.569 200.392 157.6 248.405 157.598 249.59 197.831 249.59 197.831 243.958 167.344 243.958 198.143 196.622 198.128 194.76"/>
          <polygon points="267.479 200.687 267.479 194.76 237.693 194.76 237.693 249.59 267.479 249.59 267.479 243.662 244.286 243.662 244.286 222.546 267.479 222.546 267.479 216.914 244.286 216.914 244.286 200.687 267.479 200.687"/>
        </g>
      </g>
    </g>
  </g>
</svg>
