<svg id="Layer_1" data-name="Layer 1" xmlns="http://www.w3.org/2000/svg" width="98.21851" height="152.61152" viewBox="0 0 98.21851 152.61152">
  <defs>
    <style>
      .cls-1 {
        fill: #fff;
      }
    </style>
  </defs>
  <title>lore</title>
  <path class="cls-1" d="M96.14,119h0c-6.24-8-16.5-15.95-27.06-21.1A26.1,26.1,0,0,0,82,92c4.65-4.17,7-10.08,7-17.54-.06-23.58-7.11-51.2-13.65-62.18A23.13,23.13,0,0,0,64.93,1.34l-.38-.15c-9-2.5-14.78-.46-17,.64C31.72-1.86,24.87,7.5,23.15,10.47a43.46981,43.46981,0,0,0-4.67,11C13.32,34.54,7.37,56.05,7.57,73.67c.18,15.77,12.86,21.46,21.31,23.5-11.2,6-21.37,16.22-26.81,23.35A10,10,0,0,0,3.25,134c7.6,7,23.5,18.61,44.69,18.61,21.42,0,38.59-12.56,46.93-20.05A10,10,0,0,0,96.14,119ZM39.24,37.37a159.789,159.789,0,0,0,17-1c1.69-.18,2.33-1.59,2.71-3,1,1.35,2.1,2.5,3.75,2.3l4-.49,6.3-.86a45.56992,45.56992,0,0,1-1.93,12c-.58,1.95-1.12,3.86-1.68,5.82C66.19,63.35,62.9,74.92,57,76.74c-5.41,1.68-11.63,3-16.69,0l-2.57-2.09c-4.83-5.37-9.13-15.3-12.44-28.69a48.18981,48.18981,0,0,1-1.41-9.63A106.28086,106.28086,0,0,0,39.24,37.37Zm1,58.3a7.61834,7.61834,0,0,0,.49-.73l.14-.25.07-.14c.08-.15.16-.3.23-.46s.11-.26.2-.47.11-.28.16-.42.12-.37.18-.57l.1-.37c.06-.21.11-.43.16-.65l.06-.29a6.76808,6.76808,0,0,1,.13-.74v-.14a24.06809,24.06809,0,0,0,.23-2.58V86a35.38558,35.38558,0,0,0-.3-4.13,20.44,20.44,0,0,0,10.66.7c0,3.3.37,7.66,2,10.24h0a2.1,2.1,0,0,1-.06,2.53A10.37,10.37,0,0,1,47,99c-3.14.17-4.24-.82-5.77-2.21-.31-.28-.61-.55-.92-.81a.35.35,0,0,1-.12-.18v-.13Zm1.44-5.31Zm4.68,11.80813h.91a22.50314,22.50314,0,0,0,9-1.90814,12.79724,12.79724,0,0,1-.32,2.5669c-.54,2.459-5.6,14.28261-8.21,20.325-2.74-6.00267-7.88-17.71271-8.42-20.2001a13.23568,13.23568,0,0,1-.32-2.27159,15.80819,15.80819,0,0,0,7.34,1.49925Z" transform="translate(0.00452 0.00152)"/>
</svg>
