<svg xmlns="http://www.w3.org/2000/svg" width="940.0044" height="490.0042" viewBox="0 0 940.0044 490.0042">
  <defs>
    <style>
      .cls-1 {
        fill: #fff;
      }
    </style>
  </defs>
  <g id="Layer_2" data-name="Layer 2">
    <g id="WEBSHOP">
      <g>
        <path class="cls-1" d="M460.1997,9V52.88H588.9702V48.56H464.5298V9H655.1001V48.56H633.3697v4.32h67.4404V242.86H633.3697v4.29h67.4404v92.84H637.6704V295.71h21.7295v-4.29H588.9702V198.57h48.7002v-4.28H464.5298V145.7H389.77v4.31h70.4297v97.14h4.3301V198.57H584.6597v97.14h48.71v44.28H540.2398V242.86h-4.3096v48.56H418.7906V194.29h-4.32526v4.28h.02446v44.29H224.9302V198.57H345.3599v-4.28h-124.75v52.86H389.77V344.3h70.4297V490H659.3999V388.55h-4.2998V481H588.9702V388.55h-4.3105V481H464.5298V339.99H394.0699V247.15h20.4199v48.56H535.9302V441.42h4.3096V344.3h83.1299v87.12h4.3007V344.3h77.4698V295.71H828.2398v44.28h-48.71v4.31h48.71v48.57h4.3203V295.71h48.7197V232.86H768.8306V97.15h-4.3008v140H876.9702v54.27h-171.83V52.88h171.83V97.15H828.2398v91.42h53.04v-4.28H832.5601V101.44h48.7197V48.56H659.3999V9H931.0005c0,45.5666-1,91.1333-1,136.7H876.9702v4.31h53.0303V339.99H876.9702v97.14H779.5298v4.29h101.75V344.3h48.7207c0,45.5666,1,91.1333,1,136.7H705.1402V392.87h78.6904v-4.32H700.8101V490H934.69v.0042h5.3144l-1-489.9999h-.0039l1-.0043H460.1997Z"/>
        <path class="cls-1" d="M0,4.31V490H.0191v.0042H4.3345V490H179.1997V437.13h-33.04v4.29h28.7305V481H9V295.71H53.0303V150.01h97.4595V97.15H48.73v4.29h97.4297V145.7H48.73V291.42H9V52.88H243.6099V97.15H174.8902v97.14h-77.42v145.7H48.73V441.42h53.0205V392.87h77.4492v-4.32H97.4702v48.58H53.0303V344.3H220.6099V490H418.7906V388.55H389.77v4.32h24.7198V481H224.9302V392.87h71.71v-4.32h-71.71V295.71H341.0601v44.28H292.3306v4.31h48.7295v92.83H292.3306v4.29H394.0699v-4.29h-48.71V291.42h-124.75v48.57H101.7505V198.57h73.1397v92.85H150.4898V242.86h-4.3301v52.85h33.04V101.44h68.7305V48.56H9V9H292.3306V145.7H220.6099v4.31h124.75V101.44H535.9302v48.57H659.6704V145.7H540.2398V101.44H655.1001v.0053h4.2998V97.15h-265.33V48.56H389.77V97.15H341.0601V145.7H296.6402V9h44.4199V52.88h4.2998V9h69.1299V52.88h4.3008V0H0Z"/>
      </g>
    </g>
  </g>
</svg>
