<svg xmlns="http://www.w3.org/2000/svg" width="628.76918" height="331.28826" viewBox="0 0 628.76918 331.28826">
  <defs>
    <style>
      .cls-1 {
        fill: #fff;
      }
    </style>
  </defs>
  <g id="Layer_2" data-name="Layer 2">
    <g id="Layer_1-2" data-name="Layer 1">
      <g>
        <path class="cls-1" d="M332.39216,6.08483V35.75178h65.80629V32.83106H335.31971V6.08483H473.16289V32.83106H428.21662v2.92072h81.87875V164.19587H428.21662v2.90044h81.87875v62.76844H431.1243V199.92737H476.07v-2.90044H398.19845v-62.7752H431.1243v-2.89368H335.31971V98.50671H263.52065v2.914h68.87151v65.67565h2.92755V134.25173h59.96444v65.67564h32.93247v29.93738H365.25218V164.19587h-2.91369v32.83106h-62.971V131.35805H263.52065v2.89368h32.9391v29.94414H157.6238V134.25173h75.8715v-2.89368H154.70287v35.73826H263.52065v65.6824h68.87151v98.50671H476.07v-68.5896h-2.90707v62.50476H398.19845V262.69582h-2.9143v62.50476H335.31971V229.86475H266.42778V167.09631h30.032v32.83106h65.87874v98.51347h2.91369V232.77871h62.96444v65.66213h2.90768V232.77871h81.89862V199.92737h46.944v29.93738H527.0344v2.914h32.93248v32.83783h2.92092V199.92737h32.939v-35.7315H529.94214V65.6824H527.0344V167.09631h65.87874v29.93062H513.02292V35.75178h79.89022V65.6824H559.96688v68.56933h35.86v-2.89368h-32.939V68.58284h32.939V32.83106H476.07V6.08483H622.68171V98.50671H592.91314v2.914h29.76857V229.86475H592.91314V295.5404H527.0344v2.90044h68.79243V232.77871h26.85488v92.42187H513.02292v-59.584h16.91922v-2.92072H510.09537v68.5896H625.85224v.00284h2.91694V.00291h-.00264V0H332.39216Z"/>
        <path class="cls-1" d="M0,2.914V331.28542H.01291v.00284H2.93052v-.00284H120.67746v-35.745h-21.86v2.90044h18.94634v26.75974H6.08483V199.92737H35.8534V101.42066h65.89165V65.6824H32.946v2.90044H98.8175V98.50671H32.946v98.52022H6.08483V35.75178h148.618V65.6824h-43.939v65.67565h-44.865v98.5067H32.946v68.57609H68.79277v-32.8243h51.88469v-2.92072H65.89889V295.5404H35.8534V232.77871H154.70287v98.50671H299.36749v-68.5896H263.52065v2.92072h32.9391v59.584H157.6238v-59.584h42.93247v-2.92072H157.6238V199.92737h72.96444v29.93738H197.64258v2.914h32.94566V295.5404H197.64258v2.90044h68.7852V295.5404H233.4953V197.02693H154.70287v32.83782H68.79277v-95.613h41.97107v62.7752h-9.01879V164.19587H98.8175v35.7315h14.86V68.58284H157.6238V32.83106H6.08483V6.08483H197.64258V98.50671H154.70287v2.914H233.4953V68.58284H362.33849v32.83782H431.1243V98.50671H365.25218V68.58284H473.16289v65.66889H476.07V65.6824H266.42778V32.83106h-2.90713V65.6824H230.58824V98.50671h-30.032V6.08483h30.032V35.75178h2.90706V6.08483h62.96445V35.75178h2.90774V0H0Z"/>
      </g>
    </g>
  </g>
</svg>
