<svg id="Layer_1" data-name="Layer 1" xmlns="http://www.w3.org/2000/svg" xmlns:xlink="http://www.w3.org/1999/xlink" width="375.69582mm" height="373.35742mm" viewBox="0 0 1064.96454 1058.33599">
  <defs>
    <style>
      .cls-1 {
        fill: none;
      }

      .cls-2 {
        opacity: 0.3;
      }

      .cls-3 {
        isolation: isolate;
      }

      .cls-4 {
        fill: #858585;
      }

      .cls-5 {
        clip-path: url(#clip-path);
      }

      .cls-6 {
        fill: gray;
      }

      .cls-7 {
        clip-path: url(#clip-path-2);
      }

      .cls-8 {
        fill: #8a8a8a;
      }

      .cls-9 {
        fill: #8f8f8f;
      }

      .cls-10 {
        fill: #949494;
      }

      .cls-11 {
        clip-path: url(#clip-path-3);
      }

      .cls-12 {
        clip-path: url(#clip-path-4);
      }

      .cls-13 {
        clip-path: url(#clip-path-5);
      }

      .cls-14 {
        clip-path: url(#clip-path-6);
      }

      .cls-15 {
        clip-path: url(#clip-path-7);
      }

      .cls-16 {
        clip-path: url(#clip-path-8);
      }

      .cls-17 {
        clip-path: url(#clip-path-9);
      }

      .cls-18 {
        clip-path: url(#clip-path-10);
      }

      .cls-19 {
        clip-path: url(#clip-path-11);
      }

      .cls-20 {
        clip-path: url(#clip-path-12);
      }

      .cls-21 {
        clip-path: url(#clip-path-13);
      }

      .cls-22 {
        clip-path: url(#clip-path-14);
      }

      .cls-23 {
        clip-path: url(#clip-path-15);
      }

      .cls-24 {
        clip-path: url(#clip-path-16);
      }

      .cls-25 {
        clip-path: url(#clip-path-17);
      }

      .cls-26 {
        clip-path: url(#clip-path-18);
      }

      .cls-27 {
        clip-path: url(#clip-path-19);
      }

      .cls-28 {
        clip-path: url(#clip-path-20);
      }

      .cls-29 {
        clip-path: url(#clip-path-21);
      }

      .cls-30 {
        clip-path: url(#clip-path-22);
      }

      .cls-31 {
        fill: #e5e5e5;
      }

      .cls-32 {
        clip-path: url(#clip-path-23);
      }

      .cls-33 {
        clip-path: url(#clip-path-24);
      }

      .cls-34 {
        clip-path: url(#clip-path-25);
      }

      .cls-35 {
        clip-path: url(#clip-path-26);
      }

      .cls-36 {
        clip-path: url(#clip-path-27);
      }

      .cls-37 {
        clip-path: url(#clip-path-28);
      }

      .cls-38 {
        clip-path: url(#clip-path-29);
      }

      .cls-39 {
        clip-path: url(#clip-path-30);
      }

      .cls-40 {
        clip-path: url(#clip-path-31);
      }

      .cls-41 {
        clip-path: url(#clip-path-32);
      }

      .cls-42 {
        clip-path: url(#clip-path-33);
      }

      .cls-43 {
        clip-path: url(#clip-path-34);
      }

      .cls-44 {
        clip-path: url(#clip-path-35);
      }

      .cls-45 {
        clip-path: url(#clip-path-36);
      }

      .cls-46 {
        clip-path: url(#clip-path-37);
      }

      .cls-47 {
        clip-path: url(#clip-path-38);
      }

      .cls-48 {
        clip-path: url(#clip-path-39);
      }

      .cls-49 {
        clip-path: url(#clip-path-40);
      }

      .cls-50 {
        clip-path: url(#clip-path-41);
      }

      .cls-51 {
        clip-path: url(#clip-path-42);
      }
    </style>
    <clipPath id="clip-path" transform="translate(524.92908 522.30275)">
      <path class="cls-1" d="M200.925-285.42395v9.55066A351.863,351.863,0,0,0,16.452-333.22753v-9.55064A351.863,351.863,0,0,1,200.925-285.42395Z"/>
    </clipPath>
    <clipPath id="clip-path-2" transform="translate(524.92908 522.30275)">
      <path class="cls-1" d="M274.32-24.27658v9.55066C260.838-147.994,146.358-252.42109,7.551-252.42109c-138.663,0-253.044,104.20545-266.733,237.26972V-24.702c13.689-133.06428,128.07-237.26973,266.733-237.26973C146.358-261.97174,260.838-157.5447,274.32-24.27658Z"/>
    </clipPath>
    <clipPath id="clip-path-3" transform="translate(524.92908 522.30275)">
      <path class="cls-1" d="M200.655-235.5592v9.55066A310.67525,310.67525,0,0,0,7.551-292.89077c-167.355,0-304.074,131.61955-309.069,295.26209V-7.17932c4.995-163.64255,141.714-295.2621,309.069-295.2621A310.6753,310.6753,0,0,1,200.655-235.5592Z"/>
    </clipPath>
    <clipPath id="clip-path-4" transform="translate(524.92908 522.30275)">
      <path class="cls-1" d="M69.525-7.17933V2.37132C64.962-27.28518,38.907-50.09037,7.551-50.09037c-31.365,0-57.42,22.80519-61.974,52.46169V-7.17932C-49.869-36.83583-23.814-59.641,7.551-59.641,38.907-59.641,64.962-36.83583,69.525-7.17933Z"/>
    </clipPath>
    <clipPath id="clip-path-5" transform="translate(524.92908 522.30275)">
      <path class="cls-1" d="M522.227,2.08992v9.55066c0-279.48286-230.87942-506.8617-514.68084-506.8617-283.78723,0-514.67376,227.37884-514.67376,506.86169V2.08994c0-279.48287,230.88654-506.86171,514.67377-506.86171C291.34752-504.77177,522.227-277.39293,522.227,2.08992Z"/>
    </clipPath>
    <clipPath id="clip-path-6" transform="translate(524.92908 522.30275)">
      <path class="cls-1" d="M398.961,2.09165V11.6423c0-212.55007-175.59-385.46361-391.41-385.46361A393.2228,393.2228,0,0,0-263.007-266.63778v-9.55064A393.22276,393.22276,0,0,1,7.551-383.372C223.371-383.372,398.961-210.45842,398.961,2.09165Z"/>
    </clipPath>
    <clipPath id="clip-path-7" transform="translate(524.92908 522.30275)">
      <path class="cls-1" d="M29.142,2.09165V11.6423A21.451,21.451,0,0,0,7.551-9.62069,21.451,21.451,0,0,0-14.04,11.6423V2.09166a21.451,21.451,0,0,1,21.591-21.263A21.451,21.451,0,0,1,29.142,2.09165Z"/>
    </clipPath>
    <clipPath id="clip-path-8" transform="translate(524.92908 522.30275)">
      <path class="cls-1" d="M109.233-99.41938v9.55065A145.54252,145.54252,0,0,0,7.551-131.02089c-79.875,0-144.864,64.00167-144.864,142.66319V2.09166c0-78.66153,64.989-142.6632,144.864-142.6632A145.54252,145.54252,0,0,1,109.233-99.41938Z"/>
    </clipPath>
    <clipPath id="clip-path-9" transform="translate(524.92908 522.30275)">
      <path class="cls-1" d="M-1.35-99.703v9.55066C-54.414-85.68527-96.219-41.75-96.219,11.6423V2.09166C-96.219-51.30069-54.414-95.23592-1.35-99.703Z"/>
    </clipPath>
    <clipPath id="clip-path-10" transform="translate(524.92908 522.30275)">
      <path class="cls-1" d="M111.321,2.09165V11.6423c0-47.25009-32.751-87.07276-77.067-98.71024v-9.55064C78.57-84.98111,111.321-45.15844,111.321,2.09165Z"/>
    </clipPath>
    <clipPath id="clip-path-11" transform="translate(524.92908 522.30275)">
      <path class="cls-1" d="M152.415,2.09165V11.6423A140.64659,140.64659,0,0,0,121.14-76.79541V-86.346A140.64656,140.64656,0,0,1,152.415,2.09165Z"/>
    </clipPath>
    <clipPath id="clip-path-12" transform="translate(524.92908 522.30275)">
      <path class="cls-1" d="M-129.555-121.48006v9.55066A180.92545,180.92545,0,0,0-178.407,11.6423V2.09166A180.9255,180.9255,0,0,1-129.555-121.48006Z"/>
    </clipPath>
    <clipPath id="clip-path-13" transform="translate(524.92908 522.30275)">
      <path class="cls-1" d="M193.5,2.09165V11.6423c0-100.97923-83.412-183.13287-185.949-183.13287a186.86118,186.86118,0,0,0-110.556,35.976v-9.55065a186.86118,186.86118,0,0,1,110.556-35.976C110.088-181.04122,193.5-98.88758,193.5,2.09165Z"/>
    </clipPath>
    <clipPath id="clip-path-14" transform="translate(524.92908 522.30275)">
      <path class="cls-1" d="M440.046,2.09165V11.6423C440.046-223.21662,246.033-414.291,7.551-414.291S-424.953-223.21662-424.953,11.6423V2.09166c0-234.85893,194.022-425.9333,432.504-425.9333S440.046-232.76727,440.046,2.09165Z"/>
    </clipPath>
    <clipPath id="clip-path-15" transform="translate(524.92908 522.30275)">
      <path class="cls-1" d="M-275.598-263.77984v9.55065C-342.639-185.01593-383.859-91.34-383.859,11.6423V2.09166C-383.859-100.89068-342.639-194.56658-275.598-263.77984Z"/>
    </clipPath>
    <clipPath id="clip-path-16" transform="translate(524.92908 522.30275)">
      <path class="cls-1" d="M481.14,2.09165V11.6423c0-257.16777-212.454-466.39411-473.589-466.39411-261.144,0-473.589,209.22634-473.589,466.39411V2.09166c0-257.16778,212.445-466.39412,473.589-466.39412C268.686-464.30246,481.14-255.07612,481.14,2.09165Z"/>
    </clipPath>
    <clipPath id="clip-path-17" transform="translate(524.92908 522.30275)">
      <path class="cls-1" d="M-19.161-341.90956v9.55066c-180.738,13.481-323.604,162.61439-323.604,344.0012V2.09166C-342.765-179.29516-199.899-328.42853-19.161-341.90956Z"/>
    </clipPath>
    <clipPath id="clip-path-18" transform="translate(524.92908 522.30275)">
      <path class="cls-1" d="M357.867,2.09165V11.6423c0-107.18352-49.887-203.10183-127.998-266.421v-9.55065C307.98-201.01018,357.867-105.09187,357.867,2.09165Z"/>
    </clipPath>
    <clipPath id="clip-path-19" transform="translate(524.92908 522.30275)">
      <path class="cls-1" d="M316.773,2.09165V11.6423c0-83.42109-34.245-159.10456-89.604-214.15432v-9.55063C282.528-157.01291,316.773-81.32944,316.773,2.09165Z"/>
    </clipPath>
    <clipPath id="clip-path-20" transform="translate(524.92908 522.30275)">
      <path class="cls-1" d="M234.594,2.09165V11.6423c0-123.28808-101.853-223.59371-227.043-223.59371-125.199,0-227.043,100.30563-227.043,223.59371V2.09166c0-123.28809,101.844-223.59371,227.043-223.59371C132.741-221.502,234.594-121.19643,234.594,2.09165Z"/>
    </clipPath>
    <clipPath id="clip-path-21" transform="translate(524.92908 522.30275)">
      <path class="cls-1" d="M46.944,2.09165V11.6423A38.98757,38.98757,0,0,1,16.452,49.42641V39.87578A38.98761,38.98761,0,0,0,46.944,2.09165Z"/>
    </clipPath>
    <clipPath id="clip-path-22" transform="translate(524.92908 522.30275)">
      <path class="cls-1" d="M-1.35,39.87577v9.55065A38.98759,38.98759,0,0,1-31.842,11.6423V2.09166A38.98761,38.98761,0,0,0-1.35,39.87577Z"/>
    </clipPath>
    <clipPath id="clip-path-23" transform="translate(524.92908 522.30275)">
      <path class="cls-1" d="M-53.739,53.40112v9.55065A78.33372,78.33372,0,0,1-72.495,19.90286V10.35222A78.33372,78.33372,0,0,0-53.739,53.40112Z"/>
    </clipPath>
    <clipPath id="clip-path-24" transform="translate(524.92908 522.30275)">
      <path class="cls-1" d="M87.597,10.35222v9.55066C83.385,59.74326,49.095,90.90652,7.551,90.90652a80.87213,80.87213,0,0,1-48.33-15.91844V65.43744A80.87224,80.87224,0,0,0,7.551,81.35587C49.095,81.35587,83.385,50.19261,87.597,10.35222Z"/>
    </clipPath>
    <clipPath id="clip-path-25" transform="translate(524.92908 522.30275)">
      <path class="cls-1" d="M-1.35,121.49761v9.55065c-62.901-4.50253-112.68-56.33494-112.68-119.406V2.09166C-114.03,65.16267-64.251,116.99508-1.35,121.49761Z"/>
    </clipPath>
    <clipPath id="clip-path-26" transform="translate(524.92908 522.30275)">
      <path class="cls-1" d="M129.123,2.09165V11.6423c0,63.071-49.77,114.90343-112.671,119.406v-9.55064C79.353,116.99508,129.123,65.16267,129.123,2.09165Z"/>
    </clipPath>
    <clipPath id="clip-path-27" transform="translate(524.92908 522.30275)">
      <path class="cls-1" d="M170.217,2.09165V11.6423C170.217,99.97364,97.245,171.837,7.551,171.837S-155.115,99.97364-155.115,11.6423V2.09166c0,88.33133,72.972,160.19472,162.666,160.19472S170.217,90.423,170.217,2.09165Z"/>
    </clipPath>
    <clipPath id="clip-path-28" transform="translate(524.92908 522.30275)">
      <path class="cls-1" d="M211.311,2.09165V11.6423c0,110.64906-91.404,200.66442-203.76,200.66442s-203.76-90.01536-203.76-200.66442V2.09166c0,110.64905,91.404,200.66442,203.76,200.66442S211.311,112.74071,211.311,2.09165Z"/>
    </clipPath>
    <clipPath id="clip-path-29" transform="translate(524.92908 522.30275)">
      <path class="cls-1" d="M252.225,10.78652v9.55065C247.554,149.28887,139.599,252.77641,7.551,252.77641c-126.162,0-230.337-94.46473-243.45-215.33314V27.89264C-222.786,148.761-118.611,243.22576,7.551,243.22576,139.599,243.22576,247.554,139.73822,252.225,10.78652Z"/>
    </clipPath>
    <clipPath id="clip-path-30" transform="translate(524.92908 522.30275)">
      <path class="cls-1" d="M-260.379,250.4316v9.55065c-62.082-64.93232-100.197-152.333-100.197-248.33995V2.09166C-360.576,98.09858-322.461,185.49928-260.379,250.4316Z"/>
    </clipPath>
    <clipPath id="clip-path-31" transform="translate(524.92908 522.30275)">
      <path class="cls-1" d="M-301.455,265.97779v9.55065c-62.388-70.7555-100.206-163.04873-100.206-263.88614V2.09166C-401.661,102.92906-363.843,195.22229-301.455,265.97779Z"/>
    </clipPath>
    <clipPath id="clip-path-32" transform="translate(524.92908 522.30275)">
      <path class="cls-1" d="M293.49,10.78652v9.55064C288.927,162.7965,176.562,278.95849,34.254,291.99637v-9.55063C176.562,269.40784,288.927,153.24585,293.49,10.78652Z"/>
    </clipPath>
    <clipPath id="clip-path-33" transform="translate(524.92908 522.30275)">
      <path class="cls-1" d="M-1.35,283.5359v9.55066c-144.801-4.37845-262.827-115.29341-275.832-255.64329V27.89264C-264.177,168.2425-146.151,279.15746-1.35,283.5359Z"/>
    </clipPath>
    <clipPath id="clip-path-34" transform="translate(524.92908 522.30275)">
      <path class="cls-1" d="M-305.937,320.12349v9.55066c-84.33-80.64691-136.818-193.40542-136.818-318.03185V2.09166C-442.755,126.71809-390.267,239.47659-305.937,320.12349Z"/>
    </clipPath>
    <clipPath id="clip-path-35" transform="translate(524.92908 522.30275)">
      <path class="cls-1" d="M334.584,2.09165V11.6423c0,177.58447-146.709,322.06463-327.033,322.06463S-319.482,189.22677-319.482,11.6423V2.09166c0,177.58446,146.709,322.06462,327.033,322.06462S334.584,179.67612,334.584,2.09165Z"/>
    </clipPath>
    <clipPath id="clip-path-36" transform="translate(524.92908 522.30275)">
      <path class="cls-1" d="M457.857,2.09165V11.6423c0,132.68315-59.499,251.92956-153.576,333.26781v-9.55064C398.358,254.02121,457.857,134.7748,457.857,2.09165Z"/>
    </clipPath>
    <clipPath id="clip-path-37" transform="translate(524.92908 522.30275)">
      <path class="cls-1" d="M375.669,2.09165V11.6423c0,199.90218-165.132,362.52544-368.118,362.52544A369.81575,369.81575,0,0,1-247.86,272.45286v-9.55064A369.8158,369.8158,0,0,0,7.551,364.6171C210.537,364.6171,375.669,201.99383,375.669,2.09165Z"/>
    </clipPath>
    <clipPath id="clip-path-38" transform="translate(524.92908 522.30275)">
      <path class="cls-1" d="M498.942,2.09165V11.6423c0,150.13492-69.786,284.51982-179.082,373.35638V375.448C429.156,286.61147,498.942,152.22657,498.942,2.09165Z"/>
    </clipPath>
    <clipPath id="clip-path-39" transform="translate(524.92908 522.30275)">
      <path class="cls-1" d="M416.763,2.09165V11.6423c0,222.211-183.573,402.99513-409.212,402.99513A411.10289,411.10289,0,0,1-263.835,312.97574v-9.55063A411.103,411.103,0,0,0,7.551,405.08678C233.19,405.08678,416.763,224.30268,416.763,2.09165Z"/>
    </clipPath>
    <clipPath id="clip-path-40" transform="translate(524.92908 522.30275)">
      <path class="cls-1" d="M290.619,346.70443v9.55065a452.4447,452.4447,0,0,1-283.068,98.852,452.40945,452.40945,0,0,1-300.465-113.4587v-9.55063A452.40953,452.40953,0,0,0,7.551,445.55646,452.4447,452.4447,0,0,0,290.619,346.70443Z"/>
    </clipPath>
    <clipPath id="clip-path-41" transform="translate(524.92908 522.30275)">
      <path class="cls-1" d="M305.829,386.42962v9.55065A493.80608,493.80608,0,0,1,7.551,495.568c-270.954,0-491.4-217.08808-491.4-483.92566V2.09166c0,266.83757,220.446,483.92565,491.4,483.92565A493.80608,493.80608,0,0,0,305.829,386.42962Z"/>
    </clipPath>
    <clipPath id="clip-path-42" transform="translate(524.92908 522.30275)">
      <path class="cls-1" d="M540.03546,2.08992v9.55066c0,289.15631-238.87233,524.39266-532.48935,524.39266-293.60993,0-532.47518-235.23635-532.47518-524.39267V2.08994c0,289.1563,238.86526,524.39265,532.47519,524.39265C301.16312,526.48259,540.03546,291.24624,540.03546,2.08992Z"/>
    </clipPath>
  </defs>
  <title>MAZE</title>
  <g class="cls-2">
    <g class="cls-3">
      <polygon class="cls-4" points="738.715 224.24 738.715 233.79 725.854 246.429 725.854 236.879 738.715 224.24"/>
      <g class="cls-3">
        <g class="cls-5">
          <g class="cls-3">
            <path class="cls-4" d="M200.925-285.42395v9.55065A351.86312,351.86312,0,0,0,16.452-333.22753v-9.55065a351.86312,351.86312,0,0,1,184.473,57.35423" transform="translate(524.92908 522.30275)"/>
          </g>
        </g>
      </g>
      <polygon class="cls-4" points="754.798 257.973 754.798 267.524 738.247 283.824 738.247 274.273 754.798 257.973"/>
      <polygon class="cls-6" points="265.819 274.752 265.819 284.302 249.331 268.074 249.331 258.523 265.819 274.752"/>
      <polygon class="cls-4" points="738.247 274.273 738.247 283.824 725.584 296.294 725.584 286.744 738.247 274.273"/>
      <polygon class="cls-4" points="752.098 310.24 752.098 319.791 735.628 336.002 735.628 326.451 752.098 310.24"/>
      <polygon class="cls-6" points="421.924 377.238 421.924 386.788 409.216 374.273 409.216 364.723 421.924 377.238"/>
      <polygon class="cls-6" points="411.844 417.042 411.844 426.593 395.374 410.373 395.374 400.823 411.844 417.042"/>
      <polygon class="cls-4" points="646.744 410.493 646.744 420.043 634.162 432.434 634.162 422.883 646.744 410.493"/>
      <rect class="cls-6" x="247.86408" y="497.60073" width="17.883" height="9.55065"/>
      <rect class="cls-6" x="799.24905" y="498.02617" width="17.89203" height="9.55065"/>
      <g class="cls-3">
        <g class="cls-7">
          <g class="cls-3">
            <path class="cls-4" d="M274.32-24.27658v9.55065C260.838-147.994,146.358-252.42109,7.551-252.42109a269.24049,269.24049,0,0,0-211.30187,101.709v-9.55065A269.24049,269.24049,0,0,1,7.551-261.97174c138.807,0,253.287,104.427,266.769,237.69516" transform="translate(524.92908 522.30275)"/>
            <path class="cls-8" d="M-203.75085-160.26272l0,9.55065a263.84334,263.84334,0,0,0-32.49437,52.52653v-9.55064a263.8437,263.8437,0,0,1,32.49437-52.52654" transform="translate(524.92908 522.30275)"/>
            <path class="cls-9" d="M-236.24521-107.73618l0,9.55064a259.25314,259.25314,0,0,0-18.25257,53.89821V-53.838a259.25286,259.25286,0,0,1,18.25257-53.8982" transform="translate(524.92908 522.30275)"/>
            <path class="cls-10" d="M-254.49778-53.838l0,9.55065a259.157,259.157,0,0,0-4.6842,29.136V-24.702a259.157,259.157,0,0,1,4.6842-29.136" transform="translate(524.92908 522.30275)"/>
          </g>
        </g>
      </g>
      <g class="cls-3">
        <g class="cls-11">
          <g class="cls-3">
            <path class="cls-4" d="M200.655-235.5592v9.55065A310.6753,310.6753,0,0,0,7.551-292.89077,310.54831,310.54831,0,0,0-236.20635-175.52612v-9.55065A310.54831,310.54831,0,0,1,7.551-302.44142,310.6753,310.6753,0,0,1,200.655-235.5592" transform="translate(524.92908 522.30275)"/>
            <path class="cls-8" d="M-236.20633-185.07677l0,9.55065a304.23727,304.23727,0,0,0-37.44488,60.55406v-9.55065a304.23727,304.23727,0,0,1,37.44488-60.55406" transform="translate(524.92908 522.30275)"/>
            <path class="cls-9" d="M-273.65121-124.52271l0,9.55065a298.90147,298.90147,0,0,0-21.02238,62.08679v-9.55065a298.90147,298.90147,0,0,1,21.02238-62.08679" transform="translate(524.92908 522.30275)"/>
            <path class="cls-10" d="M-294.67358-62.43592l0,9.55065A299.65791,299.65791,0,0,0-301.518,2.37132V-7.17933a299.658,299.658,0,0,1,6.8444-55.25659" transform="translate(524.92908 522.30275)"/>
          </g>
        </g>
      </g>
      <rect class="cls-6" x="594.45408" y="515.12341" width="17.937" height="9.55065"/>
      <g class="cls-3">
        <g class="cls-12">
          <g class="cls-3">
            <path class="cls-4" d="M69.525-7.17933V2.37132C64.962-27.28518,38.907-50.09037,7.551-50.09037a62.94975,62.94975,0,0,0-49.41207,23.791V-35.85A62.94975,62.94975,0,0,1,7.551-59.641c31.356,0,57.411,22.80519,61.974,52.46169" transform="translate(524.92908 522.30275)"/>
            <path class="cls-8" d="M-41.861-35.85l0,9.55065a61.67028,61.67028,0,0,0-7.59074,12.27626v-9.55065A61.67028,61.67028,0,0,1-41.86107-35.85" transform="translate(524.92908 522.30275)"/>
            <path class="cls-9" d="M-49.45179-23.57371l0,9.55065A60.59065,60.59065,0,0,0-53.7105-1.44718v-9.55065a60.59065,60.59065,0,0,1,4.25869-12.57588" transform="translate(524.92908 522.30275)"/>
            <path class="cls-10" d="M-53.71048-10.99783l0,9.55065q-.41559,1.88862-.7125,3.8185V-7.17933q.29625-1.92922.7125-3.8185" transform="translate(524.92908 522.30275)"/>
          </g>
        </g>
      </g>
      <rect class="cls-6" x="452.56008" y="515.12341" width="17.946" height="9.55065"/>
      <g class="cls-3">
        <g class="cls-13">
          <g class="cls-3">
            <path class="cls-4" d="M522.227,2.08992v9.55065c0-279.48285-230.87943-506.86169-514.68085-506.86169A516.92061,516.92061,0,0,0-398.06325-300.03159v-9.55065A516.92061,516.92061,0,0,1,7.5461-504.77177c283.80142,0,514.68085,227.37884,514.68085,506.86169" transform="translate(524.92908 522.30275)"/>
            <path class="cls-8" d="M-398.06325-309.58224v9.55065a506.36691,506.36691,0,0,0-62.41269,100.86351v-9.55065a506.36691,506.36691,0,0,1,62.41269-100.86351" transform="translate(524.92908 522.30275)"/>
            <path class="cls-9" d="M-460.47594-208.71873v9.55065a497.454,497.454,0,0,0-35.0358,103.45839v-9.55065a497.454,497.454,0,0,1,35.0358-103.45839" transform="translate(524.92908 522.30275)"/>
            <path class="cls-10" d="M-495.51174-105.26034v9.55065A499.54918,499.54918,0,0,0-507.12766,11.64057V2.08992a499.54918,499.54918,0,0,1,11.61592-107.35026" transform="translate(524.92908 522.30275)"/>
          </g>
        </g>
      </g>
      <g class="cls-3">
        <g class="cls-14">
          <g class="cls-3">
            <path class="cls-4" d="M398.961,2.09165V11.6423c0-212.55007-175.59-385.46361-391.41-385.46361A393.2228,393.2228,0,0,0-263.007-266.63778v-9.55065A393.2228,393.2228,0,0,1,7.551-383.372c215.82,0,391.41,172.91354,391.41,385.46361" transform="translate(524.92908 522.30275)"/>
          </g>
        </g>
      </g>
      <g class="cls-3">
        <g class="cls-15">
          <g class="cls-3">
            <path class="cls-4" d="M29.142,2.09165V11.6423A21.451,21.451,0,0,0,7.551-9.62069,21.68419,21.68419,0,0,0-9.465-1.43351v-9.55065A21.68422,21.68422,0,0,1,7.551-19.17134a21.451,21.451,0,0,1,21.591,21.263" transform="translate(524.92908 522.30275)"/>
            <path class="cls-8" d="M-9.46493-10.98416l0,9.55065a21.23855,21.23855,0,0,0-2.61779,4.23057V-6.75359A21.23855,21.23855,0,0,1-9.465-10.98416" transform="translate(524.92908 522.30275)"/>
            <path class="cls-9" d="M-12.08272-6.75359l0,9.55065a20.86949,20.86949,0,0,0-1.46982,4.34037V-2.41322a20.86949,20.86949,0,0,1,1.46982-4.34037" transform="translate(524.92908 522.30275)"/>
            <path class="cls-10" d="M-13.55255-2.41322l0,9.55065A20.96321,20.96321,0,0,0-14.04,11.6423V2.09165a20.96321,20.96321,0,0,1,.48743-4.50487" transform="translate(524.92908 522.30275)"/>
          </g>
        </g>
      </g>
      <g class="cls-3">
        <g class="cls-16">
          <g class="cls-3">
            <path class="cls-4" d="M109.233-99.41938v9.55065A145.54252,145.54252,0,0,0,7.551-131.02089a145.49842,145.49842,0,0,0-114.16616,54.941v-9.55065A145.49842,145.49842,0,0,1,7.551-140.57154,145.54252,145.54252,0,0,1,109.233-99.41938" transform="translate(524.92908 522.30275)"/>
            <path class="cls-8" d="M-106.61514-85.63051l0,9.55065a142.52841,142.52841,0,0,0-17.56746,28.39027v-9.55065a142.52841,142.52841,0,0,1,17.56746-28.39027" transform="translate(524.92908 522.30275)"/>
            <path class="cls-9" d="M-124.1826-57.24024l0,9.55065a140.01238,140.01238,0,0,0-9.86114,29.11916v-9.55065a140.01258,140.01258,0,0,1,9.86114-29.11916" transform="translate(524.92908 522.30275)"/>
            <path class="cls-10" d="M-134.04374-28.12108l0,9.55065A140.59337,140.59337,0,0,0-137.313,11.6423V2.09165a140.59337,140.59337,0,0,1,3.26923-30.21273" transform="translate(524.92908 522.30275)"/>
          </g>
        </g>
      </g>
      <g class="cls-3">
        <g class="cls-17">
          <g class="cls-3">
            <path class="cls-4" d="M-1.35-99.703v9.55065A104.19836,104.19836,0,0,0-74.27819-51.11882v-9.55065A104.1984,104.1984,0,0,1-1.35-99.703" transform="translate(524.92908 522.30275)"/>
            <path class="cls-8" d="M-74.27819-60.66947v9.55065A102.039,102.039,0,0,0-86.82184-30.83228v-9.55065A102.039,102.039,0,0,1-74.27819-60.66947" transform="translate(524.92908 522.30275)"/>
            <path class="cls-9" d="M-86.82184-40.38293v9.55065a100.23815,100.23815,0,0,0-7.05369,20.828v-9.55065a100.23815,100.23815,0,0,1,7.05369-20.828" transform="translate(524.92908 522.30275)"/>
            <path class="cls-10" d="M-93.87553-19.55492v9.55065A100.67691,100.67691,0,0,0-96.219,11.6423V2.09165a100.67691,100.67691,0,0,1,2.34346-21.64657" transform="translate(524.92908 522.30275)"/>
          </g>
        </g>
      </g>
      <g class="cls-3">
        <g class="cls-18">
          <g class="cls-3">
            <path class="cls-4" d="M111.321,2.09165V11.6423c0-47.25009-32.751-87.07276-77.067-98.71024v-9.55064C78.57-84.98111,111.321-45.15844,111.321,2.09165" transform="translate(524.92908 522.30275)"/>
          </g>
        </g>
      </g>
      <g class="cls-3">
        <g class="cls-19">
          <g class="cls-3">
            <path class="cls-4" d="M152.415,2.09165V11.6423A140.64659,140.64659,0,0,0,121.14-76.79541v-9.55065A140.64661,140.64661,0,0,1,152.415,2.09165" transform="translate(524.92908 522.30275)"/>
          </g>
        </g>
      </g>
      <g class="cls-3">
        <g class="cls-20">
          <g class="cls-3">
            <path class="cls-4" d="M-129.555-121.48006v9.55065q-4.98466,5.36078-9.536,11.10179v-9.55065q4.54683-5.73668,9.536-11.10179" transform="translate(524.92908 522.30275)"/>
            <path class="cls-8" d="M-139.09095-110.37827v9.55065A183.08643,183.08643,0,0,0-161.5759-64.44589v-9.55065a183.08672,183.08672,0,0,1,22.48495-36.38173" transform="translate(524.92908 522.30275)"/>
            <path class="cls-9" d="M-161.5759-73.99654v9.55065a179.68523,179.68523,0,0,0-12.62527,37.27608v-9.55065A179.68523,179.68523,0,0,1-161.5759-73.99654" transform="translate(524.92908 522.30275)"/>
            <path class="cls-10" d="M-174.20117-36.72046v9.55065A180.35441,180.35441,0,0,0-178.407,11.6423V2.09165a180.35441,180.35441,0,0,1,4.20583-38.81211" transform="translate(524.92908 522.30275)"/>
          </g>
        </g>
      </g>
      <g class="cls-3">
        <g class="cls-21">
          <g class="cls-3">
            <path class="cls-4" d="M193.5,2.09165V11.6423c0-100.97923-83.412-183.13287-185.949-183.13287a186.86118,186.86118,0,0,0-110.556,35.976v-9.55065a186.86118,186.86118,0,0,1,110.556-35.976c102.537,0,185.949,82.15364,185.949,183.13287" transform="translate(524.92908 522.30275)"/>
          </g>
        </g>
      </g>
      <g class="cls-3">
        <g class="cls-22">
          <g class="cls-3">
            <path class="cls-4" d="M440.046,2.09165V11.6423C440.046-223.21662,246.033-414.291,7.551-414.291a434.393,434.393,0,0,0-340.85395,164.0258v-9.55065A434.393,434.393,0,0,1,7.551-423.84164c238.482,0,432.495,191.07437,432.495,425.93329" transform="translate(524.92908 522.30275)"/>
            <path class="cls-8" d="M-333.30293-259.81584l0,9.55065a425.51493,425.51493,0,0,0-52.44719,84.75853v-9.55065a425.51493,425.51493,0,0,1,52.44719-84.75853" transform="translate(524.92908 522.30275)"/>
            <path class="cls-9" d="M-385.75011-175.05731l0,9.55065a418.0243,418.0243,0,0,0-29.44161,86.93913v-9.55065a418.0243,418.0243,0,0,1,29.44161-86.93913" transform="translate(524.92908 522.30275)"/>
            <path class="cls-10" d="M-415.19173-88.11818l0,9.55065A419.78652,419.78652,0,0,0-424.953,11.6423V2.09165a419.78652,419.78652,0,0,1,9.76122-90.20983" transform="translate(524.92908 522.30275)"/>
          </g>
        </g>
      </g>
      <g class="cls-3">
        <g class="cls-23">
          <g class="cls-3">
            <path class="cls-4" d="M-275.598-263.77984v9.55064q-13.47192,13.90845-25.51658,29.09755v-9.55064q12.02614-15.1709,25.51658-29.09755" transform="translate(524.92908 522.30275)"/>
            <path class="cls-8" d="M-301.11457-234.68229v9.55064A385.06322,385.06322,0,0,0-348.42741-148.576v-9.55065a385.06286,385.06286,0,0,1,47.31284-76.55562" transform="translate(524.92908 522.30275)"/>
            <path class="cls-9" d="M-348.42741-158.12667v9.55065a378.30207,378.30207,0,0,0-26.57311,78.46678v-9.55065a378.30207,378.30207,0,0,1,26.57311-78.46678" transform="translate(524.92908 522.30275)"/>
            <path class="cls-10" d="M-375.00052-79.65989v9.55065A379.9,379.9,0,0,0-383.859,11.6423V2.09165a379.90005,379.90005,0,0,1,8.85846-81.75154" transform="translate(524.92908 522.30275)"/>
          </g>
        </g>
      </g>
      <g class="cls-3">
        <g class="cls-24">
          <g class="cls-3">
            <path class="cls-4" d="M481.14,2.09165V11.6423c0-257.16777-212.454-466.39411-473.589-466.39411A475.65354,475.65354,0,0,0-365.68177-275.14723v-9.55065A475.65354,475.65354,0,0,1,7.551-464.30246c261.135,0,473.589,209.22634,473.589,466.39411" transform="translate(524.92908 522.30275)"/>
            <path class="cls-8" d="M-365.68175-284.69788l0,9.55065a465.93251,465.93251,0,0,0-57.42887,92.80936v-9.55065a465.93251,465.93251,0,0,1,57.42887-92.80936" transform="translate(524.92908 522.30275)"/>
            <path class="cls-9" d="M-423.11061-191.88852l0,9.55065a457.73846,457.73846,0,0,0-32.23865,95.19872V-96.6898a457.73846,457.73846,0,0,1,32.23865-95.19872" transform="translate(524.92908 522.30275)"/>
            <path class="cls-10" d="M-455.34927-96.6898l0,9.55065A459.67466,459.67466,0,0,0-466.038,11.6423V2.09165a459.67466,459.67466,0,0,1,10.6887-98.78145" transform="translate(524.92908 522.30275)"/>
          </g>
        </g>
      </g>
      <g class="cls-3">
        <g class="cls-25">
          <g class="cls-3">
            <path class="cls-4" d="M-19.161-341.90956v9.55065a351.65139,351.65139,0,0,0-249.46866,131.982v-9.55065A351.65142,351.65142,0,0,1-19.161-341.90956" transform="translate(524.92908 522.30275)"/>
            <path class="cls-8" d="M-268.62966-209.92756v9.55065a344.63453,344.63453,0,0,0-42.39095,68.5471v-9.55065a344.63481,344.63481,0,0,1,42.39095-68.5471" transform="translate(524.92908 522.30275)"/>
            <path class="cls-9" d="M-311.02061-141.38046v9.55065a338.59421,338.59421,0,0,0-23.83011,70.36509v-9.55065a338.59441,338.59441,0,0,1,23.83011-70.36509" transform="translate(524.92908 522.30275)"/>
            <path class="cls-10" d="M-334.85072-71.01537v9.55065a340.042,340.042,0,0,0-7.91426,73.107V2.09165a340.042,340.042,0,0,1,7.91426-73.107" transform="translate(524.92908 522.30275)"/>
          </g>
        </g>
      </g>
      <g class="cls-3">
        <g class="cls-26">
          <g class="cls-3">
            <path class="cls-4" d="M357.867,2.09165V11.6423c0-107.18352-49.887-203.10183-127.998-266.421v-9.55065c78.111,63.3192,127.998,159.23751,127.998,266.421" transform="translate(524.92908 522.30275)"/>
          </g>
        </g>
      </g>
      <g class="cls-3">
        <g class="cls-27">
          <g class="cls-3">
            <path class="cls-4" d="M316.773,2.09165V11.6423c0-83.42109-34.245-159.10456-89.604-214.15432v-9.55065c55.359,55.04976,89.604,130.73323,89.604,214.15432" transform="translate(524.92908 522.30275)"/>
          </g>
        </g>
      </g>
      <g class="cls-3">
        <g class="cls-28">
          <g class="cls-3">
            <path class="cls-4" d="M234.594,2.09165V11.6423c0-123.28808-101.853-223.59371-227.043-223.59371a228.0307,228.0307,0,0,0-178.93125,86.10272v-9.55065A228.03069,228.03069,0,0,1,7.551-221.502c125.19,0,227.043,100.30562,227.043,223.5937" transform="translate(524.92908 522.30275)"/>
            <path class="cls-8" d="M-171.38022-135.39934l0,9.55065a223.37016,223.37016,0,0,0-27.53168,44.49331V-90.906a223.37016,223.37016,0,0,1,27.53168-44.49331" transform="translate(524.92908 522.30275)"/>
            <path class="cls-9" d="M-198.91191-90.906l0,9.55065A219.44638,219.44638,0,0,0-214.3676-35.71571v-9.55065A219.44658,219.44658,0,0,1-198.91193-90.906" transform="translate(524.92908 522.30275)"/>
            <path class="cls-10" d="M-214.36757-45.26636l0,9.55065a220.37807,220.37807,0,0,0-5.12439,47.358V2.09165a220.37814,220.37814,0,0,1,5.12439-47.358" transform="translate(524.92908 522.30275)"/>
          </g>
        </g>
      </g>
      <rect class="cls-6" x="246.66708" y="532.65496" width="17.82001" height="9.55065"/>
      <rect class="cls-6" x="264.48709" y="532.65496" width="23.30099" height="9.55065"/>
      <rect class="cls-6" x="223.36609" y="532.65496" width="23.30099" height="9.55065"/>
      <rect class="cls-6" x="296.41908" y="532.65496" width="9.189" height="9.55065"/>
      <rect class="cls-6" x="287.78809" y="532.65496" width="8.631" height="9.55065"/>
      <rect class="cls-6" x="777.15407" y="533.08926" width="23.30101" height="9.55065"/>
      <g class="cls-3">
        <g class="cls-29">
          <g class="cls-3">
            <path class="cls-10" d="M46.944,2.09165V11.6423a38.21563,38.21563,0,0,1-.89128,8.22476V10.31641A38.21556,38.21556,0,0,0,46.944,2.09165" transform="translate(524.92908 522.30275)"/>
            <path class="cls-9" d="M46.05272,10.31641v9.55065a38.04584,38.04584,0,0,1-2.675,7.89633V18.21274a38.04584,38.04584,0,0,0,2.675-7.89633" transform="translate(524.92908 522.30275)"/>
            <path class="cls-8" d="M43.37774,18.21274v9.55065a38.72972,38.72972,0,0,1-4.76381,7.70387V25.91661a38.72972,38.72972,0,0,0,4.76381-7.70387" transform="translate(524.92908 522.30275)"/>
            <path class="cls-4" d="M38.61393,25.91661v9.55065A39.562,39.562,0,0,1,16.452,49.42641V39.87577A39.562,39.562,0,0,0,38.61393,25.91661" transform="translate(524.92908 522.30275)"/>
          </g>
        </g>
      </g>
      <g class="cls-3">
        <g class="cls-30">
          <g class="cls-3">
            <path class="cls-4" d="M-1.35,39.87577v9.55064A38.98757,38.98757,0,0,1-31.842,11.6423V2.09165A38.98759,38.98759,0,0,0-1.35,39.87577" transform="translate(524.92908 522.30275)"/>
          </g>
        </g>
      </g>
      <path class="cls-31" d="M7.551-36.70288c21.717,0,39.393,17.3986,39.393,38.79453A38.98759,38.98759,0,0,1,16.452,39.87577V21.44017A21.26942,21.26942,0,0,0,29.142,2.09165a21.451,21.451,0,0,0-21.591-21.263A21.451,21.451,0,0,0-14.04,2.09165,21.26942,21.26942,0,0,0-1.35,21.44017v18.4356A38.98759,38.98759,0,0,1-31.842,2.09165C-31.842-19.30428-14.175-36.70288,7.551-36.70288Z" transform="translate(524.92908 522.30275)"/>
      <g class="cls-3">
        <g class="cls-32">
          <g class="cls-3">
            <path class="cls-4" d="M-53.739,53.40112v9.55064a78.33366,78.33366,0,0,1-18.756-43.0489V10.35222a78.33372,78.33372,0,0,0,18.756,43.0489" transform="translate(524.92908 522.30275)"/>
          </g>
        </g>
      </g>
      <g class="cls-3">
        <g class="cls-33">
          <g class="cls-3">
            <path class="cls-10" d="M87.597,10.35222v9.55064a77.77875,77.77875,0,0,1-1.38334,8.52732V18.87953A77.779,77.779,0,0,0,87.597,10.35222" transform="translate(524.92908 522.30275)"/>
            <path class="cls-9" d="M86.21366,18.87953v9.55065A77.81678,77.81678,0,0,1,80.73532,44.6071V35.05645a77.81678,77.81678,0,0,0,5.47834-16.17692" transform="translate(524.92908 522.30275)"/>
            <path class="cls-8" d="M80.73532,35.05645V44.6071a79.19784,79.19784,0,0,1-9.755,15.76838V50.82483a79.19784,79.19784,0,0,0,9.755-15.76838" transform="translate(524.92908 522.30275)"/>
            <path class="cls-4" d="M70.98036,50.82483v9.55065A80.82465,80.82465,0,0,1,7.551,90.90652a80.87213,80.87213,0,0,1-48.33-15.91844V65.43743A80.87213,80.87213,0,0,0,7.551,81.35587a80.82462,80.82462,0,0,0,63.42936-30.531" transform="translate(524.92908 522.30275)"/>
          </g>
        </g>
      </g>
      <polygon class="cls-4" points="484.15 587.74 484.15 597.291 467.581 613.608 467.581 604.057 484.15 587.74"/>
      <g class="cls-3">
        <g class="cls-34">
          <g class="cls-3">
            <path class="cls-4" d="M-1.35,121.49761v9.55065c-62.901-4.50253-112.68-56.33494-112.68-119.406V2.09165c0,63.071,49.779,114.90343,112.68,119.406" transform="translate(524.92908 522.30275)"/>
          </g>
        </g>
      </g>
      <g class="cls-3">
        <g class="cls-35">
          <g class="cls-3">
            <path class="cls-10" d="M129.123,2.09165V11.6423a118.01327,118.01327,0,0,1-2.74652,25.37153V27.46319A118.01343,118.01343,0,0,0,129.123,2.09165" transform="translate(524.92908 522.30275)"/>
            <path class="cls-9" d="M126.37648,27.46319v9.55064a117.50454,117.50454,0,0,1-8.27025,24.42031V51.88349a117.50446,117.50446,0,0,0,8.27025-24.4203" transform="translate(524.92908 522.30275)"/>
            <path class="cls-8" d="M118.10623,51.88349v9.55065A119.59444,119.59444,0,0,1,103.39311,85.2244V75.67375a119.59444,119.59444,0,0,0,14.71312-23.79026" transform="translate(524.92908 522.30275)"/>
            <path class="cls-4" d="M103.39311,75.67375V85.2244A122.03486,122.03486,0,0,1,16.452,131.04826v-9.55065a122.03486,122.03486,0,0,0,86.94111-45.82386" transform="translate(524.92908 522.30275)"/>
          </g>
        </g>
      </g>
      <g class="cls-3">
        <g class="cls-36">
          <g class="cls-3">
            <path class="cls-10" d="M170.217,2.09165V11.6423a157.88371,157.88371,0,0,1-3.67125,33.92837V36.02A157.88371,157.88371,0,0,0,170.217,2.09165" transform="translate(524.92908 522.30275)"/>
            <path class="cls-9" d="M166.54575,36.02v9.55065a157.21954,157.21954,0,0,1-11.07308,32.69809V68.71811A157.21954,157.21954,0,0,0,166.54575,36.02" transform="translate(524.92908 522.30275)"/>
            <path class="cls-8" d="M155.47267,68.71811v9.55065a160.03693,160.03693,0,0,1-19.72548,31.87784V100.596a160.03693,160.03693,0,0,0,19.72548-31.87784" transform="translate(524.92908 522.30275)"/>
            <path class="cls-4" d="M135.74719,100.596v9.55065A163.37634,163.37634,0,0,1,7.551,171.837c-89.694,0-162.666-71.86339-162.666-160.19473V2.09165c0,88.33134,72.972,160.19473,162.666,160.19473A163.37634,163.37634,0,0,0,135.74719,100.596" transform="translate(524.92908 522.30275)"/>
          </g>
        </g>
      </g>
      <g class="cls-3">
        <g class="cls-37">
          <g class="cls-3">
            <path class="cls-10" d="M211.311,2.09165V11.6423a197.78088,197.78088,0,0,1-4.59892,42.502V44.59368a197.781,197.781,0,0,0,4.59892-42.502" transform="translate(524.92908 522.30275)"/>
            <path class="cls-9" d="M206.71207,44.59368v9.55064a196.94075,196.94075,0,0,1-13.87057,40.959V85.55268a196.94086,196.94086,0,0,0,13.87057-40.959" transform="translate(524.92908 522.30275)"/>
            <path class="cls-8" d="M192.8415,85.55268v9.55065a200.46153,200.46153,0,0,1-24.708,39.93v-9.55065a200.46125,200.46125,0,0,0,24.708-39.93005" transform="translate(524.92908 522.30275)"/>
            <path class="cls-4" d="M168.13347,125.48273v9.55065A204.648,204.648,0,0,1,7.551,212.30672c-112.356,0-203.76-90.01536-203.76-200.66442V2.09165c0,110.64906,91.404,200.66443,203.76,200.66443a204.648,204.648,0,0,0,160.58247-77.27335" transform="translate(524.92908 522.30275)"/>
          </g>
        </g>
      </g>
      <path class="cls-31" d="M7.551-198.57277c112.356,0,203.76,90.01536,203.76,200.66442S119.907,202.75608,7.551,202.75608s-203.76-90.01537-203.76-200.66443c0-58.74575,25.767-111.6772,66.753-148.40659l12.609,12.40859,16.407,16.29955A163.42157,163.42157,0,0,1,7.551-158.10309a163.419,163.419,0,0,1,114.264,46.29286L109.233-99.41938A145.54252,145.54252,0,0,0,7.551-140.57154c-79.875,0-144.864,64.00167-144.864,142.66319,0,75.71891,60.21,137.84156,135.963,142.37956v-22.9736c-62.901-4.50253-112.68-56.33494-112.68-119.406,0-66.0225,54.54-119.73391,121.581-119.73391,2.988,0,5.958.11522,8.901.32794v40.63809c37.107,4.04165,66.672,33.02455,71.01,69.4969H69.525C64.962-36.83583,38.907-59.641,7.551-59.641c-31.365,0-57.42,22.80519-61.974,52.46169H-72.369c4.338-36.47235,33.912-65.45525,71.019-69.4969V-99.703C-54.414-95.23592-96.219-51.30069-96.219,2.09165a100.848,100.848,0,0,0,25.992,67.547l16.488-16.23751a78.33372,78.33372,0,0,1-18.756-43.0489h17.946c4.113,30.144,30.384,53.46324,62.1,53.46324s57.987-23.31926,62.1-53.46324H87.597C83.385,50.19261,49.095,81.35587,7.551,81.35587a80.87213,80.87213,0,0,1-48.33-15.91844L-57.348,81.75471A104.28189,104.28189,0,0,0,7.551,104.28514c57.222,0,103.77-45.84083,103.77-102.19349,0-47.25009-32.751-87.07276-77.067-98.71023v-18.10767c54.234,12.02747,94.869,59.82708,94.869,116.8179,0,63.071-49.77,114.90343-112.671,119.406v22.9736c75.744-4.538,135.963-66.66065,135.963-142.37956A140.64661,140.64661,0,0,0,121.14-86.34606l12.654-12.46175A157.94436,157.94436,0,0,1,170.217,2.09165c0,88.33134-72.972,160.19473-162.666,160.19473S-155.115,90.423-155.115,2.09165a158.21734,158.21734,0,0,1,42.03-107.35192l-16.47-16.21979A180.9255,180.9255,0,0,0-178.407,2.09165c0,100.97923,83.421,183.124,185.958,183.124S193.5,103.07088,193.5,2.09165,110.088-181.04122,7.551-181.04122a186.86118,186.86118,0,0,0-110.556,35.976l-12.708-12.51493A204.76679,204.76679,0,0,1,7.551-198.57277Z" transform="translate(524.92908 522.30275)"/>
      <g class="cls-3">
        <g class="cls-38">
          <g class="cls-3">
            <path class="cls-10" d="M252.225,10.78652v9.55064a237.25028,237.25028,0,0,1-5.37739,42.40745V53.194A237.25051,237.25051,0,0,0,252.225,10.78652" transform="translate(524.92908 522.30275)"/>
            <path class="cls-9" d="M246.8476,53.194v9.55064a236.70257,236.70257,0,0,1-16.63889,49.14229v-9.55065A236.70248,236.70248,0,0,0,246.8476,53.194" transform="translate(524.92908 522.30275)"/>
            <path class="cls-8" d="M230.20871,102.33625v9.55065a240.9058,240.9058,0,0,1-29.63781,47.9392v-9.55065a240.9058,240.9058,0,0,0,29.63781-47.9392" transform="translate(524.92908 522.30275)"/>
            <path class="cls-4" d="M200.5709,150.27545v9.55065A245.88163,245.88163,0,0,1,7.551,252.77641c-126.162,0-230.337-94.46473-243.45-215.33314V27.89263C-222.786,148.761-118.611,243.22576,7.551,243.22576a245.88163,245.88163,0,0,0,193.0199-92.95031" transform="translate(524.92908 522.30275)"/>
          </g>
        </g>
      </g>
      <g class="cls-3">
        <g class="cls-39">
          <g class="cls-3">
            <path class="cls-4" d="M-260.379,250.4316v9.55065c-62.082-64.93232-100.197-152.333-100.197-248.33995V2.09165c0,96.00693,38.115,183.40763,100.197,248.34" transform="translate(524.92908 522.30275)"/>
          </g>
        </g>
      </g>
      <polygon class="cls-4" points="236.119 775.89 236.119 785.44 223.474 797.831 223.474 788.281 236.119 775.89"/>
      <g class="cls-3">
        <g class="cls-40">
          <g class="cls-3">
            <path class="cls-4" d="M-301.455,265.97779v9.55064C-363.843,204.77294-401.661,112.47971-401.661,11.6423V2.09165c0,100.83741,37.818,193.13064,100.206,263.88614" transform="translate(524.92908 522.30275)"/>
          </g>
        </g>
      </g>
      <polygon class="cls-4" points="277.069 785.205 277.069 794.756 265.891 805.764 265.891 796.213 277.069 785.205"/>
      <g class="cls-3">
        <g class="cls-41">
          <g class="cls-3">
            <path class="cls-10" d="M293.49,10.78652v9.55064a277.47546,277.47546,0,0,1-6.32345,50.741V61.52747A277.47535,277.47535,0,0,0,293.49,10.78652" transform="translate(524.92908 522.30275)"/>
            <path class="cls-9" d="M287.16654,61.52747v9.55065a276.77105,276.77105,0,0,1-19.4834,57.53157V119.059a276.77105,276.77105,0,0,0,19.4834-57.53157" transform="translate(524.92908 522.30275)"/>
            <path class="cls-8" d="M267.68314,119.059v9.55065A281.64239,281.64239,0,0,1,233.01,184.66426v-9.55065A281.64211,281.64211,0,0,0,267.68314,119.059" transform="translate(524.92908 522.30275)"/>
            <path class="cls-4" d="M233.01,175.11361v9.55065A287.109,287.109,0,0,1,34.254,291.99637v-9.55064A287.109,287.109,0,0,0,233.01,175.11361" transform="translate(524.92908 522.30275)"/>
          </g>
        </g>
      </g>
      <g class="cls-3">
        <g class="cls-42">
          <g class="cls-3">
            <path class="cls-4" d="M-1.35,283.5359v9.55065c-144.801-4.37844-262.827-115.2934-275.832-255.64328V27.89263C-264.177,168.2425-146.151,279.15746-1.35,283.5359" transform="translate(524.92908 522.30275)"/>
          </g>
        </g>
      </g>
      <polygon class="cls-4" points="265.891 796.213 265.891 805.764 243.994 827.319 243.994 817.769 265.891 796.213"/>
      <polygon class="cls-4" points="243.994 817.769 243.994 827.319 231.565 839.568 231.565 830.018 243.994 817.769"/>
      <g class="cls-3">
        <g class="cls-43">
          <g class="cls-3">
            <path class="cls-4" d="M-305.937,320.12349v9.55065c-84.33-80.6469-136.818-193.40541-136.818-318.03184V2.09165c0,124.62644,52.488,237.38494,136.818,318.03184" transform="translate(524.92908 522.30275)"/>
          </g>
        </g>
      </g>
      <polygon class="cls-4" points="231.565 830.018 231.565 839.568 218.992 851.977 218.992 842.426 231.565 830.018"/>
      <g class="cls-3">
        <g class="cls-44">
          <g class="cls-3">
            <path class="cls-10" d="M334.584,2.09165V11.6423a317.411,317.411,0,0,1-7.38072,68.20988V70.30153A317.41089,317.41089,0,0,0,334.584,2.09165" transform="translate(524.92908 522.30275)"/>
            <path class="cls-9" d="M327.20326,70.30153v9.55065A316.08323,316.08323,0,0,1,304.94138,145.59v-9.55065a316.08323,316.08323,0,0,0,22.26188-65.7378" transform="translate(524.92908 522.30275)"/>
            <path class="cls-8" d="M304.94138,136.03933V145.59a321.75145,321.75145,0,0,1-39.65769,64.08974v-9.55065a321.75116,321.75116,0,0,0,39.65769-64.08974" transform="translate(524.92908 522.30275)"/>
            <path class="cls-4" d="M265.28369,200.12907v9.55065A328.46227,328.46227,0,0,1,7.551,333.70693c-180.324,0-327.033-144.48016-327.033-322.06463V2.09165c0,177.58447,146.709,322.06463,327.033,322.06463A328.46227,328.46227,0,0,0,265.28369,200.12907" transform="translate(524.92908 522.30275)"/>
          </g>
        </g>
      </g>
      <g class="cls-3">
        <g class="cls-45">
          <g class="cls-3">
            <path class="cls-10" d="M457.857,2.09165V11.6423a436.90906,436.90906,0,0,1-10.19081,94.03249V96.12414A436.909,436.909,0,0,0,457.857,2.09165" transform="translate(524.92908 522.30275)"/>
            <path class="cls-9" d="M447.66618,96.12414v9.55065a435.14842,435.14842,0,0,1-30.56386,90.245v-9.55065a435.14842,435.14842,0,0,0,30.56386-90.245" transform="translate(524.92908 522.30275)"/>
            <path class="cls-8" d="M417.10232,186.36918v9.55065a443.05389,443.05389,0,0,1-54.46414,88.11646v-9.55064a443.05425,443.05425,0,0,0,54.46414-88.11647" transform="translate(524.92908 522.30275)"/>
            <path class="cls-4" d="M362.63818,274.48565v9.55064A450.46078,450.46078,0,0,1,304.281,344.91011v-9.55065a450.46129,450.46129,0,0,0,58.35717-60.87381" transform="translate(524.92908 522.30275)"/>
          </g>
        </g>
      </g>
      <g class="cls-3">
        <g class="cls-46">
          <g class="cls-3">
            <path class="cls-10" d="M375.669,2.09165V11.6423a357.31987,357.31987,0,0,1-8.30859,76.78592V78.87757A357.31987,357.31987,0,0,0,375.669,2.09165" transform="translate(524.92908 522.30275)"/>
            <path class="cls-9" d="M367.36039,78.87757v9.55065a355.79927,355.79927,0,0,1-25.059,73.9977v-9.55065a355.79927,355.79927,0,0,0,25.059-73.9977" transform="translate(524.92908 522.30275)"/>
            <path class="cls-8" d="M342.30143,152.87527v9.55065a362.15713,362.15713,0,0,1-44.63795,72.13835v-9.55065a362.15685,362.15685,0,0,0,44.63795-72.13835" transform="translate(524.92908 522.30275)"/>
            <path class="cls-4" d="M297.66348,225.01362v9.55065A369.72184,369.72184,0,0,1,7.551,374.16774,369.81575,369.81575,0,0,1-247.86,272.45286v-9.55064A369.8158,369.8158,0,0,0,7.551,364.6171,369.72185,369.72185,0,0,0,297.66348,225.01362" transform="translate(524.92908 522.30275)"/>
          </g>
        </g>
      </g>
      <g class="cls-3">
        <g class="cls-47">
          <g class="cls-3">
            <path class="cls-10" d="M498.942,2.09165V11.6423a476.93646,476.93646,0,0,1-11.11894,102.6224v-9.55065A476.93646,476.93646,0,0,0,498.942,2.09165" transform="translate(524.92908 522.30275)"/>
            <path class="cls-9" d="M487.82305,104.71405v9.55065a474.95845,474.95845,0,0,1-33.37887,98.55522v-9.55064a474.95854,474.95854,0,0,0,33.37887-98.55523" transform="translate(524.92908 522.30275)"/>
            <path class="cls-8" d="M454.44418,203.26928v9.55064A483.47124,483.47124,0,0,1,395.08889,308.866v-9.55065a483.47145,483.47145,0,0,0,59.35529-96.04608" transform="translate(524.92908 522.30275)"/>
            <path class="cls-4" d="M395.08889,299.31536V308.866A491.79059,491.79059,0,0,1,319.86,384.99868V375.448a491.79059,491.79059,0,0,0,75.2289-76.13267" transform="translate(524.92908 522.30275)"/>
          </g>
        </g>
      </g>
      <polygon class="cls-6" points="844.789 897.751 844.789 907.301 815.548 878.558 815.548 869.007 844.789 897.751"/>
      <g class="cls-3">
        <g class="cls-48">
          <g class="cls-3">
            <path class="cls-10" d="M416.763,2.09165V11.6423a397.18024,397.18024,0,0,1-9.23555,85.35181V87.44346A397.18024,397.18024,0,0,0,416.763,2.09165" transform="translate(524.92908 522.30275)"/>
            <path class="cls-9" d="M407.52745,87.44346v9.55065a395.51284,395.51284,0,0,1-27.85608,82.25714v-9.55064a395.51313,395.51313,0,0,0,27.85608-82.25715" transform="translate(524.92908 522.30275)"/>
            <path class="cls-8" d="M379.67137,169.70061v9.55064a402.59919,402.59919,0,0,1-49.62265,80.19389v-9.55065a402.59912,402.59912,0,0,0,49.62265-80.19388" transform="translate(524.92908 522.30275)"/>
            <path class="cls-4" d="M330.04872,249.89449v9.55065A410.99922,410.99922,0,0,1,7.551,414.63743,411.10289,411.10289,0,0,1-263.835,312.97574v-9.55065A411.10289,411.10289,0,0,0,7.551,405.08678,410.99919,410.99919,0,0,0,330.04872,249.89449" transform="translate(524.92908 522.30275)"/>
          </g>
        </g>
      </g>
      <g class="cls-3">
        <g class="cls-49">
          <g class="cls-3">
            <path class="cls-4" d="M290.619,346.70443v9.55065a452.4447,452.4447,0,0,1-283.068,98.852,452.40945,452.40945,0,0,1-300.465-113.4587v-9.55065A452.40945,452.40945,0,0,0,7.551,445.55646a452.4447,452.4447,0,0,0,283.068-98.852" transform="translate(524.92908 522.30275)"/>
          </g>
        </g>
      </g>
      <path class="cls-31" d="M7.551-481.84287c270.954,0,491.391,217.09691,491.391,483.93452,0,150.13492-69.786,284.51982-179.082,373.35638l-29.241-28.7436a452.4447,452.4447,0,0,1-283.068,98.852,452.40945,452.40945,0,0,1-300.465-113.4587l12.609-12.41745A434.50684,434.50684,0,0,0,7.551,428.01608c238.482,0,432.495-191.06551,432.495-425.92443S246.033-423.84164,7.551-423.84164-424.953-232.76727-424.953,2.09165c0,113.46758,45.333,216.68036,119.043,293.09061l16.434-16.18435,12.609-12.37312,16.488-16.19319c-62.082-64.93232-100.197-152.333-100.197-248.33995,0-96.66282,38.628-184.58646,101.466-249.64286l-16.488-16.22863C-342.639-194.56658-383.859-100.89068-383.859,2.09165c0,96.02466,35.847,183.93943,95.049,251.49528l-12.645,12.39086c-62.388-70.7555-100.206-163.04873-100.206-263.88614,0-222.211,183.573-402.99515,409.212-402.99515S416.763-220.11938,416.763,2.09165,233.19,405.08678,7.551,405.08678A411.10289,411.10289,0,0,1-263.835,303.42509l12.609-12.40858A393.20634,393.20634,0,0,0,7.551,387.55523c215.82,0,391.41-172.92237,391.41-385.46358,0-212.55007-175.59-385.46361-391.41-385.46361A393.2228,393.2228,0,0,0-263.007-276.18843l16.47,16.22865A369.56935,369.56935,0,0,1-19.161-359.47657v17.567c-180.738,13.481-323.604,162.6144-323.604,344.00121,0,190.23236,157.149,344.9939,350.316,344.9939S357.867,192.324,357.867,2.09165c0-107.18352-49.887-203.10183-127.998-266.421l-16.551,16.29956L200.655-235.5592A310.6753,310.6753,0,0,0,7.551-302.44142c-167.355,0-304.074,131.61955-309.069,295.26209h11.367l44.748.00886,8.298-.00886c4.968-128.67695,112.797-231.86314,244.656-231.86314,132.003,0,239.931,103.41664,244.665,232.29744h41.121l.153,8.82782v8.70373C288.927,153.24585,176.562,269.40784,34.254,282.44573V264.84328C166.734,251.88516,271.134,143.576,275.526,10.78652H252.225C247.554,139.73822,139.599,243.22576,7.551,243.22576c-126.162,0-230.337-94.46473-243.45-215.33313h17.919C-204.948,139.07347-108.783,225.68534,7.551,225.68534c125.19,0,227.043-100.30562,227.043-223.59369S132.741-221.502,7.551-221.502c-125.199,0-227.043,100.30562-227.043,223.5937,0,2.76534.063,5.52182.171,8.26057h-82.242C-297.18,171.54849-164.97,301.90947-1.35,306.4829v-22.947c-144.801-4.37844-262.827-115.2934-275.832-255.64327h17.874C-246.096,161.42664-131.463,266.155,7.551,266.155c2.979,0,5.94-.07089,8.901-.15955V306.4829c166.41-4.65319,300.321-139.41036,300.321-304.39125,0-83.42109-34.245-159.10456-89.604-214.15432l-16.47,16.21092c45.234,45.03427,75.195,104.9677,81.513,171.57517H274.32C260.838-157.5447,146.358-261.97174,7.551-261.97174c-138.663,0-253.044,104.20545-266.733,237.26972h-17.883C-263.322-167.45383-140.94-279.50329,7.551-279.50329a287.16951,287.16951,0,0,1,190.233,71.57976l16.497-16.24637,12.609-12.41743C292.995-177.62,334.584-92.46171,334.584,2.09165c0,177.58447-146.709,322.06463-327.033,322.06463S-319.482,179.67612-319.482,2.09165c0-174.6596,141.903-317.27847,318.132-321.94053v-40.47855c2.952-.07093,5.922-.11523,8.901-.11523A370.06208,370.06208,0,0,1,213.786-298.063l-12.861,12.639A351.86312,351.86312,0,0,0,16.452-342.77818V-319.84a328.46569,328.46569,0,0,1,182.61,61.05017l13.536-13.3392,15.867-15.59049C317.799-221.51092,375.669-116.24187,375.669,2.09165c0,199.90218-165.132,362.52545-368.118,362.52545A369.8158,369.8158,0,0,1-247.86,262.90222l-11.178,11.00819-21.897,21.55547-12.429,12.249-12.573,12.40858c-84.33-80.6469-136.818-193.4054-136.818-318.03184,0-244.52874,202.005-443.46484,450.306-443.46484S457.857-242.43709,457.857,2.09165c0,132.68315-59.499,251.92956-153.576,333.26781l16.497,16.24635C419.058,266.08415,481.14,141.10317,481.14,2.09165c0-257.16777-212.454-466.39411-473.589-466.39411-261.144,0-473.589,209.22634-473.589,466.39411S-253.593,468.48576,7.551,468.48576a475.84069,475.84069,0,0,0,285.57-94.57108l12.708,12.51494A493.80608,493.80608,0,0,1,7.551,486.01731c-270.954,0-491.4-217.08808-491.4-483.92566S-263.403-481.84287,7.551-481.84287Z" transform="translate(524.92908 522.30275)"/>
      <g class="cls-3">
        <g class="cls-50">
          <g class="cls-3">
            <path class="cls-4" d="M305.829,386.42962v9.55065A493.80608,493.80608,0,0,1,7.551,495.568c-270.954,0-491.4-217.08808-491.4-483.92566V2.09165c0,266.83758,220.446,483.92566,491.4,483.92566a493.80608,493.80608,0,0,0,298.278-99.58769" transform="translate(524.92908 522.30275)"/>
          </g>
        </g>
      </g>
      <g class="cls-3">
        <g class="cls-51">
          <g class="cls-3">
            <path class="cls-10" d="M540.03546,2.08992v9.55065a516.84113,516.84113,0,0,1-12.01791,111.06617v-9.55065A516.84113,516.84113,0,0,0,540.03546,2.08992" transform="translate(524.92908 522.30275)"/>
            <path class="cls-9" d="M528.01755,113.15609v9.55065a514.65442,514.65442,0,0,1-36.24721,107.03579v-9.55065a514.65442,514.65442,0,0,0,36.24721-107.03579" transform="translate(524.92908 522.30275)"/>
            <path class="cls-8" d="M491.77034,220.19188v9.55065a523.86443,523.86443,0,0,1-64.56938,104.349v-9.55065a523.86414,523.86414,0,0,0,64.56938-104.349" transform="translate(524.92908 522.30275)"/>
            <path class="cls-4" d="M427.201,324.54083v9.55065A534.81526,534.81526,0,0,1,7.5461,536.03324c-293.60993,0-532.47518-235.23635-532.47518-524.39267V2.08992c0,289.15632,238.86525,524.39267,532.47518,524.39267A534.81526,534.81526,0,0,0,427.201,324.54083" transform="translate(524.92908 522.30275)"/>
          </g>
        </g>
      </g>
      <path class="cls-31" d="M7.5461-522.30275c293.617,0,532.48936,235.24334,532.48936,524.39267,0,289.15632-238.87234,524.39267-532.48936,524.39267-293.60993,0-532.47518-235.23635-532.47518-524.39267C-524.92908-287.05941-286.06383-522.30275,7.5461-522.30275Zm0,1031.25437c283.80142,0,514.68085-227.37884,514.68085-506.8617S291.34752-504.77177,7.5461-504.77177c-283.78723,0-514.67376,227.37884-514.67376,506.86169S-276.24113,508.95162,7.5461,508.95162" transform="translate(524.92908 522.30275)"/>
    </g>
  </g>
</svg>
