<svg xmlns="http://www.w3.org/2000/svg" width="229" height="229" viewBox="0 0 229 229">
  <defs>
    <style>
      .cls-1 {
        fill: none;
        stroke: #fff;
        stroke-miterlimit: 10;
        stroke-width: 2px;
      }

      .cls-2 {
        fill: #fff;
      }
    </style>
  </defs>
  <g id="Layer_2" data-name="Layer 2">
    <g id="PROJECTS">
      <path class="cls-1" d="M114.5,1A113.5,113.5,0,1,0,228,114.5,113.5,113.5,0,0,0,114.5,1Z"/>
      <g>
        <path class="cls-2" d="M100.51965,107.3623V83.37695h-.11718L93.63293,107.3623h-2.5288L84.37366,83.37695h-.11719V107.3623H81.68274V79.75H85.7384l6.59131,23.32227h.15576L98.99866,79.75h4.21191v27.6123Z"/>
        <path class="cls-2" d="M121.69641,97.72949a17.21671,17.21671,0,0,1-.46826,4.17285,11.1313,11.1313,0,0,1-1.32568,3.23731,6.20606,6.20606,0,0,1-2.12549,2.10547,5.49956,5.49956,0,0,1-2.82764.74121,5.39391,5.39391,0,0,1-2.8081-.74121,6.42464,6.42464,0,0,1-2.12549-2.10547,10.78359,10.78359,0,0,1-1.34571-3.23731,17.2177,17.2177,0,0,1-.46777-4.17285,18.42435,18.42435,0,0,1,.44873-4.21191,10.70751,10.70751,0,0,1,1.30615-3.27637,6.20192,6.20192,0,0,1,2.12549-2.10547,5.5711,5.5711,0,0,1,2.8667-.74121,5.49956,5.49956,0,0,1,2.82764.74121,6.21455,6.21455,0,0,1,2.12549,2.10547,11.09926,11.09926,0,0,1,1.32568,3.27637A17.70556,17.70556,0,0,1,121.69641,97.72949Zm-2.65234-.05859a18.91623,18.91623,0,0,0-.25342-3.19043,9.875,9.875,0,0,0-.76025-2.54785,4.80334,4.80334,0,0,0-1.26758-1.69239,2.77249,2.77249,0,0,0-1.81348-.623,2.84989,2.84989,0,0,0-1.833.623,4.5001,4.5001,0,0,0-1.26758,1.69239,10.38228,10.38228,0,0,0-.74121,2.54785,18.91626,18.91626,0,0,0-.25341,3.19043,18.21662,18.21662,0,0,0,.25341,3.15137,10.75393,10.75393,0,0,0,.74121,2.52929,4.30048,4.30048,0,0,0,1.26758,1.69239,3.08945,3.08945,0,0,0,3.666,0,4.31892,4.31892,0,0,0,1.26758-1.69239,10.8006,10.8006,0,0,0,.74072-2.52929A18.21658,18.21658,0,0,0,119.04407,97.6709Z"/>
        <path class="cls-2" d="M130.93909,88.56445a3.54544,3.54544,0,0,1,2.57373-1.13086,2.06176,2.06176,0,0,1,.46826.03907L133.903,90.124q-.156-.03808-.29248-.05859a2.4448,2.4448,0,0,0-.33154-.01953,2.5683,2.5683,0,0,0-1.73535.66308,5.26392,5.26392,0,0,0-1.26758,1.7168,9.58147,9.58147,0,0,0-.76074,2.39844,14.357,14.357,0,0,0-.25342,2.6709v9.86718h-2.57373V92.89355q0-.624-.01953-1.3457-.0205-.7207-.03906-1.4043-.02052-.68115-.03907-1.248c-.01367-.376-.03271-.66895-.05859-.877H129.028q.07764.74122.11719,1.85254.03809,1.11036.03858,2.35938h.07812A7.29818,7.29818,0,0,1,130.93909,88.56445Z"/>
        <path class="cls-2" d="M138.38782,98.23633a14.76828,14.76828,0,0,0,.27392,2.94433,8.63727,8.63727,0,0,0,.80323,2.33985,4.37839,4.37839,0,0,0,1.33252,1.56054,3.21879,3.21879,0,0,0,1.90136.56543,3.08119,3.08119,0,0,0,2.273-.85839,5.88626,5.88626,0,0,0,1.333-2.06641l1.94971,1.13086a7.48152,7.48152,0,0,1-2.08643,2.94434,5.2256,5.2256,0,0,1-3.5293,1.18945,5.6906,5.6906,0,0,1-5.03125-2.73047,13.593,13.593,0,0,1-1.79394-7.52637,17.57583,17.57583,0,0,1,.46631-4.17285,10.73144,10.73144,0,0,1,1.34179-3.27637,6.545,6.545,0,0,1,2.13819-2.125,5.812,5.812,0,0,1,5.71582-.01953,5.67163,5.67163,0,0,1,1.92529,2.02735,9.687,9.687,0,0,1,1.06885,3.00293,19.39047,19.39047,0,0,1,.33057,3.666v1.4043Zm7.83886-2.14551a10.43224,10.43224,0,0,0-.90185-4.69922,2.97374,2.97374,0,0,0-2.82227-1.77441,2.74693,2.74693,0,0,0-1.90039.68261,5.43809,5.43809,0,0,0-1.25439,1.67676,8.31984,8.31984,0,0,0-.70557,2.126,10.80337,10.80337,0,0,0-.21582,1.98828Z"/>
        <path class="cls-2" d="M68.38342,148.71289a5.26413,5.26413,0,0,1-1.28711.15625,3.06429,3.06429,0,0,1-2.86621-1.4043,7.25211,7.25211,0,0,1-.83886-3.74316V131.124H60.85657v-2.10547h2.49609v-5.34277h2.53467v5.34277h3.43213V131.124H65.88733v12.12891a4.919,4.919,0,0,0,.50732,2.55469,1.68022,1.68022,0,0,0,1.521.7998,3.03712,3.03712,0,0,0,.74072-.09765,4.367,4.367,0,0,0,.66309-.21485l.11719,2.06738A6.22325,6.22325,0,0,1,68.38342,148.71289Z"/>
        <path class="cls-2" d="M85.23157,138.72949a17.21671,17.21671,0,0,1-.46826,4.17285,11.13131,11.13131,0,0,1-1.32569,3.23731,6.206,6.206,0,0,1-2.12549,2.10547,5.4995,5.4995,0,0,1-2.82763.74121,5.394,5.394,0,0,1-2.80811-.74121,6.42464,6.42464,0,0,1-2.12549-2.10547,10.78332,10.78332,0,0,1-1.3457-3.23731,17.2177,17.2177,0,0,1-.46777-4.17285,18.42435,18.42435,0,0,1,.44873-4.21191,10.70725,10.70725,0,0,1,1.30615-3.27637,6.20184,6.20184,0,0,1,2.12549-2.10547,5.57107,5.57107,0,0,1,2.8667-.74121,5.4995,5.4995,0,0,1,2.82763.74121,6.21446,6.21446,0,0,1,2.12549,2.10547,11.09927,11.09927,0,0,1,1.32569,3.27637A17.70556,17.70556,0,0,1,85.23157,138.72949Zm-2.65235-.05859a18.91626,18.91626,0,0,0-.25341-3.19043,9.87541,9.87541,0,0,0-.76026-2.54785,4.80322,4.80322,0,0,0-1.26758-1.69239,2.77244,2.77244,0,0,0-1.81347-.623,2.84989,2.84989,0,0,0-1.833.623,4.5,4.5,0,0,0-1.26758,1.69239,10.38228,10.38228,0,0,0-.74121,2.54785,18.91519,18.91519,0,0,0-.25342,3.19043,18.21559,18.21559,0,0,0,.25342,3.15137,10.75393,10.75393,0,0,0,.74121,2.52929,4.30038,4.30038,0,0,0,1.26758,1.69239,3.08943,3.08943,0,0,0,3.666,0,4.31873,4.31873,0,0,0,1.26758-1.69239,10.80059,10.80059,0,0,0,.74073-2.52929A18.21662,18.21662,0,0,0,82.57922,138.6709Z"/>
        <path class="cls-2" d="M102.78088,148.98633a5.43483,5.43483,0,0,1-2.88574-.76074,6.3378,6.3378,0,0,1-2.08691-2.10547,10.44435,10.44435,0,0,1-1.26709-3.23731,20.69,20.69,0,0,1,0-8.38476,10.389,10.389,0,0,1,1.28662-3.25684,6.26642,6.26642,0,0,1,2.106-2.10547,5.54512,5.54512,0,0,1,2.88623-.74121,5.36273,5.36273,0,0,1,4.21191,1.833l-1.36475,1.87207a3.49613,3.49613,0,0,0-1.17041-1.05371,3.32938,3.32938,0,0,0-1.63769-.38965,2.82851,2.82851,0,0,0-1.81348.60449A4.60261,4.60261,0,0,0,99.778,132.9375a9.88112,9.88112,0,0,0-.76074,2.53516,18.90819,18.90819,0,0,0-.25342,3.21777,18.30143,18.30143,0,0,0,.25342,3.15918,9.55876,9.55876,0,0,0,.76074,2.49609,4.26979,4.26979,0,0,0,1.30664,1.6377,3.11535,3.11535,0,0,0,1.89112.585,3.38766,3.38766,0,0,0,1.69678-.40918,3.69894,3.69894,0,0,0,1.22851-1.15039l1.16992,1.98828A5.15279,5.15279,0,0,1,102.78088,148.98633Z"/>
        <path class="cls-2" d="M122.71008,138.72949a17.21671,17.21671,0,0,1-.46826,4.17285,11.131,11.131,0,0,1-1.32568,3.23731,6.20606,6.20606,0,0,1-2.12549,2.10547,5.49956,5.49956,0,0,1-2.82764.74121,5.39391,5.39391,0,0,1-2.8081-.74121,6.42464,6.42464,0,0,1-2.12549-2.10547,10.78332,10.78332,0,0,1-1.3457-3.23731,17.21718,17.21718,0,0,1-.46778-4.17285,18.42491,18.42491,0,0,1,.44873-4.21191,10.70726,10.70726,0,0,1,1.30616-3.27637,6.20181,6.20181,0,0,1,2.12548-2.10547,5.57112,5.57112,0,0,1,2.8667-.74121,5.49956,5.49956,0,0,1,2.82764.74121,6.21455,6.21455,0,0,1,2.12549,2.10547,11.099,11.099,0,0,1,1.32568,3.27637A17.70556,17.70556,0,0,1,122.71008,138.72949Zm-2.65234-.05859a18.91519,18.91519,0,0,0-.25342-3.19043,9.875,9.875,0,0,0-.76025-2.54785,4.80322,4.80322,0,0,0-1.26758-1.69239,2.77249,2.77249,0,0,0-1.81348-.623,2.84991,2.84991,0,0,0-1.833.623,4.5,4.5,0,0,0-1.26757,1.69239,10.38141,10.38141,0,0,0-.74121,2.54785,18.91519,18.91519,0,0,0-.25342,3.19043,18.21559,18.21559,0,0,0,.25342,3.15137,10.753,10.753,0,0,0,.74121,2.52929A4.30037,4.30037,0,0,0,114.13,146.044a3.08945,3.08945,0,0,0,3.666,0,4.31883,4.31883,0,0,0,1.26758-1.69239,10.80012,10.80012,0,0,0,.74072-2.52929A18.21559,18.21559,0,0,0,120.05774,138.6709Z"/>
        <path class="cls-2" d="M131.965,129.62305a4.27111,4.27111,0,0,1,3.16552-1.22852,4.07351,4.07351,0,0,1,1.80567.37012,4.01816,4.01816,0,0,1,1.28125.97558,4.38908,4.38908,0,0,1,.81592,1.42286,10.71521,10.71521,0,0,1,.44677,1.67675h.07764a7.86785,7.86785,0,0,1,.65967-1.65722,5.77778,5.77778,0,0,1,1.06884-1.42285,5.02525,5.02525,0,0,1,1.47608-.99512,4.59867,4.59867,0,0,1,1.88428-.37012,4.2049,4.2049,0,0,1,2.48632.66309A4.53177,4.53177,0,0,1,148.589,130.793a7.73757,7.73757,0,0,1,.69971,2.418,20.77422,20.77422,0,0,1,.1748,2.6709V148.3623h-2.57373V135.88184a17.28888,17.28888,0,0,0-.09766-1.81348,6.11588,6.11588,0,0,0-.40966-1.67676,3.07013,3.07013,0,0,0-.91651-1.24805,2.50741,2.50741,0,0,0-1.61816-.4873,2.917,2.917,0,0,0-1.69678.52637,4.18315,4.18315,0,0,0-1.26758,1.44336,8.05688,8.05688,0,0,0-.77978,2.10547,11.04093,11.04093,0,0,0-.273,2.47656V148.3623h-2.57422V135.88184a17.84391,17.84391,0,0,0-.09668-1.833,6.658,6.658,0,0,0-.38818-1.69629,2.77948,2.77948,0,0,0-.89209-1.22852,2.48714,2.48714,0,0,0-1.57032-.46777,2.86387,2.86387,0,0,0-1.707.52637,4.45368,4.45368,0,0,0-1.26025,1.44336,7.65634,7.65634,0,0,0-.79492,2.10547,11.09754,11.09754,0,0,0-.27149,2.47656V148.3623h-2.57373V133.89355q0-.624-.01953-1.3457-.0205-.7207-.03906-1.4043-.02051-.68115-.03906-1.248c-.01368-.376-.03272-.66895-.0586-.877h2.53516q.07764.74122.1167,1.79395.03882,1.05322.03906,1.98926h.07813A6.29231,6.29231,0,0,1,131.965,129.62305Z"/>
        <path class="cls-2" d="M156.757,139.23633a14.76828,14.76828,0,0,0,.27392,2.94433,8.63727,8.63727,0,0,0,.80323,2.33985,4.37839,4.37839,0,0,0,1.33252,1.56054,3.21879,3.21879,0,0,0,1.90136.56543,3.08119,3.08119,0,0,0,2.27295-.85839,5.88612,5.88612,0,0,0,1.333-2.06641l1.94971,1.13086a7.48152,7.48152,0,0,1-2.08643,2.94434,5.2256,5.2256,0,0,1-3.5293,1.18945,5.69061,5.69061,0,0,1-5.03125-2.73047,13.59308,13.59308,0,0,1-1.79394-7.52637,17.57583,17.57583,0,0,1,.46631-4.17285,10.73144,10.73144,0,0,1,1.34179-3.27637,6.545,6.545,0,0,1,2.13819-2.125,5.812,5.812,0,0,1,5.71582-.01953,5.67163,5.67163,0,0,1,1.92529,2.02735A9.687,9.687,0,0,1,166.839,134.166a19.39047,19.39047,0,0,1,.33057,3.666v1.4043Zm7.83887-2.14551a10.43223,10.43223,0,0,0-.90186-4.69922,2.97373,2.97373,0,0,0-2.82227-1.77441,2.74693,2.74693,0,0,0-1.90039.68261,5.43809,5.43809,0,0,0-1.25439,1.67676,8.32022,8.32022,0,0,0-.70557,2.126,10.80337,10.80337,0,0,0-.21582,1.98828Z"/>
      </g>
    </g>
  </g>
</svg>
