<svg xmlns="http://www.w3.org/2000/svg" width="245" height="245" viewBox="0 0 245 245">
  <defs>
    <style>
      .cls-1 {
        fill: #fff;
      }
    </style>
  </defs>
  <g id="Layer_2" data-name="Layer 2">
    <g id="PROJECTS">
      <path class="cls-1" d="M122.5,0A122.5,122.5,0,1,0,245,122.5,122.5,122.5,0,0,0,122.5,0ZM34.19839,131.69865H31.4796v8.45011H30.30531v-8.45011H27.58658v-.99551h6.61181Zm-5.99917-12.27119,1.343.00751,1.56124,2.27822L32.708,119.43l1.31473-.0025L31.671,122.35053l2.32288,3.0124-1.34879.00665-1.5586-2.272-1.577,2.27176-1.31025-.00645,2.3105-2.93592Zm6.96924-4.60321h-.22977L28.046,107.24231v7.37793H26.98659v-9.67545l.266.00171,6.8309,7.59v-7.36192h1.085Zm167.78461-9.9873H217.1542a.8776.8776,0,0,1,.60657.22727.749.749,0,0,1,.2527.58141.8628.8628,0,0,1-.85927.859H202.95307a.74519.74519,0,0,1-.58134-.2527.87443.87443,0,0,1-.22727-.60631A.71479.71479,0,0,1,202.95307,104.837Zm11.11844,29.46382a.86266.86266,0,0,1,.859.85921.74681.74681,0,0,1-.25269.58115.87768.87768,0,0,1-.60632.22753H203.10459a.7146.7146,0,0,1-.80862-.80868v-6.82267q0-.85878.80862-.85927a.8766.8766,0,0,1,.60657.22753.80813.80813,0,0,1,.2527.63174v5.96346ZM203.96386,110.9016v5.6601a.8628.8628,0,0,1-.85927.85928.74443.74443,0,0,1-.58109-.2527.87414.87414,0,0,1-.22753-.60658v-6.46879a.87664.87664,0,0,1,.22753-.60657.74765.74765,0,0,1,.58109-.2527h13.94869a.8628.8628,0,0,1,.859.85927.7468.7468,0,0,1-.2527.58115.87609.87609,0,0,1-.60631.22754Zm-6.01425-5.35715a.86266.86266,0,0,1,.85927-.85921.74887.74887,0,0,1,.58115.25263.87689.87689,0,0,1,.22747.60658v13.94862h12.98823a.87764.87764,0,0,1,.60658.22727.7488.7488,0,0,1,.25269.58141.86276.86276,0,0,1-.85927.859H198.80888a.86276.86276,0,0,1-.85927-.859Zm-45.1302,2.32486a.567.567,0,0,1,.25269-.0506.78689.78689,0,0,1,.80868.55592l5.10446,15.51513a.88119.88119,0,0,1-.0506.65717.77268.77268,0,0,1-.50539.40421l-.2527.05059a.84122.84122,0,0,1-.80868-.556l-5.05379-15.51513A.74356.74356,0,0,1,152.81941,107.86931Zm-82.93248,7.17628c0-.06713.00784-.23517.0253-.50539a4.40025,4.40025,0,0,1,.2021-.98536,6.82665,6.82665,0,0,1,.53062-1.23832,4.89428,4.89428,0,0,1,1.01079-1.26341,6.81414,6.81414,0,0,1,3.81567-1.971,27.52972,27.52972,0,0,1,4.37153-.35388q.7072.05109,2.22374.27812a8.79093,8.79093,0,0,1,3.03229,1.08654,6.59186,6.59186,0,0,1,3.63887,6.46879.78018.78018,0,0,1-.85921.75809.80379.80379,0,0,1-.63174-.25269.711.711,0,0,1-.17668-.60632,4.74808,4.74808,0,0,0-.75809-3.08288,4.02828,4.02828,0,0,0-1.21315-1.33924,7.87315,7.87315,0,0,0-1.66762-.88437,10.52235,10.52235,0,0,0-1.84477-.53082,14.24826,14.24826,0,0,0-1.7941-.22727,28.11669,28.11669,0,0,0-3.71462.2527,5.66577,5.66577,0,0,0-3.25969,1.5667,3.34842,3.34842,0,0,0-1.11184,1.81921q-.15157.90986-.15164,1.01078a6.3584,6.3584,0,0,0,.40434,2.60292,5.74059,5.74059,0,0,0,1.41512,2.04667,12.46155,12.46155,0,0,0,2.29937,1.69311,26.15345,26.15345,0,0,0,3.00712,1.49075l.75809.35382q1.97091.85986,3.61357,1.64252a17.231,17.231,0,0,1,2.80476,1.64253,5.32243,5.32243,0,0,1,1.87006,1.92032,3.19457,3.19457,0,0,1,.35381,2.5269.74671.74671,0,0,1-.80888.60658,1.09636,1.09636,0,0,1-.70723-.37905.692.692,0,0,1-.10118-.63174q.40344-1.51608-1.66769-2.77959A57.26519,57.26519,0,0,0,78.7817,124.749l-.75809-.30329q-1.4154-.65631-2.93124-1.44036a10.69068,10.69068,0,0,1-2.67854-1.94555A7.10809,7.10809,0,0,1,69.88693,115.04559Zm-27.24-9.50114a.86268.86268,0,0,1,.85908-.85921.74885.74885,0,0,1,.58115.25263.87727.87727,0,0,1,.22753.60658v13.94862H57.303a.87753.87753,0,0,1,.60644.22727.74924.74924,0,0,1,.2527.58141.86278.86278,0,0,1-.85914.859H43.506a.86278.86278,0,0,1-.85908-.859Zm16.12165,28.75632a.86268.86268,0,0,1,.85914.85921.74682.74682,0,0,1-.2527.58115.87752.87752,0,0,1-.60644.22753H47.80176a.71462.71462,0,0,1-.80861-.80868v-6.82267q0-.85878.80861-.85927a.8763.8763,0,0,1,.60645.22753.80772.80772,0,0,1,.25269.63174v5.96346ZM48.6609,110.9016v5.6601a.86278.86278,0,0,1-.85914.85928.74446.74446,0,0,1-.58115-.2527.875.875,0,0,1-.22746-.60658v-6.46879a.87746.87746,0,0,1,.22746-.60657.74767.74767,0,0,1,.58115-.2527H61.75045a.8628.8628,0,0,1,.85908.85927.74723.74723,0,0,1-.2527.58115.87647.87647,0,0,1-.60638.22754Zm13.77169,29.11014a.749.749,0,0,1-.58109.25269H43.506a.86278.86278,0,0,1-.85908-.85927V124.749a.8628.8628,0,0,1,.85908-.85928H57.303a.8628.8628,0,0,1,.85914.85928.74726.74726,0,0,1-.2527.58115.87655.87655,0,0,1-.60644.22753H44.31467v13.03876H61.8515a.71514.71514,0,0,1,.80849.80868A.87464.87464,0,0,1,62.43259,140.01174Zm.02529-33.7598a.82658.82658,0,0,1-.60638.2527H47.65012a.74459.74459,0,0,1-.58109-.2527.87394.87394,0,0,1-.2274-.60631.71472.71472,0,0,1,.80849-.80868H61.8515a.87748.87748,0,0,1,.60638.22727.74921.74921,0,0,1,.2527.58141A.8271.8271,0,0,1,62.45788,106.25194Zm19.40657,33.785a.81484.81484,0,0,1-.55586.22753h-.05052a14.3336,14.3336,0,0,1-4.82646-1.112,11.3595,11.3595,0,0,1-3.86614-2.67841,11.20206,11.20206,0,0,1-2.35-3.74,10.78453,10.78453,0,0,1-.68227-4.3461.82367.82367,0,0,1,.90967-.80868.99805.99805,0,0,1,.58115.27786.72039.72039,0,0,1,.17694.63174,9.04724,9.04724,0,0,0,2.57742,6.82267,10.57994,10.57994,0,0,0,3.33558,2.32486,11.40144,11.40144,0,0,0,4.19465.96013.80835.80835,0,0,1,.63174.25269.71539.71539,0,0,1,.17681.60658A.74681.74681,0,0,1,81.86445,140.0369Zm11.27034-9.72861a10.91872,10.91872,0,0,1-.30348,1.13707,5.80552,5.80552,0,0,1-1.36467,2.19851,7.52,7.52,0,0,1-3.96705,2.32479,22.79947,22.79947,0,0,1-4.62449.4548,13.32056,13.32056,0,0,1-2.50147-.35388,11.46891,11.46891,0,0,1-2.42591-.859,8.20367,8.20367,0,0,1-2.04667-1.41519,5.95591,5.95591,0,0,1-1.41513-2.07216.90627.90627,0,0,1,.0253-.63174.86062.86062,0,0,1,.4295-.48.3434.3434,0,0,0,.15165-.02536.35364.35364,0,0,1,.15164-.02523.84675.84675,0,0,1,.80855.50539A4.24356,4.24356,0,0,0,77.215,132.734a6.895,6.895,0,0,0,1.71835,1.08681,9.12428,9.12428,0,0,0,1.99627.63167q1.03506.20247,1.99634.303A23.803,23.803,0,0,0,85.554,134.604a9.34015,9.34015,0,0,0,2.57729-.6569,6.7155,6.7155,0,0,0,2.12269-1.38976,4.7403,4.7403,0,0,0,1.26348-2.35022,8.94413,8.94413,0,0,0-.10119-2.02157,3.2367,3.2367,0,0,0-.75809-1.46552,10.20025,10.20025,0,0,0-2.42571-1.84464,48.21948,48.21948,0,0,0-4.59932-2.29936q-2.17357-.95947-3.866-1.81947a20.11485,20.11485,0,0,1-2.85535-1.71828q-2.98275-2.22348-2.527-4.70018a.68687.68687,0,0,1,.379-.556,1.84349,1.84349,0,0,1,.63174-.10092.71856.71856,0,0,1,.53055.32845.90611.90611,0,0,1,.12635.63174,2.16767,2.16767,0,0,0,.45493,1.693,6.9571,6.9571,0,0,0,1.76881,1.6171,23.40273,23.40273,0,0,0,2.75437,1.56671q1.592.78436,3.31028,1.5416a50.69449,50.69449,0,0,1,4.92744,2.5269,10.78555,10.78555,0,0,1,2.60292,2.0719,4.39862,4.39862,0,0,1,1.18746,2.22387A10.42318,10.42318,0,0,1,93.13479,130.30829Zm.05033-13.54422a.79942.79942,0,0,1-.85921.80842q-.90985-.1007-.80841-.9096a9.87592,9.87592,0,0,0-.5054-3.73979,8.59812,8.59812,0,0,0-1.81966-3.08288,9.06087,9.06087,0,0,0-3.31022-2.29937,13.71176,13.71176,0,0,0-4.47258-.98562.82385.82385,0,0,1-.60637-.25269.67692.67692,0,0,1-.20224-.60658.74667.74667,0,0,1,.2527-.58115.8748.8748,0,0,1,.60651-.22727,12.5243,12.5243,0,0,1,8.99562,3.84071A10.62961,10.62961,0,0,1,93.18512,116.76407Zm5.91234,5.76136a18.79026,18.79026,0,0,1,1.18747-6.62063,18.00875,18.00875,0,0,1,3.33557-5.63495,16.74559,16.74559,0,0,1,5.10446-3.94215,14.22276,14.22276,0,0,1,6.49421-1.49075,14.62362,14.62362,0,0,1,4.92751.83385,15.60232,15.60232,0,0,1,4.29577,2.32479,17.162,17.162,0,0,1,3.4365,3.53775,17.731,17.731,0,0,1,2.35,4.422,1.05517,1.05517,0,0,1-.02516.68233.686.686,0,0,1-.48023.42938.22567.22567,0,0,0-.10092.02542.34862.34862,0,0,1-.15178.02517.90692.90692,0,0,1-.80835-.556,15.74714,15.74714,0,0,0-2.09759-3.96705,15.94935,15.94935,0,0,0-3.08262-3.20923,13.81251,13.81251,0,0,0-3.841-2.12269,13.35979,13.35979,0,0,0-10.10765.50539,14.38656,14.38656,0,0,0-4.49788,3.38617,16.64284,16.64284,0,0,0-3.00712,4.85169,17.258,17.258,0,0,0-1.26349,5.66017H103.949a.74967.74967,0,0,1,.58141.2527.87764.87764,0,0,1,.22727.60658,12.05561,12.05561,0,0,0,.75809,4.21995,11.55168,11.55168,0,0,0,2.12268,3.61344,10.244,10.244,0,0,0,3.285,2.50153,9.44533,9.44533,0,0,0,4.19459.935,9.77389,9.77389,0,0,0,5.45833-1.6171,10.37282,10.37282,0,0,0,3.79038-4.49814.81586.81586,0,0,1,.758-.4548,1.13931,1.13931,0,0,1,.35368.05059.77024.77024,0,0,1,.40441.48023,1.01564,1.01564,0,0,1,0,.63174,12.69248,12.69248,0,0,1-4.37172,5.12962,11.09679,11.09679,0,0,1-6.3931,1.94575,10.90388,10.90388,0,0,1-4.64939-.98562,12.16677,12.16677,0,0,1-3.71462-2.65325,13.18535,13.18535,0,0,1-2.55233-3.86613,12.7721,12.7721,0,0,1-1.06111-4.62423H99.90588A.71449.71449,0,0,1,99.09746,122.52543Zm24.89019-8.51579a.90344.90344,0,0,1-.27812.58115.75149.75149,0,0,1-.556.2021.82386.82386,0,0,1-.60632-.25269,10.43076,10.43076,0,0,0-3.38617-2.50154,9.74972,9.74972,0,0,0-7.30263-.32845,9.7614,9.7614,0,0,0-2.805,1.56651,11.22746,11.22746,0,0,0-2.19845,2.35022,10.68341,10.68341,0,0,0-1.44015,2.95633.84253.84253,0,0,1-.80869.556q-1.06124-.30316-.80868-1.11171a12.81848,12.81848,0,0,1,1.71829-3.38617,13.23725,13.23725,0,0,1,2.57748-2.72907,11.393,11.393,0,0,1,11.77535-1.38976,11.923,11.923,0,0,1,3.89156,2.90594A.71785.71785,0,0,1,123.98765,114.00964Zm6.54455,14.27708a18.4767,18.4767,0,0,1-2.37512,4.87692,16.76966,16.76966,0,0,1-3.53769,3.76521,15.95308,15.95308,0,0,1-4.42211,2.42572,14.85777,14.85777,0,0,1-10.23407-.10092,15.80426,15.80426,0,0,1-4.599-2.70384,17.08477,17.08477,0,0,1-3.56311-4.16942,18.475,18.475,0,0,1-2.19824-5.30656.69332.69332,0,0,1,.10092-.63168,1.00812,1.00812,0,0,1,.556-.379,1.57814,1.57814,0,0,1,.60658.12635.56849.56849,0,0,1,.35361.48,17.11037,17.11037,0,0,0,1.89516,4.599,15.83473,15.83473,0,0,0,3.10811,3.79038,14.28714,14.28714,0,0,0,4.09367,2.55239,12.75642,12.75642,0,0,0,4.90228.9347,12.94767,12.94767,0,0,0,4.47271-.78319,14.15356,14.15356,0,0,0,3.94189-2.19851,15.5496,15.5496,0,0,0,3.15864-3.38591,16.1128,16.1128,0,0,0,2.12269-4.397.746.746,0,0,1,.80842-.60651.23131.23131,0,0,1,.10118.02536.34143.34143,0,0,0,.15151.02516A.83155.83155,0,0,1,130.5322,128.28672Zm4.59879,11.82594q-1.01163-.30317-.75808-1.11171L146.80542,105.595a.8422.8422,0,0,1,.80868-.556h.7075a.84347.84347,0,0,1,.80861.556l6.014,18.34532a.88123.88123,0,0,1-.05059.65716.772.772,0,0,1-.50539.40421.20066.20066,0,0,0-.12635.02517.19645.19645,0,0,1-.12635.02542.8463.8463,0,0,1-.80868-.60657l-5.60951-17.08184-11.97771,32.24335A.84535.84535,0,0,1,135.131,140.11266Zm5.66044-2.67841q-1.01164-.30317-.75809-1.112l7.02477-20.7207a.90831.90831,0,0,1,.80869-.556.3571.3571,0,0,1,.15151.02543.21692.21692,0,0,0,.10118.02516.76481.76481,0,0,1,.50533.42964.83561.83561,0,0,1,.05059.63167l-7.07536,20.72077A.84251.84251,0,0,1,140.79143,137.43425Zm18.29473-.5054a.77207.77207,0,0,1-.5054.40421l-.25269.05059a.70523.70523,0,0,1-.75809-.556l-1.26342-3.79038H146.24943a.7444.7444,0,0,1-.58114-.2527.87461.87461,0,0,1-.22754-.60631.71491.71491,0,0,1,.80868-.80868h10.66364a.84349.84349,0,0,1,.80868.556l1.415,4.39669A.76758.76758,0,0,1,159.08616,136.92885Zm4.90228,3.13321-.2527.0506a.84389.84389,0,0,1-.80861-.5054L158.88405,128.59H147.66469a.8034.8034,0,0,1-.63174-.2527.87408.87408,0,0,1-.22753-.60658q0-.80769.85927-.80861h11.82594a.81757.81757,0,0,1,.758.455l4.24518,11.62383A.74335.74335,0,0,1,163.98844,140.06206Zm9.45009-.60631a.874.874,0,0,1-.22734.60631.74849.74849,0,0,1-.58108.2527.80584.80584,0,0,1-.63174-.2527.873.873,0,0,1-.22753-.60631V110.14351a.87662.87662,0,0,1,.22753-.60658.80671.80671,0,0,1,.63174-.2527h6.57a10.12791,10.12791,0,0,1,2.60266.32846,5.94445,5.94445,0,0,1,2.14792,1.03621,5.23689,5.23689,0,0,1,1.46552,1.8194,5.8143,5.8143,0,0,1,.556,2.62788,6.04364,6.04364,0,0,1-.53082,2.62808,5.5701,5.5701,0,0,1-1.46552,1.89516,6.1401,6.1401,0,0,1-2.17308,1.1623,8.84487,8.84487,0,0,1-2.60266.379h-2.07216a.71449.71449,0,0,1-.80861-.80868V116.8144a.7147.7147,0,0,1,.80861-.80842.877.877,0,0,1,.60631.22727.74865.74865,0,0,1,.2527.58115v2.67867h1.21315a6.09822,6.09822,0,0,0,3.588-1.06131,3.78834,3.78834,0,0,0,1.51618-3.33558,4.01578,4.01578,0,0,0-.42937-1.94581,3.9406,3.9406,0,0,0-1.112-1.28865,4.16725,4.16725,0,0,0-1.61736-.70743,9.22108,9.22108,0,0,0-1.94549-.2021h-5.76155Zm16.07131-19.88692a8.61773,8.61773,0,0,1-2.88078,3.91673,9.30278,9.30278,0,0,1-3.00686,1.64252,8.93656,8.93656,0,0,1-2.55239.48023h-3.08288v10.00647a.74682.74682,0,0,1-.2527.58115.876.876,0,0,1-.60631.22753.71449.71449,0,0,1-.80861-.80868V124.749a.71488.71488,0,0,1,.80861-.80868h3.94189a8.10177,8.10177,0,0,0,1.94582-.35362,7.6069,7.6069,0,0,0,2.60265-1.3646q3.08226-2.52674,3.08288-7.47957a10.345,10.345,0,0,0-.50539-3.28506,7.43666,7.43666,0,0,0-1.46552-2.60291,6.80394,6.80394,0,0,0-2.40062-1.71822,8.04488,8.04488,0,0,0-3.25982-.63174h-3.99248a.8628.8628,0,0,1-.85921-.859.747.747,0,0,1,.2527-.58141.87494.87494,0,0,1,.60651-.22727h3.99248a9.86044,9.86044,0,0,1,3.96732.75809,8.26377,8.26377,0,0,1,2.93117,2.09733,8.987,8.987,0,0,1,1.79424,3.15863,12.23235,12.23235,0,0,1,.60631,3.89157A13.95617,13.95617,0,0,1,189.50984,119.56883Zm28.2257,20.44291a.74944.74944,0,0,1-.58134.25269H198.80888a.86276.86276,0,0,1-.85927-.85927V124.749a.86278.86278,0,0,1,.85927-.85928h13.79685a.86278.86278,0,0,1,.85927.85928.74682.74682,0,0,1-.25269.58115.87667.87667,0,0,1-.60658.22753H199.6175v13.03876h17.5367a.71522.71522,0,0,1,.80868.80868A.87487.87487,0,0,1,217.73554,140.01174Z"/>
    </g>
  </g>
</svg>
