<svg xmlns="http://www.w3.org/2000/svg" width="433.54787" height="1141.49107" viewBox="0 0 433.54787 1141.49107">
  <defs>
    <style>
      .cls-1 {
        fill: #fff;
      }
    </style>
  </defs>
  <g id="Layer_2" data-name="Layer 2">
    <g id="OVER_ONS" data-name="OVER ONS">
      <g>
        <g>
          <path class="cls-1" d="M87.30073,156.8954a29.92888,29.92888,0,0,0,7.15811,2.96253q80.83351,17.661,161.66689,35.3221,3.4.74285,6.80009,1.48577,9.13323,1.99541,18.26646,3.99094,3.332.728,6.664,1.456l12.283,2.68365a8.05866,8.05866,0,0,0,9.60158-6.15179l15.56678-71.248a8.08928,8.08928,0,0,0-6.16094-9.59566l-13.763-3.007-21.64432-4.729L204.80151,92.81807V4.34863A4.36139,4.36139,0,0,0,200.45288,0H186.99526a4.36139,4.36139,0,0,0-4.34863,4.34863V87.97748l-69.18038-15.115a29.72628,29.72628,0,0,0-15.3356,1.42441s-51.72783,21.211-53.45578,29.11969S81.11481,152.1673,81.11481,152.1673A26.778,26.778,0,0,0,87.30073,156.8954Z"/>
          <path class="cls-1" d="M182.64663,1116.59941v20.54316a4.36127,4.36127,0,0,0,4.34863,4.3485h13.45762a4.36127,4.36127,0,0,0,4.34863-4.3485V983.33939l-22.15488,4.6156Z"/>
          <path class="cls-1" d="M182.64663,440.42181v22.77974l-22.39372-3.116-21.94348-3.05333-13.95324-1.94154a8.08929,8.08929,0,0,0-9.10094,6.87073L105.20434,534.1943a8.05873,8.05873,0,0,0,6.87949,9.09437l12.45278,1.73271,25.275,3.51695,170.79558,23.76552a29.93283,29.93283,0,0,0,15.181-2.59763s49.94669-25.11974,51.0624-33.13773-40.07588-45.81924-40.07588-45.81924a29.72573,29.72573,0,0,0-13.8951-6.64336L204.80151,466.28431v-27.0285Z"/>
          <path class="cls-1" d="M387.5397,233.7606a29.7257,29.7257,0,0,0-14.6781-4.665H204.80151V187.09577l-22.15488-4.6156v46.61544h-20.3174a8.08929,8.08929,0,0,0-8.0672,8.05947v72.92875a8.0587,8.0587,0,0,0,8.0672,8.05946H372.8616a29.92725,29.92725,0,0,0,7.62553-1.36633,26.782,26.782,0,0,0,7.05257-3.29872s46.00817-31.76355,46.00817-39.85882S387.5397,233.7606,387.5397,233.7606Z"/>
          <path class="cls-1" d="M314.65429,874.37657a8.08921,8.08921,0,0,0-9.5274-6.26609l-13.798,2.84238-21.69924,4.47008-64.82814,13.35472V829.86642H182.64663v63.47507L98.92434,910.58843a29.7263,29.7263,0,0,0-13.435,7.53075s-38.65314,40.3932-37.01984,48.32189,53.10407,29.7562,53.10407,29.7562a29.93319,29.93319,0,0,0,15.31751,1.6076l168.89467-34.79254,24.99366-5.14876,12.31421-2.53678a8.05875,8.05875,0,0,0,6.27517-9.52148Z"/>
          <path class="cls-1" d="M363.27483,742.26794a29.72574,29.72574,0,0,0-14.6781-4.665H204.80151V711.03511l-22.15488,3.54476V737.603H95.86457a8.08928,8.08928,0,0,0-8.06719,8.05947v72.92874a8.0587,8.0587,0,0,0,8.06719,8.05947H348.59673a29.93241,29.93241,0,0,0,14.6781-4.66506S409.283,790.222,409.283,782.12676,363.27483,742.26794,363.27483,742.26794Z"/>
          <path class="cls-1" d="M343.43032,684.787a29.93253,29.93253,0,0,0,13.73483-6.9688s40.29011-38.76055,38.986-46.75008-51.82847-31.92627-51.82847-31.92627a29.72589,29.72589,0,0,0-15.23792-2.23942l-124.28323,20.287V558.73l-22.15488-3.05584v65.13168l-25.57512,4.17471-136.399,22.26467L6.76873,649.51478a8.0892,8.0892,0,0,0-6.66338,9.2538l11.74879,71.9762a8.05873,8.05873,0,0,0,9.26017,6.65456l12.40855-2.0255,139.71877-22.8066Z"/>
          <path class="cls-1" d="M48.57508,439.13172a29.93135,29.93135,0,0,0,14.90914,3.86351L288.34472,430.803l25.48111-1.38165,12.55433-.68069a8.0587,8.0587,0,0,0,7.619-8.48445l-3.9485-72.82179a8.0893,8.0893,0,0,0-8.49173-7.61085l-14.067.76272-22.12237,1.19956-80.568,4.36853V321.35908H182.64663v25.99656L58.663,354.0782A29.72583,29.72583,0,0,0,44.259,359.531S.03806,393.739.47631,401.82237,48.57508,439.13172,48.57508,439.13172Z"/>
        </g>
        <g>
          <path d="M185.66245,283.74645v.73828h13.88379q.73827,0,.73828,1.29248,0,1.29345-.73828,1.29248H183.44711q-.739,0-.73876-1.29248v-2.10449a4.3966,4.3966,0,0,1,.38769-2.04932q.38818-.72.51709-.92334a7.79322,7.79322,0,0,1,.55371-.70166q.42408-.498.57276-.68311a20.48163,20.48163,0,0,1,1.51367-1.69824l9.416-10.59766a11.50859,11.50859,0,0,0,1.27393-1.69824,3.0649,3.0649,0,0,0,.35058-1.51416v-1.477H184.88706q-.739,0-.73829-1.29248,0-1.292.73829-1.292h14.62207q.73827,0,.73877,1.292v2.84326a4.39662,4.39662,0,0,1-.3877,2.04932q-.38818.72-.51709.92334a7.83641,7.83641,0,0,1-.55371.70166q-.4248.498-.57227.6831a20.592,20.592,0,0,1-1.51416,1.69825L187.287,280.534a11.48877,11.48877,0,0,0-1.27393,1.69873A3.05785,3.05785,0,0,0,185.66245,283.74645Z"/>
          <path d="M222.14389,270.19518v11.59423a4.87859,4.87859,0,0,1-2.17871,4.44971,12.86964,12.86964,0,0,1-11.61279,0,4.865,4.865,0,0,1-2.19727-4.44971V270.19518a4.87813,4.87813,0,0,1,2.17871-4.44971,12.8656,12.8656,0,0,1,11.6128,0A4.86658,4.86658,0,0,1,222.14389,270.19518Zm-2.9541,11.96338V269.826q0-2.88061-5.04053-2.88038-5.03979,0-5.04,2.88038v12.33252q0,2.88061,5.04,2.88037Q219.18979,285.03893,219.18979,282.15856Z"/>
          <path d="M245.70151,270.12145v1.10742q0,3.13916-1.29248,4.32031-1.29273,1.18214-4.72656,1.51367l-7.2002.70166v4.39405q0,2.88061,4.80029,2.88037,5.46387,0,5.46485-2.51123v-1.40284q0-.84887,1.477-.84912,1.47656,0,1.47705.84912v1.0337q0,5.46533-8.12354,5.46484a10.79575,10.79575,0,0,1-5.81591-1.40283,4.84867,4.84867,0,0,1-2.23389-4.43116V270.19518a4.76878,4.76878,0,0,1,2.36328-4.44971,12.10592,12.10592,0,0,1,6.1665-1.38477,10.08252,10.08252,0,0,1,5.72315,1.32959A5.00376,5.00376,0,0,1,245.70151,270.12145Zm-13.21924-.29541v5.354l6.9419-.70166a4.49485,4.49485,0,0,0,2.71386-.88623,3.51613,3.51613,0,0,0,.60938-2.36328V269.826q0-2.88061-5.13281-2.88038Q232.48178,266.94566,232.48227,269.826Z"/>
          <path d="M256.409,258.37926v28.02588q0,.8496-1.477.84912-1.47731,0-1.47705-.84912V258.37926q0-.84888,1.47705-.84961Q256.40853,257.52965,256.409,258.37926Zm12.8501,28.21045q0,.6643-1.29248.66455-1.29273,0-1.55079-.84912l-2.17871-7.49561a2.7728,2.7728,0,0,0-.9414-1.64355,5.87135,5.87135,0,0,0-2.56641-.35059h-2.32617q-.739,0-.73877-1.29248,0-1.292.73877-1.29248H259.806a4.016,4.016,0,0,0,2.03125-.3877,3.47065,3.47065,0,0,0,.92285-1.606l2.47412-6.75733q.29517-.84887,1.56934-.84912,1.27368,0,1.27393.66455,0,.03736-.36914,1.14453l-2.4004,6.83106a3.11861,3.11861,0,0,1-.92285,1.40332,4.20949,4.20949,0,0,1,2.39991,3.10156l2.21533,7.71729Q269.25815,286.55357,269.25913,286.58971Z"/>
          <path d="M280.1146,260.59459v4.32031h3.877q.73828,0,.73877,1.29248,0,1.29273-.73877,1.292h-3.877v15.25a4.51581,4.51581,0,0,0,.55371,2.19726q.55444,1.01588.5542,1.05225,0,.44311-.70166.9414a2.199,2.199,0,0,1-1.18165.49854q-.77563,0-1.47705-1.34766a6.33858,6.33858,0,0,1-.70166-2.97265V267.49938h-2.95361q-.73974,0-.73877-1.292,0-1.29271.73877-1.29248h2.95361v-4.32031q0-.84888,1.47705-.84912Q280.11411,259.74547,280.1146,260.59459Z"/>
          <path d="M305.51889,270.19518v11.59423a4.87859,4.87859,0,0,1-2.17871,4.44971,12.86964,12.86964,0,0,1-11.61279,0,4.865,4.865,0,0,1-2.19727-4.44971V270.19518a4.87813,4.87813,0,0,1,2.17871-4.44971,12.8656,12.8656,0,0,1,11.6128,0A4.86658,4.86658,0,0,1,305.51889,270.19518Zm-2.9541,11.96338V269.826q0-2.88061-5.04053-2.88038-5.03979,0-5.04,2.88038v12.33252q0,2.88061,5.04,2.88037Q302.56479,285.03893,302.56479,282.15856Z"/>
          <path d="M315.85727,269.826v12.33252q0,2.88061,4.72656,2.88037,4.72559,0,4.72608-2.88037v-1.55079q0-.84887,1.47705-.84912,1.47655,0,1.477.84912v1.18164a4.94975,4.94975,0,0,1-2.08643,4.44971,11.95755,11.95755,0,0,1-11.16943,0,4.93376,4.93376,0,0,1-2.105-4.44971V270.19518a4.9343,4.9343,0,0,1,2.105-4.44971,11.95381,11.95381,0,0,1,11.16943,0,4.9503,4.9503,0,0,1,2.08643,4.44971v1.18164q0,.8496-1.477.84912-1.47729,0-1.47705-.84912V269.826q0-2.88061-4.72608-2.88038Q315.85679,266.94566,315.85727,269.826Z"/>
          <path d="M351.63706,270.19518v16.21q0,.8496-1.47705.84912-1.47731,0-1.47706-.84912V269.826q0-2.88061-5.04-2.88038-5.04054,0-5.04053,2.88038v16.5791q0,.8496-1.47656.84912-1.47731,0-1.47706-.84912V258.37926q0-.84888,1.47706-.84961,1.47582,0,1.47656.84961v7.4956a8.70657,8.70657,0,0,1,5.33594-1.51416,10.1405,10.1405,0,0,1,5.50146,1.38477A4.86657,4.86657,0,0,1,351.63706,270.19518Z"/>
          <path d="M364.19126,260.59459v4.32031h3.877q.73829,0,.73877,1.29248,0,1.29273-.73877,1.292h-3.877v15.25a4.51581,4.51581,0,0,0,.55371,2.19726q.55444,1.01588.5542,1.05225,0,.44311-.70166.9414a2.199,2.199,0,0,1-1.18165.49854q-.77564,0-1.47705-1.34766a6.33858,6.33858,0,0,1-.70166-2.97265V267.49938h-2.95361q-.73974,0-.73877-1.292,0-1.29271.73877-1.29248h2.95361v-4.32031q0-.84888,1.47705-.84912Q364.19077,259.74547,364.19126,260.59459Z"/>
        </g>
        <g>
          <path d="M128.58042,962.96471l-4.85743-23.5791-.36132.07421q-1.158.23877-1.37989.623a4.66106,4.66106,0,0,0-.27978,1.75391l-.8711,19.74609q-.01024.86865-1.23828,1.12207-1.23046.25342-1.583-.541L109.4061,944.37a4.65674,4.65674,0,0,0-.9502-1.5q-.35669-.2666-1.51367-.02734l-.36181.07422,4.85742,23.5791q.17139.83349-1.2749,1.12988-1.44728.29883-1.61817-.53418l-4.82031-23.39844a4.28033,4.28033,0,0,1-.06348-2.23047q.26514-.63867,1.67529-.92871l.79493-.16406a7.02868,7.02868,0,0,1,3.53711-.125q1.00488.3955,2.0249,2.59961l6.74414,14.25488.561-15.75976q.06593-2.42725.832-3.18848a7.03012,7.03012,0,0,1,3.29882-1.2832l.79541-.16406q1.41138-.29,1.90625.19238a4.2828,4.2828,0,0,1,.82276,2.07422L131.474,962.369c.11426.55567-.31152.93067-1.27539,1.12989Q128.75132,963.79625,128.58042,962.96471Z"/>
          <path d="M146.23618,969.4315l-2.604.53614q-.72437.14941-.98388-1.11621-.26075-1.26562.4624-1.415l2.604-.53614a4.81086,4.81086,0,0,0,2.66162-1.17089,3.61015,3.61015,0,0,0,.59082-2.44043l-.14209-3.251-2.09765.43262q-2.85719.58886-4.28906-.32325a6.84666,6.84666,0,0,1-2.40967-3.46093l-5.91748-15.36914q-.31641-.80127-.33155-.875-.134-.6504,1.24073-.93457,1.374-.28272,1.69043.51953l6.05713,15.67968a4.52194,4.52194,0,0,0,1.26416,2.02051,2.70938,2.70938,0,0,0,2.17382.21192l2.53125-.52149L147.994,937.703q-.02783-.8628,1.27539-1.13086,1.30224-.26806,1.43555.38379c.01025.04883.03125.332.06347.85449l.87207,24.55176q.12891,3.55371-.90136,4.95508Q149.70712,968.71617,146.23618,969.4315Z"/>
          <path d="M170.558,938.89928l-.29052-1.41211q-.58887-2.85645-5.25391-1.89453a7.23511,7.23511,0,0,0-3.1206,1.32129,2.20958,2.20958,0,0,0-.84131,2.32129l.16406.79589a4.37624,4.37624,0,0,0,1.03174,2.44434,4.27822,4.27822,0,0,0,2.374.54883l3.31055.14746q4.72338.2329,5.77832,1.14746a5.84488,5.84488,0,0,1,1.74267,3.335l.26856,1.30176a4.4149,4.4149,0,0,1-1.3501,4.51953,11.58564,11.58564,0,0,1-5.40332,2.41309q-5.64184,1.16309-7.749-1.38086a6.39311,6.39311,0,0,1-1.21094-2.76661l-.23828-1.15722a.65272.65272,0,0,1,.19531-.7002,2.78082,2.78082,0,0,1,1.0874-.39453q1.40991-.29,1.59668.61426l.335,1.62695a2.12965,2.12965,0,0,0,1.6875,1.78321,9.13168,9.13168,0,0,0,3.811-.16309q4.95483-1.021,4.43408-3.55176l-.395-1.917a2.0602,2.0602,0,0,0-1.20752-1.56055,9.47345,9.47345,0,0,0-3.1499-.55859l-3.34717-.13965q-3.38159-.13184-4.60351-1.03125-1.22314-.89795-1.87793-4.08008l-.08887-.43359a4.90018,4.90018,0,0,1,1.19678-4.6211,9.64206,9.64206,0,0,1,4.97558-2.38183q7.59522-1.56445,8.75733,4.07812l.26074,1.26563q.15673.75879-1.272,1.05273Q170.73642,939.766,170.558,938.89928Z"/>
          <path d="M183.47788,925.30357l.87158,4.23047,3.79736-.78125q.72291-.14941.98389,1.11719.26075,1.26563-.4624,1.41406l-3.79737.78321,3.07666,14.93554a4.51689,4.51689,0,0,0,.98584,2.04q.74781.88331.75489.91895.08935.43359-.49707,1.06445a2.20934,2.20934,0,0,1-1.05665.72656q-.76024.15528-1.71875-1.02246a6.3375,6.3375,0,0,1-1.2871-2.76953L181.97739,932.663l-2.89258.5957q-.72437.14941-.98437-1.11621-.26074-1.26562.46289-1.416l2.89257-.59571-.87158-4.23047q-.17139-.832,1.27539-1.12988Q183.30625,924.47154,183.47788,925.30357Z"/>
          <path d="M210.46274,929.47252l.22314,1.084q.63356,3.07471-.39453,4.49219-1.02686,1.41944-4.32373,2.43653l-6.91015,2.14062.88623,4.30273q.5808,2.82129,5.28271,1.85254,5.35107-1.103,4.8457-3.5625l-.2832-1.374q-.17139-.83057,1.27539-1.12891,1.44654-.29881,1.61817.53321l.20849,1.01269q1.103,5.35254-6.854,6.99121a10.79254,10.79254,0,0,1-5.97949-.20019,4.85078,4.85078,0,0,1-3.08155-3.88965l-2.33935-11.35645a4.766,4.766,0,0,1,1.417-4.834,12.10682,12.10682,0,0,1,5.76025-2.60059,10.09239,10.09239,0,0,1,5.87354.14649Q209.83628,926.43395,210.46274,929.47252Zm-13.00732,2.37695,1.08056,5.24414,6.65723-2.08789a4.49431,4.49431,0,0,0,2.47949-1.415,3.52179,3.52179,0,0,0,.11963-2.43847l-.2832-1.374q-.58082-2.82129-5.60791-1.78515Q196.87387,929.03013,197.45542,931.84947Z"/>
          <path d="M227.98911,927.4442l-.37256-1.80859q-.58081-2.82129-3.94434-2.127-3.36328.69288-2.78222,3.51367l3.41943,16.59961q.17139.832-1.27539,1.12989-1.44726.29736-1.61817-.53321l-3.34472-16.23925a5.326,5.326,0,0,1,.81982-4.71094,7.26592,7.26592,0,0,1,4.25977-2.292q6.25635-1.28907,7.41943,4.35351l.3125,1.51856q.17139.832-1.27539,1.1289Q228.16075,928.27623,227.98911,927.4442Z"/>
          <path d="M235.76987,911.59068l.648,3.14649q.186.90381-1.3877,1.22851-1.57325.3252-1.75879-.58007l-.648-3.14649q-.18676-.90381,1.38623-1.22754Q235.58359,910.68785,235.76987,911.59068Zm1.478,7.72559,3.46386,16.81738a4.51758,4.51758,0,0,0,.98633,2.04q.74708.88331.75488.918.08936.43506-.49755,1.06445a2.20819,2.20819,0,0,1-1.05665.72754q-.75951.15528-1.71875-1.02246a6.34217,6.34217,0,0,1-1.28662-2.76953L234.35434,919.913q-.17139-.832,1.27539-1.13086Q237.07554,918.48473,237.2479,919.31627Z"/>
          <path d="M261.59946,918.93834l.22314,1.084q.63356,3.07471-.394,4.49219-1.02759,1.41944-4.32422,2.43653l-6.91015,2.14062.88623,4.30273q.5808,2.82129,5.28271,1.85254,5.3518-1.10155,4.84619-3.5625l-.2832-1.374q-.17139-.83056,1.27539-1.12891,1.44581-.29736,1.61768.53321l.20849,1.01269q1.103,5.35254-6.85351,6.99121a10.79031,10.79031,0,0,1-5.979-.20019,4.84812,4.84812,0,0,1-3.082-3.88965l-2.33936-11.35645a4.76674,4.76674,0,0,1,1.41651-4.834,12.109,12.109,0,0,1,5.76025-2.60059,10.08261,10.08261,0,0,1,5.87354.14747Q260.973,915.89928,261.59946,918.93834Zm-13.00733,2.37695,1.08057,5.24414,6.65723-2.08789a4.49242,4.49242,0,0,0,2.47949-1.415,3.52135,3.52135,0,0,0,.12012-2.43847l-.28321-1.374q-.5808-2.82129-5.60839-1.78418Q248.01059,918.49547,248.59213,921.31529Z"/>
          <path d="M281.5477,916.035l-.291-1.41113q-.58814-2.85645-5.25391-1.89551a7.24743,7.24743,0,0,0-3.12061,1.32226,2.21046,2.21046,0,0,0-.84131,2.32129l.16407.7959a4.37982,4.37982,0,0,0,1.03174,2.44434,4.28735,4.28735,0,0,0,2.37451.54883l3.31006.14746q4.72338.23291,5.77832,1.14648a5.84818,5.84818,0,0,1,1.74267,3.33594l.26856,1.30176a4.41492,4.41492,0,0,1-1.3501,4.51953,11.586,11.586,0,0,1-5.40283,2.41308q-5.64258,1.16309-7.749-1.38086a6.39178,6.39178,0,0,1-1.21142-2.76757l-.23828-1.15723a.65052.65052,0,0,1,.19531-.69922,2.78076,2.78076,0,0,1,1.0874-.39453q1.40991-.29,1.59668.61426l.335,1.62695a2.12963,2.12963,0,0,0,1.6875,1.7832,9.148,9.148,0,0,0,3.811-.16308q4.95483-1.021,4.43408-3.55274l-.395-1.917a2.05864,2.05864,0,0,0-1.20752-1.55957,9.47085,9.47085,0,0,0-3.1499-.55859l-3.34619-.13965q-3.38306-.13184-4.6045-1.03125-1.22314-.89795-1.87744-4.08008l-.08935-.43359a4.89949,4.89949,0,0,1,1.19677-4.6211,9.63465,9.63465,0,0,1,4.97559-2.38183q7.59522-1.56445,8.75732,4.07812l.26075,1.26563q.15674.75879-1.272,1.05273Q281.72569,916.9027,281.5477,916.035Z"/>
        </g>
        <g>
          <path d="M133.43979,782.65221h3.2124q5.02149,0,5.022-2.87989V773.163q0-2.87988-5.04-2.88086-5.04054,0-5.04053,2.88086v21.748q0,.85107-1.47705.84961-1.47729,0-1.477-.84961V773.53209a4.87674,4.87674,0,0,1,2.17871-4.44922,12.86566,12.86566,0,0,1,11.61279,0,4.8652,4.8652,0,0,1,2.19727,4.44922v5.87109a4.87777,4.87777,0,0,1-2.17871,4.44922,10.69461,10.69461,0,0,1-5.79737,1.38477h-3.2124q-.739,0-.73828-1.292Q132.70151,782.65172,133.43979,782.65221Z"/>
          <path d="M167.263,774.0858v16.21a4.86416,4.86416,0,0,1-2.19726,4.44922,12.8656,12.8656,0,0,1-11.6128,0,4.87569,4.87569,0,0,1-2.17871-4.44922v-16.21q0-.84961,1.477-.84961,1.47657,0,1.47705.84961v16.5791q0,2.87988,5.04053,2.87989,5.03981,0,5.04-2.87989V774.0858q0-.84961,1.477-.84961Q167.26255,773.23619,167.263,774.0858Z"/>
          <path d="M176.86313,792.99107h11.92676q.73828,0,.73877,1.293,0,1.292-.73877,1.292H174.6478q-.739,0-.73828-1.292v-1.293a4.39681,4.39681,0,0,1,.27685-1.90136c.18457-.332.31348-.56641.3877-.70117a3.84754,3.84754,0,0,1,.49853-.62793q.38745-.42482.59082-.62793.20216-.20216.812-.83106.60938-.627.97851-.99707l7.459-7.64355a11.94419,11.94419,0,0,0,1.36621-1.56934,2.49614,2.49614,0,0,0,.2583-1.27344v-.8125H175.7186q-.739,0-.73828-1.292,0-1.292.73828-1.293h13.03467q.73755,0,.73828,1.293V776.744a4.79924,4.79924,0,0,1-.55371,2.585,22.58691,22.58691,0,0,1-2.99121,3.10156l-7.4585,7.64355a11.02646,11.02646,0,0,0-1.36621,1.58789A2.69344,2.69344,0,0,0,176.86313,792.99107Z"/>
          <path d="M198.02085,792.99107H209.9476q.73828,0,.73877,1.293,0,1.292-.73877,1.292H195.80551q-.739,0-.73828-1.292v-1.293a4.39677,4.39677,0,0,1,.27686-1.90136c.18457-.332.31347-.56641.38769-.70117a3.84777,3.84777,0,0,1,.49854-.62793q.38745-.42482.59082-.62793.20214-.20216.812-.83106.60938-.627.97852-.99707l7.459-7.64355a11.94337,11.94337,0,0,0,1.36621-1.56934,2.496,2.496,0,0,0,.2583-1.27344v-.8125H196.87631q-.739,0-.73828-1.292,0-1.292.73828-1.293H209.911q.73755,0,.73828,1.293V776.744a4.79924,4.79924,0,0,1-.55371,2.585,22.58691,22.58691,0,0,1-2.99121,3.10156l-7.45849,7.64355a11.02745,11.02745,0,0,0-1.36622,1.58789A2.69345,2.69345,0,0,0,198.02085,792.99107Z"/>
          <path d="M233.50571,778.62779v1.10743q0,3.13915-1.29248,4.32031-1.29273,1.18212-4.72656,1.51367l-7.2002.70215v4.39355q0,2.87988,4.80029,2.87989,5.46387,0,5.46485-2.51075v-1.40332q0-.84815,1.477-.84863,1.47655,0,1.477.84863v1.03418q0,5.46534-8.12354,5.46485a10.7914,10.7914,0,0,1-5.81591-1.40332,4.84679,4.84679,0,0,1-2.23389-4.43067V778.701a4.7675,4.7675,0,0,1,2.36328-4.44922,12.10592,12.10592,0,0,1,6.1665-1.38477,10.0868,10.0868,0,0,1,5.72315,1.3291A5.00468,5.00468,0,0,1,233.50571,778.62779Zm-13.21924-.2959v5.3545l6.94189-.70215a4.48877,4.48877,0,0,0,2.71387-.88574,3.517,3.517,0,0,0,.60938-2.36328v-1.40333q0-2.87988-5.13282-2.87988T220.28647,778.33189Z"/>
          <path d="M244.21323,766.88561v24.37011a4.51087,4.51087,0,0,0,.5542,2.19727c.36914.67676.55371,1.02832.55371,1.05176q0,.44384-.70166.94238a2.20145,2.20145,0,0,1-1.18164.49805q-.77563,0-1.477-1.34766a6.337,6.337,0,0,1-.70166-2.97266V766.88561q0-.84962,1.477-.84961Q244.21274,766.036,244.21323,766.88561Z"/>
          <path d="M274.01108,776.00572h-3.2124q-.739,0-.73828-1.292,0-1.292.73828-1.293h3.2124a10.69455,10.69455,0,0,1,5.79736,1.38477,4.88048,4.88048,0,0,1,2.17871,4.45019v11.04a4.86416,4.86416,0,0,1-2.19726,4.44922,12.86558,12.86558,0,0,1-11.61279,0,4.87568,4.87568,0,0,1-2.17872-4.44922V766.88561q0-.84962,1.47706-.84961,1.47656,0,1.47705.84961V790.6649q0,2.87988,5.04052,2.87989,5.03981,0,5.04-2.87989V778.88561Q279.03305,776.00572,274.01108,776.00572Z"/>
          <path d="M305.3602,778.701v11.59472a4.87669,4.87669,0,0,1-2.17871,4.44922,12.86558,12.86558,0,0,1-11.61279,0,4.86314,4.86314,0,0,1-2.19727-4.44922V778.701a4.87676,4.87676,0,0,1,2.17871-4.44922,12.8656,12.8656,0,0,1,11.6128,0A4.86522,4.86522,0,0,1,305.3602,778.701Zm-2.9541,11.96386v-12.333q0-2.87988-5.04053-2.87988-5.03979,0-5.04,2.87988v12.333q0,2.87988,5.04,2.87989Q302.40609,793.54479,302.4061,790.6649Z"/>
          <path d="M322.64047,786.12291a4.20918,4.20918,0,0,0-4.65234,0,4.258,4.258,0,0,0-1.145,2.17871l-1.66162,6.60938q-.18531.85107-1.56934.84961-1.38427,0-1.38476-.665l1.73584-7.2002q.70092-2.95312,2.62158-3.76562-1.80981-.813-2.62158-3.76661l-1.36621-5.02148a12.53933,12.53933,0,0,1-.36963-1.44043q0-.665,1.34814-.665,1.34692,0,1.606.84961l1.66162,5.87109a4.44657,4.44657,0,0,0,1.16309,2.19727,4.24262,4.24262,0,0,0,4.61572,0,4.45445,4.45445,0,0,0,1.16309-2.19727l1.66162-5.87109q.2578-.84961,1.60644-.84961,1.34693,0,1.34766.665a12.71723,12.71723,0,0,1-.36914,1.44043l-1.36621,5.02148q-.813,2.95459-2.62159,3.76661,1.91895.81151,2.62159,3.76562l1.73535,7.2002q0,.665-1.38477.665-1.38427,0-1.56933-.84961l-1.66162-6.60938A4.2578,4.2578,0,0,0,322.64047,786.12291Z"/>
        </g>
        <g>
          <path d="M66.46909,697.8524l-3.87842-23.75976-.36426.05957q-1.16675.19043-1.4043.5664a4.652,4.652,0,0,0-.35205,1.74121l-1.686,19.69239q-.04687.86865-1.28467,1.07031-1.24.20215-1.5581-.60645l-7.86133-18.13378a4.65411,4.65411,0,0,0-.8877-1.53907,2.135,2.135,0,0,0-1.51123-.08984l-.36426.05957,3.87842,23.75977q.137.84081-1.3208,1.07617-1.45826.23877-1.59473-.60059L42.431,677.57115a4.28414,4.28414,0,0,1,.02881-2.23144q.29078-.62842,1.71191-.8584l.80127-.13086a7.01449,7.01449,0,0,1,3.53955.02051q.988.43652,1.91553,2.67968L56.577,691.57311l1.21191-15.72364q.16626-2.42138.96387-3.15039a7.02352,7.02352,0,0,1,3.34863-1.14453l.80176-.13086q1.42162-.2329,1.896.26953a4.27748,4.27748,0,0,1,.73681,2.10645l3.84863,23.57715c.09131.56054-.3496.918-1.32128,1.07715Q66.60581,698.69127,66.46909,697.8524Z"/>
          <path d="M83.84213,705.04479l-2.624.42871q-.72876.11865-.937-1.15821-.208-1.27441.52051-1.39355l2.624-.42871a4.81335,4.81335,0,0,0,2.708-1.0586,3.61036,3.61036,0,0,0,.6914-2.41406l-.00732-3.2539-2.11377.34472q-2.87915.47022-4.272-.499a6.84962,6.84962,0,0,1-2.26465-3.5586L72.8895,676.452q-.282-.813-.29444-.88672-.10694-.65625,1.27832-.88281,1.38429-.22559,1.667.58887l5.40429,15.917a4.5173,4.5173,0,0,0,1.17969,2.07031,2.70514,2.70514,0,0,0,2.16309.30176l2.55078-.416.07226-19.72851q.00805-.8628,1.32129-1.07715,1.31176-.21387,1.41846.44238c.00781.04981.01758.334.02734.85645L89.535,698.204q-.01832,3.55663-1.10547,4.91308Q87.33968,704.4735,83.84213,705.04479Z"/>
          <path d="M109.4061,675.54283l-.23242-1.42187q-.46949-2.87842-5.17041-2.11133a7.24662,7.24662,0,0,0-3.17285,1.19238,2.20941,2.20941,0,0,0-.937,2.28418l.13086.80274a4.38839,4.38839,0,0,0,.92969,2.48535,4.29492,4.29492,0,0,0,2.3501.64453l3.30127.28418q4.70947.43066,5.72607,1.38574a5.84774,5.84774,0,0,1,1.60352,3.4043l.21386,1.3125a4.415,4.415,0,0,1-1.53515,4.46,11.58464,11.58464,0,0,1-5.498,2.1875q-5.68579.92871-7.68555-1.70117a6.38,6.38,0,0,1-1.0957-2.81446l-.19043-1.166a.65146.65146,0,0,1,.22412-.69043,2.78061,2.78061,0,0,1,1.103-.34961q1.42091-.23145,1.56982.68066l.26758,1.63965a2.13249,2.13249,0,0,0,1.61133,1.85156,9.17865,9.17865,0,0,0,3.81543-.00683q4.99291-.81445,4.57666-3.36524l-.31543-1.93164a2.05908,2.05908,0,0,0-1.1416-1.60937,9.50388,9.50388,0,0,0-3.12451-.6875l-3.33789-.27832q-3.37355-.271-4.55762-1.21973-1.18433-.94774-1.707-4.15625l-.07129-.4375a4.89891,4.89891,0,0,1,1.38672-4.56641,9.64042,9.64042,0,0,1,5.07031-2.17382q7.65308-1.24951,8.58106,4.43652l.208,1.27539q.12451.76465-1.31445.999Q109.54819,676.41735,109.4061,675.54283Z"/>
          <path d="M122.8768,662.493l.69629,4.26465,3.82617-.625q.728-.11867.937,1.15722.20875,1.27441-.521,1.39356l-3.82617.625,2.457,15.05078a4.51262,4.51262,0,0,0,.90039,2.08008q.71044.9126.71631.94824.071.438-.54053,1.043a2.20021,2.20021,0,0,1-1.08643.68164q-.76538.12452-1.67431-1.0918a6.328,6.328,0,0,1-1.17139-2.82129l-2.51611-15.415-2.915.47657q-.731.11865-.938-1.15723-.208-1.27441.521-1.39356l2.915-.47656-.69581-4.26465q-.13623-.83642,1.32081-1.07422Q122.7396,661.65564,122.8768,662.493Z"/>
          <path d="M149.66586,667.77428l.17872,1.09277q.50536,3.09815-.57959,4.47168-1.08472,1.37548-4.4209,2.25586l-6.99268,1.85254.70752,4.33594q.46362,2.8418,5.20117,2.06933,5.39283-.87889,4.98926-3.3584l-.22607-1.38476q-.137-.8379,1.32129-1.07617,1.45678-.23731,1.59423.60058l.16651,1.02051q.88036,5.39355-7.13721,6.70215a10.79777,10.79777,0,0,1-5.96582-.44824,4.84726,4.84726,0,0,1-2.91846-4.0127L133.71616,670.452a4.76573,4.76573,0,0,1,1.61572-4.77148,12.09371,12.09371,0,0,1,5.86279-2.36035,10.09092,10.09092,0,0,1,5.8628.38867A5.00726,5.00726,0,0,1,149.66586,667.77428Zm-13.09375,1.83691.86231,5.28418,6.73828-1.81055a4.49207,4.49207,0,0,0,2.53565-1.31054,3.51967,3.51967,0,0,0,.2207-2.43164l-.22608-1.38477q-.46435-2.84179-5.52978-2.01562T136.57211,669.61119Z"/>
          <path d="M167.26206,666.47252l-.29737-1.82227q-.46435-2.8418-3.853-2.28906-3.38966.55226-2.9253,3.39551l2.73047,16.72754q.13623.83788-1.32129,1.07617-1.45752.2373-1.59424-.59961l-2.67089-16.36328a5.32436,5.32436,0,0,1,1.01416-4.67383,7.26454,7.26454,0,0,1,4.35058-2.11328q6.304-1.02978,7.23242,4.65625l.25,1.53027q.137.83936-1.3208,1.07618Q167.39853,667.31041,167.26206,666.47252Z"/>
          <path d="M183.72934,688.7401l-2.624.42871q-.72876.11865-.93653-1.1582-.20874-1.27442.52-1.39356l2.624-.42871a4.81343,4.81343,0,0,0,2.708-1.05859,3.60774,3.60774,0,0,0,.6914-2.41407l-.00732-3.2539-2.11377.34472q-2.87916.47022-4.272-.499a6.85253,6.85253,0,0,1-2.26465-3.55859l-5.27735-15.60157q-.2827-.813-.29492-.88671-.10693-.65625,1.27832-.88282,1.38427-.22559,1.667.58887l5.4043,15.916a4.51183,4.51183,0,0,0,1.17969,2.07129,2.70517,2.70517,0,0,0,2.16308.30175l2.55079-.416.07226-19.72852q.00805-.86279,1.32129-1.07715,1.31177-.21385,1.41846.44239c.0083.0498.01757.334.02783.85644l-.14307,24.56641q-.0183,3.55664-1.106,4.91308Q187.22714,688.16881,183.72934,688.7401Z"/>
          <path d="M212.662,671.85729l-3.50928-21.5a4.28481,4.28481,0,0,1,.02832-2.23145q.29151-.62842,1.7124-.85937l7.57959-1.23731q3.6438-.59472,5.58936.43457,1.94458,1.02832,2.457,4.16309l2.52246,15.45117q.51123,3.13476-1.00586,4.72949-1.51684,1.59375-5.16113,2.18848l-7.57959,1.2373q-1.42163.23292-1.897-.26953A4.28311,4.28311,0,0,1,212.662,671.85729Zm2.94531-.29395,6.85156-1.11816a6.28559,6.28559,0,0,0,3.16016-1.15235,2.50244,2.50244,0,0,0,.56689-2.374l-2.64111-16.17969a2.50928,2.50928,0,0,0-1.29248-2.07226,6.3045,6.3045,0,0,0-3.36279-.08692l-6.85108,1.11817Z"/>
          <path d="M236.29428,641.06236l.51758,3.1709q.14868.91113-1.436,1.16992-1.58643.25782-1.73438-.65234l-.51758-3.1709q-.14868-.91113,1.43653-1.16992Q236.14682,640.15074,236.29428,641.06236Zm1.15772,7.78028,2.76611,16.94531a4.51335,4.51335,0,0,0,.90088,2.08008q.71045.9126.71631.94824.071.438-.541,1.043a2.19924,2.19924,0,0,1-1.08593.68164q-.76539.12451-1.6753-1.0918a6.34411,6.34411,0,0,1-1.1709-2.82129l-2.82568-17.30957q-.137-.83935,1.32129-1.07617Q237.31454,648.00328,237.452,648.84264Z"/>
          <path d="M261.99252,649.51256l2.61133,15.99805q.137.84081-1.3208,1.07714-1.45826.23877-1.59472-.60058l-2.6709-16.36231q-.46436-2.8418-5.438-2.03125-4.97462.81153-4.51074,3.65528l2.6709,16.3623q.137.84083-1.32129,1.07617-1.45752.23877-1.59424-.60058l-2.61133-15.998a4.87372,4.87372,0,0,1,1.43359-4.74121,12.85735,12.85735,0,0,1,11.46094-1.87109A4.86187,4.86187,0,0,1,261.99252,649.51256Z"/>
          <path d="M285.7894,645.62877l2.61133,15.998q.137.84081-1.3208,1.07617-1.45826.23877-1.59473-.60059l-2.6709-16.3623q-.46436-2.8418-5.438-2.03028-4.9746.81153-4.51074,3.6543l2.6709,16.36231c.09131.56054-.34961.918-1.3208,1.07714q-1.45826.23731-1.59473-.60156l-2.61133-15.998a4.87445,4.87445,0,0,1,1.4336-4.74122,10.683,10.683,0,0,1,5.49853-2.30078,10.791,10.791,0,0,1,5.96241.42969A4.86479,4.86479,0,0,1,285.7894,645.62877Z"/>
          <path d="M309.39243,641.702l.17822,1.0918q.5061,3.09961-.57959,4.47266-1.08544,1.37548-4.4209,2.25488l-6.99316,1.85351.708,4.33594q.46436,2.8418,5.20166,2.06934,5.39208-.88038,4.98877-3.3584l-.22608-1.38477q-.137-.83789,1.32129-1.07617,1.45752-.2373,1.59424.60059l.1665,1.01953q.88038,5.39355-7.13672,6.70312a10.79936,10.79936,0,0,1-5.96631-.44824,4.84723,4.84723,0,0,1-2.91845-4.01269l-1.86768-11.44336a4.76576,4.76576,0,0,1,1.61572-4.77149,12.10763,12.10763,0,0,1,5.8628-2.36133,10.09581,10.09581,0,0,1,5.8623.38965Q308.89243,638.64,309.39243,641.702Zm-13.09424,1.83692.86279,5.28418,6.73779-1.81055a4.48756,4.48756,0,0,0,2.53614-1.31152,3.51641,3.51641,0,0,0,.22021-2.43067l-.22607-1.38476q-.46362-2.84181-5.5293-2.01563Q295.83359,640.69615,296.29819,643.53893Z"/>
          <path d="M326.98813,640.40025l-.29736-1.82226q-.46362-2.8418-3.853-2.28906-3.38966.55224-2.92529,3.3955l2.73047,16.72754q.13695.8379-1.32081,1.07617-1.45824.23731-1.59472-.60058l-2.6709-16.36328a5.32306,5.32306,0,0,1,1.01416-4.67285,7.26058,7.26058,0,0,1,4.35059-2.11329q6.30394-1.02978,7.23291,4.65625l.24951,1.53028q.137.83935-1.3208,1.07519Q327.1246,641.23863,326.98813,640.40025Z"/>
        </g>
        <g>
          <path d="M155.38364,504.911l3.18164.44238q4.97314.69286,5.37158-2.16016l.91113-6.54687q.397-2.85205-4.59619-3.54688-4.99072-.69434-5.38916,2.15723l-2.99756,21.541q-.11718.84228-1.57861.63867-1.46484-.20508-1.34717-1.04492l2.94678-21.17579a4.87765,4.87765,0,0,1,2.77148-4.10742,12.86476,12.86476,0,0,1,11.502,1.60156,4.86506,4.86506,0,0,1,1.5625,4.709l-.80908,5.81445a4.87779,4.87779,0,0,1-2.77051,4.10742,10.68387,10.68387,0,0,1-5.93311.57227l-3.18164-.44238q-.73242-.10108-.55322-1.38184Q154.65244,504.80847,155.38364,504.911Z"/>
          <path d="M190.0643,501.08678l-2.23388,16.05664a4.8653,4.8653,0,0,1-2.78907,4.10351,12.86579,12.86579,0,0,1-11.50195-1.59961,4.87728,4.87728,0,0,1-1.54492-4.708l2.23388-16.05567q.11719-.84081,1.58106-.63672,1.46192.20216,1.34473,1.04395l-2.28467,16.4209q-.397,2.85351,4.59521,3.54785t5.39014-2.15918l2.28467-16.41992q.11718-.84082,1.5791-.6377Q190.182,500.24644,190.0643,501.08678Z"/>
          <path d="M196.9686,521.13561l11.81348,1.64355q.731.10107.55273,1.38184-.17871,1.28174-.90869,1.17773l-14.00781-1.94824q-.73243-.10254-.55323-1.38184l.17774-1.28027a4.39488,4.39488,0,0,1,.53564-1.84473c.22852-.30468.38965-.51758.48047-.6416a3.88187,3.88187,0,0,1,.58154-.55273q.44239-.36621.67139-.541.22924-.17284.91943-.71094.69-.53758,1.106-.85254l8.44043-6.543a11.95159,11.95159,0,0,0,1.56983-1.36524,2.49841,2.49841,0,0,0,.43212-1.22656l.11182-.80469-10.71582-1.49023q-.73242-.10254-.5542-1.38282.178-1.28026.91065-1.17773l12.91015,1.79688q.731.10107.55322,1.38085l-.27978,2.01172a4.79867,4.79867,0,0,1-.90527,2.48438,22.56877,22.56877,0,0,1-3.39014,2.65918l-8.44092,6.542a11.05882,11.05882,0,0,0-1.57178,1.38477A2.70135,2.70135,0,0,0,196.9686,521.13561Z"/>
          <path d="M217.92465,524.05162l11.81348,1.64356q.731.10107.55371,1.38183-.17871,1.28174-.90967,1.17774l-14.00781-1.94825q-.73242-.10254-.55322-1.38183l.17773-1.28028a4.37731,4.37731,0,0,1,.53662-1.84472c.22852-.30469.38868-.51758.48047-.6416a3.81092,3.81092,0,0,1,.58057-.55274q.44238-.36621.67139-.541.22924-.17286.91943-.71094.68994-.5376,1.10693-.85254l8.44043-6.543a11.91807,11.91807,0,0,0,1.56885-1.36523,2.48881,2.48881,0,0,0,.43213-1.22657l.11182-.80468-10.71485-1.49024q-.73389-.10254-.5542-1.38281.178-1.28028.91065-1.17773l12.90918,1.79687q.731.10107.55322,1.38086l-.27979,2.01172a4.79845,4.79845,0,0,1-.90527,2.48437,22.53973,22.53973,0,0,1-3.38916,2.65918l-8.44092,6.542a11.08757,11.08757,0,0,0-1.57275,1.38476A2.712,2.712,0,0,0,217.92465,524.05162Z"/>
          <path d="M255.05063,514.71568l-.15234,1.09668q-.43287,3.10987-1.876,4.10059-1.44287.99316-4.88916.84863l-7.22852-.29785-.60546,4.35254q-.397,2.85351,4.35693,3.51465,5.4126.75292,5.75928-1.73438l.19336-1.38867q.11644-.84082,1.57959-.63867,1.46337.20508,1.34619,1.04492l-.14258,1.02344q-.75366,5.41406-8.79932,4.29394a10.78822,10.78822,0,0,1-5.5664-2.1914,4.84553,4.84553,0,0,1-1.602-4.69629l1.59814-11.48438a4.7674,4.7674,0,0,1,2.9541-4.08105,12.10416,12.10416,0,0,1,6.29688-.52246,10.08554,10.08554,0,0,1,5.48681,2.10644Q255.47837,511.64293,255.05063,514.71568Zm-13.05176-2.11523-.73779,5.30371,6.97168.26172a4.50786,4.50786,0,0,0,2.81152-.50293,3.52062,3.52062,0,0,0,.92823-2.25781l.19335-1.38965q.397-2.85206-4.686-3.55957Q242.39536,509.7484,241.99887,512.60045Z"/>
          <path d="M267.27475,504.56139l-3.35889,24.13769a4.51394,4.51394,0,0,0,.2461,2.25293q.408,1.08252.40283,1.11817-.06079.43944-.82422.83593a2.20951,2.20951,0,0,1-1.23877.33106q-.76758-.10841-1.27685-1.53906a6.32683,6.32683,0,0,1-.28565-3.041l3.40967-24.50293q.11646-.84228,1.58057-.63769Q267.39146,503.72008,267.27475,504.56139Z"/>
          <path d="M285.79135,520.18541l.19825-1.42578q.40209-2.88867-4.31641-3.5459a7.26552,7.26552,0,0,0-3.38281.20117,2.20963,2.20963,0,0,0-1.56934,1.90625l-.11182.80469a4.38746,4.38746,0,0,0,.15284,2.64941,4.29315,4.29315,0,0,0,2.0542,1.31055l3.0708,1.24707q4.37109,1.80323,5.05957,3.01563a5.85,5.85,0,0,1,.5249,3.72656l-.18359,1.31738a4.40912,4.40912,0,0,1-2.78418,3.80567,11.58012,11.58012,0,0,1-5.89942.46582q-5.70556-.794-6.83887-3.89649a6.37736,6.37736,0,0,1-.21484-3.01269l.1626-1.1709a.6526.6526,0,0,1,.418-.59375,2.79847,2.79847,0,0,1,1.15674-.00684q1.42676.19922,1.2998,1.11328l-.229,1.64551a2.13039,2.13039,0,0,0,.99267,2.24512,9.13988,9.13988,0,0,0,3.64551,1.12207q5.00976.69726,5.36719-1.86328l.26953-1.93848a2.05967,2.05967,0,0,0-.61524-1.875,9.51407,9.51407,0,0,0-2.78125-1.58008l-3.106-1.25195q-3.14283-1.25684-3.99366-2.5127-.85107-1.25536-.40283-4.47363l.061-.43945a4.8983,4.8983,0,0,1,2.67529-3.95215,9.63665,9.63665,0,0,1,5.48584-.5791q7.68018,1.06934,6.88574,6.77441l-.17773,1.28028q-.10694.76756-1.55127.5664Q285.66781,521.06237,285.79135,520.18541Z"/>
        </g>
        <g>
          <path d="M58.77573,402.56236l.24951,4.6084q.156,2.87549,5.37353,2.59278,5.217-.28272,5.061-3.1587l-.14355-2.65429q-.04615-.84815,1.42871-.92871,1.47437-.07984,1.521.76855l.12354,2.28613a4.85216,4.85216,0,0,1-1.97119,4.563,11.0842,11.0842,0,0,1-5.84278,1.70313,11.27062,11.27062,0,0,1-6.02929-1.06055,4.82525,4.82525,0,0,1-2.49073-4.31982L55.826,402.722q-.20654-3.79687,2.99707-4.74805-2.92457-.72876-3.1206-4.34228l-.18555-3.42871a4.82856,4.82856,0,0,1,2.00781-4.56445,10.80423,10.80423,0,0,1,5.65918-1.69336,9.565,9.565,0,0,1,5.58789,1.10254,5.00543,5.00543,0,0,1,2.26758,4.31347l.02979.55274q.04614.84814-1.42872.92871-1.47509.08056-1.521-.76856l-.04981-.92187q-.156-2.87548-4.96728-2.61426-4.812.26074-4.65576,3.13623l.20556,3.79785q.17652,3.24609,4.15821,3.02881l2.76562-.1499q.73681-.03956.80713,1.25049c.04687.86132-.17627,1.30322-.66748,1.32959l-3.13428.16992Q58.59922,399.317,58.77573,402.56236Z"/>
          <path d="M90.44174,394.59557l-.07812-1.4375q-.1582-2.91212-4.91455-2.65528a7.25788,7.25788,0,0,0-3.28223.84375,2.21,2.21,0,0,0-1.17627,2.17188l.04395.81152a4.38335,4.38335,0,0,0,.65674,2.57031,4.29423,4.29423,0,0,0,2.26757.894l3.25147.63769q4.63476.93237,5.54394,1.99219a5.84516,5.84516,0,0,1,1.22852,3.55713l.07178,1.32715a4.41546,4.41546,0,0,1-2.00537,4.26953,11.58514,11.58514,0,0,1-5.70166,1.584q-5.75245.312-7.458-2.5166a6.38248,6.38248,0,0,1-.78711-2.91553l-.064-1.17968a.65069.65069,0,0,1,.29737-.6626,2.76,2.76,0,0,1,1.1333-.229q1.43847-.07764,1.48828.84375l.08984,1.65917a2.13128,2.13128,0,0,0,1.40332,2.01416,9.153,9.153,0,0,0,3.79395.40333q5.05151-.27393,4.91162-2.85352l-.106-1.9541a2.064,2.064,0,0,0-.96289-1.72363,9.51474,9.51474,0,0,0-3.03174-1.01905l-3.28906-.63525q-3.3252-.63208-4.3999-1.70264-1.07594-1.07007-1.251-4.31445l-.02392-.44238a4.89974,4.89974,0,0,1,1.86962-4.39112,9.63825,9.63825,0,0,1,5.27393-1.61719q7.74316-.41967,8.05518,5.332l.06982,1.29q.04174.77635-1.41406.85351Q90.48862,395.48034,90.44174,394.59557Z"/>
          <path d="M103.89243,392.38707l.66748,12.31445q.156,2.8755,4.876,2.62012,4.71827-.25562,4.563-3.13183l-.084-1.54883q-.04542-.84669,1.42871-.92774,1.47437-.07983,1.521.76807l.064,1.18066a4.94856,4.94856,0,0,1-1.84229,4.55567,11.95651,11.95651,0,0,1-11.15283.60351,4.92986,4.92986,0,0,1-2.34326-4.32763l-.62744-11.57813a4.93146,4.93146,0,0,1,1.86133-4.55664,11.95179,11.95179,0,0,1,11.15234-.60449,4.94785,4.94785,0,0,1,2.32471,4.32959l.064,1.17969c.03077.56738-.44629.875-1.4292.92822q-1.47509.08057-1.5205-.76856l-.084-1.54785q-.156-2.87549-4.875-2.62012Q103.73594,389.51158,103.89243,392.38707Z"/>
          <path d="M133.54819,408.04869l-4.314.2334q-3.24535.17578-4.75488-1.07275-1.50952-1.251-1.68164-4.41993l-.01611-.29589q-.16992-3.1333,1.05664-4.38379,1.2268-1.24878,4.52637-1.76123l6.34521-.97315-.22217-4.09277q-.156-2.87548-5.17041-2.604l-5.05127.27393q-.73755.04029-.80664-1.25-.07031-1.29053.66651-1.33105l5.05127-.27393a10.69542,10.69542,0,0,1,5.86425,1.06885,4.881,4.881,0,0,1,2.416,4.32568l.58984,10.877a7.29991,7.29991,0,0,0,1.0542,3.751,1.80071,1.80071,0,0,1,.2876.53858c.01611.29589-.20117.62109-.64941.979a2.20284,2.20284,0,0,1-1.15333.56152q-.81078.044-1.57568-1.44824a9.6083,9.6083,0,0,1-.89307-3.854l-.26806-4.94043-6.12305.96093a4.18989,4.18989,0,0,0-2.53369,1.02491,3.59956,3.59956,0,0,0-.46191,2.39111l.01611.2959a3.99253,3.99253,0,0,0,.74414,2.47412,3.303,3.303,0,0,0,2.603.59814l4.314-.23388q.73681-.04029.80713,1.251Q134.28477,408.00768,133.54819,408.04869Z"/>
          <path d="M151.10532,404.50816l3.208-.17382q5.01342-.27246,4.85839-3.14795l-.63769-11.76172q-.156-2.87549-5.188-2.603-5.0332.27246-4.87744,3.14893l1.39746,25.77246q.04541.84815-1.4292.92773-1.4751.08057-1.52051-.76758l-1.37744-25.40478a4.87464,4.87464,0,0,1,1.93457-4.56055,12.86686,12.86686,0,0,1,11.59571-.62842,4.86433,4.86433,0,0,1,2.43505,4.32325l.59766,11.02539a4.87785,4.87785,0,0,1-1.93506,4.56054,10.70085,10.70085,0,0,1-5.71338,1.69678l-3.208.17383q-.73754.03956-.80712-1.25Q150.368,404.54869,151.10532,404.50816Z"/>
          <path d="M185.02329,388.284l.05957,1.10645q.16992,3.1333-1.05664,4.38379-1.22754,1.25024-4.6377,1.76758l-7.15185,1.09082.23779,4.38671q.156,2.8755,4.94971,2.61622,5.4558-.29591,5.32031-2.80274l-.07569-1.40137q-.04614-.84668,1.4292-.92773,1.47365-.07983,1.521.76758l.05566,1.03222q.2959,5.458-7.81591,5.897a10.783,10.783,0,0,1-5.88282-1.08643,4.84727,4.84727,0,0,1-2.47119-4.30322l-.62744-11.57813a4.76671,4.76671,0,0,1,2.11865-4.57031,12.10593,12.10593,0,0,1,6.083-1.71631,10.08282,10.08282,0,0,1,5.78613,1.01709Q184.85507,385.18786,185.02329,388.284Zm-13.21631.4209.29,5.34668,6.89355-1.07715a4.48878,4.48878,0,0,0,2.66162-1.03174,3.51257,3.51257,0,0,0,.48047-2.39209l-.07568-1.40136q-.156-2.87549-5.28076-2.59815Q171.65072,385.82872,171.807,388.70494Z"/>
          <path d="M211.37827,390.14586l3.20752-.17383q5.01415-.27173,4.85888-3.147l-.31787-5.86328q-.156-2.87549-5.189-2.602-5.03321.27319-4.877,3.14795l1.17725,21.71679q.04614.84962-1.42871.92774c-.9834.05322-1.49023-.20117-1.521-.76758L206.1312,382.037a4.87566,4.87566,0,0,1,1.93457-4.56054,12.86486,12.86486,0,0,1,11.5957-.62891,4.86512,4.86512,0,0,1,2.43506,4.32373l.27783,5.125a3.99311,3.99311,0,0,1-2.97559,4.45117,5.23011,5.23011,0,0,1,1.4629,2.43506q3.12671,9.26074,3.13964,9.48.0359.665-1.25488.73389-1.29126.07031-1.59473-.76367l-2.77832-8.28028a2.59207,2.59207,0,0,0-1.01123-1.59033,5.99177,5.99177,0,0,0-2.59912-.21094l-3.24463.17578q-.73827.04029-.80761-1.251Q210.64121,390.18687,211.37827,390.14586Z"/>
          <path d="M245.7518,385.06481l.62744,11.57812a4.87644,4.87644,0,0,1-1.93408,4.56055,12.86282,12.86282,0,0,1-11.5957.62841,4.86177,4.86177,0,0,1-2.43506-4.32324l-.62744-11.57812a4.87464,4.87464,0,0,1,1.93457-4.56055,12.86662,12.86662,0,0,1,11.5957-.62842A4.86336,4.86336,0,0,1,245.7518,385.06481Zm-2.30224,12.10644-.66748-12.31445q-.156-2.87549-5.18848-2.603t-4.877,3.14844l.66748,12.31445q.156,2.87548,5.189,2.60352Q243.60556,400.047,243.44956,397.17125Z"/>
          <path d="M269.09018,383.79967l.62744,11.57812a4.87634,4.87634,0,0,1-1.93359,4.56006,12.86509,12.86509,0,0,1-11.5957.62891,4.86357,4.86357,0,0,1-2.43555-4.32373l-.62744-11.57813a4.87408,4.87408,0,0,1,1.93506-4.56006,10.68789,10.68789,0,0,1,5.71289-1.69677,10.79592,10.79592,0,0,1,5.88281,1.06787A4.86532,4.86532,0,0,1,269.09018,383.79967Zm-2.30176,12.106-.66748-12.31446q-.156-2.87548-5.189-2.603-5.03247.2732-4.877,3.14893l.66749,12.31445q.156,2.8755,5.189,2.603Q266.94467,398.78135,266.78842,395.90563Z"/>
          <path d="M277.7103,399.56627l-.87744-16.18652a4.92685,4.92685,0,0,1,1.87988-4.53907,10.60806,10.60806,0,0,1,5.80518-1.72021,7.88654,7.88654,0,0,1,5.85742,1.64258,7.75671,7.75671,0,0,1,5.60937-2.26416q8.0376-.43579,8.35352,5.38965l.87744,16.18652c.03076.56641-.44629.874-1.4292.92725q-1.4751.08056-1.52051-.76758L301.3685,381.68q-.156-2.87548-4.81982-2.62305-4.66481.25269-4.5044,3.20313l.89356,16.48047q.04614.8496-1.4292.92773c-.9834.05322-1.48975-.20117-1.52051-.76758l-.89746-16.55468q-.156-2.8755-4.81982-2.62354-4.66481.25343-4.50831,3.12891l.89747,16.55468q.04614.84961-1.4292.92774C278.24741,400.38707,277.74106,400.13268,277.7103,399.56627Z"/>
        </g>
        <g>
          <path d="M137.1019,114.77232,132.53842,135.659q-.1809.82911-1.62451.51416-1.44286-.31567-1.26123-1.145l2.13623-9.77636-10.93066-2.38819L118.722,132.64q-.18091.82983-1.62354.51465-1.44433-.31567-1.26318-1.145l4.56347-20.88672a4.90013,4.90013,0,0,1,1.92042-3.07666,6.468,6.468,0,0,1,3.43115-1.17822,16.33388,16.33388,0,0,1,4.44385.42236Q138.3475,109.07238,137.1019,114.77232Zm-13.73779-3.37988-1.95459,8.94629,10.93066,2.38818,1.95459-8.94628q.61524-2.814-4.85058-4.00831Q123.98032,108.57921,123.36411,111.39244Z"/>
          <path d="M173.807,144.67564l5.13916-23.5205-.36133-.0791q-1.15577-.25269-1.51465.00976a4.66,4.66,0,0,0-.96777,1.48926L167.286,140.26549q-.36255.78956-1.58838.52148-1.22607-.26806-1.22509-1.13672l-.63477-19.75488a4.64335,4.64335,0,0,0-.25879-1.75683q-.21753-.38892-1.37207-.64063l-.36035-.0791-5.13916,23.52051q-.18091.82983-1.62354.51465-1.44434-.31568-1.2622-1.145l5.09961-23.33985a4.28679,4.28679,0,0,1,.84765-2.064q.50025-.47608,1.90723-.169l.79394.17383a7.031,7.031,0,0,1,3.28321,1.32178q.75732.77124.79345,3.19677l.37256,15.76758,6.91455-14.17529q1.04591-2.1892,2.05616-2.57422a7.02749,7.02749,0,0,1,3.53515.16748l.793.17334q1.40772.30762,1.66309.94922a4.27436,4.27436,0,0,1-.08985,2.229l-5.09961,23.33985q-.1809.83057-1.62353.51465Q173.62388,145.50451,173.807,144.67564Z"/>
          <path d="M193.61215,149.68248l-4.21972-.92187q-3.17578-.69361-4.29688-2.29932-1.12574-1.6062-.4458-4.7085l.063-.28808q.67017-3.06592,2.18408-3.94532,1.51466-.87816,4.83252-.49414l6.37451.751.87451-4.00488q.61524-2.8125-4.29-3.88574l-4.94239-1.07959q-.72216-.15747-.44629-1.41993.27613-1.26268.998-1.105l4.94238,1.08008a10.69021,10.69021,0,0,1,5.36719,2.58985,4.87718,4.87718,0,0,1,1.1792,4.812l-2.3252,10.64209a7.31351,7.31351,0,0,0,.01758,3.89648,1.76063,1.76063,0,0,1,.13379.59619q-.09448.43287-.88574.77a2.20228,2.20228,0,0,1-1.26074.23487q-.79395-.1736-1.13477-1.81641a9.62206,9.62206,0,0,1,.16455-3.95166l1.05616-4.834-6.15772-.70263a4.18884,4.18884,0,0,0-2.71436.314,3.59539,3.59539,0,0,0-1.08154,2.18311l-.063.28857a3.9914,3.9914,0,0,0,.0586,2.58252q.43872.85254,2.3501,1.269l4.21972.92187q.72071.1582.44629,1.4209Q194.33408,149.84215,193.61215,149.68248Z"/>
          <path d="M208.23325,150.23131l11.65136,2.5459q.72217.15673.44629,1.41992-.27612,1.26415-.998,1.10547l-13.81641-3.019q-.72216-.15748-.44434-1.42042l.2754-1.26269a4.40759,4.40759,0,0,1,.67578-1.79834c.25146-.28516.42822-.48535.52832-.60254a3.9614,3.9614,0,0,1,.62158-.50635c.312-.22168.55029-.38379.71094-.4873s.48584-.31592.97119-.63867q.73021-.48194,1.16894-.76465l8.918-5.87549a11.91415,11.91415,0,0,0,1.66992-1.2417,2.48654,2.48654,0,0,0,.52442-1.18945l.17383-.79395-10.56934-2.30859q-.72217-.15821-.44727-1.42041.27614-1.2627.999-1.105l12.7334,2.78222q.72216.1582.44531,1.42041l-.43311,1.98389a4.80418,4.80418,0,0,1-1.09277,2.40674,22.53676,22.53676,0,0,1-3.584,2.39209l-8.91846,5.875a10.99859,10.99859,0,0,0-1.67383,1.25976A2.70224,2.70224,0,0,0,208.23325,150.23131Z"/>
          <path d="M245.96567,143.7733l-.23682,1.082q-.67015,3.06592-2.18359,3.94483-1.51685.8789-4.94043.47021l-7.18506-.85156-.9375,4.29248q-.61524,2.81469,4.07422,3.83838,5.33936,1.16674,5.875-1.28662l.29932-1.37061q.18164-.82909,1.62451-.51416,1.44286.31568,1.26123,1.145l-.22022,1.00977q-1.16674,5.33935-9.10254,3.60449a10.79356,10.79356,0,0,1-5.38183-2.61133,4.84872,4.84872,0,0,1-1.23682-4.80566l2.47461-11.32715a4.771,4.771,0,0,1,3.2583-3.84278,12.10855,12.10855,0,0,1,6.32031-.0371,10.08206,10.08206,0,0,1,5.30762,2.521Q246.629,140.74327,245.96567,143.7733ZM233.11411,140.663l-1.14258,5.231,6.93213.79638a4.4973,4.4973,0,0,0,2.84131-.28662,3.52281,3.52281,0,0,0,1.09814-2.1792l.29932-1.3706q.61523-2.814-4.39844-3.90918Q233.72983,137.849,233.11411,140.663Z"/>
        </g>
      </g>
    </g>
  </g>
</svg>
