<svg xmlns="http://www.w3.org/2000/svg" xmlns:xlink="http://www.w3.org/1999/xlink" width="101.54021" height="101.54021" viewBox="0 0 101.54021 101.54021">
  <defs>
    <style>
      .cls-1 {
        fill: url(#linear-gradient);
      }

      .cls-2 {
        fill: #fff;
      }
    </style>
    <linearGradient id="linear-gradient" y1="50.77011" x2="101.54021" y2="50.77011" gradientUnits="userSpaceOnUse">
      <stop offset="0" stop-color="#006837"/>
      <stop offset="0.2591" stop-color="#00773c"/>
      <stop offset="0.7006" stop-color="#008b43"/>
      <stop offset="1" stop-color="#009245"/>
    </linearGradient>
  </defs>
  <g id="Layer_2" data-name="Layer 2">
    <g id="PROJECTS">
      <g>
        <circle class="cls-1" cx="50.77011" cy="50.77011" r="50.77011"/>
        <path class="cls-2" d="M52.98472,24.05205a6.59721,6.59721,0,0,0-6.4999,8.26907,4.73972,4.73972,0,0,0,.53075,1.288c.06078.10852.08156.15568.138.25476-.01757-.0017-.03536-.00288-.05308-.00353H34.78a.9059.9059,0,0,0-.90581.90581V47.24932c-3.32829-1.852-8.01611-.58986-9.35887,3.20572a6.64189,6.64189,0,0,0,8.867,8.47075c.19909-.1.31967-.166.49183-.25829V71.00564a.90591.90591,0,0,0,.90581.90581H48.944a.9059.9059,0,0,0,.59443-1.58871,4.87644,4.87644,0,0,1,.91643-7.60386c.01558-.00779.0309-.01612.046-.02476a4.92286,4.92286,0,0,1,6.606,1.71608l.00363.00707c.87981,1.52578.981,3.73479-.11676,4.982l.02832-.02832a2.752,2.752,0,0,0-.48829.64752,1.30144,1.30144,0,0,0-.12738.95181,1.24634,1.24634,0,0,0,.62982.74658,1.80314,1.80314,0,0,0,.60859.17693,6.05449,6.05449,0,0,0,1.04735.02476c.32085-.01123.62091-.01793.70766-.01068.02471.00217.0495.00344.07432.00362H71.02321a.9059.9059,0,0,0,.90581-.90581V56.955a.9059.9059,0,0,0-1.57112-.61567,4.94874,4.94874,0,0,1-7.78431-1.27734c-.00779-.01685-.016-.03328-.02477-.04953-1.44587-2.77022.67109-6.75646,3.832-6.9245a.90861.90861,0,0,0,.25829-.05309,2.44108,2.44108,0,0,1,1.85763.31845,7.4302,7.4302,0,0,0,2.40606,1.019.9059.9059,0,0,0,1.0155-.89519c.022-4.57222.00453-9.14473.01068-13.711a.90585.90585,0,0,0-.90581-.90935H58.61781c1.74288-3.044.9369-7.31562-2.4026-8.952A6.65739,6.65739,0,0,0,52.98472,24.05205Z"/>
      </g>
    </g>
  </g>
</svg>
