<svg xmlns="http://www.w3.org/2000/svg" xmlns:xlink="http://www.w3.org/1999/xlink" width="151.99028" height="151.99028" viewBox="0 0 151.99028 151.99028">
  <defs>
    <style>
      .cls-1 {
        fill: #fff;
      }

      .cls-2 {
        fill: url(#linear-gradient);
      }
    </style>
    <linearGradient id="linear-gradient" x1="35.99115" y1="71.82959" x2="107.66804" y2="71.82959" gradientUnits="userSpaceOnUse">
      <stop offset="0" stop-color="#006837"/>
      <stop offset="0.2591" stop-color="#00773c"/>
      <stop offset="0.7006" stop-color="#008b43"/>
      <stop offset="1" stop-color="#009245"/>
    </linearGradient>
  </defs>
  <g id="Layer_2" data-name="Layer 2">
    <g id="HOME">
      <g>
        <circle class="cls-1" cx="75.99514" cy="75.99514" r="75.99514"/>
        <path class="cls-2" d="M79.31008,36.00227c-6.3349-.30919-11.61274,6.25847-9.72937,12.37754a7.09512,7.09512,0,0,0,.79445,1.92786c.091.16243.12208.233.20655.38134-.0263-.00254-.05293-.00431-.07945-.00529H52.06042a1.356,1.356,0,0,0-1.35586,1.35586V70.72506c-4.98194-2.77225-11.9989-.88293-14.00881,4.79848-2.48619,5.94283,1.91277,13.13823,8.4,13.47917a10.02471,10.02471,0,0,0,4.87263-.79975c.298-.14965.4785-.24855.73619-.38663v18.46833a1.356,1.356,0,0,0,1.35586,1.35586H73.26166a1.356,1.356,0,0,0,.88977-2.37806c-3.41824-2.96557-2.57629-9.25419,1.37176-11.38182.02332-.01166.04626-.02414.06885-.03707a7.3688,7.3688,0,0,1,9.88826,2.56872l.00542.01058c1.317,2.28386,1.4684,5.59041-.17477,7.45724l.04239-.04239a4.11913,4.11913,0,0,0-.73089.96923,1.94816,1.94816,0,0,0-.19067,1.42472,1.86555,1.86555,0,0,0,.94275,1.11752,2.699,2.699,0,0,0,.911.26483,9.06369,9.06369,0,0,0,1.56772.03707c.48026-.01681.92941-.02684,1.05926-.016.037.00326.07409.00515.11124.00543H106.311a1.356,1.356,0,0,0,1.35586-1.35586V85.25291a1.356,1.356,0,0,0-2.35173-.92157c-3.17212,3.4292-9.74225,2.37934-11.65194-1.912-.01166-.02522-.02386-.04981-.03707-.07414-2.16424-4.1466,1.00453-10.11339,5.73594-10.36493a1.35972,1.35972,0,0,0,.38663-.07945,3.65376,3.65376,0,0,1,2.78057.47667,11.12245,11.12245,0,0,0,3.60151,1.52534,1.356,1.356,0,0,0,1.52-1.34c.033-6.84392.00678-13.68827.016-20.5233a1.35592,1.35592,0,0,0-1.35586-1.36116H87.742C90.35079,46.122,89.14435,39.728,84.14564,37.27869A9.96513,9.96513,0,0,0,79.31008,36.00227Z"/>
      </g>
    </g>
  </g>
</svg>
