<svg id="Layer_1" data-name="Layer 1" xmlns="http://www.w3.org/2000/svg" width="109.41741" height="154.00286" viewBox="0 0 109.41741 154.00286">
  <defs>
    <style>
      .cls-1 {
        fill: #fff;
      }
    </style>
  </defs>
  <title>ruben</title>
  <path class="cls-1" d="M109.11,119.56a10.94,10.94,0,0,0-7.15-7.1l-30.7-10.61h-.2a1.99961,1.99961,0,0,0-.37-.05H65.21a1.1,1.1,0,0,1-.93-.44c-1.58-1.84-1.49-5.84-.93-9.52a1.99985,1.99985,0,0,0,0-.59c8.5-3.53,11-11.41,12.87-20.59a1.99974,1.99974,0,0,0,.34-.26c.82-.8,8-8,9.41-12.86,1.13-4,.78-7-1-9.05a7,7,0,0,0-3.57-2.07c2-3,4.39-7.34,3.54-10.75a18.51985,18.51985,0,0,0-2.27-5.84,20.09993,20.09993,0,0,0,1.31-11.12,9,9,0,0,0-4.4-6.23c-2.26-1.26-4.5-2.66-6.66-4C65.34,3.7,58.23-.74,49.84.1c-9.49.95-16.34,2.47-19.19,12.18A16.07,16.07,0,0,0,18.43,28.42c0,8.65,2.68,14.17,4.48,16.91A7.78,7.78,0,0,0,18,48.1c-1.72,2.25-1.91,5.44-.57,9.46,1.82,5.45,9.81,11.92,11,12.86,2.31,9.28,5.69,17.66,14,21.1a1.99983,1.99983,0,0,0,0,.76c.6,2.59,1.57,8.24-1.5,10.1L33.52,104h-.24L6.87,113.31a10.61,10.61,0,0,0-6.62,7.13,8.92,8.92,0,0,0,2,8C10.36,138,28,154,54.8,154s44.37-16.51,52.49-26.35A8.86,8.86,0,0,0,109.11,119.56ZM81.95,51.11c1.05,1.19.67,3.52.17,5.28s-2.5,4.53-4.48,6.87l.69-3.77.4-9.42A4.38,4.38,0,0,1,81.95,51.11ZM21.23,56.3c-.61-1.85-1.12-4.34-.06-5.76a4.51,4.51,0,0,1,3.29-1.38l1.66,9.12.57,4.32v.15l.21,1C24.52,61.43,22,58.55,21.23,56.3ZM30.64,62l-.57-4.34L27.94,45.94c.63-4.14,2.86-14.34,6.54-17.81a30.29,30.29,0,0,0,6.65,3.35,80.91,80.91,0,0,0,23.34,4.38c1.11,0,2.27.08,3.44.08a44.93908,44.93908,0,0,0,6.63-.43A79.1316,79.1316,0,0,1,75,43.66l-.63,15.25-.81,4.42q-.25,1.29-.49,2.54c-2.7,14-4.48,23.32-21.51,23.32C37.14,89.19,34.21,78.86,30.64,62ZM42,106.24a1.99967,1.99967,0,0,0,.48-.17c5.63-2.82,4.7-9.75,4.07-13.32a27.42065,27.42065,0,0,0,5,.43,36.85,36.85,0,0,0,7.67-.73c-.37,3.14-.81,8.16,2,11.46a5.09,5.09,0,0,0,4,1.83h1.43c-5.63,7.42-11.25,13.35-13,13.55-2,0-9.24-5.9-15.71-12.17Z" transform="translate(-0.0036 0.00286)"/>
</svg>
