<svg xmlns="http://www.w3.org/2000/svg" width="135.1796" height="35.8281" viewBox="0 0 135.1796 35.8281">
  <defs>
    <style>
      .cls-1, .cls-2 {
        fill: #fff;
      }

      .cls-1 {
        fill-rule: evenodd;
      }
    </style>
  </defs>
  <title>Asset 1</title>
  <g id="Layer_2" data-name="Layer 2">
    <g id="Design">
      <path class="cls-1" d="M3.5159,17.7496V34.3555a.43245.43245,0,0,0,.4325.4325h6.1667a.43245.43245,0,0,0,.4325-.4325V17.4791h4.4707a.43259.43259,0,0,0,.431-.3961l.4299-5.0848a.43247.43247,0,0,0-.431-.469H10.5476V7.9215a1.531,1.531,0,0,1,1.5309-1.5309h3.4456a.4326.4326,0,0,0,.4326-.4325V.8732a.43254.43254,0,0,0-.4326-.4325H9.7021A6.18619,6.18619,0,0,0,3.5159,6.6269v4.9023H.4325A.43245.43245,0,0,0,0,11.9617v5.0849a.43245.43245,0,0,0,.4325.4325H3.5159Z"/>
      <path class="cls-2" d="M71.1,6.5962a2.1063,2.1063,0,1,0,2.1063,2.1063A2.1064,2.1064,0,0,0,71.1,6.5962ZM61.7359,9.2973a8.8479,8.8479,0,1,0,8.8478,8.8479A8.85807,8.85807,0,0,0,61.7359,9.2973Zm0,14.5157a5.6677,5.6677,0,1,1,5.6676-5.6678A5.6742,5.6742,0,0,1,61.7359,23.813ZM79.589,10.7916A10.7919,10.7919,0,0,0,68.7968,0H54.5532A10.792,10.792,0,0,0,43.761,10.7916V25.0365A10.792,10.792,0,0,0,54.5532,35.8281H68.7968A10.7919,10.7919,0,0,0,79.589,25.0365Zm-3.38,14.2449a7.41187,7.41187,0,0,1-7.4122,7.4116H54.5532a7.41194,7.41194,0,0,1-7.4122-7.4116V10.7916A7.41194,7.41194,0,0,1,54.5532,3.38H68.7968a7.41187,7.41187,0,0,1,7.4122,7.4116Z"/>
      <g>
        <path class="cls-2" d="M135.1796,19.7342V30.4144a.47778.47778,0,0,1-.4778.4778h-5.5135a.47778.47778,0,0,1-.4778-.4778V20.482c0-2.6139-.934-4.3989-3.2763-4.3989a3.53853,3.53853,0,0,0-3.3182,2.3654,4.428,4.428,0,0,0-.2142,1.5766V30.4139a.47778.47778,0,0,1-.4778.4778h-5.5117a.47589.47589,0,0,1-.4778-.4779c.0122-2.6448.068-15.4786.0114-18.495a.47524.47524,0,0,1,.4776-.4836h5.501a.47778.47778,0,0,1,.4778.4778v2.2794c-.0131.0217-.0314.0429-.043.0637h.043v-.0637a6.42313,6.42313,0,0,1,5.8303-3.214c4.2561,0,7.447,2.7808,7.447,8.7558ZM105.866,30.8922h5.5116a.47778.47778,0,0,0,.4778-.4778V11.913a.47778.47778,0,0,0-.4778-.4778H105.866a.47778.47778,0,0,0-.4778.4778V30.4144A.47778.47778,0,0,0,105.866,30.8922Z"/>
        <path class="cls-2" d="M111.8909,5.4976a3.46275,3.46275,0,1,1-3.4627-3.4627A3.46278,3.46278,0,0,1,111.8909,5.4976Z"/>
      </g>
    </g>
  </g>
</svg>
