<svg xmlns="http://www.w3.org/2000/svg" width="281.84809" height="326.94386" viewBox="0 0 281.84809 326.94386">
  <defs>
    <style>
      .cls-1 {
        fill-rule: evenodd;
      }
    </style>
  </defs>
  <title>Asset 4</title>
  <g id="Layer_2" data-name="Layer 2">
    <g id="Layer_1-2" data-name="Layer 1">
      <g>
        <path class="cls-1" d="M259.7749,62.06843c-.48151-.1103-.27591.355-.33941.6021-2.56.9258-4.8379,2.8613-7.4931,3.4448-.2076.4863-.4947.4707-.5088.9028-.479.002-.8404.4239-1.3994.1372a31.479,31.479,0,0,1,5.8496-3.5781c1.2866-.6196,2.6875-2.206,4.11711-1.9101.32519.164-.27441.5009-.25191.916C259.39059,62.51371,259.69719,62.25883,259.7749,62.06843Z"/>
        <path class="cls-1" d="M200.73139,30.78183c3.876,1.5747,2.7564,6.4404-.3818,7.7163a4.57106,4.57106,0,0,1-5.0679-1.7983c-1.7583-2.72512,1.2608-6.58112,3.7749-6.4654A5.9236,5.9236,0,0,1,200.73139,30.78183Zm-2.2212,1.1274c.5972.3218,1.1826.604,1.5865.2334A1.36339,1.36339,0,0,0,198.51019,31.90923Zm2.5244,4.1993q.2007.11277.4014.226a.51658.51658,0,0,0-.0059-.9287A.72209.72209,0,0,0,201.03459,36.10853Z"/>
        <path class="cls-1" d="M133.101,6.28913c-.3325.4385-.1591-.5205-.5893-.5957a.68877.68877,0,0,0,.0933,1.2417c-1.1441.9063-3.0206,2.0811-4.8633,1.3574-2.6416-1.0366-3.1016-3.8315-1.8648-6.0737.9199-.8428,1.5811-1.8076,2.7871-2.1309,1.4864-.3989,4.4117.6011,4.9981,2.1553.3755.9951-.1724,1.83448-.0396,2.8858C133.2378,5.72033,133.0757,5.71783,133.101,6.28913Zm-3.2968-4.2363c.2402.4443,1.1655.75,1.4301.2764C130.6928,2.004,130.1777,1.77453,129.8042,2.05283Z"/>
        <path class="cls-1" d="M245.53419,69.51133c-.0645.8486-1.5352.9082-1.80229,2.02438-2.64841,1.31492-5.03031,3.58352-7.97611,3.83352-.1728-.9194.9947-1.4727,1.5757-1.624.1773-.2183-.06-.3208.1821-.5576C240.1259,71.88733,242.86079,69.60263,245.53419,69.51133Z"/>
        <path class="cls-1" d="M135.7959,26.84383c1.0327.52688,1.1015.7944,1.5107,1.7764.6255,1.5019.8047,4.4614-.8516,5.7339a7.24265,7.24265,0,0,1-4.3354,1.1259c-3.542-.7334-3.9492-4.7221-2.8125-6.7402A4.87382,4.87382,0,0,1,135.7959,26.84383Zm-2.9312,1.918c.1704-.2989.6636.56.7715.0376C133.3657,28.56063,132.7192,28.51133,132.8647,28.76183Zm1.8736,2.7734c.3496-.1069.2856-.5762-.1187-.727A.4562.4562,0,0,0,134.7383,31.53523Z"/>
        <path class="cls-1" d="M150.5454,51.81163c-.438,1.78508-1.6577,4.143-3.3779,3.6484.0375-1.0249.1542-2.0722.1533-3.0859.3261-.5386.8051-.4112.8789-1.0913A2.72772,2.72772,0,0,1,150.5454,51.81163Zm-1.1743,1.8496c.1757-.2466.206-.4522-.0752-.5708C149.1196,53.337,149.0893,53.54253,149.3711,53.66123Z"/>
        <path class="cls-1" d="M215.08439,91.879a.819.819,0,0,1-.99749.3628C214.415,92.106,214.6689,91.70323,215.08439,91.879Z"/>
        <path class="cls-1" d="M175.30219,75.67583c.5152,1.2437,1.3623,2.1763,1.53471,3.376.563,3.9185-3.37011,7.3086-5.64111,9.77688-1.3106.15622-2.52.50292-4.0327-.81838.0146-1.6113-1.0479-2.9209-2.5821-4.09862a10.33256,10.33256,0,0,1-.5918-5.75388C166.43309,74.55333,170.22509,71.74083,175.30219,75.67583Zm-5.5908,1.4766a1.47374,1.47374,0,0,0,1.7441.1895A1.11985,1.11985,0,0,0,169.71139,77.15243Zm2.292,5.7861c.167.0938.3349.188.50151.2823.27729-.2168.26019-.4146.29589-.7588q-.20145-.1128-.40189-.2256A.72052.72052,0,0,0,172.00339,82.93853Z"/>
        <path class="cls-1" d="M252.65429,146.49371c-.3892,1.23442-1.9283.96732-3.06839.51862C250.41109,146.13193,251.51169,146.23793,252.65429,146.49371Z"/>
        <path class="cls-1" d="M110.5312,87.16463c-.52-.4184-.437-1.00492-1.3794-1.3057-1.4492-2.5537,1.4551-6.0366,4.3062-3.6538a4.12247,4.12247,0,0,1,.4624,3.1685A5.1457,5.1457,0,0,1,110.5312,87.16463Zm2.041-2.6836c.0562-.1001.1128-.1997.1695-.3008-.1597-.0673-.3501-.2446-.4585-.12552C112.417,84.18663,112.1914,84.41853,112.5722,84.481Z"/>
        <path class="cls-1" d="M28.0893,70.19c-2.3115.292-4.0547,1.8179-6.6455,1.9404-2.5024.1172-5.5932-1.1831-7.8589-2.7104-2.2929-1.5459-3.7588-3.8286-5.1342-5.6685-.146-1.73582-1.1177-3.2895-.774-5.19582.6573-3.64158,4.1084-7.02538,6.5445-9.26658a35.82367,35.82367,0,0,1,5.7729-2.0351,10.97473,10.97473,0,0,1,6.9136-.07032,17.74782,17.74782,0,0,1,6.0893,3.03412c2.6822,2.0957,3.1519,5.7813,2.2832,9.0865a21.04691,21.04691,0,0,1-1.9292,4.5971A16.01,16.01,0,0,1,28.0893,70.19Zm-1.832-17.1597c-.0962.9512,1.8711,1.5533,2.2895.6289C28.2177,52.918,26.7524,52.44543,26.2573,53.03033Zm4.102,9.8467c-.3422.5962.3082,1.4531.8648,1.2798C31.5639,63.51083,31.0381,63.002,30.3593,62.877Z"/>
        <path class="cls-1" d="M256.17279,189.98543a1.76321,1.76321,0,0,1-.2065-1.042,7.19224,7.19224,0,0,1,4.834-3.8862c1.0468.8476,2.6801,1.3774,3.57561.6938.29639-.5625-.04681-.94532.01959-1.44332,2.4785.05322,5.3803.57322,7.4136,2.32662a13.01228,13.01228,0,0,1,2.2182,3.1006c.6704,1.0957,1.7632,2.15678,2.0625,3.145.5757,1.9063-1.2075,3.8189-1.8931,5.9395-2.2309,1.2085-4.9892,4.0039-7.9326,3.9907a21.95883,21.95883,0,0,1-2.4028-.4287,9.35122,9.35122,0,0,1-4.7231-1.4712,10.597,10.597,0,0,1-2.6265-2.1416,14.572,14.572,0,0,1-2.1426-4.6445c-.0474-.7661.4224-1.5723.2153-2.2578.1998-.7119.627-.793.4336-1.4737C255.34909,190.06353,255.78559,190.11143,256.17279,189.98543Zm11.8047,3.2149c.0542.6469,1.853,1.7143,2.189.5722C269.65129,193.209,268.42669,192.53571,267.97749,193.20033Z"/>
        <path class="cls-1" d="M262.92719,184.80183c-.36129.3682-.9829.5674-1.3428.0371C261.95849,184.51623,262.563,184.25593,262.92719,184.80183Z"/>
        <path class="cls-1" d="M219.98429,201.18853c-.0371,2.1817,1.43461,3.7735.29061,5.584a9.14544,9.14544,0,0,1-2.05911,2.01218c-.7393.564-1.6221,1.32862-2.3037,1.74222-1.9824,1.2027-5.5694,1.1319-7.4536.5591a9.4478,9.4478,0,0,1-3.669-1.9356c-.3305-.3461-.7407-1.2275-1.1963-1.86372-.936-1.30618-1.9809-2.97318-1.4145-4.76218.3525-1.11482,1.3701-1.5064,1.2568-2.4649C206.96529,193.21493,215.99659,195.45563,219.98429,201.18853Zm-9.6777-3.4702a1.66967,1.66967,0,0,0,2.1455.4155C212.15079,197.41223,210.747,197.023,210.30659,197.71833Zm5.021,5.8692c.0762.4887,1.3062,1.1845,1.5742.4907C216.95409,203.51323,215.65519,202.86483,215.32759,203.58753Z"/>
        <path class="cls-1" d="M48.8144,124.43513c-.7661,3.6851-2.4214,6.3418-5.1943,8.0454a6.25016,6.25016,0,0,0-2.6797,1.0015c-1.9126-.2251-4.0732-.1812-6.0215-1.2778a7.81216,7.81216,0,0,1-2.9648-3.6534c-.1241-.36812.125-.8974.0195-1.4433-.0825-.4312-.4629-.8296-.5068-1.2114a7.691,7.691,0,0,1,.8061-3.7759c.7446-1.3291,1.9541-2.1782,2.6499-3.5298a15.93817,15.93817,0,0,1,4.2168-1.854,8.33014,8.33014,0,0,1,1.1548-.4068c1.5352-.1108,3.2607.8892,4.5664,1.5142C47.8154,119.26233,48.2998,122.21293,48.8144,124.43513Zm-7.5122-4.4975c.4966.5942,1.6011.9453,2.0449.3588C43.1367,119.76183,41.7256,119.30823,41.3022,119.93763Zm4.0415,6.9038c.3096.1967.606.6518,1.003.5654C46.6172,126.86723,45.6606,126.09193,45.3437,126.84143Z"/>
        <path class="cls-1" d="M20.0249,133.06453c-.1983-1.3574-.4688-1.7871.0527-3.1431a3.97,3.97,0,0,1,3.8154-2.0795C29.8227,129.47713,24.1689,138.08893,20.0249,133.06453Zm3.0639-3.5605c.3736.1264.7715.3408,1.0728.208C23.7778,129.54943,23.3701,129.29893,23.0888,129.504Zm1.9248,1.7456c-.1894.28608.1587.55508.3882.4829C25.6435,131.33753,25.2944,131.32183,25.0136,131.24963Z"/>
        <path class="cls-1" d="M146.0088,204.84771c.0976.16992.2334.32912.0747.57082-.0493-.2114-.4395-.3281-.4888-.5395C145.6992,204.74663,145.914,205.01233,146.0088,204.84771Z"/>
        <path class="cls-1" d="M147.3374,207.18223c2.6582,1.3662,4.05559,3.5942,5.69189,5.8516,1.0962,1.5102,2.1035,2.43888,2.0674,4.0727-.7676.0376-1.4776-.9326-2.251-1.4009-.8306-1.9824-2.73729-3.0952-3.88629-4.833C148.2231,209.75883,148.1128,208.24371,147.3374,207.18223Z"/>
        <path class="cls-1" d="M13.4741,134.13343c1.4048,2.46328,2.8535,4.7304,1.3306,7.4912a16.27481,16.27481,0,0,1-2.1539,2.8842c-1.8618,1.94388-5.645,1.7627-7.5849.0884-.3081-.2666-.3281-.7798-.564-1.1103-.3891-.5469-1.3847-1.1377-1.6548-1.9907-.0561-.1788.1182-.4996.0953-.8711a9.38552,9.38552,0,0,1,.0522-3.1436,7.43763,7.43763,0,0,1,5.5303-4.4185A6.40668,6.40668,0,0,1,13.4741,134.13343Zm-3.2505,1.0761c.4019.4424,1.4526.82718,1.8438.2461A1.98815,1.98815,0,0,0,10.2236,135.20953Zm3.5156,5.0215c.3491.13968.7935.6211,1.0166.3081C14.8169,140.12213,13.9253,139.71733,13.7392,140.231Z"/>
        <path class="cls-1" d="M144.5415,212.61333a4.26475,4.26475,0,0,0-.5967.58938c-2.7168-.57618-2.0083-2.814-3.4097-4.03658C142.312,208.42683,144.1191,211.20123,144.5415,212.61333Z"/>
        <path class="cls-1" d="M165.54979,223.65783a.57633.57633,0,0,1-.6841.27588.62281.62281,0,0,1-.0615-.82868C165.00779,223.05871,165.37939,223.44153,165.54979,223.65783Z"/>
        <path class="cls-1" d="M157.82959,220.233c-.4566.1699-1.4454-.63532-1.022-1.2368C157.26559,219.06993,157.95939,219.72223,157.82959,220.233Z"/>
        <path class="cls-1" d="M184.38859,242.07283c-.2939.3721-1.1196.0737-1.374-.3774C183.34469,240.733,184.29249,241.60993,184.38859,242.07283Z"/>
        <path class="cls-1" d="M133.1391,216.89613c.2495.1538.0264.5073-.1826.5581-.082-.2027-.3994-.3394-.1753-.62752C132.9189,216.91513,133.0561,217.00353,133.1391,216.89613Z"/>
        <path class="cls-1" d="M201.32269,257.29843q-.25485.4527-.50879.90328c-1.46821.18512-3.36281-1.89108-5.03561-3.498a3.65133,3.65133,0,0,1-1.2407-2.021c1.228-.57768,2.226.84672,3.123,1.49512C199.10739,255.22371,200.73579,255.91853,201.32269,257.29843Z"/>
        <path class="cls-1" d="M100.1777,216.03723c.2725.2334.2168.55948.3193.8408-.1753.17668-.4096.146-.5395.4888C99.4902,217.09923,99.727,216.29063,100.1777,216.03723Z"/>
        <path class="cls-1" d="M174.20849,264.36143a1.50893,1.50893,0,0,0,.3066,1.0981c-.7773-.0102-1.6797-1.3686-2.1689-2.0156C172.8579,263.18853,173.29929,264.04213,174.20849,264.36143Z"/>
        <path class="cls-1" d="M177.96379,268.72471c-1.1987.73632-2.2817-1.10788-2.4834-1.92778C176.687,267.20953,177.99359,267.418,177.96379,268.72471Z"/>
        <path class="cls-1" d="M190.27629,280.42192c-.3921-.11621-.3608-.3506-.4887-.5405C190.01709,279.56652,190.71629,280.05082,190.27629,280.42192Z"/>
        <path class="cls-1" d="M189.49069,282.75492c-.7554.4795-1.354-.7163-1.1226-1.2934C188.97259,281.51862,189.19769,282.33552,189.49069,282.75492Z"/>
        <path class="cls-1" d="M12.0747,193.62513c-.2193.41158.4082.0913.646.4961-.4761,2.3393-3.3672,2.6108-5.1787,3.559-1.5787.8277-2.9707,1.9756-4.3741,1.89748-.4882.71782-1.5283,1.92722-2.8051,1.46042-.2788-.289-.0533-.7182-.3628-.998a2.84807,2.84807,0,0,1,2.5791-1.0581C5.2329,195.98543,8.2563,193.83113,12.0747,193.62513Z"/>
        <path class="cls-1" d="M220.55029,326.16612c-2.7339,2.375-4.2515-1.2691-6.1333-3.1919a35.07063,35.07063,0,0,0-3.875-2.9756,34.9773,34.9773,0,0,1-5.8179-5.3936c-.915-1.2861-2.4873-4.2138-1.1499-5.9365,1.2519-1.61181,5.4248-.19681,6.9883.5015,3.7182,1.6592,4.5586,4.5205,5.5717,7.2378.4996,1.3388,1.3125,2.3984,1.7793,3.6465C220.206,321.63782,221.45209,323.89071,220.55029,326.16612Zm-8.7432-11.9326q.1143-.20071.2261-.4009a1.09906,1.09906,0,0,0-.6328-.7544A.62288.62288,0,0,0,211.80709,314.23352Z"/>
        <path class="cls-1" d="M252.18209,56.07133c-.5649.5186-1.2397,1.5533-1.8828.52538.0542.087.5757-.59858,1.07961-.97748Q251.78029,55.84558,252.18209,56.07133Z"/>
        <path class="cls-1" d="M202.77439,42.64023c-.27349-.6606.8496-1.87352,1.3183-1.6367C204.75919,41.34093,203.7949,43.15343,202.77439,42.64023Z"/>
        <path class="cls-1" d="M192.39249,40.88871c.1436-.11128.1158.07862,0,0-.0263.17582.6265.24862.8589.35162.1343.1143.10451.2353.232.5273,1.8774.82908,2.4736,2.5186,3.2094,3.9234.0664.38468-.14889.978.3633.9975-.1001,2.1988.6216,4.167.19581,6.4566-1.13821,2.2304-2.52631,4.874-5.249,6.0312-.32521.1377-.79351.1031-1.19871.25-1.4126.5108-3.75829,1.44238-5.2769,1.3887a24.25207,24.25207,0,0,1-2.647-.6982c-2.1391-.3799-6.2568-2.7227-7.2177-5.2569-.2808-.7417-.458-1.875-.6875-2.7671-.3838-1.4892-.9068-3.3403-.1597-5.1128.8921-2.1152,2.5537-3.4038,3.8818-5.4804,1.4532-1.0176,3.03671-1.3648,4.7002-2.2427,1.31351.17478,1.89551-.61622,3.1817-.71922C188.686,39.50253,190.98729,38.99323,192.39249,40.88871Z"/>
        <path class="cls-1" d="M151.8589,65.90293c-.13821.7495-1.4151,1.8462-1.28231,2.979q-.15089-.08433-.30079-.169c-.29.7232-1.5078,2.13578-1.7348,3.7813a35.14919,35.14919,0,0,1,6.28509,2.2187c.252.1553-.0771.4732.17481.628.49129.1421,1.03469.4751,1.38679.1201.61621.7793.331,1.6074.8007,2.5669-1.2031,2.1753-.4042,4.71478-2.4194,6.1709-.2734,1.2886.79491,2.2021,1.4902,3.2202.4092-.3081.5743-.1152,1.0855-.0498,1.3296.1704,2.6113-.5723,3.7891.5488-.06789.8448,2.0844,1.607,2.2695,2.0718a6.77833,6.77833,0,0,1,.5454.43988c.3223.45952.2744.87312.6641,1.167a2.73735,2.73735,0,0,0,1.6748.54742c.3945.1982-.0098.1021-.0699.3574a14.78446,14.78446,0,0,0,4.1695,4.3316c-.2114.3125.2695.4321.1181.728,2.8477,1.2588,3.5044,6.102,6.8594,5.187.1026-.083.6821.0772.5586.1821,2.8843-.9673,5.8384-2.9716,9.22461-2.99752,1.71539.73292,1.83159,1.91212,2.43209,2.95652-.1357.37548-.3403.771.106.9849-2.4175,3.39258-6.581,2.5029-10.14009,2.74658-.18121.58152-.85941.601-1.13671,1.07812-.19829.3413.1289.2934.07471.5713-.06351.3257-.64851.479-.35211.8589.313.4091.5532.55068.5645,1.1108a1.9389,1.9389,0,0,1,.9775,1.0796,7.16814,7.16814,0,0,0,8.0557-.21972c1.5922-.04888,2.8755-1.20658,4.0986-2.58158a32.43537,32.43537,0,0,1,6.709-3.226c1.414.2353,2.6914-.5557,4.0093-.7813,1.1733-.1997,2.4233.0122,3.5258-.3926,1.57571-.5781,2.70171-1.7832,4.4434-2.2553.88131-1.5938,3.1929-2.0147,3.9619-3.981.1792-.2651.4785-.1045.6836-.2749.0933-.5918.769-.6567.666-.9468,1.7959-.0522,3.7217-2.2012,5.6543-2.7627a5.88458,5.88458,0,0,1,4.4317-1.998c.8222.6367,2.1401.6045,2.7524,1.6836.2651.4673-.1167,1.2627.4946,1.4677-.4624.1592-.32419.9551-.5781,1.2608a15.12631,15.12631,0,0,1-2.6562,2.602c-.8833.6226-2.17089.8374-3.2193,1.4908a47.22229,47.22229,0,0,1-6.6777,3.6396c-.52389.2158-1.5.1694-1.5816.6953-.86029.2227-2.0507.6289-2.4038,1.6856-.3999-.274-.2563.2871-.3833.44578-.0708-.065-.0429-.15778-.144-.21388a2.29059,2.29059,0,0,0-.3081,1.0161c-.2197.2593-.0703-.2417-.2447-.27-.4462.94378-2.0971,2.2251-3.0639,3.561-1.1289.2383-2.7588,2.3745-2.3931,3.543.43561.1475.6782-.3975,1.14161-.1494a2.7098,2.7098,0,0,0,.543,4.6679c1.331.6382,2.957.2266,4.10249.461.1499.5488,1.2022.9092,1.3096,1.6636.0195,1.3984-1.2158,2.9492-1.8599,4.23968-.2197.25932-.0703-.24218-.2446-.27048-2.7095,3.6494-5.6924,5.915-9.55959,6.6431-2.75191,4.3398-7.51611,12.916-2.415,16.4858,2.39549,1.6763,7.07279,2.0825,9.46579,1.5,1.4859.3745,2.731-.1103,4.1719.1035,4.811-.7358,9.1885-3.0263,14.04931-3.584a2.769,2.769,0,0,0,2.35839.271c.1084.08208.1914.0782.2573.0132.2339.0752.2271.2183.3452.3257,2.0557,1.1489,3.9595.1616,5.8282-.0205a42.598,42.598,0,0,1,4.9438.1421c.9868.0195,1.9888-.2925,2.9292.1963.1944.0898.25291-.30472.4268-.2881.0366.3511.0674.1802.4453.3833-.5088,1.4292-2.1397,1.1938-3.2197,1.4907a70.90654,70.90654,0,0,1-10.2149,2.1753c-1.8813,1.2368-3.8974,1.9893-5.7803,3.2202-5.69329.607-11.5229.7232-17.1474,1.5747-1.1841.9317-3.0742,1.5957-4.1548,2.68218-1.7593,1.76952.3901,3.67622,1.5454,5.23342-.2588.76258.4043,1.1723.6953,1.5815-1.3569.7402-2.4087.9453-3.3696.3486-1.1167-.6933-2.709-2.5874-4.09519-1.64652-1.17581.79792-1.71051,3.02452-1.503,4.30862.25349,1.5616,1.68849,3.2315,2.88329,4.2681.4673.4058.1583,1.0029.8648,1.2808.1841,1.5381,2.624,3.0117,4.2124,4.4887a8.83088,8.83088,0,0,0,3.4936,1.3072c1.022.4775,2.2554,1.2895,3.4678,1.8227a4.02253,4.02253,0,0,1,.5147.02488c.666.39262,1.1499,1.24172,1.7241,1.63282a4.12594,4.12594,0,0,1,1.7934,1.2744c2.6578.84478,6.2344,3.3975,8.75491,4.4043.10159.1729-.11281.1348-.12591.4581,1.2563.5649,2.166-.1153,3.2993.0092,1.0078-1.00782,2.458-2.7866,4.03661-3.4101,2.15579-.8516,6.66749-.8262,9.42969.1572a15.15534,15.15534,0,0,1,3.8564,2.3057c1.50691,1.1982,1.7373,3.4853,1.8594,5.146a4.64652,4.64652,0,0,1-.1274,2.5717,20.39776,20.39776,0,0,1-2.2105,2.9844,13.13621,13.13621,0,0,1-2.4809,3.229c-.3423.2705-1.0171.5264-1.5376.8526-2.6099,1.63468-6.7989,2.4506-9.9063,1.1591-3.1299-1.3007-3.1562-2.7192-3.9741-5.1469a9.84259,9.84259,0,0,1-.8565-4.5806c-3.2544-1.9966-6.15619-4.5332-9.4936-6.1426-1.0283-.4961-2.9087-1.1616-3.5425-2.3931-1.9126-.6875-2.917-1.7143-4.8296-2.4565-.1333-.1138-.10349-.2353-.2314-.5268-2.6944-1.376-5.4956-2.5137-6.7979-4.3594-.09419.2026-.2519.042-.5703.0747-1.5083-1.2759-3.4726-1.8037-4.5601-.5869-.3076.00968-.6879-.2427-.8852.1626.1553.7656-.2134,1.9243.0991,2.1709-.5972-.0982-.2495.6665-.9541.52-.2969.3647.2837.4848.062.8286-.3095-.0996-.622-.2109-.78459.2187.08779.877.99459,1.5264,1.48529,2.2911a1.59775,1.59775,0,0,0,.4385,1.56878c-.1284.34282-.4956.06982-.3833.44482.1206.4615.3159-.1533.6147.0821-.26219,1.7216-.2617,2.5239-.4731,4.3598a1.5277,1.5277,0,0,0-1.1807.9214c-1.8213.0723-3.1235.13188-4.9126.272a19.12617,19.12617,0,0,0-3.0766,3.8188c-1.8623,3.6123,2.6865,5.2852,4.3164,7.5879-.1968-.2783.208.45218.2319.5274.2012.6245-.231,1.1797.168,1.8134-.73149.8067-1.1436,2.0469-2.27249,2.1558-1.86031.1802-4.501-2.5259-4.55221-3.8867-.9214-.6919-1.5713-2.1089-2.8457-2.9253-1.7486-1.1206-4.8394-.9487-5.6709-.02342-.5435.60492-.3633,1.476-.6861,2.38962-1.0693-.0171-.6557,1.77638.3247,1.77-.5874,1.8267.8418,3.0908.4297,4.8682.0767.30218.3496.2388.6021.3393-.5078.3428.3261.9561-.2334,1.5875.126.0493.166.122.144.2133a5.99957,5.99957,0,0,0,1.6987,2.1475c1.6695,1.3262,2.33311,3.3569,3.6285,4.8203-.0127,1.9526,2.9052,2.6978,4.997,4.2695.2061.15478.2359.44878.4327.6407.9726.9453,2.291,1.393,3.041,2.1098a7.81216,7.81216,0,0,1,1.6914,3.3325c-.378-.142-.7798-.3715-1.0283-.0507-.2847.5581.5561.8027,1.0776,1.1357-.5107,2.7197-2.69779,3.541-4.9082,3.3154-7.0962-2.8349-8.7349-7.706-11.9429-11.8847.1026-.25392-.2431-.3828-.018-.67092-1.2701-1.11178-1.2793-2.57468-2.5508-3.68508-.8692-3.25192-3.06889-6.1323-4.5982-9.2002-1.1343-1.2305-3.6133-1.74172-4.1191-3.2466-1.6885-.8447-2.1743-2.9897-4.0371-3.8618-2.2666-1.0605-4.9922-1.6577-7.5581-2.54-2.26469-.7788-6.27149-.9346-7.20359,1.7573-.0777.2241.0976.395.0747.5713-.0498.3789-.5562.6665-.0508,1.0288-.6148.3481-1.6821.00728-2.4976.4438a5.03077,5.03077,0,0,0-1.2944,3.2364c-.2393-.3565.1445-.8858-.4067-1.1553-.6856.1641-.7613,1.4683.0673,1.7573.5161.0967-.1215-.7944.3833-.4453-.2011.73238-.644,1.5327.0552,2.0132-.1182.1841-.3711-.1167-.4712.1318.0791.1651.8447.21,1.1734.2642.0151.5225-1.3877.2007-1.3863-.1196a32.96618,32.96618,0,0,0-2.8183,1.7163c-.6573,2.6274-3.7984,4.29148-5.1177,6.5019-.9561.0088-1.6699.8833-2.4482,1.5293-.3741,1.65428,1.6352,1.5864,2.8535,1.74028,2.894.36372,6.917,1.65912,8.541,4.54832a10.16152,10.16152,0,0,1,.5439,2.55368c.3296,1.28712,1.1978,2.001,2.0054,3.24512.2407.0606.4858-.1045.5581.1822-2.6738-.709-1.8525,3.7719-.6431,4.6606a28.58758,28.58758,0,0,1-.0727,4.5864,9.00214,9.00214,0,0,0-.3662,3.2305c.3213,1.8843,1.3266,3.0249.874,5.2519-.4326,2.1319-.7383,4.38428-1.0332,6.292-.0503.3257-.2622.6792-.3081,1.0157-.1616,1.1914.1504,2.519-.0776,3.6577-.2613,1.2973-1.2774,2.5088-1.1763,3.9638a56.6178,56.6178,0,0,0,5.0923,10.669c-1.542,1.96039,2.8183,4.14889,1.2192,5.57759.002,1.0703.9912,1.8657,1.1455,2.8941,1.2691.726.5601,2.5576,1.522,3.6328,1.42089.0864,1.60059,1.164,1.79929,2.2031,2.1577,1.08349,2.7534,3.2739,2.8882,5.1973a13.21545,13.21545,0,0,0-1.1055,1.49219c-3.46189.21681-4.07129-2.68359-5.48579-4.80909-1.0845-1.63091-2.7051-3.3452-3.2583-5.0093-.1729-.5195-.1089-1.1919-.2813-1.6128-1.2217-2.978-4.019-4.4726-5.0009-7.313-2.0186-3.77629-4.4825-7.42819-5.0982-11.59669-.9434-1.7099-1.6621-3.4819-1.0625-5.6225.1421-2.5552-1.6514-4.68362-2.1147-7.2725a4.39683,4.39683,0,0,1-1.2159-2.53512c-.2744-.17678-.3139-.42038-.5883-.59618-.0909-2.0889-1.2842-3.8697-2.3487-5.6861-1.7763-1.0551-3.3232-3.0625-5.229-4.7973-1.1421-1.0396-2.6128-1.8423-3.6743-2.8628-.6572-.6328-1.8154-2.1343-2.8403-1.9971-.9619-1.7427-2.9136-.6396-4.2207-1.1894-.9102-.3824-1.5078-1.4444-2.4273-2.0279-1.1626-.73922-2.4609-.7475-3.6806-1.6777-.3877-.3989-.2393-.9483-.8648-1.2813-.914-2.6367,3.0298-5.4897,2.0195-8.51122,1.6915-1.84278.9952-4.28318-1.3764-5.53468a3.13751,3.13751,0,0,0-2.3745-3.0571c-.5406-.1587.1982-.6753-.1631-.8843-.3364-.2983-.5088-.0058-.7276.1187.024-.6045-.6816-.8648-1.0341-.9795-.6294-.562-.8218-1.0059-1.6372-1.3189.3628-.2983-.4371-.2724-.0747-.5708-1.8677-.8911-2.6548-2.8071-4.024-4.1186a3.101,3.101,0,0,0-1.04-1.9082,6.29168,6.29168,0,0,0-1.02-3.3511c.7143-.5796-.2359-1.5176.5029-1.831-.2446-.2134-.1738-.5152-.5327-.6968a6.85279,6.85279,0,0,0,.2915-3.8018,1.57384,1.57384,0,0,0,.3901-1.6308c-1.6108-1.01912-1.7778-3.16512-3.2837-4.4947a3.78216,3.78216,0,0,0-4.7251.6431,5.9925,5.9925,0,0,0-1.2749,1.79348c-.2256.53372-.0293,1.14792-.1894,1.74362-.4859,1.8057-2.3076,2.7832-2.7193,3.8882a15.77044,15.77044,0,0,0-2.3789,1.1714,11.10075,11.10075,0,0,1-1.313,2.5644c-.5542.23538-1.1674.2598-1.6381.7959-.1592.3824.2793.5977-.0508,1.0284-.8501.0478-.6236-1.0113-.8521-1.5376a5.06486,5.06486,0,0,1-.8012-2.5664c.413-.9278.5058-1.52592.8862-2.2764a4.94454,4.94454,0,0,0,1.8262-.4258c1.1782-2.2324.6196-5.3315-2.1929-3.6152-.6587.4018-1.335.979-2.1343,1.4414-.709.41008-1.6572.6743-2.165,1.0278-.3657.2534-.6314.9468-1.0928,1.2344-.168.1055-.4375-.0112-.5713.0752-1.6767,1.0874-4.1348,3.40668-5.5649.9624-2.7119-1.2652-.5723-3.7412.9824-5.2632a31.87705,31.87705,0,0,1,3.0391-3.0469c.2168-.1469.6289-.1084.9409-.2627.3701-.1836.6782-.6465.9668-.7773.2138-.0972.5757.10638.7715.0381a13.08794,13.08794,0,0,0,1.8076-1.0962c-.0034-.12652-.1929-.3091.0132-.2573-1.0621-.919-3.92-1.6875-5.4751-2.9527a.87113.87113,0,0,1,.1953-.8159c-2.8267-2.0908-7.4092-4.4009-10.6245-4.1357-.2705.455-1.1143.4384-1.0801.978-2.7827.4917-4.6875,2.2798-7.4551,2.6733a9.28661,9.28661,0,0,1-3.9038,1.7666,8.08855,8.08855,0,0,1-2.8306,1.9737c-.1362.4218-.3925.4106-.5527.7461-.2422-.254-.2739-.3228-.5581-.1822-.0459.1538.2046.22458.3452.3267-.21,1.936-2.313,3.6152-3.9873,4.4951-.957.5029-2.0376,1.3374-2.7676.6885-1.2925-1.1509,1.2974-2.4219,1.3081-3.4942,1.1914-1.8203,3.2339-2.31252,5.0396-2.8442,2.0498-2.8521,4.9409-2.6948,7.1113-5.11432,1.8828-.47408,2.9605-1.95648,4.5952-3.22748.7095-1.3057,1.4746-1.43752,2.1289-2.3696a3.18088,3.18088,0,0,0-.6704-2.0962c-2.8281-1.2075-5.3774-1.9043-6.584-4.5029a17.08151,17.08151,0,0,1-.7446-2.6666c-.2104-1.0048.083-1.9335-.0601-2.9428a9.39512,9.39512,0,0,0,1.1197-3.8633c-.0752-.27-.4781-.0747-.2324-.5273a25.78452,25.78452,0,0,0-5.2041-3.19682c-1.4366-.74028-2.795-1.95458-3.7999-2.40578-1.3452-.6045-3.1069-.3003-4.7055-.8003a28.18059,28.18059,0,0,0-3.3487-1.0942c-1.434-.2656-2.6577-.1382-3.8198-.9629-.3725-1.04982.0874-1.8433,1.0557-2.5776,1.3828-.55622,2.8755.5747,3.9639,1.1767,1.6752.9258,4.0766.49508,5.8085,1.4214.1788.0962.1426.252.3443.32668.9326.34712,2.3696.23822,3.5757.69232,1.372.5176,2.539,1.4375,3.7251,1.835a6.74067,6.74067,0,0,0,4.8432.0855c.6968-1.6197,2.6494-2.40582,3.5659-3.2789,1.5127.0665,2.4791-1.8208,3.9605-1.8667.6602-.8647,1.583-.79,2.1597-1.9555.5107-.3911,1.0908-.53272,1.5063-1.2666.1397-.104.3945.2031.5142.02588.2549-.64648-.0274-1.80518.9614-1.70558-.1548-.5117.1128-.6318.2646-1.1729.1294-.4594-.6601-.6616-.0937-1.2421-.8789-1.7842-3.1431-3.1812-3.3023-5.1661.8541-2.7929,3.4219-2.8115,5.1334-1.602,1.0219-.1734,2.85-.0112,3.0058-1.3467,2.3403.0708,3.9312-1.477,6.105-1.4512.0493-.4555-.2808.149-.4575-.1255.7754-.2216.4912-1.3212,1.2309-1.9502.1158-1.4272-.0561-3.5273,1.4458-4.2084,1.0938-.4966,2.6656.5073,3.583-.4932.417-1.582-.3476-2.834-.9819-4.1226.1826-.0532.3135-.29052.4395-.5454a2.14407,2.14407,0,0,0-.7334-.8095c.0937-.3721.3779-.06162.5273-.2325a2.46006,2.46006,0,0,0-1.8628-.917c.0059-.3266.0654-.9155-.4321-.64012a2.23727,2.23727,0,0,0,.1767-1.48678c-.4785-.3086-.788-.5337-.8208-1.1236.0689-.3584.3233-.0517.5137.02538.0181-.25628-.772-1.26268-1.1035-.62148.0015-.8467-1.1035-1.4942-1.2149-2.5357.5103-.2363,1.0738-.6684,1.1417-.1494.975-.0557.5131-1.1753.5913-1.5181.226.3345.1567.3575.6455.4966-.1743.1763-.4693.16208-.3828.4443.3833.1441.4887-.49122.5522-.7451.0981.355.415-.0532.6714-.0195.6294-1.0059,3.0889-2.665,2.4189-4.0571.6382-.2022.1221-1.127,1.0479-1.3916-.1919-.0987.0171-.5591-.2056-1.042.2163-.2051.7139-.2154,1.1543-.4068-.3779-.3935-.0015-.49512-.3193-.8408.3652.482.6479-1.084,1.2241-.7646a1.41143,1.41143,0,0,1-.0181-.6709c.4058.3838.8794-.2154,1.211-.5074a.339.339,0,0,0-.314.0875c-.0879-.4341.7739-.0435,1.0415-.2066.0708-.4341.2139-.36332.2959-.75832.2334.07522.2266.21832.3447.32622.1988-.1543.1861-.5381.3951-.7017a3.14567,3.14567,0,0,1,.4711-.1318c.3658-.499.3951-1.249.8614-1.7622.8291-.9136,1.8261-1.1787,2.8301-1.9746,2.5917.2505,4.6645-1.0801,7.1709-.0572-.2022-.3852.3964-.0405.1699-.3012.4214-.0049.9106.2348,1.3296.2212a3.40424,3.40424,0,0,1,3.0371-.9331c.3506-.0479-.1538-.4292-.1314-.4707.46-.3257,1.2315.0078,1.7315.4467.25-.1299.2085-.438.3574.06938a20.83032,20.83032,0,0,1,2.1523-.77008c.2183.3125.3872.1104.5454.44,1.7832.228,3.5118.2607,5.3326.6245a3.57067,3.57067,0,0,0,3.6006.1792c.5063.39938.7763-.0464,1.2294.1636.0298-.2163.0645-.3731.2266-.4014.2593.041.1714.6138.8462.6089a.748.748,0,0,1-.1821.5581c2.6943,1.7319,5.2671-.96582,7.1279-2.3281a7.60463,7.60463,0,0,1,.3467-1.7881c1.6147-.2061,2.2978-2.8819,3.8921-3.6231,2.7583-2.8916-.2544-4.5146-1.9654-6.1308a2.12527,2.12527,0,0,0-.8569-2.4658c-.3228-1.6924-1.3843-2.8511-2.0674-4.0733a.34062.34062,0,0,0,.0874.3135c-.4472-.5523-.0791-2.0625-1.102-2.7358-.086-.9439.4106-1.876-.1172-2.84232.5263-.22018.5312-1.26028.3467-1.78758a4.7911,4.7911,0,0,0,.6484-3.7325c.2402-.3193.6582-.874.522-1.1601,2.498-.7441,4.6367-2.773,7.1357-3.5142.4658-.9028.6485-1.4555,1.3316-1.894.5317.2451.7563.9956,1.2221,1.3501,4.1651,3.1694,7.0069-2.6904,10.585-2.3638.3476.4492.9316.8286,1.1098,1.5508.0469.1919-.1674.4097-.082.6147.3028.7281,1.3111,1.9292,1.8169,2.8741.2139.3999.1958,1.04.8086,1.3808.5576.3116,1.0947-.0366,1.7437.1895.9526-.5244,1.6757-1.8716,2.687-2.187-.1675.3086-.37889.459-.64019.4321.544,1.0332-.2754,2.209-.6235,3.2183.541,1.0254.8359,2.3569,2.30029,2.48578,1.4307.12552,4.1177-2.23778,5.40481-3.96088.33879-.4532.42969-1.1138.74749-1.5616.1714-.2412.5093-.3266.6973-.5327,1.064-1.1709,1.8677-2.6113,2.9385-3.103.5791,1.1938-.3052,2.5249-.7061,3.8325a1.07953,1.07953,0,0,0-.6714.0181,2.841,2.841,0,0,0-.5346,1.418,30.27231,30.27231,0,0,0-5.4678,5.2465,3.49581,3.49581,0,0,1-2.33639,3.4429C151.894,66.60263,152.24559,66.15043,151.8589,65.90293Zm-9.1431,163.792c-.1079.1181-.251.1113-.3267.3447.2022.084.1577.2383.3448.3267C142.9155,230.09043,143.0551,229.82571,142.7158,229.69493Zm-1.9136,33.42478a1.01088,1.01088,0,0,0,.3252,1.76952A1.424,1.424,0,0,0,140.8022,263.11971Zm6.4136-204.46c.478.09962,1.0693.60312,1.3857.12062C148.1113,58.63783,147.5674,58.30471,147.2158,58.65971Zm3.2656,3.82332c.30029.3569,1.24319.7002,1.58689.2329A2.4605,2.4605,0,0,0,150.4814,62.483Zm-20.1509-8.5786c.5664.21328,1.211.7031,1.587.2334A2.03038,2.03038,0,0,0,130.3305,53.90443Zm18.4976,21.13028c1.874,1.05912,3.47309,1.13332,4.83059.34282C151.96039,74.94883,150.2641,74.52643,148.8281,75.03471Zm58.07959,44.49272c.501.0762,1.0723.4077,1.4433.0195C207.85149,119.47563,207.30659,119.23833,206.90769,119.52743Zm4.1689,4.3315c.231.2876.6695-.1796.4834-.3881C211.34569,123.53963,210.959,123.46493,211.07659,123.85893Zm-18.1416,14.3663a1.30281,1.30281,0,0,0,1.8902-1.712C193.75579,135.54353,193.06639,137.19,192.935,138.22523Zm7.9331,12.66548c1.3999.85742,3.0616.07572,4.6172.48632.0059-.4897.8018-.3232.3394-.602C204.14349,150.711,202.36909,150.31063,200.86809,150.89071Zm1.3452,5.12062c-1.3041.4365-2.1367,1.8896-2.895,3.2598.6172.4892.6909,1.53658,1.5674,1.6762.3013-.9013-.519-1.4897-.2427-2.3838C201.38859,158.24083,202.57269,156.94593,202.21329,156.01133Zm-8.268,7.6352c.332.2808.5268.0708.8594.3516a2.87684,2.87684,0,0,0,.665-.9463,2.23509,2.23509,0,0,0-.67679-.91012A1.65856,1.65856,0,0,0,193.94529,163.64653Zm40.5908,24.8545a1.812,1.812,0,0,0,2.4155.1714A1.68794,1.68794,0,0,0,234.53609,188.501ZM115.1655,123.75013c.5156.1328,1.1167.5678,1.4863.1772C116.1137,123.71593,115.5478,123.40443,115.1655,123.75013Zm123.67679,70.4824c.3852.4761,1.4345.96818,1.7002.03218C240.11519,193.79553,239.14649,193.32823,238.84229,194.23253ZM114.7129,124.55283c.4726.1782.9926.52588,1.3296.2207A3.495,3.495,0,0,0,114.7129,124.55283Zm2.0507,1.2876q-.20055-.11208-.4018-.2261A.24621.24621,0,1,0,116.7636,125.84043Zm.4234,3.9399q.1128-.2.2261-.4008c-.1338-.0757-.2676-.1504-.4014-.2261Q116.6037,129.60523,117.187,129.78033Zm-49.7583,28.0132c.5439.0293,1.248.6328,1.6435.1323C68.5107,157.83213,67.7973,157.19633,67.4287,157.79353Zm61.7446,60.0405a.58958.58958,0,0,0,.1079-1.1294C128.8095,217.09283,128.9096,217.44683,129.1733,217.834Zm.0352,3.4571c1.7715,1.1841,4.101,1.7768,5.5327.7378C132.7461,221.24223,130.8183,220.69683,129.2085,221.29113Zm12.5551,23.4663c-.8725-1.5073-.6689-3.5366-.247-5.4273-.1822-.4365-.584-1.7465-1.2788-1.249-.3985.8115.1704,1.6138.1865,2.4844.041,2.3135-.3452,4.8213,2.0659,6.1875C143.2451,245.85463,142.1006,245.33943,141.7636,244.75743ZM38.2817,183.01083c.1499-.1704.4331.1392.5269-.2324C38.5727,182.47271,38.0786,182.74271,38.2817,183.01083Z"/>
        <path class="cls-1" d="M152.6889,54.34143c-.53221-.23-.57081,1.25-1.437.9082.13819-.6343.336-2.0938,1.23049-1.9497.4346.2729.1186.75578.3071,1.0981C152.706,54.50053,152.65769,54.397,152.6889,54.34143Z"/>
        <path class="cls-1" d="M206.8359,98.07133c1.27439-1.5029,3.63579-1.7089,5.38479-2.5175.313.081-.3389.4321-.0254.5136-.5347.0909-1.1553.0064-1.5689.4385-.1518.1572-.0332.6113-.1381.7149C209.56149,98.13093,208.21969,97.82571,206.8359,98.07133Z"/>
        <path class="cls-1" d="M263.14449,145.00253c1.792-.4116,3.8345-.2246,5.8101-.6919,2.0439-.48392,4.0166-1.6167,6.2627-1.4951a21.23944,21.23944,0,0,0,2.145.4155c1.334-.0786,3.2378-1.8247,4.4858.0161-.9131,1.8824-3.0205.3648-4.4238.812-.6919.2207-1.4111.5664-2.15239.7701-3.33781.9174-7.06881-.4302-10.396.6196C264.01609,144.95423,263.97849,145.545,263.14449,145.00253Zm11.5635-1.2837c-.1968.3784.00391.3345.2881.4268.0571-.1006.1132-.2007.1699-.3013C274.98869,143.71493,274.88129,143.83213,274.708,143.71883Z"/>
        <path class="cls-1" d="M201.042,103.66313c.1836.4454-.7207.9161-1.1812.9214C200.19139,103.86383,200.89649,104.21733,201.042,103.66313Z"/>
        <path class="cls-1" d="M144.6172,203.79893c.1738-.13722.1904.0884.3007.1694.0992.0523.147-.07862.2139-.144.1943.1992.0801.4848.2749.6841C145.2763,204.56653,144.8491,203.99271,144.6172,203.79893Z"/>
        <path class="cls-1" d="M146.7295,205.91463c.2983.2417.3442.6797.6333.7534.3364.2251-.4317.3423-.1255.4575C147.1025,207.08063,146.2104,206.15,146.7295,205.91463Z"/>
        <path class="cls-1" d="M159.70359,223.00743c-.1406.1245-.1084-.0523-.044-.1572,1.2505,1.3042,3.0015,2.6997,4.2251,4.2319-.3056.2422-.3545-.4878-.6147-.082-.1192.146-.0025.2265-.0693.3574.3139.3174.371-.2866.6718-.0181-.8125.4995.4385.9507.0235,1.6001A16.75146,16.75146,0,0,1,159.70359,223.00743Z"/>
        <path class="cls-1" d="M154.98339,243.34923a32.97251,32.97251,0,0,1,9.6963,11.4126A48.81135,48.81135,0,0,1,154.98339,243.34923Z"/>
        <path class="cls-1" d="M165.41349,255.57233c1.2818.2559,2.3052,1.9126,3.0025,2.88138,2.1382,1.51612,2.4975,3.45942,4.2002,4.74562C170.07909,261.88343,167.09859,258.18563,165.41349,255.57233Z"/>
        <path class="cls-1" d="M182.68309,274.42443c1.02681.0727.8115,1.20939,1.5801,1.41889-.0865.0952-.2378-.0439-.314.08839.3423.13531.9385.68851.9219,1.17921A11.39886,11.39886,0,0,1,182.68309,274.42443Z"/>
        <path class="cls-1" d="M127.3296,267.55771c-2.0811-1.89938-1.523-4.53518-2.084-6.85888.872-.0488.7744,1.397,1.2715,2.435.6513,1.35888,1.9121,2.46,1.4965,4.1485-.1938-.0899-.2534.3042-.4262.2881C127.4795,267.48793,127.396,267.49183,127.3296,267.55771Z"/>
        <path class="cls-1" d="M168.896,43.64413c.1323,1.3032-1.6524,3.1558-2.9204,3.7749C166.06829,45.82963,167.291,43.37263,168.896,43.64413Z"/>
        <path class="cls-1" d="M42.6782,201.48353c-.4063.9809-.5361,2.1875-1.4385,3.0224a4.29481,4.29481,0,0,1-3.7969.6372c-1.3979-.69042-1.729-2.4043-1.6782-3.5893.8985-1.7276,1.9678-2.8438,3.252-3.1914A3.97861,3.97861,0,0,1,42.6782,201.48353Zm-2.4844.1865c.105.2793.1328.0625.4009.2256A.2458.2458,0,1,0,40.1938,201.67Z"/>
      </g>
    </g>
  </g>
</svg>
