<svg xmlns="http://www.w3.org/2000/svg" width="252.97043" height="259.33689" viewBox="0 0 252.97043 259.33689">
  <defs>
    <style>
      .cls-1 {
        fill-rule: evenodd;
      }
    </style>
  </defs>
  <title>Asset 3</title>
  <g id="Layer_2" data-name="Layer 2">
    <g id="Layer_1-2" data-name="Layer 1">
      <g>
        <path class="cls-1" d="M10.3906,14.6426C8.916,15.8349,2.7607,16.6611,0,14.6426,3.5947,11.09369,5.748,14.1016,10.3906,14.6426Z"/>
        <path class="cls-1" d="M39.6806,17.4775c3.0713-1.17381,6.9483.917,10.3906.9444-1.1376.7304-2.0175.9912.4727.9453C46.998,20.5439,41.2988,19.7988,39.6806,17.4775Z"/>
        <path class="cls-1" d="M112.8984,26.9248c-9.9922-1.1797-25.2266-3.3867-39.208-4.7246-4.7275-.4512-12.2315.2334-13.6992-1.8897.5371-.0869.2636-.4716,0-.4707.6543-1.5254,3.75392-1.7226,5.66892-1.8886,10.416-.9092,23.24608,1.2451,32.59568,1.416,1.8174,1.4863,4.7012,1.9111,7.085,2.833C106.5576,25.0781,110.8642,24.8652,112.8984,26.9248Z"/>
        <path class="cls-1" d="M245.63572,43.4599c-.1455-2.6894-1.541-4.1279-2.3603-6.1416-.0918-2.6113,1.3007-3.7382.9462-6.6142C252.34472,23.05369,258.32812,45.2851,245.63572,43.4599Z"/>
        <path class="cls-1" d="M99.1992,35.42869c-3.7246,2.835-12.2686-.23139-15.5889-2.36229-6.5361,2.1826-14.99118-.30371-19.36718-1.416,4.00388-3.8115,13.01858.7012,21.72948,1.416C90.9589,33.4756,95.3242,33.7734,99.1992,35.42869Z"/>
        <path class="cls-1" d="M233.82612,42.51369c-1.5009-3.72459-5.7666-6.60259-2.3603-11.337,5.083-3.22159,9.5781,3.26571,6.6123,8.03131C236.37892,40.0264,234.52242,40.6894,233.82612,42.51369Z"/>
        <path class="cls-1" d="M34.956,36.3721c5.6397.5019,10.12212,2.1591,16.0615,2.3623C46.91012,38.5869,37.5605,39.59669,34.956,36.3721Z"/>
        <path class="cls-1" d="M60.4619,41.09669C69.7998,39,77.9043,43.9072,85.0273,42.041c1.7129.8066,2.6445,2.3955,4.7246,2.835C80.78712,47.9502,68.5127,43.5078,60.4619,41.09669Z"/>
        <path class="cls-1" d="M239.02342,42.041c1.8232.72069-.3076,3.9746-2.833,3.3076C235.55662,42.6689,237.78222,42.84669,239.02342,42.041Z"/>
        <path class="cls-1" d="M237.60542,51.4883c.3731,4.3076-1.4228,6.4511-5.666,6.1406-1.5351-.9834-1.5879-3.45121-1.4189-6.1406C232.26752,50.2099,236.22752,49.2226,237.60542,51.4883Z"/>
        <path class="cls-1" d="M66.6054,55.7392c-2.8437,1.6846-9.4726,4.5694-12.7549,1.419C55.0957,52.7685,62.8808,55.5596,66.6054,55.7392Z"/>
        <path class="cls-1" d="M212.09862,81.248c1.3926-.0078.8857,2.8682-.9463,2.3623C210.749,82.1045,211.89642,82.1504,212.09862,81.248Z"/>
        <path class="cls-1" d="M128.0136,110.0654c.335,3.44529-3.4814,4.3164-5.6679,3.77829A3.93928,3.93928,0,0,1,128.0136,110.0654Z"/>
        <path class="cls-1" d="M199.34272,113.3711c2.0225.0898.2354,3.3887-.9443,3.30559C198.32122,115.1836,199.65432,115.0986,199.34272,113.3711Z"/>
        <path class="cls-1" d="M183.75582,117.623a2.28014,2.28014,0,0,1-2.3623,3.30569C180.56832,119.76069,181.832,117.5205,183.75582,117.623Z"/>
        <path class="cls-1" d="M151.63282,121.875c-.2051,2.6279-2.168,3.4971-4.7227,3.7783C145.81442,123.7822,149.48732,119.0224,151.63282,121.875Z"/>
        <path class="cls-1" d="M153.05172,141.2422a2.89306,2.89306,0,0,1-3.3066,2.833C149.63372,142.01269,151.25782,139.9121,153.05172,141.2422Z"/>
        <path class="cls-1" d="M194.14642,148.7998c.0928.5361.4766.2607.4727,0,1.7285.7422-1.0957.7051-.4727,1.8896-1.0429-.0605-.2002-2.0039-.4716-2.8349C194.21682,148.0215,194.873,148.6855,194.14642,148.7998Z"/>
        <path class="cls-1" d="M229.10352,216.82129c-.6817,4.2461-6.0957,6.124-9.9199,5.6699A11.58064,11.58064,0,0,1,229.10352,216.82129Z"/>
        <path class="cls-1" d="M183.75582,165.333c-1.0898-1.7109.1612-2.2656,0-4.251-1.5078,1.9922-1.2109,3.4863-1.4179,6.1406.5537-.0761.3984-.8603.4716-1.41791-.8017,31.9394-7.4931,64.2353-13.6972,93.5322-.3243-10.209,3.5361-19.6709,2.8339-32.123-.6484-11.4532,3.3536-24.4219,5.1963-37.3184.795-5.5654,2.0616-10.65039,2.834-15.11519.9785-5.6602,1.8447-17.3233,5.1973-19.3662-1.1201-.2969-.9004-7.4297-.4736-12.2823.1845-2.1142,1.4912-3.9219,1.8886-6.1416.3379-1.872-.2734-4.0771,0-6.6142.8428-7.78031,4.878-12.5362-1.8886-15.11531.2353-5.43159,6.9091-4.42769,7.0849-9.91989-2.9433,1.0733-4.458-1.2373-7.5576-2.3623.7578-5.9834,1.0732-16.2637-4.7236-18.4219-4.5909,3.335-10.8819,7.3096-16.5342,8.0303-2.5762-1.7969,2.9717-4.7334,1.4189-8.0303-2.6728.2793-3.4375-2.83-6.1416-3.7793-.123-1.3838,1.0655-1.4531.9434-2.8349a14.561,14.561,0,0,0-5.1953-4.252c-5.5762.1289-4.8955,8.9131-11.336,6.61429.08008-6.21879,8.0137-4.583,10.3926-8.50389-.5185-2.4668-2.0244-2.7432-.4726-5.1953-1.1768-2.917-3.5137-4.6739-3.3057-8.9766-11.84962-5.5586-31.07812-5.2197-45.8223-5.1953C97.8007,58.043,84.2949,57.2012,74.6367,56.2129c-.0811-.6406,2.73242-.6113.9433-1.417,4.4883-2.1377,13.0645-2.95021,20.3106-3.7783,5.5098-.62991,11.6943.6054,9.9228-5.669,8.919-1.0068,19.9209,4.3125,25.0362-1.41891-5.2539-4.98149-15.8448-4.624-23.1494-7.55759-.0108-2.0577-.2803-4.3741.9462-5.19541,3.8975.45321,9.9756,4.32431,13.2286.94341-.12888-2.8623-2.6914-3.292-4.7246-4.251a38.51258,38.51258,0,0,0,0-9.4472c7.5458-.1426,18.2451,3.041,25.50872,6.1406,17.8848-.0244,33.0313-1.3789,45.3477-11.3359-.7686-3.3077,3.4521-4.3887,4.7246-7.085a16.48153,16.48153,0,0,0,7.5576-1.418c1.0957.6905-.9228,1.49709.9434,1.418,1.5635-.9551,7.1367-3.377,10.3935-.4736,2.1797-1.2832,1.6953-5.2305,4.7246-5.668,2.5948,1.2949,5.2237,3.1836,3.7784,5.1953,8.0507,3.1572,5.3095,14.6855,1.8886,21.2568.6993,8.877,7.8106,19.5508,6.1426,29.2871-8.0254,1.2139-8.5351,10.4688-8.5039,18.4239,3.875,1.4365,3.0293,5.6172,3.7793,11.8095.6338,5.2344,5.1201,10.3877,1.8887,15.1163-3.4072-2.3916-2.0196-7.3155-2.835-10.8643-1.1777-5.1416-5.0293-9.4004-5.668-14.17191-2.5507-.66309-2.5019,1.27741-4.25,1.417-.8945-1.78029-2.6445-2.70989-5.6689-2.36229-4.5947,3.5654-1.7422,12.0108-3.3076,18.8965-4.4317,3.1621-6.7041,10.9883-8.0303,17.9512-.4424,2.3154-2.6601,4.5117-3.3066,7.084-.7237,2.8798-.6875,6.6201-1.417,9.9208-1.1153,5.0586-2.7432,8.5245-.9453,12.2823C186.53512,148.8096,185.70412,156.1738,183.75582,165.333Z"/>
        <path class="cls-1" d="M99.6718,28.3418c-.167,1.5596-9.5468,1.4033-9.4472-1.8897C94.0556,26.0908,97.583,28.5322,99.6718,28.3418Z"/>
        <path class="cls-1" d="M153.99512,85.0273c1.209.3653,2.6777.4727,3.3076,1.419.21,3.2021-4.5938,1.3896-5.6699,3.3056C150.92572,88.5488,153.61232,86.708,153.99512,85.0273Z"/>
        <path class="cls-1" d="M89.2793,112.8984c.09182,1.3526.0576,2.5791-1.417,2.36229a2.64954,2.64954,0,0,1-.4727-1.88959C88.2373,113.43069,88.3877,112.792,89.2793,112.8984Z"/>
        <path class="cls-1" d="M195.56442,149.7451c1.8418.0801.1348-2.332-1.8896-2.3613.8037-5.70611-.0176-13.2256,2.8349-14.6455-.7558-5.93361,1.0655-9.1817,1.417-14.1719,1.2188.3574-.3437,3.4941,1.416,3.3086.8135-1.0645.2276-3.3604-.9443-4.7246,2.583,1.8232,1.0068-1.7344,2.834-1.88971-.7969,4.61231-.6953,7.20021-1.416,11.80961a3.07727,3.07727,0,0,1-2.3623-.4727c.3769,1.45409.9482,1.5118,2.3623.9454-1.0938,6.6123-.8809,17.374-3.3067,24.0908C195.59572,151.5889,197.32612,149.79,195.56442,149.7451Z"/>
        <path class="cls-1" d="M107.2304,132.2656c-.125-.3398,1.0606-.6514,1.416-.4707-.2187-.1123-2.86028,3.1592,0,1.417C107.8447,133.6992,107.7959,133.8203,107.2304,132.2656Z"/>
        <path class="cls-1" d="M137.9365,139.3525c.0117.459.5752.3643.9433.4727.2627,5.14349-3.3603,6.4023-7.0869,7.5586-1.42178-.3408,1.1455-.7354,1.419-1.419.2939-.7363-1.2891.1182-.9463.4727C130.5322,144.6523,134.6142,139.6533,137.9365,139.3525Z"/>
        <path class="cls-1" d="M236.66112,171.9463c3.623,4.7197,4.3213,12.37009,5.1953,19.83879C238.34762,186.95019,237.91012,179.043,236.66112,171.9463Zm4.7226,18.89549c-.3994-1.9619-.1074-4.6152-1.414-5.668C240.22952,187.27539,240.34182,189.52339,241.38372,190.84179Z"/>
        <path class="cls-1" d="M109.5927,9.9199c-1.1572,3.0059,4.1856,3.2832,4.7246,6.1406-3.2529,1.5088-6.6806-.873-9.9228-.9453C100.8466,10.7773,105.20212,6.1435,109.5927,9.9199Z"/>
        <path class="cls-1" d="M112.4257,154.46869c.0137-.46089.5782-.36809.94542-.47359-.07722-.5537-.86142-.3975-1.419-.4707.99218-3.2734,5.50488-8.38671,8.50388-5.1973C119.1445,151.7402,116.4462,153.7646,112.4257,154.46869Z"/>
      </g>
    </g>
  </g>
</svg>
