<svg xmlns="http://www.w3.org/2000/svg" width="161.38941" height="230.40186" viewBox="0 0 161.38941 230.40186">
  <defs>
    <style>
      .cls-1 {
        fill-rule: evenodd;
      }
    </style>
  </defs>
  <g id="Layer_2" data-name="Layer 2">
    <g id="Layer_1-2" data-name="Layer 1">
      <g>
        <path class="cls-1" d="M48.6543,4.13141c3.32031,2.13086,11.86438,5.19726,15.589,2.36224-3.875-1.65527-8.24036-1.95306-13.22669-2.36224-8.71081-.71485-17.72558-5.22748-21.72949-1.416C33.66321,3.8277,42.11829,6.314,48.6543,4.13141Z"/>
        <path class="cls-1" d="M16.06152,9.79938C10.12219,9.59619,5.63977,7.939,0,7.43707,2.60449,10.66168,11.9541,9.65186,16.06152,9.79938Z"/>
        <path class="cls-1" d="M54.7959,15.941c-2.08008-.43952-3.01172-2.02838-4.72461-2.835-7.12293,1.86621-15.22742-3.041-24.56531-.94428C33.55676,14.57281,45.83118,19.0152,54.7959,15.941Z"/>
        <path class="cls-1" d="M18.89453,28.22321c3.28235,3.15039,9.91126.26556,12.75488-1.419C27.9248,26.62457,20.13977,23.8335,18.89453,28.22321Z"/>
        <path class="cls-1" d="M87.38977,84.90869c2.18652.53809,6.00281-.333,5.66785-3.77832A3.93924,3.93924,0,0,0,87.38977,84.90869Z"/>
        <path class="cls-1" d="M148.7998,88.688c-1.9237-.10248-3.1875,2.13769-2.36218,3.30566A2.28005,2.28005,0,0,0,148.7998,88.688Z"/>
        <path class="cls-1" d="M116.67688,92.94c-2.14551-2.8526-5.81836,1.90717-4.72278,3.77826C114.50891,96.43707,116.4718,95.56787,116.67688,92.94Z"/>
        <path class="cls-1" d="M114.78918,115.1402a2.893,2.893,0,0,0,3.30652-2.833C116.30188,110.97711,114.67773,113.0777,114.78918,115.1402Z"/>
        <path class="cls-1" d="M159.66321,119.86481c.0039.26068-.38.53607-.47278,0,.72668-.11432.07043-.77832-.47156-.94532.27136.831-.57129,2.77442.47156,2.8349C158.5675,120.56989,161.3916,120.607,159.66321,119.86481Z"/>
        <path class="cls-1" d="M84.65369,0a3.517,3.517,0,0,1,2.26538,3.18506C83.666,6.566,77.58789,2.69489,73.69043,2.2417c-1.22644.82129-.957,3.13769-.94617,5.19537,7.30457,2.9336,17.89551,2.57611,23.14942,7.55762-5.11536,5.73138-16.11719.41211-25.03626,1.41888,1.77149,6.27442-4.413,5.03913-9.92273,5.669C53.6886,22.91071,45.1123,23.72321,40.624,25.8609c1.78919.80566-1.02441.77637-.94323,1.417,9.6582.98828,23.16394,1.83008,28.81433-3.77929,14.74426-.02442,33.97278-.36329,45.82238,5.19531-.208,4.30267,2.12891,6.05957,3.30567,8.97656-1.55176,2.45209-.0459,2.72852.47253,5.19531-2.37878,3.9209-10.3125,2.2851-10.39258,8.50391,6.44056,2.29877,5.75989-6.48541,11.33606-6.61432a14.5618,14.5618,0,0,1,5.19532,4.252c.12207,1.38177-1.06641,1.45111-.94348,2.8349,2.7041.94927,3.46887,4.05859,6.1416,3.77929,1.55285,3.29688-3.995,6.2334-1.41883,8.03028,5.65223-.72065,11.94324-4.69526,16.53418-8.03028,5.79676,2.15821,5.48145,12.43848,4.72364,18.42188,3.09961,1.125,4.61425,3.4356,7.55749,2.3623-.17578,5.49225-6.84949,4.48834-7.08484,9.91992,6.7666,2.57911,2.73145,7.335,1.88855,15.1153-.27331,2.53711.33789,4.74219,0,6.6142-.39734,2.21972-1.7041,4.0274-1.88855,6.1416-.42676,4.8526-.64648,11.98541.47364,12.28228-3.35267,2.04291-4.21888,13.706-5.19739,19.36622-.77234,4.46478-2.03894,9.5498-2.834,15.11517-1.84265,12.89654-5.8446,25.86523-5.19629,37.31842.70227,12.45209-3.1582,21.914-2.83386,32.123,6.2041-29.29688,12.89551-61.59278,13.69715-93.53217-.07312.55762.08215,1.3418-.47156,1.41791.207-2.6543-.08985-4.14844,1.41784-6.14063.16126,1.98542-1.08972,2.5401,0,4.251,1.94837-9.15924,2.7793-16.52344,6.13978-24.09082-1.798-3.75781-.17005-7.22369.94531-12.28229.72949-3.30072.69323-7.041,1.417-9.92084.64648-2.57226,2.86414-4.76855,3.30664-7.084.14282-.74939.29895-1.50958.46509-2.27209V0Z"/>
        <path class="cls-1" d="M64.01855,0h-5.7257A11.44642,11.44642,0,0,0,64.01855,0Z"/>
        <path class="cls-1" d="M119.03918,56.09229c-.38281,1.68072-3.06945,3.52148-2.3623,4.7246,1.07605-1.916,5.87988-.10351,5.66992-3.3056C121.71692,56.565,120.24817,56.45758,119.03918,56.09229Z"/>
        <path class="cls-1" d="M52.43359,84.4361a2.64932,2.64932,0,0,0,.47278,1.88958c1.47461.2168,1.50879-1.0097,1.417-2.3623C53.43176,83.857,53.28137,84.49567,52.43359,84.4361Z"/>
        <path class="cls-1" d="M160.60852,120.81006a1.41317,1.41317,0,0,1,.46509.07934v-.138A1.21275,1.21275,0,0,1,160.60852,120.81006Z"/>
        <path class="cls-1" d="M158.71887,118.44879a3.24317,3.24317,0,0,1,2.35474,1.17487V104.13025C158.79626,106.13348,159.47375,113.09,158.71887,118.44879Z"/>
        <path class="cls-1" d="M73.69043,102.85986c-.35535-.18066-1.541.13092-1.416.47071.12293.3377.21888.58349.306.77649C72.92542,103.53033,73.58533,102.806,73.69043,102.85986Z"/>
        <path class="cls-1" d="M73.1908,104.55878c-.25513.10479-.40259.00885-.61036-.45172C72.255,104.65112,72.21326,105.06049,73.1908,104.55878Z"/>
        <path class="cls-1" d="M73.1908,104.55878a4.23121,4.23121,0,0,0,.49963-.28192C73.49866,104.39368,73.33557,104.4845,73.1908,104.55878Z"/>
        <path class="cls-1" d="M102.98059,110.41748c-3.32239.30078-7.4043,5.29981-5.6709,7.085-.34289-.35449,1.24011-1.209.94629-.47271-.27356.68359-2.84082,1.07818-1.41907,1.419,3.72657-1.15631,7.34961-2.4151,7.08692-7.55859C103.55579,110.7818,102.99219,110.87646,102.98059,110.41748Z"/>
        <path class="cls-1" d="M76.99622,124.58936c.55749.07324,1.34167-.08295,1.41894.4707-.36719.10553-.93176.01269-.94543.47363,4.0205-.7041,6.71875-2.72851,8.03027-6.1416C82.501,116.2027,77.98828,121.316,76.99622,124.58936Z"/>
        <path class="cls-1" d="M161.07361,119.62366v1.12774C161.52869,120.59015,161.45923,120.10864,161.07361,119.62366Z"/>
      </g>
    </g>
  </g>
</svg>
