<svg xmlns="http://www.w3.org/2000/svg" width="141.75165" height="296.71199" viewBox="0 0 141.75165 296.71199">
  <defs>
    <style>
      .cls-1 {
        fill-rule: evenodd;
      }
    </style>
  </defs>
  <g id="Layer_2" data-name="Layer 2">
    <g id="Layer_1-2" data-name="Layer 1">
      <g>
        <path class="cls-1" d="M111.3371,36.78624c.0141-.43207.30121-.41651.50885-.90277,2.65515-.5835,4.93311-2.519,7.49311-3.44483.06347-.24707-.14216-.7124.33935-.60211-.0777.19043-.38428.44531-.02588.51471-.02252-.4151.57709-.752.25189-.916-1.42956-.2959-2.8305,1.29053-4.11706,1.9101a31.47673,31.47673,0,0,0-5.84961,3.57812C110.49671,37.21013,110.8581,36.78825,111.3371,36.78624Z"/>
        <path class="cls-1" d="M60.25312,8.26628C63.3913,6.99034,64.51093,2.12468,60.635.55a5.92282,5.92282,0,0,0-1.6748-.54743c-2.5141-.11572-5.5332,3.7403-3.7749,6.4654A4.571,4.571,0,0,0,60.25312,8.26628Zm1.0805-3.09235a.51658.51658,0,0,1,.00592.92871q-.20067-.11278-.40142-.226A.72215.72215,0,0,1,61.33362,5.17393ZM60.00025,1.91075c-.40393.3706-.98932.08838-1.58655-.2334A1.36346,1.36346,0,0,1,60.00025,1.91075Z"/>
        <path class="cls-1" d="M103.63544,41.30381c.26709-1.11615,1.7378-1.17578,1.80231-2.02435-2.6734.09131-5.40833,2.376-8.02063,3.67627-.24207.23682-.00476.3393-.18207.55762-.581.1513-1.74853.70459-1.57574,1.624C98.60511,44.88737,100.987,42.61876,103.63544,41.30381Z"/>
        <path class="cls-1" d="M10.44892,21.57975a2.72763,2.72763,0,0,0-2.3457-.5288c-.0738.68011-.5528.55267-.87891,1.0913.00092,1.01368-.11578,2.061-.15326,3.08588C8.7912,25.72276,10.01093,23.36485,10.44892,21.57975ZM9.19941,22.85856c.28125.11859.25091.32416.07519.5708C8.9928,23.31065,9.02314,23.10514,9.19941,22.85856Z"/>
        <path class="cls-1" d="M74.98792,61.64714c-.41547-.17578-.66937.227-.9975.36279A.819.819,0,0,0,74.98792,61.64714Z"/>
        <path class="cls-1" d="M27.06666,57.77842c1.51269,1.32135,2.722.97461,4.03265.81842,2.271-2.46832,6.2041-5.85839,5.64111-9.77691-.17236-1.19971-1.01947-2.13227-1.53466-3.376-5.07715-3.935-8.86915-1.1225-11.313,2.482a10.3335,10.3335,0,0,0,.59179,5.7539C26.01874,54.85753,27.08124,56.16716,27.06666,57.77842Zm5.23577-5.77386q.20068.11279.40192.22558c-.0357.34418-.01861.542-.2959.75879-.16662-.0943-.33453-.18847-.50152-.28228A.72044.72044,0,0,1,32.30243,52.00456ZM31.359,47.11a1.47371,1.47371,0,0,1-1.74408-.18946A1.11982,1.11982,0,0,1,31.359,47.11Z"/>
        <path class="cls-1" d="M109.48945,116.78044c1.14007.44873,2.6792.71582,3.06836-.51862C111.41523,116.006,110.31464,115.90007,109.48945,116.78044Z"/>
        <path class="cls-1" d="M133.93085,159.503a13.01423,13.01423,0,0,0-2.2182-3.10058c-2.03332-1.75342-4.93512-2.27338-7.41363-2.3266-.06641.498.27679.8808-.0196,1.4433-.8955.68359-2.5288.1538-3.57562-.69379a7.19228,7.19228,0,0,0-4.834,3.88617,1.76324,1.76324,0,0,0,.20648,1.042c-.38715.126-.82367.07813-1.15479.40723.19342.68072-.23376.76178-.43359,1.47369.20709.68549-.26269,1.4917-.21527,2.25781a14.57047,14.57047,0,0,0,2.14258,4.64447,10.59585,10.59585,0,0,0,2.62652,2.14161,9.35061,9.35061,0,0,0,4.72309,1.47119,21.94382,21.94382,0,0,0,2.40277.42871c2.94342.01324,5.70172-2.78217,7.93262-3.99066.6856-2.12061,2.46881-4.03321,1.89312-5.93952C135.694,161.65983,134.6012,160.59874,133.93085,159.503Zm-6.0498,3.4654c.44916-.66462,1.67377.00872,2.189.5722C129.734,164.68272,127.93525,163.61534,127.88105,162.96843Z"/>
        <path class="cls-1" d="M122.83076,154.56993c-.3642-.5459-.96875-.28559-1.34284.03711C121.84784,155.13737,122.46943,154.93815,122.83076,154.56993Z"/>
        <path class="cls-1" d="M64.69306,178.91856a9.44776,9.44776,0,0,0,3.66895,1.93561c1.88421.57275,5.47125.64355,7.45361-.55914.68164-.41358,1.56439-1.17823,2.30371-1.74219a9.14426,9.14426,0,0,0,2.05908-2.01221c1.144-1.81049-.3277-3.40228-.29059-5.584-3.98767-5.73291-13.019-7.97364-16.54876-1.12891.11328.9585-.9043,1.3501-1.25684,2.4649-.56641,1.789.47852,3.456,1.41449,4.76221C63.95234,177.691,64.36255,178.57243,64.69306,178.91856Zm12.11224-5.0722c-.26794.69378-1.498-.002-1.57415-.49073C75.55872,172.63292,76.85761,173.28135,76.8053,173.84636Zm-4.44964-5.9444a1.66968,1.66968,0,0,1-2.14551-.41553C70.65052,166.79112,72.05433,167.18034,72.35566,167.902Z"/>
        <path class="cls-1" d="M5.49824,174.64714c.04931.21142.43951.32812.48877.53949.15875-.2417.02294-.40088-.07465-.5708C5.81751,174.78044,5.60273,174.51475,5.49824,174.64714Z"/>
        <path class="cls-1" d="M12.74921,185.47374c.77344.46832,1.4834,1.43847,2.251,1.40088.03607-1.63379-.97119-2.5625-2.06744-4.0727-1.6363-2.25738-3.0337-4.48535-5.6919-5.85156.77539,1.06146.88574,2.5766,1.622,3.69037C10.01191,182.37852,11.91865,183.49131,12.74921,185.47374Z"/>
        <path class="cls-1" d="M3.84833,182.97081a4.26606,4.26606,0,0,1,.59668-.58936c-.40222-1.34473-2.06018-3.91766-3.75189-3.52252v.33563C1.75886,180.45109,1.31428,182.43339,3.84833,182.97081Z"/>
        <path class="cls-1" d="M24.70771,192.87315a.62285.62285,0,0,0,.06152.82867.57626.57626,0,0,0,.68408-.27587C25.2829,193.20964,24.91132,192.82682,24.70771,192.87315Z"/>
        <path class="cls-1" d="M17.73316,190.00114c.12976-.5108-.564-1.16308-1.022-1.23682C16.28773,189.36583,17.27656,190.17106,17.73316,190.00114Z"/>
        <path class="cls-1" d="M44.29212,211.84092c-.09607-.46289-1.04388-1.33978-1.374-.37738C43.17255,211.91465,43.99824,212.21306,44.29212,211.84092Z"/>
        <path class="cls-1" d="M57.56415,223.946c-.897-.64844-1.895-2.07282-3.123-1.49512a3.65174,3.65174,0,0,0,1.24072,2.021c1.67279,1.60688,3.56738,3.68311,5.03558,3.498q.25425-.45117.50879-.90326C60.63935,225.68663,59.01093,224.9918,57.56415,223.946Z"/>
        <path class="cls-1" d="M34.112,234.12956c-.90918-.31934-1.35059-1.17291-1.86225-.91754.4892.647,1.39154,2.00543,2.16889,2.01562A1.50908,1.50908,0,0,1,34.112,234.12956Z"/>
        <path class="cls-1" d="M35.38392,236.565c.20172.81989,1.28473,2.66413,2.4834,1.9278C37.89716,237.18614,36.59052,236.97764,35.38392,236.565Z"/>
        <path class="cls-1" d="M49.69111,249.64952c.12793.18994.09662.42431.48871.54052C50.61982,249.819,49.92066,249.33464,49.69111,249.64952Z"/>
        <path class="cls-1" d="M48.27161,251.22966c-.23138.57708.36725,1.77288,1.12262,1.29339C49.1012,252.10362,48.8761,251.28672,48.27161,251.22966Z"/>
        <path class="cls-1" d="M77.817,289.82243c-.46679-1.24811-1.27966-2.30768-1.77929-3.64648-1.01313-2.71729-1.85352-5.57862-5.57172-7.2378-1.56348-.6983-5.73639-2.11334-6.98828-.50152-1.3374,1.72271.23492,4.65039,1.1499,5.93652a34.98122,34.98122,0,0,0,5.81787,5.39362,35.05919,35.05919,0,0,1,3.875,2.97558c1.88184,1.92279,3.39942,5.5669,6.1333,3.1919C81.35566,293.65886,80.1095,291.40593,77.817,289.82243Zm-6.10638-5.8208a.62285.62285,0,0,1-.40668-1.15527,1.099,1.099,0,0,1,.63275.75439Q71.82466,283.8007,71.71064,284.00163Z"/>
        <path class="cls-1" d="M112.08564,25.83946q-.40219-.22623-.80322-.45209c-.50391.37885-1.0254,1.06445-1.07959.97748C110.846,27.39274,111.52076,26.35807,112.08564,25.83946Z"/>
        <path class="cls-1" d="M62.67792,12.40837c1.02051.51318,1.98481-1.29932,1.3183-1.63672C63.52753,10.53483,62.40442,11.74772,62.67792,12.40837Z"/>
        <path class="cls-1" d="M35.56611,24.628c.96093,2.53424,5.07861,4.877,7.21771,5.2569a24.24948,24.24948,0,0,0,2.647.69824c1.51856.05365,3.86426-.87793,5.27686-1.38873.40521-.14691.87353-.11231,1.19873-.25,2.72272-1.15717,4.11078-3.80078,5.249-6.03119.42578-2.28961-.296-4.25781-.19586-6.4566-.51215-.01947-.29687-.6128-.36328-.9975-.73578-1.40479-1.332-3.0943-3.20941-3.9234-.12744-.292-.09766-.413-.232-.52728-.23236-.103-.88519-.17585-.85888-.35163-1.40522-1.89551-3.70649-1.38617-5.81342-2.351-1.28619.103-1.86816.894-3.1817.71924-1.66345.87787-3.247,1.22509-4.7002,2.24267-1.32806,2.0766-2.98968,3.36524-3.88177,5.48041-.74713,1.77252-.22412,3.6236.15967,5.11279C35.10816,22.753,35.28534,23.88633,35.56611,24.628Z"/>
        <path class="cls-1" d="M52.296,10.65684c.11578.07861.14361-.11127,0,0Z"/>
        <path class="cls-1" d="M1.42011,209.09825c-.42187,1.89068-.62549,3.92.247,5.42731.337.582,1.48151,1.09716.72662,1.9956A3.65041,3.65041,0,0,1,.69312,214.577v18.32251l.01264-.01172a1.42407,1.42407,0,0,1,.32519,1.76953.7184.7184,0,0,1-.33783-.17194V247.863c1.24207,1.63073,2.895,3.002,3.76209,5.11566.17242.4209.10839,1.09332.28131,1.61279.55322,1.66413,2.17382,3.37842,3.2583,5.00934,1.41449,2.12549,2.02392,5.02588,5.48584,4.80908a13.20624,13.20624,0,0,1,1.10547-1.49219c-.13477-1.9234-.73047-4.11383-2.88819-5.19732-.19873-1.03906-.37842-2.1167-1.79931-2.20307-.96192-1.07519-.25287-2.9068-1.522-3.63281-.15429-1.02838-1.14349-1.82379-1.1455-2.8941,1.59906-1.42871-2.76123-3.61719-1.21924-5.57758a56.61954,56.61954,0,0,1-5.09229-10.669c-.10107-1.455.915-2.66651,1.17633-3.96381.228-1.13873-.084-2.46631.07758-3.65772.0459-.33648.25781-.69.3081-1.01568.29493-1.90772.60059-4.1601,1.03321-6.292.45257-2.227-.55274-3.36762-.874-5.2519a9.002,9.002,0,0,1,.36621-3.23053,28.58486,28.58486,0,0,0,.0727-4.58636c-1.20941-.88873-2.0307-5.36963.64312-4.66064-.07232-.28669-.31738-.12159-.5581-.18219-.80762-1.24408-1.67578-1.958-2.00543-3.24512a15.10614,15.10614,0,0,0-.46619-2.3548v13.52985A3.07031,3.07031,0,0,1,1.42011,209.09825Zm1.19922-9.63519c.33929.13079.19971.3955.01813.67138-.18714-.08838-.14264-.24267-.34485-.32672C2.36835,199.57432,2.51142,199.58116,2.61933,199.46306Z"/>
        <path class="cls-1" d="M.99146,178.18766c-.07916-.01306-.18426-.02563-.29834-.03942v.29785C.86719,178.41838.996,178.34416.99146,178.18766Z"/>
        <path class="cls-1" d="M104.6095,158.05143a15.15354,15.15354,0,0,0-3.85638-2.30566c-2.76221-.9834-7.27387-1.00885-9.42969-.15723-1.57861.62348-3.02881,2.40229-4.03662,3.4101-1.1333-.12451-2.043.55572-3.29926-.00922.01307-.3233.22748-.28515.12586-.45807-2.52051-1.00683-6.09711-3.55951-8.75488-4.40429a4.126,4.126,0,0,0-1.7934-1.27442c-.57422-.39111-1.05811-1.24017-1.72412-1.63281a4.024,4.024,0,0,0-.51465-.0249c-1.2124-.53321-2.4458-1.34516-3.46783-1.8227a8.83075,8.83075,0,0,1-3.4936-1.30719c-1.58837-1.477-4.02832-2.95062-4.2124-4.4887-.70648-.2779-.39752-.875-.8648-1.28077-1.19483-1.03662-2.62983-2.70654-2.88331-4.26812-.20752-1.28412.32721-3.51068,1.503-4.3086,1.38623-.94091,2.97851.95319,4.09521,1.64649.96088.59668,2.0127.3916,3.36963-.34857-.291-.40924-.9541-.81891-.69531-1.58155-1.15534-1.55719-3.30469-3.46386-1.54541-5.2334,1.08056-1.08648,2.9707-1.75048,4.15478-2.68219,5.62451-.8515,11.4541-.96771,17.1474-1.5747,1.88294-1.2309,3.899-1.9834,5.78034-3.22016a70.902,70.902,0,0,0,10.21484-2.17535c1.08-.29688,2.71094-.06146,3.21973-1.49066-.37787-.20313-.4087-.03223-.44532-.3833-.17389-.0166-.23236.37787-.42675.28808-.94043-.48877-1.94245-.17682-2.9292-.19629a42.599,42.599,0,0,0-4.94385-.14209c-1.86865.18207-3.77246,1.16938-5.82819.02051-.1181-.10742-.11126-.25055-.34521-.32574-.06586.065-.14887.06891-.25727-.01319a2.769,2.769,0,0,1-2.35839-.271c-4.86084.55768-9.23835,2.8482-14.04932,3.584-1.44092-.2138-2.686.271-4.17187-.10351-2.393.58252-7.07032.17633-9.46583-1.5-5.10107-3.56977-.33691-12.146,2.415-16.48578,3.86719-.72809,6.8501-2.99372,9.55963-6.64307.17432.02826.02491.52979.24457.27045.64411-1.29047,1.8794-2.84125,1.85993-4.23969-.10743-.75439-1.15973-1.1148-1.30964-1.66357-1.14544-.23444-2.77148.17718-4.10247-.461a2.7098,2.7098,0,0,1-.543-4.66791c-.46344-.24811-.706.29688-1.1416.14942-.36573-1.16852,1.26416-3.30475,2.39306-3.543.9668-1.33588,2.61774-2.61719,3.06391-3.561.17437.02826.025.5293.24469.27a2.29083,2.29083,0,0,1,.3081-1.016c.10114.05609.07318.14886.144.21387.127-.1587-.0166-.71979.3833-.4458.35315-1.05671,1.54352-1.4629,2.40381-1.68561.08161-.52588,1.05774-.47949,1.58161-.69525a47.22816,47.22816,0,0,0,6.67773-3.63965c1.0484-.65338,2.336-.86817,3.2193-1.49079a15.12758,15.12758,0,0,0,2.65619-2.602c.25391-.30572.11566-1.10162.57806-1.2608-.61126-.205-.22949-1.00043-.49456-1.46771-.61231-1.0791-1.93024-1.04688-2.75238-1.6836a5.88447,5.88447,0,0,0-4.43171,1.998c-1.93261.56152-3.85839,2.71051-5.65429,2.7627.103.2901-.57276.355-.666.94683-.20514.17041-.50439.00977-.68359.27491-.769,1.96631-3.08063,2.3872-3.96192,3.981-1.7417.47211-2.86767,1.67725-4.44342,2.25531-1.10247.40479-2.35247.19294-3.52575.39264-1.31794.22559-2.59534,1.0166-4.00934.78125a32.43764,32.43764,0,0,0-6.709,3.226c-1.22308,1.375-2.5064,2.53271-4.09863,2.5816a7.16815,7.16815,0,0,1-8.05566.21973,1.93916,1.93916,0,0,0-.97748-1.07965c-.01135-.56006-.25153-.70166-.56452-1.11078-.29638-.37989.28858-.53321.35212-.85889.0542-.27789-.273-.23-.07471-.57129.27728-.47711.95551-.49664,1.13666-1.07812,3.55914-.24372,7.72259.646,10.14013-2.74659-.44628-.21392-.2417-.60943-.106-.98492-.60053-1.04437-.71668-2.22357-2.43207-2.95648-3.38623.02588-6.34033,2.03021-9.22461,2.9975.12347-.10492-.456-.26508-.55859-.18213-3.355.915-4.01172-3.92816-6.85944-5.187.15143-.2959-.32947-.41553-.1181-.728a14.78426,14.78426,0,0,1-4.1695-4.33161c.06012-.25531.46442-.15918.06989-.35736a2.73784,2.73784,0,0,1-1.67481-.54742c-.38965-.29388-.34179-.70752-.66406-1.167a6.78556,6.78556,0,0,0-.54541-.43994c-.18512-.46479-2.3374-1.227-2.26947-2.07178-1.17786-1.1211-2.45953-.37842-3.78912-.54877-.51123-.06543-.67634-.2583-1.08551.04981-.69532-1.01813-1.76362-1.93164-1.49018-3.22022,2.0152-1.45611,1.21631-3.9956,2.41937-6.1709-.46966-.95953-.1845-1.78759-.80072-2.56689-.35205.355-.89544.022-1.38678-.12012-.25189-.15478.07721-.47272-.1748-.628a35.145,35.145,0,0,0-6.2851-2.21869c.227-1.64557,1.44483-3.0581,1.73481-3.78131q.15013.08432.30078.169c-.13275-1.13282,1.1441-2.2295,1.28235-2.979.38665.2475.03509.69971.06195.82862a3.49594,3.49594,0,0,0,2.33642-3.44294,30.27229,30.27229,0,0,1,5.46778-5.24652,2.84144,2.84144,0,0,1,.5346-1.418,1.08012,1.08012,0,0,1,.67145-.01812c.40088-1.30756,1.28516-2.63868.70606-3.83246-1.0708.4917-1.87452,1.93207-2.93848,3.103-.188.20612-.52588.29151-.69733.53272-.31781.44781-.40869,1.1084-.74749,1.56158-1.28711,1.72309-3.97406,4.08643-5.40479,3.96088C10.28821,31.571,9.99335,30.23942,9.45234,29.214c.34808-1.00928,1.16748-2.18506.62347-3.21826.26129.02686.47272-.12354.6402-.43213-1.01129.31543-1.73438,1.6626-2.687,2.187-.649-.22613-1.1861.12207-1.74372-.18951-.61279-.34082-.59472-.9809-.80859-1.3808-.5058-.94489-1.5141-2.146-1.81689-2.87408-.08545-.205.12884-.42279.082-.61469C3.5636,21.96934,2.97962,21.59,2.632,21.14073a3.95779,3.95779,0,0,0-1.9389.36493V173.56077a4.98194,4.98194,0,0,1,.79138-1.17541c.81555-.43653,1.88282-.09571,2.49762-.44379-.50537-.3623.001-.6499.05078-1.02881.023-.17633-.15234-.34723-.07464-.57129.93207-2.69195,4.9389-2.53613,7.20355-1.75732,2.56592.88232,5.2915,1.47949,7.55811,2.54,1.86279.87213,2.34863,3.01709,4.0371,3.86181.5058,1.50489,2.98481,2.01612,4.11908,3.24659,1.52936,3.06793,3.729,5.9483,4.59821,9.20019,1.27155,1.11041,1.2807,2.5733,2.55084,3.68512-.2251.28809.12061.417.018.6709,3.20794,4.17871,4.84668,9.0498,11.94287,11.8847,2.21039.22559,4.39752-.5957,4.9082-3.31543-.52148-.33294-1.3623-.57757-1.07757-1.13568.24847-.3208.65026-.09131,1.02826.05072a7.81259,7.81259,0,0,0-1.69141-3.33252c-.75-.71679-2.06836-1.16449-3.041-2.1098-.19683-.19189-.22662-.4859-.43273-.64069-2.0918-1.57171-5.00971-2.31689-4.997-4.26953-1.29535-1.46338-1.959-3.49408-3.62848-4.82025a5.99962,5.99962,0,0,1-1.69867-2.14752c.022-.09131-.018-.164-.144-.21332.55951-.63141-.27435-1.24469.2334-1.58746-.2525-.10053-.52539-.03711-.60211-.3393.41211-1.7774-1.01709-3.0415-.42969-4.86822-.9804.00641-1.394-1.78711-.3247-1.77.32281-.91357.14264-1.78467.68609-2.38959.83155-.92529,3.9223-1.09717,5.6709.02344,1.27442.81635,1.92432,2.2334,2.8457,2.92529.05121,1.36078,2.692,4.0669,4.55225,3.88666,1.12891-.10889,1.541-1.34906,2.27246-2.15576-.399-.63373.0332-1.1889-.168-1.81342-.02087-.06555-.33032-.62774-.27948-.58728-1.66577-2.2716-6.11468-3.94751-4.26886-7.528a19.12749,19.12749,0,0,1,3.0766-3.81879c1.78913-.14014,3.09131-.19971,4.91266-.272a1.52766,1.52766,0,0,1,1.18066-.92139c.21143-1.83588.21094-2.63818.47309-4.3598-.29877-.23541-.49408.37939-.61469-.08209-.1123-.375.25489-.102.3833-.44483a1.59771,1.59771,0,0,1-.43847-1.56878c-.49073-.76471-1.39752-1.41407-1.48529-2.29108.16259-.42963.47509-.3183.78454-.21869.22174-.34381-.35888-.46393-.06195-.82861.70459.14648.35687-.61823.9541-.52-.3125-.24658.05616-1.40528-.09912-2.1709.19733-.40527.57758-.15289.8852-.1626,1.08752-1.2168,3.05181-.689,4.56011.58692.31836-.03272.47608.12786.57032-.07471,1.30224,1.8457,4.10345,2.9834,6.79785,4.35937.12793.29151.09814.413.23144.5268,1.9126.74225,2.917,1.769,4.82959,2.45654.63379,1.23151,2.51416,1.897,3.54248,2.39307,3.33741,1.60943,6.2392,4.146,9.4936,6.14264a9.84285,9.84285,0,0,0,.8565,4.58056c.81793,2.42774.84418,3.84619,3.97412,5.14691,3.10736,1.29151,7.29639.47559,9.90631-1.15911.52045-.32618,1.19526-.5821,1.5376-.8526a13.13827,13.13827,0,0,0,2.4809-3.229,20.40223,20.40223,0,0,0,2.21051-2.98437,4.64733,4.64733,0,0,0,.12738-2.57172C106.34681,161.53672,106.11646,159.24962,104.6095,158.05143Zm-38.88128-37.5083c.4624.27881-.3335.11231-.33936.602-1.5556-.41058-3.21735.3711-4.61725-.48626C62.27265,120.07872,64.047,120.47917,65.72822,120.54313Zm-3.61139,5.23633c.35937.93457-.82471,2.22949-1.57032,2.55219-.2763.8941.544,1.48248.24274,2.38379-.87652-.13959-.95019-1.187-1.56744-1.67621C59.98011,127.66905,60.81275,126.21592,62.11683,125.77946Zm9.34668-32.54053c.18609.2085-.25238.67572-.4834.38813C70.86255,93.23307,71.24921,93.30772,71.46351,93.23893Zm-3.209-3.92389c-.371.38819-.94232.05671-1.4433-.01947C67.21015,89.00645,67.755,89.24376,68.25452,89.315Zm-56.28271-56.831c-.34369.46729-1.28656.124-1.58686-.23291A2.46038,2.46038,0,0,1,11.97181,32.48405ZM7.11933,28.42784c.35162-.355.89551-.02191,1.38568.1206C8.1886,29.03093,7.59736,28.52745,7.11933,28.42784Zm1.6123,16.375c1.436-.5083,3.13233-.08588,4.83063.34283C12.20472,45.93614,10.60566,45.86192,8.73163,44.80284Zm44.10688,63.19049c.13141-1.03516.8208-2.6817,1.89019-1.712a2.51529,2.51529,0,0,1-.66064,1.87549A2.511,2.511,0,0,1,52.83851,107.99333Zm1.86975,25.77289c-.33264-.28077-.52741-.0708-.85944-.35157a1.65855,1.65855,0,0,1,.8476-1.50482,2.23549,2.23549,0,0,1,.67682.9101A2.87669,2.87669,0,0,1,54.70826,133.76622Zm39.73138,24.50293a1.68792,1.68792,0,0,1,2.41547.17138A1.812,1.812,0,0,1,94.43964,158.26915Zm4.30622,5.7315c.30419-.90429,1.27288-.437,1.70019.03217C100.1803,164.96885,99.13105,164.47673,98.74586,164.00065Z"/>
        <path class="cls-1" d="M12.59241,24.10954c-.03119.0556.01709.15912.10065.05658-.18854-.34229.1275-.8252-.30713-1.09808-.89447-.14411-1.09228,1.31543-1.23047,1.9497C12.02161,25.35954,12.06025,23.87956,12.59241,24.10954Z"/>
        <path class="cls-1" d="M70.52991,66.274c.41364-.43207,1.03424-.3476,1.56891-.43848-.31348-.08148.33838-.43261.02539-.51361-1.749.8086-4.11035,1.01459-5.38476,2.51752,1.38379-.24561,2.72558.05957,3.6524-.85053C70.49671,66.88536,70.37812,66.43126,70.52991,66.274Z"/>
        <path class="cls-1" d="M137.26581,112.99913a21.245,21.245,0,0,1-2.14495-.41547c-2.24616-.12164-4.21882,1.01117-6.26276,1.49506-1.97559.46734-4.01807.28033-5.81006.69195.834.54248.87158-.04834,1.73138.44629,3.32721-1.0498,7.05823.29779,10.396-.61963.74133-.20367,1.46051-.54938,2.15241-.77008,1.40332-.4472,3.51068,1.07038,4.42382-.812C140.50361,111.17442,138.5998,112.92057,137.26581,112.99913Zm-2.36621.91461c-.28418-.09229-.48486-.0484-.28808-.42682.17334.11334.2807-.00385.458.12555C135.01282,113.71306,134.95673,113.81315,134.8996,113.91374Z"/>
        <path class="cls-1" d="M59.76435,74.35264c.46051-.00531,1.36481-.476,1.18115-.92138C60.80005,73.98545,60.09492,73.63194,59.76435,74.35264Z"/>
        <path class="cls-1" d="M4.82142,173.73643c-.11029-.081-.1269-.30658-.30066-.16937.23187.19379.65906.76758.78949.70947-.19483-.19928-.08063-.48486-.27491-.68408C4.96845,173.65782,4.92066,173.78874,4.82142,173.73643Z"/>
        <path class="cls-1" d="M7.2663,176.43614c-.28906-.07367-.335-.51172-.63324-.75342-.4649.21082.19824.9743.43939,1.16473C7.0207,176.74546,7.55817,176.63139,7.2663,176.43614Z"/>
        <path class="cls-1" d="M23.78821,196.85026c-1.22357-1.53222-2.97461-2.92773-4.22509-4.23193-.0644.10492-.09656.28174.044.15723a16.75173,16.75173,0,0,0,4.19239,5.93206c.415-.64935-.836-1.10058-.0235-1.60009-.30078-.2685-.35785.33551-.67176.01812.06678-.13092-.04992-.21142.06928-.35742C23.43372,196.36247,23.48261,197.09245,23.78821,196.85026Z"/>
        <path class="cls-1" d="M14.88691,213.11735A48.81225,48.81225,0,0,0,24.58326,224.53,32.97267,32.97267,0,0,0,14.88691,213.11735Z"/>
        <path class="cls-1" d="M28.31952,228.22184c-.69726-.96881-1.7207-2.62548-3.0025-2.8814,1.68512,2.61328,4.66559,6.31109,7.2027,7.627C30.817,231.68126,30.45771,229.738,28.31952,228.22184Z"/>
        <path class="cls-1" d="M43.85273,245.69981c.07623-.13226.22748.00684.314-.08838-.76861-.20947-.55334-1.34619-1.58014-1.41888a11.40071,11.40071,0,0,0,2.188,2.68652C44.7912,246.38835,44.195,245.83513,43.85273,245.69981Z"/>
        <path class="cls-1" d="M28.79951,13.41227c-1.605-.27154-2.8277,2.18549-2.92035,3.77491C27.14716,16.568,28.93183,14.71544,28.79951,13.41227Z"/>
        <path class="cls-1" d="M.14136,207.84922c-.3985.81153.17041,1.61384.18647,2.48444A12.98213,12.98213,0,0,0,.69312,214.577v-6.74414A.4407.4407,0,0,0,.14136,207.84922Z"/>
        <path class="cls-1" d="M.69312,234.48539v-1.58587A1.00875,1.00875,0,0,0,.69312,234.48539Z"/>
      </g>
    </g>
  </g>
</svg>
