<svg xmlns="http://www.w3.org/2000/svg" width="308.76657" height="346" viewBox="0 0 308.76657 346">
  <defs>
    <style>
      .cls-1 {
        fill: #fff;
      }
    </style>
  </defs>
  <g id="Layer_2" data-name="Layer 2">
    <g id="FOUTE_KANT" data-name="FOUTE KANT">
      <g>
        <path class="cls-1" d="M115.19666,342.77539A3.22458,3.22458,0,0,0,118.4212,346h21.55085a3.22456,3.22456,0,0,0,3.22461-3.22461V128h-28Z"/>
        <path class="cls-1" d="M78.59509,70.74805a3.49192,3.49192,0,0,0-2.39258.84668,6.63589,6.63589,0,0,0-1.56738,2.07617,10.5392,10.5392,0,0,0-.87988,2.62109,12.97471,12.97471,0,0,0-.27442,2.48535h9.79a12.85742,12.85742,0,0,0-1.12793-5.8164A3.734,3.734,0,0,0,78.59509,70.74805Z"/>
        <path class="cls-1" d="M305.90027,72.8266,244.90808,33.18054a6.00652,6.00652,0,0,0-3.27392-.97052h-98.4375V3.22455A3.2245,3.2245,0,0,0,139.97205,0H118.4212a3.22452,3.22452,0,0,0-3.22454,3.22455V32.21H6.88489A6.88483,6.88483,0,0,0,0,39.09485v78.86078a6.05492,6.05492,0,0,0,6.05493,6.05493H114.19666V124h30v.01062h97.22961a6.70792,6.70792,0,0,0,3.65613-1.08392l60.818-39.53644A6.29973,6.29973,0,0,0,305.90027,72.8266ZM58.63025,95.168H52.306L46.476,63.65234H46.3656L40.53552,95.168H34.21033l-7.4795-38.94043h5.05958l5.7207,32.45019h.16406l5.99512-32.45019h5.77539l6.10449,32.45019h.11035l5.665-32.45019h4.83985Zm29.37012-12.5957H73.37048a18.10082,18.10082,0,0,0,.35743,3.708,10.96429,10.96429,0,0,0,1.04492,2.98731,5.57324,5.57324,0,0,0,1.73242,1.99121,4.16164,4.16164,0,0,0,2.41992.71875,3.91,3.91,0,0,0,2.9707-1.15527,8.84718,8.84718,0,0,0,1.75977-2.75l3.51953,2.03515a10.8547,10.8547,0,0,1-3.16211,4.3125,8.03956,8.03956,0,0,1-5.25293,1.68262,8.55725,8.55725,0,0,1-7.4248-3.877Q68.64,88.34814,68.64,81.418a23.65038,23.65038,0,0,1,.71582-6.02246A15.12733,15.12733,0,0,1,71.39,70.7207a9.62833,9.62833,0,0,1,3.19043-3.02539,8.78844,8.78844,0,0,1,8.415,0,8.61905,8.61905,0,0,1,2.8877,2.915,13.16136,13.16136,0,0,1,1.62207,4.34473,27.62944,27.62944,0,0,1,.49512,5.3623ZM113.65759,87.165a16.31445,16.31445,0,0,1-1.70508,4.70312,9.18462,9.18462,0,0,1-2.77734,3.10743,6.48187,6.48187,0,0,1-3.74023,1.127,5.7243,5.7243,0,0,1-4.31739-1.5127,8.93049,8.93049,0,0,1-2.11718-3.76757H98.89V95.168H94.32458V53.58789h4.67579V71.51758h.10937a6.91058,6.91058,0,0,1,2.25488-3.51953,6.14773,6.14773,0,0,1,4.07032-1.375,6.80813,6.80813,0,0,1,3.79492,1.07226,8.72131,8.72131,0,0,1,2.77734,3.02539,15.45282,15.45282,0,0,1,1.67774,4.61914,29.0897,29.0897,0,0,1,.5498,5.85743A28.79477,28.79477,0,0,1,113.65759,87.165Zm10.88965-9.81738a11.78386,11.78386,0,0,0,3.27246,1.70507,17.33989,17.33989,0,0,1,2.28223,1.07227,8.2046,8.2046,0,0,1,2.03515,1.62305,7.7907,7.7907,0,0,1,1.457,2.33691,8.51441,8.51441,0,0,1,.5498,3.21777,10.57266,10.57266,0,0,1-.63184,3.79493,7.34759,7.34759,0,0,1-4.42773,4.42773,9.48809,9.48809,0,0,1-3.35547.57715,9.93745,9.93745,0,0,1-4.50976-1.01758A10.12556,10.12556,0,0,1,117.809,92.3623l2.75-3.02441a10.00062,10.00062,0,0,0,2.2002,2.00781,5.48324,5.48324,0,0,0,3.13476.85157,3.37412,3.37412,0,0,0,2.77832-1.26465,5.10564,5.10564,0,0,0,1.01758-3.29981,4.652,4.652,0,0,0-.38574-1.98047A4.19306,4.19306,0,0,0,128.25916,84.25a6.35238,6.35238,0,0,0-1.56739-.99023q-.90673-.41163-1.95215-.79688a15.64008,15.64008,0,0,1-2.0625-.93555,6.8397,6.8397,0,0,1-3.16308-3.65722,8.8717,8.8717,0,0,1-.49512-3.16211,8.33227,8.33227,0,0,1,.63281-3.29981,7.7749,7.7749,0,0,1,1.73243-2.55761,7.59159,7.59159,0,0,1,2.585-1.65039,8.73146,8.73146,0,0,1,3.19043-.57715,9.82584,9.82584,0,0,1,4.26269.85254,8.6494,8.6494,0,0,1,2.94238,2.22753l-2.69531,3.08008a5.97916,5.97916,0,0,0-1.84277-1.7334,5.02642,5.02642,0,0,0-2.667-.6875,3.4468,3.4468,0,0,0-2.64063,1.12793A4.3168,4.3168,0,0,0,123.474,74.543,3.41885,3.41885,0,0,0,124.54724,77.34766Zm34.292,17.82031h-4.72949V77.52832q0-1.15722-.11035-2.37012a7.48625,7.48625,0,0,0-.52246-2.20508,3.89269,3.89269,0,0,0-1.18262-1.59863,3.29036,3.29036,0,0,0-2.08984-.60644,3.90121,3.90121,0,0,0-2.14551.63379,5.60915,5.60915,0,0,0-1.7041,1.76367,9.01732,9.01732,0,0,0-1.10059,2.70117,14.45326,14.45326,0,0,0-.38476,3.44531V95.168H140.139V53.58789h4.73047V72.23242h.11035a8.96454,8.96454,0,0,1,2.47461-3.96,6.11116,6.11116,0,0,1,4.34472-1.64941,6.37618,6.37618,0,0,1,3.60254.93457,6.11046,6.11046,0,0,1,2.14551,2.47558,11.82753,11.82753,0,0,1,1.01758,3.51953,29.27466,29.27466,0,0,1,.27441,4.01465Zm25.65723-7.75488A14.81754,14.81754,0,0,1,182.517,92.0332a9.47853,9.47853,0,0,1-3.16309,2.99707,8.35967,8.35967,0,0,1-4.23437,1.07227,8.25256,8.25256,0,0,1-4.18067-1.07227,9.45755,9.45755,0,0,1-3.16211-2.99707,14.75033,14.75033,0,0,1-1.98047-4.62011,24.23135,24.23135,0,0,1-.6875-5.99512,24.8958,24.8958,0,0,1,.6875-6.04981,15.14779,15.14779,0,0,1,1.95313-4.67578,9.21985,9.21985,0,0,1,3.13477-2.99707,8.89886,8.89886,0,0,1,8.46972,0,9.48848,9.48848,0,0,1,3.16309,2.99707,14.797,14.797,0,0,1,1.97949,4.67578,24.94374,24.94374,0,0,1,.6875,6.04981A24.27757,24.27757,0,0,1,184.49646,87.41309Zm26.53711-.05567a15.08077,15.08077,0,0,1-1.67774,4.62012,9.0537,9.0537,0,0,1-2.77734,3.02539,6.68869,6.68869,0,0,1-3.79492,1.09961,6.0702,6.0702,0,0,1-4.07031-1.40234,7.05937,7.05937,0,0,1-2.25489-3.54786H196.349v17.21582h-4.67578V67.55762h4.56543v4.29h.11035a8.72843,8.72843,0,0,1,2.11719-3.74024,5.79122,5.79122,0,0,1,4.31738-1.48437A6.48175,6.48175,0,0,1,206.5238,67.75a9.194,9.194,0,0,1,2.77735,3.10742,16.31511,16.31511,0,0,1,1.70508,4.70313,28.50916,28.50916,0,0,1,.57714,5.91211A29.48088,29.48088,0,0,1,211.03357,87.35742Z"/>
        <path class="cls-1" d="M179.07947,73.82031a6.30036,6.30036,0,0,0-1.65039-2.249,3.6527,3.6527,0,0,0-4.62012,0,6.02663,6.02663,0,0,0-1.62207,2.249,13.37215,13.37215,0,0,0-.93555,3.374,27.44144,27.44144,0,0,0-.30176,4.19628,26.9119,26.9119,0,0,0,.30176,4.16895,13.35729,13.35729,0,0,0,.93555,3.34668,6.03451,6.03451,0,0,0,1.62207,2.249,3.50969,3.50969,0,0,0,2.31055.82227,3.5822,3.5822,0,0,0,2.36425-.82227,6.047,6.047,0,0,0,1.62305-2.249,13.44159,13.44159,0,0,0,.93457-3.34668,26.90693,26.90693,0,0,0,.30274-4.16895,27.43687,27.43687,0,0,0-.30274-4.19628A12.691,12.691,0,0,0,179.07947,73.82031Z"/>
        <path class="cls-1" d="M205.50623,73.82031a6.213,6.213,0,0,0-1.59473-2.249,3.47786,3.47786,0,0,0-2.33789-.82324,3.61318,3.61318,0,0,0-2.33789.82324,6.12724,6.12724,0,0,0-1.67676,2.249,13.31087,13.31087,0,0,0-.99023,3.374,24.8084,24.8084,0,0,0-.33008,4.14062,25.1708,25.1708,0,0,0,.33008,4.19727,12.57752,12.57752,0,0,0,1.01757,3.374,6.57517,6.57517,0,0,0,1.67774,2.249,3.69446,3.69446,0,0,0,4.64746,0,6.22141,6.22141,0,0,0,1.59473-2.249,13.45606,13.45606,0,0,0,.93457-3.374,27.44091,27.44091,0,0,0,.30273-4.19727,27.04543,27.04543,0,0,0-.30273-4.14062A13.456,13.456,0,0,0,205.50623,73.82031Z"/>
        <path class="cls-1" d="M108.15759,73.82031a6.21287,6.21287,0,0,0-1.59472-2.249,3.69108,3.69108,0,0,0-4.64746,0,6.56579,6.56579,0,0,0-1.67774,2.249,12.57784,12.57784,0,0,0-1.01758,3.374A25.16821,25.16821,0,0,0,98.89,81.39062a24.6831,24.6831,0,0,0,.33008,4.16895,13.30586,13.30586,0,0,0,.99024,3.34668,6.13534,6.13534,0,0,0,1.67675,2.249,3.61768,3.61768,0,0,0,2.3379.82227,3.482,3.482,0,0,0,2.33789-.82227,6.22128,6.22128,0,0,0,1.59472-2.249,13.44159,13.44159,0,0,0,.93457-3.34668,26.90693,26.90693,0,0,0,.30274-4.16895,27.43687,27.43687,0,0,0-.30274-4.19628A13.4556,13.4556,0,0,0,108.15759,73.82031Z"/>
      </g>
    </g>
  </g>
</svg>
