<?xml version="1.0" encoding="utf-8"?>
<!-- Generator: Adobe Illustrator 25.0.0, SVG Export Plug-In . SVG Version: 6.00 Build 0)  -->
<svg version="1.1" id="Layer_1" xmlns="http://www.w3.org/2000/svg" xmlns:xlink="http://www.w3.org/1999/xlink" x="0px" y="0px"
	 viewBox="0 0 308.8 346" style="enable-background:new 0 0 308.8 346;" xml:space="preserve">
<style type="text/css">
	.st0{fill:#FFFFFF;}
</style>
<g>
	<path class="st0" d="M115.2,342.8c0,1.8,1.4,3.2,3.2,3.2H140c1.8,0,3.2-1.4,3.2-3.2v0V128h-28V342.8z"/>
	<path class="st0" d="M82.1,73c-0.6-1.4-2-2.3-3.5-2.2c-0.9,0-1.7,0.3-2.4,0.8c-0.7,0.6-1.2,1.3-1.6,2.1c-0.4,0.8-0.7,1.7-0.9,2.6
		c-0.2,0.8-0.3,1.7-0.3,2.5h9.8C83.4,76.8,83,74.8,82.1,73z"/>
	<path class="st0" d="M307.7,74.7c-0.5-0.7-1.1-1.4-1.8-1.8l-61-39.6c-1-0.6-2.1-1-3.3-1h-98.4v-29c0-1.8-1.4-3.2-3.2-3.2
		c0,0,0,0,0,0h-21.6c-1.8,0-3.2,1.4-3.2,3.2v0v29H6.9c-3.8,0-6.9,3.1-6.9,6.9v0V118c0,3.3,2.7,6.1,6.1,6.1h108.1v0h30v0h97.2
		c1.3,0,2.6-0.4,3.7-1.1l60.8-39.5C308.8,81.5,309.6,77.6,307.7,74.7z M165.8,75.4c0.4-1.7,1-3.2,2-4.7c0.8-1.2,1.9-2.3,3.1-3
		c2.6-1.4,5.8-1.4,8.5,0c1.3,0.7,2.4,1.8,3.2,3c0.9,1.4,1.6,3,2,4.7c0.5,2,0.7,4,0.7,6c0,2-0.2,4-0.7,6v0c-0.4,1.6-1.1,3.2-2,4.6
		c-0.8,1.2-1.9,2.3-3.2,3c-1.3,0.7-2.8,1.1-4.2,1.1c-1.5,0-2.9-0.4-4.2-1.1c-1.3-0.7-2.4-1.8-3.2-3c-0.9-1.4-1.6-3-2-4.6
		c-0.5-2-0.7-4-0.7-6C165.1,79.4,165.3,77.3,165.8,75.4z M140.1,53.6h4.7v18.6h0.1c0.5-1.5,1.3-2.9,2.5-4c1.2-1.1,2.7-1.7,4.3-1.6
		c1.3-0.1,2.5,0.3,3.6,0.9c0.9,0.6,1.7,1.5,2.1,2.5c0.5,1.1,0.9,2.3,1,3.5c0.2,1.3,0.3,2.7,0.3,4v17.6h-4.7V77.5
		c0-0.8,0-1.6-0.1-2.4c-0.1-0.8-0.2-1.5-0.5-2.2c-0.2-0.6-0.7-1.2-1.2-1.6c-0.6-0.4-1.3-0.6-2.1-0.6c-0.8,0-1.5,0.2-2.1,0.6
		c-0.7,0.5-1.3,1.1-1.7,1.8c-0.5,0.8-0.9,1.7-1.1,2.7c-0.3,1.1-0.4,2.3-0.4,3.4v15.9h-4.7V53.6z M120.6,89.3c0.6,0.8,1.4,1.5,2.2,2
		c0.9,0.6,2,0.9,3.1,0.9c1.1,0,2.1-0.4,2.8-1.3c0.7-0.9,1.1-2.1,1-3.3c0-0.7-0.1-1.4-0.4-2c-0.2-0.5-0.6-1-1-1.4
		c-0.5-0.4-1-0.7-1.6-1c-0.6-0.3-1.3-0.5-2-0.8c-0.7-0.3-1.4-0.6-2.1-0.9c-1.5-0.8-2.6-2.1-3.2-3.7c-0.4-1-0.5-2.1-0.5-3.2
		c0-1.1,0.2-2.3,0.6-3.3c0.4-1,1-1.8,1.7-2.6c0.7-0.7,1.6-1.3,2.6-1.7c1-0.4,2.1-0.6,3.2-0.6c1.5,0,2.9,0.3,4.3,0.9
		c1.1,0.5,2.1,1.3,2.9,2.2l-2.7,3.1c-0.5-0.7-1.1-1.3-1.8-1.7c-0.8-0.5-1.7-0.7-2.7-0.7c-1,0-2,0.4-2.6,1.1c-0.7,0.8-1.1,1.9-1,3.1
		c-0.1,1.1,0.3,2.1,1.1,2.8v0c1,0.7,2.1,1.3,3.3,1.7c0.8,0.3,1.5,0.7,2.3,1.1c0.8,0.4,1.4,1,2,1.6c0.6,0.7,1.1,1.5,1.5,2.3
		c0.4,1,0.6,2.1,0.5,3.2c0,1.3-0.2,2.6-0.6,3.8c-0.7,2.1-2.4,3.7-4.4,4.4c-1.1,0.4-2.2,0.6-3.4,0.6c-1.6,0-3.1-0.3-4.5-1
		c-1.3-0.6-2.5-1.6-3.4-2.7L120.6,89.3z M94.3,53.6H99v17.9h0.1c0.4-1.4,1.2-2.6,2.3-3.5c1.1-0.9,2.6-1.4,4.1-1.4
		c1.3,0,2.7,0.3,3.8,1.1c1.2,0.8,2.1,1.8,2.8,3c0.8,1.4,1.4,3,1.7,4.6c0.4,1.9,0.6,3.9,0.5,5.9c0,2-0.2,4-0.6,6
		c-0.3,1.6-0.9,3.2-1.7,4.7c-0.7,1.2-1.6,2.3-2.8,3.1c-1.1,0.8-2.4,1.1-3.7,1.1c-1.6,0.1-3.2-0.4-4.3-1.5c-1-1.1-1.7-2.4-2.1-3.8
		h-0.1v4.3h-4.6V53.6z M69.4,75.4c0.4-1.7,1.1-3.2,2-4.7c0.8-1.2,1.9-2.3,3.2-3c2.6-1.4,5.8-1.4,8.4,0c1.2,0.7,2.2,1.7,2.9,2.9
		c0.8,1.3,1.3,2.8,1.6,4.3c0.3,1.8,0.5,3.6,0.5,5.4l0,2.3H73.4c0,1.2,0.1,2.5,0.4,3.7c0.2,1,0.6,2,1,3c0.4,0.8,1,1.5,1.7,2
		c0.7,0.5,1.6,0.7,2.4,0.7c1.1,0.1,2.2-0.4,3-1.2c0.8-0.8,1.3-1.7,1.8-2.8l3.5,2c-0.7,1.7-1.8,3.2-3.2,4.3c-1.5,1.2-3.4,1.8-5.3,1.7
		c-3,0.1-5.8-1.4-7.4-3.9c-1.8-2.6-2.7-6.2-2.7-10.8C68.6,79.4,68.9,77.4,69.4,75.4z M31.8,56.2l5.7,32.5h0.2l6-32.5h5.8l6.1,32.5
		h0.1l5.7-32.5h4.8l-7.5,38.9h-6.3l-5.8-31.5h-0.1l-5.8,31.5h-6.3l-7.5-38.9H31.8z M213.9,105.4h-17.5v3h-4.7v-3H24.9V104h166.8
		V67.6h4.6v4.3h0.1c0.4-1.4,1.1-2.7,2.1-3.7c1.2-1.1,2.7-1.6,4.3-1.5c1.3,0,2.6,0.4,3.7,1.1c1.2,0.8,2.1,1.9,2.8,3.1
		c0.8,1.5,1.4,3.1,1.7,4.7c0.4,1.9,0.6,3.9,0.6,5.9c0,2-0.2,3.9-0.5,5.9v0c-0.3,1.6-0.9,3.2-1.7,4.6c-0.7,1.2-1.6,2.2-2.8,3
		c-1.1,0.7-2.4,1.1-3.8,1.1c-1.5,0-2.9-0.5-4.1-1.4c-1.1-0.9-1.9-2.2-2.3-3.5h-0.1V104h17.5V105.4z"/>
	<path class="st0" d="M171.2,88.9c0.4,0.9,0.9,1.6,1.6,2.2c0.6,0.5,1.5,0.8,2.3,0.8c0.9,0,1.7-0.3,2.4-0.8c0.7-0.6,1.3-1.4,1.6-2.2
		c0.5-1.1,0.8-2.2,0.9-3.3c0.2-1.4,0.3-2.8,0.3-4.2c0-1.4-0.1-2.8-0.3-4.2c-0.2-1.2-0.5-2.3-1-3.4c-0.4-0.9-0.9-1.6-1.7-2.2
		c-1.3-1.1-3.3-1.1-4.6,0c-0.7,0.6-1.3,1.4-1.6,2.2c-0.5,1.1-0.8,2.2-0.9,3.4c-0.2,1.4-0.3,2.8-0.3,4.2c0,1.4,0.1,2.8,0.3,4.2
		C170.4,86.7,170.7,87.8,171.2,88.9z"/>
	<path class="st0" d="M197.6,88.9c0.4,0.9,1,1.6,1.7,2.2c1.4,1.1,3.3,1.1,4.6,0c0.7-0.6,1.2-1.4,1.6-2.2c0.5-1.1,0.8-2.2,0.9-3.4
		c0.2-1.4,0.3-2.8,0.3-4.2c0-1.4-0.1-2.8-0.3-4.1c-0.2-1.2-0.5-2.3-0.9-3.4c-0.4-0.9-0.9-1.6-1.6-2.2c-0.7-0.6-1.5-0.8-2.3-0.8
		c-0.9,0-1.7,0.3-2.3,0.8c-0.7,0.6-1.3,1.4-1.7,2.2c-0.5,1.1-0.8,2.2-1,3.4c-0.2,1.4-0.3,2.8-0.3,4.1c0,1.4,0.1,2.8,0.3,4.2
		C196.7,86.7,197.1,87.8,197.6,88.9z"/>
	<path class="st0" d="M100.2,88.9c0.4,0.9,1,1.6,1.7,2.2c0.7,0.5,1.5,0.8,2.3,0.8c0.9,0,1.7-0.3,2.3-0.8c0.7-0.6,1.2-1.4,1.6-2.2
		c0.5-1.1,0.8-2.2,0.9-3.3c0.2-1.4,0.3-2.8,0.3-4.2c0-1.4-0.1-2.8-0.3-4.2c-0.2-1.2-0.5-2.3-0.9-3.4c-0.4-0.9-0.9-1.6-1.6-2.2
		c-1.4-1.1-3.3-1.1-4.6,0c-0.7,0.6-1.3,1.4-1.7,2.2c-0.5,1.1-0.8,2.2-1,3.4c-0.2,1.4-0.3,2.8-0.3,4.2c0,1.4,0.1,2.8,0.3,4.2
		C99.4,86.7,99.7,87.8,100.2,88.9z"/>
</g>
</svg>
