<svg id="Layer_1" data-name="Layer 1" xmlns="http://www.w3.org/2000/svg" width="38" height="58.03834" viewBox="0 0 38 58.03834">
  <defs>
    <style>
      .cls-1 {
        fill: #fff;
        fill-rule: evenodd;
      }
    </style>
  </defs>
  <title>zandloper</title>
  <path class="cls-1" d="M31,28a5.321,5.321,0,0,1,4.622-5.22609l1.10987-.13873a127.77246,127.77246,0,0,1,26.53634,0l1.10987.13873A5.328,5.328,0,0,1,69,28c0,8.94747-2.75972,13.13078-9.25472,17.82317-3.0545,2.27407-3.87823,3.30305-3.87823,5.22575s.82373,2.95169,3.84365,5.2004C66.23849,60.96578,69,65.12983,69,74a5.321,5.321,0,0,1-4.622,5.22609l-.11411.01427a137.39978,137.39978,0,0,1-28.52786,0l-.11411-.01427A5.328,5.328,0,0,1,31,74c0-8.87017,2.7615-13.03422,9.2893-17.75068.03861-.033.03861-.033.16891-.13483C43.41347,53.80641,44.133,52.862,44.133,50.95108c0-1.9227-.82373-2.95169-3.87823-5.22576C33.7615,41.03422,31,36.87017,31,28ZM47.133,50.95108c0,3.91389-2.5896,5.773-5.08671,7.72994C38.25433,61.42074,34,64.6497,34,74a2.32934,2.32934,0,0,0,1.99406,2.24926l.11411.01426a134.51809,134.51809,0,0,0,27.78366,0l.11411-.01426A2.32207,2.32207,0,0,0,66,74c0-9.3503-4.25433-12.57926-8.04624-15.319-2.49711-1.8591-5.08671-3.816-5.08671-7.6321s2.5896-5.773,5.08671-7.63209C61.74567,40.6771,66,37.44814,66,28a2.32933,2.32933,0,0,0-1.99406-2.24926L62.89607,25.612a124.892,124.892,0,0,0-25.79214,0l-1.10987.13873A2.32206,2.32206,0,0,0,34,28c0,9.35029,4.25433,12.57926,8.04624,15.319C44.54335,45.17808,47.133,47.135,47.133,50.95108ZM62.033,35.02064a.793.793,0,0,1,.6539,1.08928,5.46457,5.46457,0,0,1-.26359.66335c-1.353,2.77227-2.94128,3.75956-5.62007,5.695-4.25869,3.17035-5.91541,5.23987-5.78246,9.2043-.0191.42915-.00044.01008-.00044.01008a.992.992,0,0,1-.99956.98992,1.00715,1.00715,0,0,1-.99956-.98992s.01866.41907-.00044-.01008c.133-3.96443-1.52376-6.03395-5.78246-9.2043-2.67879-1.93548-4.26706-2.92277-5.62007-5.695a5.46648,5.46648,0,0,1-.26359-.66335.79518.79518,0,0,1,.65391-1.08928l2.8073-.43189a72.58753,72.58753,0,0,1,18.40983,0Z" transform="translate(-31 -21.94441)"/>
</svg>
