<svg xmlns="http://www.w3.org/2000/svg" width="160" height="160" viewBox="0 0 160 160"><g transform="translate(-978 -558)"><rect width="160" height="160" transform="translate(978 558)" fill="#fff"/><g transform="translate(988 568)" fill="none" stroke="#281b16" stroke-width="10"><rect width="140" height="140" stroke="none"/><rect x="5" y="5" width="130" height="130" fill="none"/></g><g transform="translate(1015 598)"><g transform="translate(0 62.671)"><path d="M.433,719.188l10.473-18.14,10.473,18.14Z" transform="translate(-0.394 -701.003)" fill="#281b16"/><path d="M10.512,700.637,20.946,718.71H.077l10.434-18.072m0-.089L0,718.754H21.023Z" transform="translate(0 -700.548)" fill="#281b16"/></g><g transform="translate(13.195 62.671)"><path d="M147.933,700.8h20.946l-10.473,18.14Z" transform="translate(-147.894 -700.775)" fill="#281b16"/><path d="M168.446,700.593l-10.434,18.072-10.434-18.072h20.868m.077-.045H147.5l10.512,18.207Z" transform="translate(-147.5 -700.548)" fill="#281b16"/></g><g transform="translate(52.782 41.781)"><path d="M590.433,467.282h20.946l-10.473,18.139Z" transform="translate(-590.394 -467.26)" fill="#281b16"/><path d="M610.946,467.077l-10.434,18.072-10.434-18.072h20.868m.077-.045H590l10.512,18.207Z" transform="translate(-590 -467.032)" fill="#281b16"/></g><g transform="translate(13.195 41.781)"><path d="M147.933,485.671l10.473-18.139,10.473,18.139Z" transform="translate(-147.894 -467.487)" fill="#281b16"/><path d="M158.012,467.121l10.434,18.072H147.577l10.434-18.072m0-.089L147.5,485.239h21.023Z" transform="translate(-147.5 -467.032)" fill="#281b16"/></g><g transform="translate(52.782 20.89)"><path d="M590.433,252.155l10.473-18.139,10.473,18.139Z" transform="translate(-590.394 -233.971)" fill="#281b16"/><path d="M600.512,233.605l10.434,18.072H590.077l10.434-18.072m0-.089L590,251.722h21.023Z" transform="translate(-590 -233.516)" fill="#281b16"/></g><g transform="translate(39.586 41.781)"><path d="M442.933,485.671l10.473-18.139,10.473,18.139Z" transform="translate(-442.894 -467.487)" fill="#281b16"/><path d="M453.012,467.121l10.434,18.072H442.577l10.434-18.072m0-.089L442.5,485.239h21.023Z" transform="translate(-442.5 -467.032)" fill="#281b16"/></g><g transform="translate(26.391 41.781)"><path d="M295.433,467.282h20.946l-10.473,18.139Z" transform="translate(-295.394 -467.26)" fill="#281b16"/><path d="M315.946,467.077l-10.434,18.072-10.434-18.072h20.868m.077-.045H295l10.512,18.207Z" transform="translate(-295 -467.032)" fill="#281b16"/></g><g transform="translate(26.391 20.89)"><path d="M295.433,252.155l10.473-18.139,10.473,18.139Z" transform="translate(-295.394 -233.971)" fill="#281b16"/><path d="M305.512,233.605l10.434,18.072H295.077l10.434-18.072m0-.089L295,251.722h21.023Z" transform="translate(-295 -233.516)" fill="#281b16"/></g><g transform="translate(39.586 20.89)"><path d="M442.933,233.766h20.946l-10.473,18.139Z" transform="translate(-442.894 -233.744)" fill="#281b16"/><path d="M463.446,233.561l-10.434,18.072-10.434-18.072h20.868m.078-.045H442.5l10.512,18.207Z" transform="translate(-442.5 -233.516)" fill="#281b16"/></g><g transform="translate(65.977)"><path d="M737.933,18.639,748.406.5l10.473,18.139Z" transform="translate(-737.894 -0.455)" fill="#281b16"/><path d="M748.012.089l10.434,18.072H737.578L748.012.089m0-.089L737.5,18.207h21.023Z" transform="translate(-737.5)" fill="#281b16"/></g><g transform="translate(39.586)"><path d="M442.933,18.639,453.406.5l10.473,18.139Z" transform="translate(-442.894 -0.455)" fill="#281b16"/><path d="M453.012.089l10.434,18.072H442.577L453.012.089m0-.089L442.5,18.207h21.023Z" transform="translate(-442.5)" fill="#281b16"/></g><g transform="translate(52.782)"><path d="M590.433.25h20.946L600.906,18.389Z" transform="translate(-590.394 -0.228)" fill="#281b16"/><path d="M610.946.045,600.512,18.117,590.077.045h20.868M611.023,0H590l10.512,18.207Z" transform="translate(-590)" fill="#281b16"/></g></g></g></svg>