<?xml version="1.0" encoding="utf-8"?>
<!-- Generator: Adobe Illustrator 24.2.3, SVG Export Plug-In . SVG Version: 6.00 Build 0)  -->
<svg version="1.1" id="Layer_1" xmlns="http://www.w3.org/2000/svg" xmlns:xlink="http://www.w3.org/1999/xlink" x="0px" y="0px"
	 viewBox="0 0 160 160" style="enable-background:new 0 0 160 160;" xml:space="preserve">
<style type="text/css">
	.st0{fill:#FFE000;}
	.st1{fill:none;}
	.st2{fill:none;stroke:#281B16;stroke-width:10;}
	.st3{fill:#281B16;}
</style>
<g transform="translate(-978 -558)">
	<rect x="978" y="558" class="st0" width="160" height="160"/>
	<g transform="translate(988 568)">
		<rect y="0" class="st1" width="140" height="140"/>
		<rect x="5" y="5" class="st2" width="130" height="130"/>
	</g>
	<g transform="translate(1015 598)">
		<g transform="translate(0 62.671)">
			<path class="st3" d="M0,18.2L10.5,0L21,18.2H0z"/>
			<path class="st3" d="M10.5,0.1l10.4,18.1H0.1L10.5,0.1 M10.5,0L0,18.2h21L10.5,0z"/>
		</g>
		<g transform="translate(13.195 62.671)">
			<path class="st3" d="M0,0H21L10.5,18.2L0,0z"/>
			<path class="st3" d="M20.9,0L10.5,18.1L0.1,0H20.9 M21,0H0l10.5,18.2L21,0z"/>
		</g>
		<g transform="translate(52.782 41.781)">
			<path class="st3" d="M0,0H21L10.5,18.2L0,0z"/>
			<path class="st3" d="M20.9,0L10.5,18.1L0.1,0H20.9 M21,0H0l10.5,18.2L21,0z"/>
		</g>
		<g transform="translate(13.195 41.781)">
			<path class="st3" d="M0,18.2L10.5,0L21,18.2H0z"/>
			<path class="st3" d="M10.5,0.1l10.4,18.1H0.1L10.5,0.1 M10.5,0L0,18.2h21L10.5,0z"/>
		</g>
		<g transform="translate(52.782 20.89)">
			<path class="st3" d="M0,18.2L10.5,0L21,18.2H0z"/>
			<path class="st3" d="M10.5,0.1l10.4,18.1H0.1L10.5,0.1 M10.5,0L0,18.2h21L10.5,0z"/>
		</g>
		<g transform="translate(39.586 41.781)">
			<path class="st3" d="M0,18.2L10.5,0L21,18.2H0z"/>
			<path class="st3" d="M10.5,0.1l10.4,18.1H0.1L10.5,0.1 M10.5,0L0,18.2h21L10.5,0z"/>
		</g>
		<g transform="translate(26.391 41.781)">
			<path class="st3" d="M0,0H21L10.5,18.2L0,0z"/>
			<path class="st3" d="M20.9,0L10.5,18.1L0.1,0H20.9 M21,0H0l10.5,18.2L21,0z"/>
		</g>
		<g transform="translate(26.391 20.89)">
			<path class="st3" d="M0,18.2L10.5,0L21,18.2H0z"/>
			<path class="st3" d="M10.5,0.1l10.4,18.1H0.1L10.5,0.1 M10.5,0L0,18.2h21L10.5,0z"/>
		</g>
		<g transform="translate(39.586 20.89)">
			<path class="st3" d="M0,0H21L10.5,18.2L0,0z"/>
			<path class="st3" d="M20.9,0L10.5,18.1L0.1,0H20.9 M21,0H0l10.5,18.2L21,0z"/>
		</g>
		<g transform="translate(65.977)">
			<path class="st3" d="M0,18.2L10.5,0L21,18.2H0z"/>
			<path class="st3" d="M10.5,0.1l10.4,18.1H0.1L10.5,0.1 M10.5,0L0,18.2h21L10.5,0z"/>
		</g>
		<g transform="translate(39.586)">
			<path class="st3" d="M0,18.2L10.5,0L21,18.2H0z"/>
			<path class="st3" d="M10.5,0.1l10.4,18.1H0.1L10.5,0.1 M10.5,0L0,18.2h21L10.5,0z"/>
		</g>
		<g transform="translate(52.782)">
			<path class="st3" d="M0,0H21L10.5,18.2L0,0z"/>
			<path class="st3" d="M20.9,0L10.5,18.1L0.1,0H20.9 M21,0H0l10.5,18.2L21,0z"/>
		</g>
	</g>
</g>
</svg>
