<svg xmlns="http://www.w3.org/2000/svg" width="972.5" height="904.06396" viewBox="0 0 972.5 904.06396">
  <defs>
    <style>
      .cls-1 {
        fill: #fff;
      }
    </style>
  </defs>
  <g id="Layer_2" data-name="Layer 2">
    <g id="Layer_5" data-name="Layer 5">
      <g>
        <g>
          <polygon class="cls-1" points="0.433 903.814 117.5 701.048 234.567 903.814 0.433 903.814"/>
          <path d="M117.5,701.54785,234.134,903.564H.866L117.5,701.54785m0-1L0,904.064H235L117.5,700.54785Z"/>
        </g>
        <g>
          <polygon class="cls-1" points="147.933 700.798 382.067 700.798 265 903.564 147.933 700.798"/>
          <path d="M381.634,701.04785,265,903.064,148.366,701.04785H381.634m.866-.5h-235L265,904.064,382.5,700.54785Z"/>
        </g>
        <g>
          <polygon class="cls-1" points="590.433 467.282 824.567 467.282 707.5 670.048 590.433 467.282"/>
          <path d="M824.134,467.532,707.5,669.54785,590.866,467.532H824.134m.866-.5H590L707.5,670.54785,825,467.032Z"/>
        </g>
        <g>
          <polygon class="cls-1" points="147.933 670.298 265 467.532 382.067 670.298 147.933 670.298"/>
          <path d="M265,468.032,381.634,670.04785H148.366L265,468.032m0-1L147.5,670.54785h235L265,467.032Z"/>
        </g>
        <g>
          <polygon class="cls-1" points="590.433 436.782 707.5 234.016 824.567 436.782 590.433 436.782"/>
          <path d="M707.5,234.51587,824.134,436.532H590.866L707.5,234.51587m0-1L590,437.032H825L707.5,233.51587Z"/>
        </g>
        <g>
          <polygon class="cls-1" points="442.933 670.298 560 467.532 677.067 670.298 442.933 670.298"/>
          <path d="M560,468.032,676.634,670.04785H443.366L560,468.032m0-1L442.5,670.54785h235L560,467.032Z"/>
        </g>
        <g>
          <polygon class="cls-1" points="295.433 467.282 529.567 467.282 412.5 670.048 295.433 467.282"/>
          <path d="M529.134,467.532,412.5,669.54785,295.866,467.532H529.134m.866-.5H295L412.5,670.54785,530,467.032Z"/>
        </g>
        <g>
          <polygon class="cls-1" points="295.433 436.782 412.5 234.016 529.567 436.782 295.433 436.782"/>
          <path d="M412.5,234.51587,529.134,436.532H295.866L412.5,234.51587m0-1L295,437.032H530L412.5,233.51587Z"/>
        </g>
        <g>
          <polygon class="cls-1" points="442.933 233.766 677.067 233.766 560 436.532 442.933 233.766"/>
          <path d="M676.634,234.01587,560,436.032,443.366,234.01587H676.634m.866-.5h-235L560,437.032,677.5,233.51587Z"/>
        </g>
        <g>
          <polygon class="cls-1" points="737.933 203.266 855 0.5 972.067 203.266 737.933 203.266"/>
          <path d="M855,1,971.634,203.01587H738.366L855,1m0-1L737.5,203.51587h235L855,0Z"/>
        </g>
        <g>
          <polygon class="cls-1" points="442.933 203.266 560 0.5 677.067 203.266 442.933 203.266"/>
          <path d="M560,1,676.634,203.01587H443.366L560,1m0-1L442.5,203.51587h235L560,0Z"/>
        </g>
        <g>
          <polygon class="cls-1" points="590.433 0.25 824.567 0.25 707.5 203.016 590.433 0.25"/>
          <path d="M824.134.5,707.5,202.51587,590.866.5H824.134M825,0H590L707.5,203.51587,825,0Z"/>
        </g>
      </g>
    </g>
  </g>
</svg>
