<?xml version="1.0" encoding="utf-8"?>
<!-- Generator: Adobe Illustrator 24.2.3, SVG Export Plug-In . SVG Version: 6.00 Build 0)  -->
<svg version="1.1" id="Layer_1" xmlns="http://www.w3.org/2000/svg" xmlns:xlink="http://www.w3.org/1999/xlink" x="0px" y="0px"
	 viewBox="0 0 159 160" style="enable-background:new 0 0 159 160;" xml:space="preserve">
<style type="text/css">
	.st0{fill:#FFE000;}
	.st1{fill:none;}
	.st2{fill:none;stroke:#281B16;stroke-width:10;}
	.st3{fill:#281B16;}
</style>
<g transform="translate(-588 -558)">
	<rect x="588" y="558" class="st0" width="159" height="160"/>
	<g transform="translate(598 568)">
		<rect y="0" class="st1" width="140" height="140"/>
		<rect x="5" y="5" class="st2" width="130" height="130"/>
	</g>
	<g transform="translate(632 598)">
		<g transform="translate(25.018 41.729)">
			<path class="st3" d="M0,0H21L10.5,18.1L0,0z"/>
			<path class="st3" d="M20.9,0L10.5,18.1L0.1,0L20.9,0 M21,0H0l10.5,18.2L21,0z"/>
		</g>
		<g transform="translate(13.179 62.594)">
			<path class="st3" d="M0,0H21L10.5,18.1L0,0z"/>
			<path class="st3" d="M20.9,0l-10.4,18L0.1,0H20.9 M21,0H0l10.5,18.2L21,0z"/>
		</g>
		<g transform="translate(36.857 62.594)">
			<path class="st3" d="M0,0H21L10.5,18.1L0,0z"/>
			<path class="st3" d="M20.9,0l-10.4,18L0.1,0H20.9 M21,0H0l10.5,18.2L21,0z"/>
		</g>
		<g transform="translate(11.839 41.729)">
			<path class="st3" d="M0,18.2L10.5,0L21,18.2H0z"/>
			<path class="st3" d="M10.5,0.1l10.4,18H0.1L10.5,0.1 M10.5,0L0,18.2h21L10.5,0z"/>
		</g>
		<g transform="translate(0 62.594)">
			<path class="st3" d="M0,18.2L10.5,0L21,18.2H0z"/>
			<path class="st3" d="M10.5,0.1l10.4,18H0.1L10.5,0.1 M10.5,0L0,18.2h21L10.5,0L10.5,0z"/>
		</g>
		<g transform="translate(38.197 41.729)">
			<path class="st3" d="M0,18.2L10.5,0L21,18.2H0z"/>
			<path class="st3" d="M10.5,0.1l10.4,18H0.1L10.5,0.1 M10.5,0L0,18.2h21L10.5,0z"/>
		</g>
		<g transform="translate(50.036 62.594)">
			<path class="st3" d="M0,18.2L10.5,0L21,18.2H0z"/>
			<path class="st3" d="M10.5,0.1l10.4,18H0.1L10.5,0.1 M10.5,0L0,18.2h21L10.5,0z"/>
		</g>
		<g transform="translate(25.018 20.865)">
			<path class="st3" d="M0,18.2L10.5,0L21,18.2H0z"/>
			<path class="st3" d="M10.5,0.1l10.4,18.1H0.1L10.5,0.1 M10.5,0L0,18.2h21L10.5,0L10.5,0z"/>
		</g>
		<g transform="translate(36.857 0)">
			<path class="st3" d="M0,18.2L10.5,0L21,18.2H0z"/>
			<path class="st3" d="M10.5,0.1l10.4,18H0.1L10.5,0.1 M10.5,0L0,18.2h21L10.5,0z"/>
		</g>
		<g transform="translate(13.179 0)">
			<path class="st3" d="M0,18.2L10.5,0L21,18.2H0z"/>
			<path class="st3" d="M10.5,0.1l10.4,18H0.1L10.5,0.1 M10.5,0L0,18.2h21L10.5,0z"/>
		</g>
		<g transform="translate(38.197 20.865)">
			<path class="st3" d="M0,0H21L10.5,18.1L0,0z"/>
			<path class="st3" d="M0.1,0h20.8l-10.4,18L0.1,0 M0,0l10.5,18.2L21,0H0z"/>
		</g>
		<g transform="translate(50.036 0)">
			<path class="st3" d="M0,0H21L10.5,18.1L0,0z"/>
			<path class="st3" d="M0.1,0h20.8L10.5,18.1L0.1,0 M0,0l10.5,18.2L21,0H0z"/>
		</g>
		<g transform="translate(11.839 20.865)">
			<path class="st3" d="M0,0H21L10.5,18.1L0,0z"/>
			<path class="st3" d="M0.1,0h20.8l-10.4,18L0.1,0 M0,0l10.5,18.2L21,0H0z"/>
		</g>
		<g transform="translate(0)">
			<path class="st3" d="M0,0H21L10.5,18.1L0,0z"/>
			<path class="st3" d="M0.1,0h20.8l-10.4,18L0.1,0 M0,0l10.5,18.2L21,0H0z"/>
		</g>
	</g>
</g>
</svg>
