<svg xmlns="http://www.w3.org/2000/svg" width="159" height="160" viewBox="0 0 159 160"><g transform="translate(-588 -558)"><rect width="159" height="160" transform="translate(588 558)" fill="#fff"/><g transform="translate(598 568)" fill="none" stroke="#281b16" stroke-width="10"><rect width="140" height="140" stroke="none"/><rect x="5" y="5" width="130" height="130" fill="none"/></g><g transform="translate(632 598)"><g transform="translate(25.018 41.729)"><path d="M280.433,467.282h20.92L290.893,485.4Z" transform="translate(-280.394 -467.26)" fill="#281b16"/><path d="M300.92,467.077,290.5,485.127l-10.421-18.05H300.92m.077-.045H280l10.5,18.184Z" transform="translate(-280 -467.032)" fill="#281b16"/></g><g transform="translate(13.179 62.594)"><path d="M147.933,700.8h20.92l-10.46,18.117Z" transform="translate(-147.894 -700.776)" fill="#281b16"/><path d="M168.42,700.593,158,718.643l-10.421-18.05H168.42m.077-.045h-21L158,718.732Z" transform="translate(-147.5 -700.548)" fill="#281b16"/></g><g transform="translate(36.857 62.594)"><path d="M412.933,700.8h20.92l-10.46,18.117Z" transform="translate(-412.894 -700.776)" fill="#281b16"/><path d="M433.42,700.593,423,718.643l-10.421-18.05H433.42m.077-.045h-21L423,718.732Z" transform="translate(-412.5 -700.548)" fill="#281b16"/></g><g transform="translate(11.839 41.729)"><path d="M132.933,485.649l10.46-18.117,10.46,18.117Z" transform="translate(-132.894 -467.487)" fill="#281b16"/><path d="M143,467.121l10.421,18.05H132.577L143,467.121m0-.089-10.5,18.184h21Z" transform="translate(-132.5 -467.032)" fill="#281b16"/></g><g transform="translate(0 62.594)"><path d="M.433,719.165l10.46-18.117,10.46,18.117Z" transform="translate(-0.394 -701.003)" fill="#281b16"/><path d="M10.5,700.637l10.421,18.05H.077L10.5,700.637m0-.089L0,718.732H21L10.5,700.548Z" transform="translate(0 -700.548)" fill="#281b16"/></g><g transform="translate(38.197 41.729)"><path d="M427.933,485.649l10.46-18.117,10.46,18.117Z" transform="translate(-427.894 -467.487)" fill="#281b16"/><path d="M438,467.121l10.421,18.05H427.577L438,467.121m0-.089-10.5,18.184h21Z" transform="translate(-427.5 -467.032)" fill="#281b16"/></g><g transform="translate(50.036 62.594)"><path d="M560.433,719.165l10.46-18.117,10.46,18.117Z" transform="translate(-560.394 -701.003)" fill="#281b16"/><path d="M570.5,700.638l10.421,18.05H560.077l10.421-18.05m0-.089L560,718.732h21Z" transform="translate(-560 -700.548)" fill="#281b16"/></g><g transform="translate(25.018 20.865)"><path d="M280.433,252.133l10.46-18.117,10.46,18.117Z" transform="translate(-280.394 -233.971)" fill="#281b16"/><path d="M290.5,233.606l10.421,18.05H280.077l10.421-18.05m0-.089L280,251.7h21l-10.5-18.184Z" transform="translate(-280 -233.516)" fill="#281b16"/></g><g transform="translate(36.857 0)"><path d="M412.933,18.617,423.393.5l10.46,18.117Z" transform="translate(-412.894 -0.455)" fill="#281b16"/><path d="M423,.09,433.42,18.14H412.578L423,.09M423,0,412.5,18.184h21Z" transform="translate(-412.5 0)" fill="#281b16"/></g><g transform="translate(13.179 0)"><path d="M147.933,18.617,158.393.5l10.46,18.117Z" transform="translate(-147.894 -0.455)" fill="#281b16"/><path d="M158,.09,168.42,18.14H147.577L158,.09M158,0,147.5,18.184h21L158,0Z" transform="translate(-147.5 0)" fill="#281b16"/></g><g transform="translate(38.197 20.865)"><path d="M427.933,233.766h20.92l-10.46,18.117Z" transform="translate(-427.894 -233.744)" fill="#281b16"/><path d="M427.578,233.561H448.42L438,251.611l-10.421-18.05m-.077-.045L438,251.7l10.5-18.184Z" transform="translate(-427.5 -233.516)" fill="#281b16"/></g><g transform="translate(50.036 0)"><path d="M560.433.25h20.92l-10.46,18.117Z" transform="translate(-560.394 -0.228)" fill="#281b16"/><path d="M560.078.045H580.92L570.5,18.1,560.078.045M560,0l10.5,18.184L581,0H560Z" transform="translate(-560 0)" fill="#281b16"/></g><g transform="translate(11.839 20.865)"><path d="M132.933,233.766h20.92l-10.46,18.117Z" transform="translate(-132.894 -233.744)" fill="#281b16"/><path d="M132.578,233.561H153.42L143,251.611l-10.421-18.05m-.077-.045L143,251.7l10.5-18.184Z" transform="translate(-132.5 -233.516)" fill="#281b16"/></g><g transform="translate(0)"><path d="M.433.25h20.92L10.893,18.367Z" transform="translate(-0.394 -0.228)" fill="#281b16"/><path d="M.077.045H20.92L10.5,18.095.077.045M0,0,10.5,18.184,21,0Z" transform="translate(0)" fill="#281b16"/></g></g></g></svg>