<svg xmlns="http://www.w3.org/2000/svg" width="795.00024" height="904.06424" viewBox="0 0 795.00024 904.06424">
  <defs>
    <style>
      .cls-1 {
        fill: #fff;
      }
    </style>
  </defs>
  <g id="Layer_2" data-name="Layer 2">
    <g id="Layer_5" data-name="Layer 5">
      <g>
        <g>
          <polygon class="cls-1" points="280.433 467.282 514.567 467.282 397.5 670.048 280.433 467.282"/>
          <path d="M514.13416,467.5321l-116.634,202.016-116.634-202.016H514.13416m.866-.5h-235l117.5,203.516,117.5-203.516Z"/>
        </g>
        <g>
          <polygon class="cls-1" points="147.933 700.798 382.067 700.798 265 903.564 147.933 700.798"/>
          <path d="M381.634,701.048,265,903.064,148.366,701.048H381.634m.866-.5h-235L265,904.064,382.5,700.548Z"/>
        </g>
        <g>
          <polygon class="cls-1" points="412.933 700.798 647.067 700.798 530 903.564 412.933 700.798"/>
          <path d="M646.63416,701.0481l-116.634,202.016-116.634-202.016H646.63416m.866-.5h-235l117.5,203.516,117.5-203.516Z"/>
        </g>
        <g>
          <polygon class="cls-1" points="132.933 670.298 250 467.532 367.067 670.298 132.933 670.298"/>
          <path d="M250.00012,468.0321,366.634,670.04819,133.366,670.048,250.00012,468.0321m0-1L132.5,670.548l235,.00019L250.00012,467.0321Z"/>
        </g>
        <g>
          <polygon class="cls-1" points="0.433 903.814 117.5 701.048 234.567 903.814 0.433 903.814"/>
          <path d="M117.50012,701.54791,234.134,903.564.866,903.56381l116.63415-202.0159m0-1L0,904.06381l235,.00019L117.50012,700.54794Z"/>
        </g>
        <g>
          <polygon class="cls-1" points="427.933 670.298 545 467.532 662.067 670.298 427.933 670.298"/>
          <path d="M545.00012,468.0321,661.634,670.04819,428.366,670.048,545.00012,468.0321m0-1L427.5,670.548l235,.00019L545.00012,467.0321Z"/>
        </g>
        <g>
          <polygon class="cls-1" points="560.433 903.814 677.5 701.048 794.567 903.814 560.433 903.814"/>
          <path d="M677.50024,701.54816,794.13416,903.56424l-233.26807-.00018,116.63415-202.0159m0-1L560.00012,904.06406l235,.00018L677.50024,700.54819Z"/>
        </g>
        <g>
          <polygon class="cls-1" points="280.433 436.782 397.5 234.016 514.567 436.782 280.433 436.782"/>
          <path d="M397.50012,234.51617l116.634,202.01593H280.86609l116.634-202.01593m0-1-117.5,203.51593h235l-117.5-203.51593Z"/>
        </g>
        <g>
          <polygon class="cls-1" points="412.933 203.266 530 0.5 647.067 203.266 412.933 203.266"/>
          <path d="M530.00024,1.00024l116.634,202.016H413.36621l116.634-202.016m0-1-117.5,203.516h235l-117.5-203.516Z"/>
        </g>
        <g>
          <polygon class="cls-1" points="147.933 203.266 265 0.5 382.067 203.266 147.933 203.266"/>
          <path d="M265.00012,1.00024l116.634,202.01593H148.36609L265.00012,1.00024m0-1-117.5,203.51593h235L265.00012.00024Z"/>
        </g>
        <g>
          <polygon class="cls-1" points="427.933 233.766 662.067 233.766 545 436.532 427.933 233.766"/>
          <path d="M428.36621,234.01605l233.26807.00019L545.00012,436.0321l-116.63391-202.016m-.866-.5L545.00012,437.0321,662.50024,233.51624l-235-.00019Z"/>
        </g>
        <g>
          <polygon class="cls-1" points="560.433 0.25 794.567 0.25 677.5 203.016 560.433 0.25"/>
          <path d="M560.86621.50024,794.13428.50049,677.50012,202.5163,560.86621.50024m-.866-.5L677.50012,203.5163,795.00024.00049l-235-.00025Z"/>
        </g>
        <g>
          <polygon class="cls-1" points="132.933 233.766 367.067 233.766 250 436.532 132.933 233.766"/>
          <path d="M133.36621,234.01605l233.26807.00019L250.00012,436.0321l-116.63391-202.016m-.866-.5L250.00012,437.0321,367.50024,233.51624l-235-.00019Z"/>
        </g>
        <g>
          <polygon class="cls-1" points="0.433 0.25 234.567 0.25 117.5 203.016 0.433 0.25"/>
          <path d="M.86609.5,234.13416.50024,117.5,202.51605.86609.5M.00012,0,117.5,203.51605,235.00012.00024.00012,0Z"/>
        </g>
      </g>
    </g>
  </g>
</svg>
