<svg xmlns="http://www.w3.org/2000/svg" width="24.05" height="24.05" viewBox="0 0 24.05 24.05">
  <defs>
    <style>
      .cls-1 {
        fill: #d31338;
      }
    </style>
  </defs>
  <g id="Layer_2" data-name="Layer 2">
    <g id="Layer_1-2" data-name="Layer 1">
      <g>
        <path class="cls-1" d="M3.525,20.525a12.02082,12.02082,0,1,1,17,0A12.01073,12.01073,0,0,1,3.525,20.525Zm15.6-15.6a10.04092,10.04092,0,0,0-14.2,14.2,9.95848,9.95848,0,0,0,14.1,0A10.17332,10.17332,0,0,0,19.125,4.925Z"/>
        <path class="cls-1" d="M16.225,17.725l-9.9-9.9a.98995.98995,0,0,1,1.4-1.4l9.9,9.9a.98995.98995,0,0,1-1.4,1.4Z"/>
        <path class="cls-1" d="M6.325,17.725a.96667.96667,0,0,1,0-1.4l9.9-9.9a.98995.98995,0,0,1,1.4,1.4l-9.9,9.9A.96505.96505,0,0,1,6.325,17.725Z"/>
      </g>
    </g>
  </g>
</svg>
