<svg xmlns="http://www.w3.org/2000/svg" width="24" height="24" viewBox="0 0 24 24">
  <defs>
    <style>
      .cls-1 {
        fill: #12d624;
      }
    </style>
  </defs>
  <g id="Layer_2" data-name="Layer 2">
    <g id="Layer_1-2" data-name="Layer 1">
      <g>
        <path class="cls-1" d="M12,24A12,12,0,1,1,24,12,12.03528,12.03528,0,0,1,12,24ZM12,2A10,10,0,1,0,22,12,10.0294,10.0294,0,0,0,12,2Z"/>
        <path class="cls-1" d="M10,17a.90783.90783,0,0,1-.7-.3l-4-4a.9663.9663,0,0,1,.1-1.4,1.05139,1.05139,0,0,1,1.3,0L10,14.6l7.3-7.3a.9663.9663,0,0,1,1.4.1,1.05139,1.05139,0,0,1,0,1.3l-8,8A.90783.90783,0,0,1,10,17Z"/>
      </g>
    </g>
  </g>
</svg>
