<?xml version="1.0" encoding="utf-8"?>
<!-- Generator: Adobe Illustrator 25.0.0, SVG Export Plug-In . SVG Version: 6.00 Build 0)  -->
<svg version="1.1" id="Layer_1" xmlns="http://www.w3.org/2000/svg" xmlns:xlink="http://www.w3.org/1999/xlink" x="0px" y="0px"
	 viewBox="0 0 38 58" style="enable-background:new 0 0 38 58;" xml:space="preserve">
<style type="text/css">
	.st0{fill-rule:evenodd;clip-rule:evenodd;}
</style>
<path class="st0" d="M0,6.1c0-2.6,2-4.9,4.6-5.2l1.1-0.1c8.8-0.9,17.7-0.9,26.5,0l1.1,0.1C36,1.2,38,3.4,38,6.1
	c0,8.9-2.8,13.1-9.3,17.8c-3.1,2.3-3.9,3.3-3.9,5.2s0.8,3,3.8,5.2C35.2,39,38,43.2,38,52.1c0,2.6-2,4.9-4.6,5.2l-0.1,0
	c-9.5,1-19,1-28.5,0l-0.1,0C2,56.9,0,54.7,0,52.1c0-8.9,2.8-13,9.3-17.8c0,0,0,0,0.2-0.1c3-2.3,3.7-3.3,3.7-5.2c0-1.9-0.8-3-3.9-5.2
	C2.8,19.1,0,14.9,0,6.1z M16.1,29c0,3.9-2.6,5.8-5.1,7.7c-3.8,2.7-8,6-8,15.3c0,1.1,0.9,2.1,2,2.2l0.1,0c9.2,1,18.5,1,27.8,0l0.1,0
	c1.1-0.2,2-1.1,2-2.2c0-9.4-4.3-12.6-8-15.3c-2.5-1.9-5.1-3.8-5.1-7.6s2.6-5.8,5.1-7.6c3.8-2.7,8-6,8-15.4c0-1.1-0.9-2.1-2-2.2
	l-1.1-0.1c-8.6-0.9-17.2-0.9-25.8,0L5,3.8C3.9,4,3,4.9,3,6.1c0,9.4,4.3,12.6,8,15.3C13.5,23.2,16.1,25.2,16.1,29z M31,13.1
	c0.4,0,0.8,0.4,0.7,0.9c0,0.1,0,0.1-0.1,0.2c-0.1,0.2-0.2,0.4-0.3,0.7c-1.4,2.8-2.9,3.8-5.6,5.7c-4.3,3.2-5.9,5.2-5.8,9.2
	c0,0.4,0,0,0,0c0,0.5-0.4,1-1,1c0,0,0,0,0,0c-0.5,0-1-0.4-1-1c0,0,0,0.4,0,0c0.1-4-1.5-6-5.8-9.2c-2.7-1.9-4.3-2.9-5.6-5.7
	c-0.1-0.2-0.2-0.4-0.3-0.7c-0.2-0.4,0-0.9,0.4-1c0.1,0,0.1,0,0.2-0.1l2.8-0.4c6.1-0.8,12.3-0.8,18.4,0L31,13.1z"/>
</svg>
