<svg xmlns="http://www.w3.org/2000/svg" width="580.69202" height="191.08502" viewBox="0 0 580.69202 191.08502">
  <defs>
    <style>
      .cls-1 {
        fill: #fff;
      }
    </style>
  </defs>
  <g id="Layer_2" data-name="Layer 2">
    <g id="Layer_1-2" data-name="Layer 1">
      <g>
        <path class="cls-1" d="M551.21619,161.941H29.47412V29.474H551.21619Zm-516.85694-1.4h511.9751V30.872H34.359Z"/>
        <path class="cls-1" d="M481.91809,178.895H98.34009l-82.1-28.771V40.995l81.267-28.477H482.75916l.3601.126,81.34107,28.5V149.966l-.36109.126Zm-382.557-.863h381.535l81.1001-28.417V41.508l-80.259-28.124h-383.21L18.696,41.355V149.766Z"/>
        <path class="cls-1" d="M35.468,35.468H17.734A17.734,17.734,0,1,1,35.468,17.734ZM17.734,5.995a11.741,11.741,0,1,0-.017,23.482H29.474V17.737A11.754,11.754,0,0,0,17.734,5.995Z"/>
        <path class="cls-1" d="M562.95813,35.468H545.22522V17.734a17.733,17.733,0,1,1,17.73291,17.734Zm-11.74194-5.994h11.74194a11.741,11.741,0,1,0-11.74194-11.74V29.474Z"/>
        <path class="cls-1" d="M562.95813,191.085a17.754,17.754,0,0,1-17.73291-17.735V155.617h17.73291a17.734,17.734,0,0,1,0,35.468Zm-11.74194-29.475v11.74a11.74194,11.74194,0,1,0,11.74389-11.74H551.21619Z"/>
        <path class="cls-1" d="M17.734,191.085a17.734,17.734,0,0,1,0-35.468H35.468V173.35A17.755,17.755,0,0,1,17.734,191.085Zm0-29.475a11.741,11.741,0,1,0,11.74,11.742v-11.742Z"/>
      </g>
    </g>
  </g>
</svg>
