<svg xmlns="http://www.w3.org/2000/svg" width="215.38166" height="93.31845" viewBox="0 0 215.38166 93.31845">
  <defs>
    <style>
      .cls-1 {
        fill: #fff;
      }
    </style>
  </defs>
  <g id="Layer_2" data-name="Layer 2">
    <g id="OBJECTS">
      <g>
        <path class="cls-1" d="M206.15711,64.90486c-.19708-.02222-.3432.06885-.33618.26349.00848.235.15942.38348.44311.4527.19092-.02253.36249-.1139.357-.33552C206.61463,65.02736,206.39783,64.932,206.15711,64.90486Z"/>
        <path class="cls-1" d="M156.59424,5.86732c.16937.02722.3523.01734.42542-.18658-.0539-.26239-.2967-.29212-.516-.33771-.14606-.03052-.32575-.01239-.34986.14392C156.10974,5.77321,156.36786,5.831,156.59424,5.86732Z"/>
        <path class="cls-1" d="M17.52942,77.49421a.33435.33435,0,0,0-.362.35621c.00922.19232.16944.26263.356.257a.306.306,0,0,0,.31909-.30487C17.81311,77.63411,17.73957,77.48427,17.52942,77.49421Z"/>
        <path class="cls-1" d="M47.77033,90.73408c-.00006-.01092.00067-.022.00079-.033-.00848.00513-.01318.01392-.02246.01831Z"/>
        <path class="cls-1" d="M141.16236,85.92714l.02105-.01868c-.01477-.00092-.02862.0022-.04358.0003Z"/>
        <path class="cls-1" d="M148.3927,85.60334l-.006-.00042-.01806.02142Z"/>
        <path class="cls-1" d="M2.56714,41.47535l.00409-.01068c-.00995-.00262-.01837-.00818-.02838-.01062Z"/>
        <path class="cls-1" d="M215.38166,32.40217c-1.05744-.37243-1.05793-.37353-2.199.11951-.3479.15027-.46271-.13452-.59381-.31464-.1756-.24109.03772-.22558.2207-.3396.478-.29785,1.30469-.2716,1.00122-1.33508-.19153-.67108-.50891-1.31671-.62622-1.971a1.21386,1.21386,0,0,0-1.07861-1.0437,3.98577,3.98577,0,0,0-1.74567-.16418c-.54242.1297-1.10528-.22553-1.04168-.54731.14679-.7434-.59162-1.186-.39441-1.88177-.4076.1153-.48108.38977-.6283.61987-.15881.24829-.4256.60193-.7168.40119-.32464-.22376-.21869-.67981-.10394-1.03217.043-.1319.47382-.05524.30054-.3551-.12622-.2182-.37683-.205-.6109-.13019-.59394.1897-.67389-.21985-.75251-.60394a6.10661,6.10661,0,0,0-.11492-.79529c-.091-.259-.3136-.42078-.58228-.15857-.76221.74378-.7572.74847-1.46332-.05884.61469-.078.61939-.473.582-.91906-.02173-.2594-.10772-.5398.09308-.78772.09479-.11713.30463-.235.15174-.40809-.17884-.20269-.35145-.0451-.518.066a.67922.67922,0,0,1-.85376.01349c.32019-.38537-.21594-.78869.0506-1.20349.34015-.52942.01086-.70141-.501-.632-.43188.0586-.8587.15784-.695.76862a.50869.50869,0,0,1-.35736.59143c-.3648.11505-.23443-.319-.38391-.39075a4.8768,4.8768,0,0,1-1.87921-1.36877c-.08337-.10919-.29431.09466-.44476.163-.71033.32276-1.03443-.28625-1.42206-.608-.48505-.40271.36633-.4115.31683-.739-.20977-.09186-.52929.05389-.66986-.21839-.30066-.582-.76214-.51459-1.29785-.34991a1.59142,1.59142,0,0,1-1.65637-.31476c-.29443-.2655-.7088-.59015-1.13611-.25543-.39331.308-.626.1961-.79993-.15082a.55522.55522,0,0,1,.47724-.77429c.76257.06329.56781-.27967.44568-.68286-.15119-.49952-.02271-.79895.57647-.50873.63605.3081.54731-.1499.50891-.4419a.73417.73417,0,0,0-1.09655-.48468c-.24591.13251-.45893.3191-.69654.46717-.193.1203-.4093.17889-.39557-.1507.02637-.63721-.39483-.393-.7481-.40277-.51941-.01434-.58722.535-.94251.67047-.3363-.24426-.04-.55786-.23193-.85809-.5011.59741-.94415-.10468-1.44769-.0329a6.061,6.061,0,0,0-2.21357.4671c-.47021.26129-.71405-.16913-1.01495-.3869-.20526-.14862-.15594-.33929-.03876-.50739.25617-.36743.51386-.1651.797-.00811.35138.19482.395-.20508.5816-.32569a.25544.25544,0,0,0,.07306-.418.43548.43548,0,0,0-.54706-.07385c-.18512.09717-.35223.19837-.52752.001-.20111-.22681-.03467-.41229.09851-.58a2.95941,2.95941,0,0,1,.41913-.39868.84471.84471,0,0,0-.02735-1.28693c-.27246-.2749-.85925-.71875-1.3573-.07989a3.48432,3.48432,0,0,1-.54669.5133c-.14557.12024-.32458.29718-.50757.079-.17834-.21258-.00195-.322.1897-.43048.22369-.12671.36139-.4519.01978-.4248-.85413.06781-1.27131-.47589-1.80158-.90869a.496.496,0,0,0-.79785.1336c-.173.30969.03961.5072.35773.59943.10882.03149.22308.04626.33069.08056.471.14991.7965.29212.271.80719-.51587.5055-.26691.96582.33331,1.39222.08521-.42859.24878-.76673.66913-.813.47815-.05261.41577.444.63745.65991a5.20437,5.20437,0,0,1,.40162.485c-.1446.33093-.17658.6278-.74817.29223a2.92548,2.92548,0,0,0-3.15479.3031c-.2417.03028-.49567.03107-.73907.058a.9779.9779,0,0,1-.06165-.84888c.08746-.22888.11-.43091-.24432-.46448-.22541-.0213-.3996-.11975-.28479-.37481.10229-.22742.32318-.20972.51422-.1471.32019.1051.628.2439.94336.36285.20141.07605.43884.25495.58294-.04418.10175-.21106-.11761-.33161-.24725-.47107a3.979,3.979,0,0,0-1.841-.92859c-.15918-.05072-.3396-.11023-.36676-.30024-.03119-.21759.15747-.25726.31909-.30908.13843-.04443.2727-.09143.22772-.27362-1.5711-.67419-1.97632-.75659-2.83032-.12231-.7041.52282-1.1145.55194-1.428-.29511-.07245-.19537-.23334-.35919-.45551-.217-.51293.32788-.98437.732-1.68353.53528-.03876-.01093-.124.1524-.19769.22528-.36408.36011-.6731-.03619-.97717-.11121a.42768.42768,0,0,1-.1875-.68865c.58966-.703.412-.82032-.45325-.71143-.86206.10858-.97907.20978-.61456.9693.09759.20318.25927.39862-.01331.56128a.30566.30566,0,0,1-.1167.03515c-.02893.00025-.06067.0094-.09.01093-.14209-.02448-.23-.17963-.32977-.293a2.23247,2.23247,0,0,1-.52868-.72809c-.14441-.4234-.59235-.49951-.7782-.19732a1.67249,1.67249,0,0,1-.17755.24469.9471.9471,0,0,0-.13538-.00849,2.47075,2.47075,0,0,1-.3894-.009,3.96452,3.96452,0,0,0-.31488-.38452,3.07554,3.07554,0,0,1-.08124.31811,5.08389,5.08389,0,0,1-.88117-.313,2.09577,2.09577,0,0,0-1.17767-.18109c-.077-.1579-.228-.28876-.37372-.23a1.77364,1.77364,0,0,1-1.92871-.36243c-.10413-.08221-.377.0318-.57239.05188-.05829.006-.10779.03-.16357.041l-.01776-.01251a.56264.56264,0,0,0-.57318-.10352,4.10514,4.10514,0,0,1-3.25391-.27026c-.3891-.16583-.73126-.09131-.87067.269a1.44684,1.44684,0,0,1-.11206.22632,1.34008,1.34008,0,0,1-.89819-.1756,2.40441,2.40441,0,0,0-1.808-.16663c-.4372.13044-.85291-.12237-1.26252.01966a.37737.37737,0,0,0-.17443.12433c-.20466-.10523-.34589-.23969-.28431-.45691.16315-.57575.78315-.12506,1.205-.1128.17181.005.37524.09394.49072-.05969.16547-.22027-.08618-.32818-.20923-.46216A3.07866,3.07866,0,0,0,152.15,4.588a3.55151,3.55151,0,0,1-3.412-.57819.92231.92231,0,0,0-1.34729-.1499,2.35286,2.35286,0,0,1-3.07111-.12848c-.19488-.18134-.4143-.05622-.63922-.051-.95959.0221-1.87561.628-2.77856.4093a2.3579,2.3579,0,0,0-2.51434.3761c-.17536.171-.50177.06342-.76416.03223-.29853-.0354-.60145-.03491-.71454.30365-.058.17383.10412.51434-.29688.42175a.60884.60884,0,0,1-.41949-.57293,2.22253,2.22253,0,0,1,.13659-.53742,1.65933,1.65933,0,0,0-.61468-1.51587.65187.65187,0,0,0-.94171-.02441,1.08116,1.08116,0,0,1-1.47821.02063c-.56891-.36353-1.16181-.32654-1.4292.3388-.32788.81568-1.18268.39337-1.73419.69825-.37781.20874-.45844-.27558-.611-.515a.296.296,0,0,0-.44421-.10864c-.43256.44275-1.11817.25073-1.58557.5791a.44932.44932,0,0,1-.56073.0437c-.21765-.1557-.20227-.35089-.1319-.581.25275-.826-.20526-1.22058-1.15527-1.00556-.23383.05286-.57971.12909-.62152-.09961-.207-1.133-.879-1.2293-1.85816-.8067-.08.03461-.21783-.064-.3313-.073C121.64411.96931,120.72162.168,119.50574.05452a1.84847,1.84847,0,0,0-1.3504.147,2.88956,2.88956,0,0,1-2.15448.47351c-.531-.09875-1.007-.16034-1.04932.55249-.01489.25067-.3006.3064-.51977.37537-.81446.256-1.75733.16833-2.4328.80829-.14093.13354-.39911.05145-.58942-.01947a1.181,1.181,0,0,0-1.22791.135.69163.69163,0,0,1-.66851.07257c-.64917-.23456-1.28547-.56867-1.87049.14764-.08789.10761-.44293.05365-.67077.03589-.66834-.05231-1.3368-.1106-2.00165-.19128a4.82118,4.82118,0,0,1-3.28089-1.238c-.0993-.1109-.05542-.36389-.308-.31531-.24341.04669-.29321.24341-.271.44659.03711.33973-.14172.50672-.49249.5318a.64566.64566,0,0,1-.73865-.434c-.36315-.9765-.785-1.21942-1.78418-.78979-1.61688.69507-3.37512,1.02679-4.98107,1.74567-.49341.22088-1.093.4505-1.59485-.10529a.6449.6449,0,0,0-.72785-.1568,2.84249,2.84249,0,0,1-2.26983-.18018c-.63807-.23229-1.14307-.19915-1.46991.41486a.678.678,0,0,1-.78748.37055,4.66189,4.66189,0,0,0-2.05542.15576,1.73582,1.73582,0,0,1-1.28259-.093.8155.8155,0,0,0-1.24017.25091c-.33014.45612-1.07312.856-1.46241.7201a8.30056,8.30056,0,0,0-2.883-.48169c-1.4.0152-2.71753-.46021-4.16364-.4223a15.00057,15.00057,0,0,0-5.61127.84912,2.462,2.462,0,0,1-1.96533-.0279,1.88731,1.88731,0,0,0-2.0401.18018.51669.51669,0,0,1-.709.0058.48692.48692,0,0,1-.051-.73017c.13343-.17541.304-.32653.454-.49145a.45743.45743,0,0,0,.04438-.66266c-.17969-.21234-.38086-.45349-.70728-.40814-.35144.049-.25629.36853-.32928.58691a3.46482,3.46482,0,0,1-.28486.66761.43305.43305,0,0,1-.51306.21862.46809.46809,0,0,1-.31823-.35394c-.28388-.8916-.922-1.10089-1.72547-.49078a1.922,1.922,0,0,1-1.77508.30969c-1.30335-.2948-2.676-.66956-3.72443.57422a.85867.85867,0,0,1-.20972.1452c-.14416.08948-.2644.11359-.29467-.09772-.07239-.5036-.40693-.31256-.71613-.23925-.50879.12054-.909.29834-1.00128.86218a.59571.59571,0,0,1-.77557.48126c-.43433-.10248-.25525-.3891-.17151-.65167.13128-.41211-.14222-.4563-.48822-.41211a1.25849,1.25849,0,0,0-.75318.38061,1.37485,1.37485,0,0,1-1.28943.5138c-.37536-.06012-.56982.19739-.5885.552-.02386.45367-.38232.72168-.75158.505-.813-.477-.94751.02808-1.13733.5351-.13721.3667-.26868.74158-.805.70892-.70147-.04272-1.3775.16968-2.09039.11786a4.007,4.007,0,0,0-2.04657.46942,10.40022,10.40022,0,0,1-2.8667.7887,20.35944,20.35944,0,0,0-4.42285.82147c-.37213.14081-.73828.40845-1.12585.06171-.401-.35846.048-.63.14056-.93836.06573-.21881.30231-.49951-.01166-.64294-.296-.13519-.47754.16132-.57965.3703-.26355.53961-.60089.79474-1.20965.3916-.1167-.07721-.25013-.17749-.38971-.07251-.13483.10144-.04712.2392-.02253.3711A1.92017,1.92017,0,0,1,28.174,10.338a.867.867,0,0,0-.92859.38465c-.43682.5318-1.1867.67108-1.77044,1.0329a.70042.70042,0,0,0-.98322.42492.63833.63833,0,0,0-.12335-.04828c-.3349-.07391-.7027-.07953-.74719.32428a.681.681,0,0,1-.20966.478,1.20363,1.20363,0,0,0-.58807.05615,2.08887,2.08887,0,0,1-.2016-.06634c-.82629-.32129-1.5849.13891-2.38178.11132-.21508-.0075-.31048.19623-.41912.36713a2.815,2.815,0,0,1-2.979.99738c-.20679-.07721-.3656-.309-.61127-.11859-.28149.218-.02319.43988.02009.66247.05.25714.17639.65741-.18848.68372a1.10485,1.10485,0,0,0-1.06921.78741.37267.37267,0,0,1-.4289.21356c-.25653-.05127-.27954-.24426-.26654-.44317a5.80828,5.80828,0,0,0,.04382-.6438c-.01239-.26563-1.54028-.93091-1.6297-.73108-.229.51147-1.241.84149-.49792,1.61346a.43966.43966,0,0,1,.10693.37671c-.3634,1.04578.4469,2.20392-.3648,3.20191.45813,1.38208-.458.94549-1.18787.76709a1.07126,1.07126,0,0,0-.304.03772,1.70639,1.70639,0,0,1,.192.42993,5.13392,5.13392,0,0,0-.62646.25915c-.15369.05451-.20966.12159-.21827.1944-.06854-.00745-.13739-.0152-.20459-.02289.00208.31427.27167.33167.38471.47187.02057.02557.04211.05383.06347.08233a.26531.26531,0,0,1-.1015.28595c-.12622.09448-.24389.05109-.38647-.01562-.5741-.26831-.42114-.716-.21961-1.3111a2.574,2.574,0,0,0-1.36084,1.13147c-.258.50983-.89825.69824-1.13879,1.25513-.05267.12188-.57849.14618-.54626.4729.0346.35168.43219.12378.636.23962.29944.16986.87964.19287.75922.61505-.10669.37464.06512.92371-.69928,1.11731-.58722.14862-1.58.12061-1.51953,1.14868-.3233-.02557-.435-.5625-.75629-.22064a.44442.44442,0,0,0,.1424.75507.24649.24649,0,0,1,.11053.12011c.10156.33228.4942.499-.07812,1.00531a2.84269,2.84269,0,0,0-.9665,2.598c.11414.6076-.18389.91894-.82122.82794-.157-.0224-.17255.08887-.24347.16345a3.114,3.114,0,0,1-1.73859.93121c-.162.02979-.35284.0401-.28131.32843.2724-.01214.55078-.02441.82916-.03674.22144-.00977.42993.053.44055.2818.01166.25055-.21.325-.41882.25653-.32507-.10663-.3692-.00079-.39819.29041a1.01125,1.01125,0,0,1-.66553.86938.67144.67144,0,0,0-.29907,1.0943c.32159.42059.23492.65149-.12824.93573a.41369.41369,0,0,0-.15887.54407A2.07918,2.07918,0,0,0,.434,37.87507c.45954-.1203.82221-.31048.82221.488a1.2998,1.2998,0,0,0,.8656,1.1925c1.1933.45868,1.15393.72632.47473,1.84351a.32159.32159,0,0,0-.02533.06561,2.22289,2.22289,0,0,1,1.46851,3.0036,1.84308,1.84308,0,0,0-1.34259-.78363.85032.85032,0,0,0-.8191.59864.42467.42467,0,0,0,.093.5863c.28058.22888.50928.10956.76355-.0578a1.13293,1.13293,0,0,1,1.22058.117c.07813.4748,1.42841.29389.64032,1.13288-.01849.01971.08838.21411.167.23852.83929.2605.58972.8656.50824,1.417-.03034.20489-.21723.48718.05706.58148.3219.11059.31531-.30347.497-.44818.08838-.0705.0968-.244.12-.37433.03351-.18817-.1897-.48389.16919-.53021a1.61337,1.61337,0,0,1,.90631.07995c.244.13214.2027.53546.09863.74127-.44043.87152-.77832,1.8313-1.8938,2.2027-.372.1239-.33154.7312.047.94031a.6958.6958,0,0,0,1.05725-.32568c.09766-.196.1438-.35615.40472-.27076.24152.0791.2472.28485.22632.47333a2.813,2.813,0,0,1-.13135.46228c-.12817.43933-.368.9541.50062.8252.24914-.037.3529.07153.3244.23974-.07135.42157-.1369.82215.11932,1.07855a2.15131,2.15131,0,0,0-.24341.59089c-.32312,1.16394.61353,1.88031,1.121,2.73553a1.8373,1.8373,0,0,0,.98547.87439c.04779.00958.09381.02448.14148.03455-.04993.1217-.1955.10547-.55451.05639a3.48394,3.48394,0,0,1,.8711,1.95136c.153-.2331.26813-.32666.2633-.41419-.04522-.81714.756-.82263,1.2118-1.15924.15551.04016.3125.07349.4685.11078-.00152.00513.00134.0083-.00049.01355-.18756.53241.20734,1.03693.06958,1.30121.58795.95172,1.57154-.29,2.20655.43219.01928.45019.6145,1.00616-.27662,1.31177-.16418.05633-.12652.32672.0459.40844.92591.43909.55561.74109-.0943,1.06391a.73933.73933,0,0,0-.37561.4248c-.10437.50128-.66748,1.0398-.13989,1.50775.46973.41675,1.038.06372,1.53473-.1372.55066-.22266,1.04291-.32215,1.4574.24231a.64649.64649,0,0,0,.75049.26019,1.38251,1.38251,0,0,1,.18029.29553c.15387.36493.309.49048.66339.32892-.05468.20374-.1087.40753-.16772.61029a.56867.56867,0,0,0,.36713.79907c.83148.26154.82019.72889.44171,1.31812a1.74755,1.74755,0,0,0-.26612.76172,2.88755,2.88755,0,0,1-.50592,1.371,1.09034,1.09034,0,0,0-.14807.03229c-.29406.11047-.52124.25842-.49524.587a3.16613,3.16613,0,0,1-1.25958.47974c-.41168.06769-.45819.1991-.41449.52216a3.543,3.543,0,0,0,.1994.79345c-.10785.28125-.384.67713-.6615.60993a4.63728,4.63728,0,0,0-1.62542.17627c-.34357.02588-.85974.50372-.6543.7727a2.00178,2.00178,0,0,0,1.39124.83673c.038-.00433.07012-.00183.1065-.00433a1.163,1.163,0,0,0,.805.8371c.33435.05786.67359.11639,1.01355.16876a1.66185,1.66185,0,0,0,1.72693.65454,5.5366,5.5366,0,0,0,.84827-.25043,3.45438,3.45438,0,0,0,.30267.44788c.317.32251.0669.56384-.28595.76a.56894.56894,0,0,0-.16327.967,3.986,3.986,0,0,1,.66217,1.12109c.13446.29846.44074.66559.787.34027.48816-.45868.82489-.16821,1.0979.10443.42481.4242,1.32691.35828,1.38428,1.15137.00269.03729.146.0849.22858.09509a.61509.61509,0,0,1,.59472.672c.02912.5246.30457.7439.86951.5224a.95687.95687,0,0,1,.59351-.0603,6.708,6.708,0,0,1,3.75427,2.016.65936.65936,0,0,0,.97241.1825c.271-.1742.63-.3357.86932-.0423.5589.68487,1.38929.47125,2.09577.55328.63263.07349,1.48889.59461,1.89441-.41479.02533-.06311.28058-.10529.39837-.07019a5.52426,5.52426,0,0,0,2.09217.18054.54755.54755,0,0,1-.39966.25476c-.8902.11981-.48438.50842-.26209.88062.1026.17181.50251.25048.31232.49877-.619.80842.31336.74531.58051.8053a7.83538,7.83538,0,0,1,1.12146.34174c.541.21118.99829.4588,1.18011-.35535.03137-.14081.19092-.26385.31012-.37707.87561-.83063.84619-1.064-.36871-1.52582.91168-.17371,1.58087.47394,2.33429.20819-.02558-.07355-.053-.14728-.077-.222-.04645-.1444-.13531-.42987.03778-.38726.32587.0802.6955-.21753.95691.0932.236.28058-.1662.25274-.2301.38049-.42835.85547-1.27911,1.46307-1.63043,2.55878.51062-.45252.91943.1828,1.0639.04522.87732-.8349,1.1264-.243,1.38379.464.01019.028.1759-.01709.23071.02149.332.23388.96613.25311.9693.68463.0033.43646.25592.48059.47711.43225.44648-.09735.98572.05121,1.3241-.3717.06769-.08466.03888-.203-.08789-.26868-.5506-.28522-.19611-.38837.11487-.47467.66565-.18482,1.13244.358,1.72333.4837.2749.05835-.25959.4599-.21088.7685a3.26918,3.26918,0,0,1,.00836.53283c.17828-.10772.20288-.36126.46039-.40924.59082-.11029,1.34222.00739,1.44861-.86053.00439-.03571.149-.08728.22052-.07788.16418.02166.44647.0506.46307.12231a.60868.60868,0,0,1-.27948.70148c-.18878.1145-.30243.268-.16962.47211.05091.0783.20252.17419.27063.15289.44422-.13892.86011-.53967.80787-.8598-.05548-.33979-.10608-.77692.13275-.792.43445-.02752.97259-.44818,1.37738.17609a.38425.38425,0,0,0,.71649-.11426c.09-.86151.53162-1.1062,1.38641-.84076-.14984-.47955-.72992-.297-.8667-.72076.73151-.25458,1.31263-.23139,1.576.59589.07147.22473.199.44738.47827.28228.293-.17309.18354-.34668-.09265-.46179a.206.206,0,0,1-.14215-.25928.319.319,0,0,1,.34674-.187c.46509.02222.78449.388,1.21918.48871-.27008.29547.31042.70056-.144.97992-.18909.11615-.1413.2486-.0011.4.76758.8288,1.87561.69873,2.80347,1.072l.1336-.21508c-.26025-.18824-.52051-.37635-.7301-.52784.96631-.75817,1.324.15284,1.848.58094.44538-.54383.44562-.54261,1.36377-.73834.14624-.03107.28974-.11078.30194-.25446.0199-.234-.17437-.24793-.351-.22443a.8588.8588,0,0,1-.898-.3078c.30652,0,.49939.00208.69232-.0003a2.62093,2.62093,0,0,0,.81921-.1098c.08985.05511.17927.11138.27088.162a3.1003,3.1003,0,0,0,3.11133.29468c.32995-.17657.61248-.20618.855.0683.3703.41919.72857.32989,1.13562.05292a1.98316,1.98316,0,0,1,.4-.18537,2.2602,2.2602,0,0,0,.42877.18982c.30158.09339.81787.17627.70838.75427-.04181.2204.1217.30481.38519.13233.67334-.44092,1.3681-.85425,2.07343-1.24744.28827-.16076.55865.02771.77417.20453.405.3324.5888.34778.78741-.22394.25922-.74658,1.00128-1.07306,1.42261-.702.3175.2796.5036.45227.84869.0711.12219-.135.24878-.02765.40631.09308a.49613.49613,0,0,0,.78351-.14679c.10077-.171.28467-.39129.44519-.33313.6294.22815,1.251.57642,1.44458-.44226a.64286.64286,0,0,0,.76715-.44671c.42365.05511.884.234,1.18939-.22626.2555-.38538.45026-.264.60865.04974.23712.47.49225.66547,1.07965.3385a1.12784,1.12784,0,0,1,1.43426.70929c.1258.5777-.21588.86487-.80706.912a5.08127,5.08127,0,0,0-1.64624.71851c-.35578.15551-.72791.311-.5102.77478a.85633.85633,0,0,0,.99524.46069,14.81941,14.81941,0,0,1,2.42468-.11646c1.30439.08637,2.68482.35669,3.74768-.71a.83768.83768,0,0,1,.22651-.12091c1.1214-.54626,1.23022-.96307.5379-1.97546-.21137-.309-.58746-.59851-.39142-1.01581.03211-.06836.05475-.13928.08447-.20831a.84292.84292,0,0,1,.147.73822.4803.4803,0,0,0,.4552.57861c.33612-.00391.1513-.333.17138-.52478.01941-.18616-.03735-.43854.17591-.50854.44586-.14637.06915.48583.548.4635-.28876-.59681.08838-.68494.63037-.68769a1.88622,1.88622,0,0,0,1.05664.91986.78058.78058,0,0,0,.7024-.24676.68288.68288,0,0,1,.87066-.11151c.28821.16321.57483.19006.76441-.094l.00335-.01043a4.83723,4.83723,0,0,0,.66407.99646c.083.13287-.08783.48059.38971.46557.81817-.02582.89.16382.52179.89722-.37354.7442-.21784,1.17828.52539,1.59637.658.37024,1.42358.10492,2.10748.36335.25275.09546.65942.27075.84283-.18232.1958.12452.5661-.2788.65778.23.0545.30262.40723.21772.55951.12262.31378-.19592-.02832-.26171-.13147-.39141-.34876-.4383-.47614-.82093.27148-1.0329.9621-.27289,1.13489-1.37421,2.07172-1.66138a1.19383,1.19383,0,0,0,1.69446.319c.36712-.17389.474-.09589.60913.24329.13409.33673.13141.89105.49365.9533.58045.0998.62134.5047.783.8689.34479-.19159.3429-.50836.44672-.78461.0766-.20379-.15131-.59124.22748-.59149.32849-.0003.42132.2909.3338.61353-.13507.49859.45312.4743.63659.75122.09583.14447.24121.10119.35181-.02362.18744-.21161.29541-.56629.71728-.25482.35364.2611.30121.52813.15064.85553a.49038.49038,0,0,0,.15649.7127c.32782.21546.52112.01746.75238-.13922a2.70246,2.70246,0,0,1,1.28772-.714c.486-.05261.48609-.4696.15918-.79852a1.47116,1.47116,0,0,1-.40356-1.10028,4.46532,4.46532,0,0,0-.42163-1.30139c-.05536-.15009-.40289-.21894-.1449-.452a.51362.51362,0,0,1,.62433-.09747c.16937.0871.30218.26288.53216.2149a1.418,1.418,0,0,1,.14307-.5263,1.28484,1.28484,0,0,0,.44025-.20642,1.95565,1.95565,0,0,1,.48437.13293c.31574.12189.90406.26849.88233-.017-.02124-.279.20208-.38281.40777-.48511a1.49411,1.49411,0,0,1,.18036.18958.72219.72219,0,0,0,.36939.19922c.60608.15979.80261.53821.60449,1.05261-.2583.67078.12.90979.72851.97827.73029.08228.68457-.44262.69318-.8623.00513-.2497-.05072-.5022.231-.64051.99554-.48846,1.2655-1.42675,1.69665-2.27417a.45038.45038,0,0,0,.13709-.24823c.05157-.0899.10315-.17974.16193-.26538a.59028.59028,0,0,1,.17755-.00756,13.48848,13.48848,0,0,1,2.02923.026c-.43536-.64814-.13769-.97058.23383-1.1402a2.36308,2.36308,0,0,1,.92419.33349c.029.119.0481.24476.06641.35956.035.21863.05011.47791.33649.49866a1.36413,1.36413,0,0,1,.18884.03021c-.16651.19586-.37116.42914-.1059.66992a.6797.6797,0,0,0,.80731.02784,2.90413,2.90413,0,0,1,.07038.39508c.0556.46789.29168.91931.04309,1.41461a.73945.73945,0,0,0,.29547.82422c.31964.198.38623-.2652.57141-.44019a2.45588,2.45588,0,0,1,1.1839-.79181,5.11556,5.11556,0,0,0-.60736.88257.79106.79106,0,0,0,.459,1.00794c.4502.22509.64539-.12061.79169-.48212.06879-.16992-.02393-.45648.33911-.48908.17768.51966-.229,1.21058.319,1.54157a.44453.44453,0,0,0,.34509-.03064c-.0028.0871-.01574.17114-.01507.25934.00128.17639-.173.3811.0741.49676.28118.1316.41784-.09765.55938-.26288.20893-.24371.09546-.69238.52393-.78588.93323-.2035.88818-.95429,1.10187-1.51752a6.95468,6.95468,0,0,0-.13208-.857,2.58978,2.58978,0,0,0-.14814-.5523,3.11642,3.11642,0,0,1,.55841-.326,4.27208,4.27208,0,0,1,1.81751-.30762c-.091.60681-.24909,1.20117-.347,1.80908a1.40385,1.40385,0,0,1-.29113.291c-.69111.4768-.67121.74432.07312,1.09979a.9852.9852,0,0,1,.183.11231c.01092.07556.01623.15.032.22656a4.54089,4.54089,0,0,1-.03674,2.62109c-.229.56024.12262.90473.49383,1.1806a1.40485,1.40485,0,0,0,1.40748-.063c.44641-.1861.30517-.57947.16827-.92157-.06378-.15961-.08295-.33521.10364-.428.23388-.11621.39709.041.51056.196.19543.26666.354.55609.53985.82916a1.8069,1.8069,0,0,0,1.90936.65741.87712.87712,0,0,0,.72175-1.05859,6.87013,6.87013,0,0,0-1.03772-3.186.58973.58973,0,0,1-.02753-.82349,2.49654,2.49654,0,0,0,.70209-1.16022,1.594,1.594,0,0,0,.93841.53809c-.149-.39563-.2044-.83643-.78937-.82843.191-.5401.69037-.15979.9925-.40259a1.24,1.24,0,0,1-.069-1.40118c.37878.05035.35437.4801.50665.73785.11145.18878.17609.4035.30206.5824a1.35272,1.35272,0,0,1-.13171,1.80859c-1.02338,1.06238-.70056,2.20288-.42426,3.35761a.70033.70033,0,0,0,1.145.3269c.48639-.54028,1.58673-.62579,1.45911-1.63568-.00781-.06214.153-.14862.24359-.21393a2.92293,2.92293,0,0,0,.75952-2.97552.57522.57522,0,0,0-.326-.26294c-.02038-.26441-.28839-.49311-.49652-.73047-.2746.22369-.2431.40735-.14111.58166a3.16132,3.16132,0,0,1-.3595-.09363.54833.54833,0,0,1-.42938-.55181c.0191-.305.27923-.3971.55578-.4104A2.53812,2.53812,0,0,0,141.59,85.281a.92093.92093,0,0,1-.40662.6275,2.84124,2.84124,0,0,0,.69513-.13843c.6568-.12085.94837.25873.87317.893a.68633.68633,0,0,0,.48242.83722c.2049.04712,1.08283-1.02948.95392-1.18689-.59015-.72058.22968-1.02063.48389-1.466a.87953.87953,0,0,1,1.19311-.2901c.59931.49543,1.23029.14179,1.81989.28058.0661.01563.11719.08863.22229.17255l-.56567.32538c.30426.36206.702.20282,1.04516.26715.12689-.15857.30322-.28662.19373-.54657a.59218.59218,0,0,1,.4931-.91321c.57208-.1051.81567.24854.94629.80145.17767-.26043.28888-.60675.45447-.63214.53534-.0824.74676-1.4,1.6192-.36816.15924.18817.89056.49975,1.23932.16949.349-.3305-.20478-.63714-.35291-.95544a1.8737,1.8737,0,0,0-.39142-.624c-.30279-.2696-.65405-.60212-1.06-.10761-.29291.35681-.32868-.07928-.48676-.13708.09589-.1648-.6264-.17774-.09064-.41425.34949-.1543.1388-.34015.07459-.53259a.7162.7162,0,0,1-.04035-.32721,10.85511,10.85511,0,0,1,1.48456.34521,3.92285,3.92285,0,0,1,.468.16718.37715.37715,0,0,1-.07013.08136c-.3089.21869-.08215.25128.0448.47766.31665.56494,1.0957.8573,1.05512,1.62994a.27006.27006,0,0,0,.41888.24829,1.4255,1.4255,0,0,1,1.9447.41089c.303.32147,1.27014.18518,1.90125.07446.3927-.06878.85107-.09594,1.01678.31391.087.21521.22919.33.44959.26184.4143-.1283.365.0918.29693.32928-.051.17823-.19452.4054.13178.43189a.38392.38392,0,0,0,.41949-.42316c-.0393-.34851.10822-.69671-.03979-1.0437a.35418.35418,0,0,1,.29327-.54761c.21375-.03711.43268-.0625.64948-.09063.15771-.00837.31634-.00641.47528-.00214-.1026.7243-1.40528.834-.87885,1.94513.1706-.66565.82215-.73407,1.061-1.24329.18756-.4.5296-.72137,1.0545-.2398a.72034.72034,0,0,0,.93988-.057c.02161-.01508.04273-.034.06452-.05078a5.69492,5.69492,0,0,0,2.7641-.14514,1.14778,1.14778,0,0,1,.68518.03112,5.76569,5.76569,0,0,0,2.2691.23951.29529.29529,0,0,1-.04779.25262.56761.56761,0,0,0,.112.8349c.311.1806.617-.098.89477-.35364-.21038-.17175-.74658-.0094-.56115-.48846a.47016.47016,0,0,1,.26605-.28632l.06226-.00482a.19872.19872,0,0,1,.11657.0437,1.57262,1.57262,0,0,0,1.49561.211c.31128.20966.65063.55335,1.04345.19489.33924-.30957.72852-.22956,1.06275-.35077.68359-.248,1.28277-.5495,1.99249-.12384.04151.0249.17981-.033.23242-.08625.50318-.5108.98944-.22515,1.50507-.00921.57312.23987,1.1958.61517,1.77289.05639,1.25519-1.21508,2.63073-.78521,4.0368-.32959.48609.15748.84113.32837.74219.8957-.03565.20471.02765.47271.40405.25561a2.36,2.36,0,0,1,2.83179.20435,3.68939,3.68939,0,0,0,1.93146.61193,7.33888,7.33888,0,0,1,3.30352.937,1.2767,1.2767,0,0,0,1.5456.07409c.5133-.41174,1.17889-.586,1.64221-1.03253a.775.775,0,0,1,1.14-.09656c.40821.29395.85511.1717,1.3595.14069,1.05841-.06512,1.50739-.47314,1.66687-1.35742.0224-.12409.255-.20972.37518-.32642.48346-.469,1.14063-.71625,1.48163-1.40118.34632-.6955,1.65491-.59509,2.04242.11108.37641.68573.76789.7121,1.359.2815a5.4492,5.4492,0,0,1,.67584-.37146,3.22784,3.22784,0,0,0,2.0849-3.24714,1.12973,1.12973,0,0,1,.21863-.59869c.2536-.532.83447-1.08356-.089-1.56946a.31359.31359,0,0,1-.09839-.28924c.20118-.76636.11048-1.62177.78376-2.2475.16571-.15387.26532-.34186.01135-.46307-.73-.34864-1.22174-1.37323-2.32471-.71894a.36369.36369,0,0,1-.32092-.031c-.51648-.84247-1.4007-.59687-2.18579-.6482a.92742.92742,0,0,1-.83179-.62756.56156.56156,0,0,1,.25916-.7171,8.81931,8.81931,0,0,0,1.36395-1.1145c.72235-.56794.74457-.75519-.00971-1.31763-.14581-.1087-.42022-.14911-.277-.413a3.763,3.763,0,0,1,1.99639-.54993c.21125.10382.45295.1803.43219-.10779a3.14467,3.14467,0,0,0-.21435-1.3457.56269.56269,0,0,0-.54614-.34571c-.29279.0326-.21808.26642-.21607.44849.0036.31519-.1098.54529-.50769.48724-.53082-.07751-1.05731-.18011-1.64789-.28283.53327-.80988,1.2248-1.50281.96875-2.52179-.0506-.20124.16785-.54193.37085-.69922.52619-.40765.3678-.77948.04816-1.18738-.11017-.14062-.3562-.26623-.14441-.47381.15381-.15058.31732-.03492.4696.0473.3487.18823.61792.10742.56482-.27649-.14819-1.07,1.17011-1.9643.42072-3.10132-.03534-.05359.12207-.193.12-.29108-.00878-.41363.11811-.91967-.69683-.74981a1.23121,1.23121,0,0,1-1.0177-.3786c-.8656-.79651-1.29078-.85761-2.4256-.31708a5.93591,5.93591,0,0,1-2.46259.68469,1.66363,1.66363,0,0,1-1.47326-1.07648c-.13025-.68292.40637-.72284.92285-.77362.34582-.034.41253-.3045.577-.52948a17.52674,17.52674,0,0,0,.93183-1.7843c.55047-.962,1.68036-1.298,2.30755-2.13971.24683-.33124.69574-.23669,1.05561-.1095.52514.18567.44268.65827.48309,1.04157.04022.3819-.32245.40692-.60828.42432-.6391.039-1.08752.489-1.69342.627-.45947.10467-.32879.44281-.02057.66449a2.185,2.185,0,0,1,1.00757,1.44971c.06439.42089.32691.30206.5459.11181.83014-.72113,1.97943-1.11584,2.42151-2.24853.16211-.41529,1.15472-.62567.1477-1.16468-.06256-.03363-.091-.22161-.05108-.30242.41308-.8371.21521-1.79841.6546-2.63227.51532-.97815.0495-1.561-1.12671-1.494a17.865,17.865,0,0,1-2.10058-.00341c-.488-.02979-.94861-.19458-.87952-.78412a3.54794,3.54794,0,0,0-.02789-1.59809c-.08741-.26037.13092-.46087.35937-.59631a2.49443,2.49443,0,0,0,.96063-1.02515c.08631-.1662.17688-.37872.42359-.35235.29913.032.32708.26312.327.49133-.00061.68341.40131.69067.92462.4538.41913-.18982.81537-.42572,1.24329-.5951.49707-.19683.97937-.46429.73969-.99749a1.07461,1.07461,0,0,0-1.25794-.7605,3.16342,3.16342,0,0,1-1.46667-.14612c-.3808-.11548-.6156-.29492-.44153-.71551a.72114.72114,0,0,0,.063-.30939,2.463,2.463,0,0,1,1.0036-.32135,2.451,2.451,0,0,0,1.98694-1.26282c.2771-.39972.34478-.95349.95709-1.11621.18341-.04871.13092-.27588.04523-.428a.41509.41509,0,0,1,.07049-.58942c.32446-.25579.20758-.31091-.1217-.44506a.52706.52706,0,0,1-.27448-.69062c.11658-.23669.48157-.18963.60388-.073.31049.29626.84668-.25562,1.12885.4223.20856.501.69653-.44269,1.16571-.1731a2.59912,2.59912,0,0,0,.39239.15149.92623.92623,0,0,0,.88105-.16211c.23468-.16467.38415-.40771-.07715-.48572-.37744-.06378-.62006-.2149-.44245-.5924.17579-.37336.46869-.2168.79267-.12415.78772.22486.91888-.558,1.3349-.89361.313-.25245.25348-.55732-.07428-.8285-.38568-.319-.21631-.49713.21057-.56341C215.16205,32.60786,215.35584,32.63276,215.38166,32.40217ZM1.07715,36.14076c-.18109-.07208-.3548-.2226-.27283-.44458a.30228.30228,0,0,1,.4892-.13074c.29419.20343.84363.02283.94269.61005A2.73525,2.73525,0,0,1,1.07715,36.14076Zm6.32379,6.0907c-.07818.26172-.318.3435-.59131.36841a1.59958,1.59958,0,0,1-1.40637-.73523,2.19893,2.19893,0,0,0,1.21625-.30487c.21985-.0915.46472-.338.6759-.09333A.829.829,0,0,1,7.40094,42.23146ZM206.34363,74.13923c.31159.04651.65833.1034.65808.481-.00006.27558-.2821.30457-.51739.293-.31067-.01538-.58551-.14-.62628-.4447C205.81836,74.17183,206.09912,74.16121,206.34363,74.13923ZM195.73712,53.34376c-.31671-.05505-.54949-.22955-.5628-.5144-.0152-.32862.2981-.42652.58771-.46442.3208-.042.49029.12177.466.41651A.54369.54369,0,0,1,195.73712,53.34376Zm-3.62-38.64508c.01019.1731.02362.20636.0116.22418a1.55427,1.55427,0,0,1-1.12458.55848c-.03485.00634-.1466-.13935-.13293-.15955C191.153,14.90388,191.65943,14.93275,192.11713,14.69868Zm-6.4306-3.51562a.41326.41326,0,0,1,.13629.582,4.79336,4.79336,0,0,0-.27576.923c-.31225-.44128.01917-.97815-.44623-1.23273C185.248,11.26631,185.37659,10.99092,185.68653,11.18306Zm-2.7497.69012a.22846.22846,0,0,1,.232.27759c-.13178.45447-.59369.26977-.925.38141C182.3288,12.14814,182.48407,11.84144,182.93683,11.87318Zm-5.97278-1.4635c.36487-.2832.62928-.6767,1.116-.82513.28552-.0871.52429-.52808.85083-.09247a.771.771,0,0,1-.01721,1.10937,8.26553,8.26553,0,0,1-1.52008.747c-.28992-.06018-.37226-.27643-.49085-.45257A.30675.30675,0,0,1,176.964,10.40968ZM13.22205,21.35975c.05249-.016.096-.04461.14667-.063a2.298,2.298,0,0,1-.55945.52648.50734.50734,0,0,1-.03241-.07769C12.71344,21.43873,13.01361,21.42323,13.22205,21.35975ZM44.96283,87.89558c-.162.13.04212.54639-.34692.49-.18317-.02649-.50006-.14282-.48578-.36981.01758-.28058.28229-.44.58337-.44977C44.91291,87.55946,45.01935,87.67549,44.96283,87.89558Zm13.83478.59827c-.3103.22009.29413.35943.0849.50574-.1543.38885.06714.97039-.6853.81536-.28028-.0578-.52637-.089-.38025-.44659.1441-.35291.09247-.73639.23755-1.1012.1463-.36779.2948-.35852.62-.23858C59.00385,88.15,59.14685,88.24617,58.79761,88.49385Zm15.77972-1.2616a2.58271,2.58271,0,0,0,.342-.58746C75.07166,87.07222,74.89093,87.217,74.57733,87.23225Zm.89692-1.09326-.02308-.01276a1.103,1.103,0,0,1,.19825-.01281c.0188.00042.03582-.00293.0545-.00275A.2084.2084,0,0,1,75.47425,86.139Zm14.698-.79273c-.1524-.22833.11359-.34631.19739-.25653a1.00627,1.00627,0,0,0,.44751.2583,1.52285,1.52285,0,0,0,.21344,1.20893A4.26008,4.26008,0,0,1,90.17224,85.34626Zm4.64087.973a1.056,1.056,0,0,0-.30157.46472,1.06948,1.06948,0,0,0-.32483-.26318c-.6416-.38147-.60565-.78357-.34692-1.16462a1.39472,1.39472,0,0,0,.98193.707C94.97162,86.09706,94.89,86.24519,94.81311,86.31929Zm12.9574,1.95825c-.51959.01782-.65576-.0882-.38678-.505.22577-.34967.33252-.61248-.05078-.962a.38772.38772,0,0,1,.1925-.698c.34125-.09277.56281-.11047.79688.30811.24231.43341-.18109.9021.16663,1.19879.27819.23742.85028-.20612,1.159.4165A13.8,13.8,0,0,1,107.77051,88.27754Zm20.00787.0116c-.03631.133-.06286.26892-.08746.40527C127.58753,88.62105,127.57141,88.5099,127.77838,88.28914Zm15.21814-3.0766c-.269-.08905-.28216-.32544-.32562-.54554.14429-.09967.28876-.19854.43445-.2948.0625.06733.11731.14521.17877.21106a1.18,1.18,0,0,1,.43134.67878A3.09554,3.09554,0,0,1,142.99652,85.21254ZM157.16718,83.425q.08248-.05283.16363-.09644A.22929.22929,0,0,1,157.16718,83.425Zm1.02014.30286c-.2655-.0008-.40466-.13318-.245-.42279a.41158.41158,0,0,0,.017-.04883.805.805,0,0,1,.272.22961,1.41174,1.41174,0,0,0,.15136.13977C158.36377,83.68293,158.32007,83.72822,158.18732,83.72786Zm43.74414-37.20764c-.13983.3421-.422.15991-.60632.13244a1.5447,1.5447,0,0,0-1.03058.2497c-.36481.15728-.61322.10278-.72571-.27765-.11951-.40418-.01172-.71869.482-.75275a4.71491,4.71491,0,0,1,1.67987.33185C201.86774,46.24513,201.98865,46.38026,201.93146,46.52022Zm5.12116-6.87336c-.23212-.0028-.41938-.04138-.40577-.24682.01618-.24378.24311-.35315.45459-.41706.19117-.05774.34162.04358.3274.24378A.44331.44331,0,0,1,207.05262,39.64686Zm1.323-3.77679c-.20739.02179-.36987-.0669-.34509-.19818a.72189.72189,0,0,1,.66858-.60871c.15363-.0191.40845-.10412.39441.14106C209.0694,35.62459,208.55072,35.60817,208.37561,35.87007Z"/>
        <path class="cls-1" d="M163.86475,88.28218a4.36963,4.36963,0,0,0-.009-.64722.36448.36448,0,0,0-.196-.23352.19144.19144,0,0,0-.2514.1554c-.04419.7113-.917,1.29931-.29871,2.13171.27533-.198.52454-.58929.98242-.34369.40656.218.64747-.03808.853-.29669.27728-.34888-.03955-.6048-.21673-.86292C164.45923,87.79316,164.16974,88.091,163.86475,88.28218Z"/>
        <path class="cls-1" d="M162.12421,87.86134c-.40985-.11017-.8457-.35266-1.28955-.059-.14826.09808-.26123.21179-.20422.39746.047.15289.16546.16492.32568.17365.43109.0235.762.11468.36731.62475-.13648.17652.03418.352.22717.44513.17084.08228.346.2207.539.05292a.94113.94113,0,0,0,.44373-.79743C162.5235,88.34034,162.50525,87.96364,162.12421,87.86134Z"/>
        <path class="cls-1" d="M12.24866,66.06386c-.26154-.0365-.29315.36907-.68384.33911-.00458-.08112-.00537-.15613-.01379-.23029-.01807-.1607.24451-.41974-.07758-.46313-.32672-.044-.19574.25549-.19214.41662a.52021.52021,0,0,1-.2677.542.50916.50916,0,0,0-.162.7204c.13818.29541.43438.30939.73053.27051.245-.03229.48956-.0686.8056-.1131C11.46442,67.06013,12.93433,66.55305,12.24866,66.06386Z"/>
        <path class="cls-1" d="M148.61707,90.90974a2.6345,2.6345,0,0,1-1.69946.006,3.15286,3.15286,0,0,0,1.491,1.16437c.18409.05493.53858.18164.56043-.1203.02466-.34338.48578-.53558.32574-.83758A.75889.75889,0,0,0,148.61707,90.90974Z"/>
        <path class="cls-1" d="M189.74433,9.35475a7.92257,7.92257,0,0,1,1.66772.29449c.20618.02344.4513.02442.50189-.18969.06067-.25629-.24072-.29017-.40008-.31488a2.503,2.503,0,0,1-1.44666-.59412.496.496,0,0,0-.6311-.0022.38759.38759,0,0,0-.18506.42383A.51814.51814,0,0,0,189.74433,9.35475Z"/>
        <path class="cls-1" d="M46.73914,90.48506c-.99579-.05377-1.88562-.10181-2.82843-.15277C44.80646,91.34346,45.53107,91.39314,46.73914,90.48506Z"/>
        <path class="cls-1" d="M47.76807,90.73256l-.01941-.01313-.00659.01221C47.75031,90.73152,47.76007,90.73292,47.76807,90.73256Z"/>
        <path class="cls-1" d="M47.07,90.97194c-.04254.36871.34888.41705.65655.481.37513.07813.7229-.11938,1.06855-.10766.60046.0202.487-.31293.56347-.85474-.50866.47412-1.01818.2124-1.46026.53-.29193.20984-.32062-.07013-.15619-.28894C47.47748,90.73591,47.10968,90.62672,47.07,90.97194Z"/>
        <path class="cls-1" d="M148.39234,85.60377l-.02368.02057.01886.0058C148.38849,85.62007,148.39154,85.61415,148.39234,85.60377Z"/>
        <path class="cls-1" d="M147.00934,86.242c-.15063-.01551-.332-.21332-.43371.00042-.122.25647.1275.2937.317.36127a1.75089,1.75089,0,0,0,1.04407.23639,1.49458,1.49458,0,0,0,.88269-.86865c.13464-.24-.23315-.26789-.43188-.34125C148.29975,86.56373,147.59735,86.3025,147.00934,86.242Z"/>
        <path class="cls-1" d="M6.30713,26.017c.65692-.14276.46051-.696.57038-1.14868-.7129-.0545-.90149.26038-.88544.78381C5.99884,25.87507,6.06012,26.07075,6.30713,26.017Z"/>
        <path class="cls-1" d="M166.49353,87.116a.41079.41079,0,0,0-.29181.43628c.02393.3963.3155.55182.67438.59918.174.023.37964-.06457.34332-.26068C167.15015,87.51637,166.79145,87.35524,166.49353,87.116Z"/>
        <path class="cls-1" d="M1.62964,42.244c-.03222.01581-.13861.41052.0827.56927.12861.09235.34186.05481.3758-.06329.12408-.433.66571-.73468.4624-1.26752C2.08246,41.546,2.00592,42.06,1.62964,42.244Z"/>
        <path class="cls-1" d="M2.56763,41.47584l-.02478-.02179c.00427.01.004.01856.00769.02838C2.55732,41.48152,2.56067,41.47657,2.56763,41.47584Z"/>
        <path class="cls-1" d="M168.08405,84.18824c-.36884.02863-.41583.33442-.4325.59754-.01452.23047.17786.3128.40619.30975a.46378.46378,0,0,0,.43671-.50458A.35156.35156,0,0,0,168.08405,84.18824Z"/>
        <path class="cls-1" d="M188.24793,10.56105c.28357.02344.36261-.15076.38312-.3465.02545-.24469-.08735-.44818-.36493-.43451-.24536.012-.5669.08942-.5644.372C187.70423,10.42524,188.05152,10.45063,188.24793,10.56105Z"/>
        <path class="cls-1" d="M7.79572,57.24269c-.24768-.02771-.30676.22095-.31256.40509-.01062.33386.25195.469.54156.51477.2301.03644.27332-.13721.25342-.36487C8.17591,57.59828,8.12616,57.27955,7.79572,57.24269Z"/>
        <path class="cls-1" d="M147.87494,90.111c.34448.43225.78919.3833,1.25012.39782C148.85144,89.92756,148.5116,89.65925,147.87494,90.111Z"/>
        <path class="cls-1" d="M154.77033,84.60219c-.1532.063-.46149-.16095-.41852.207a.58835.58835,0,0,0,.31232.53759c.0899-.39331.67132-.0581.6958-.36792C155.38092,84.71473,155.11121,84.51576,154.77033,84.60219Z"/>
        <path class="cls-1" d="M141.16394,85.92848l-.02411-.01972.021.02314Z"/>
        <path class="cls-1" d="M188.999,7.74849c.205-.00891.41247-.05524.40991-.30072-.00263-.24231-.20587-.285-.41187-.30048-.23254.03229-.487.08875-.46185.35785C188.55561,7.72377,188.79511,7.75734,188.999,7.74849Z"/>
        <path class="cls-1" d="M211.8042,26.22883c-.29608.03-.52069-.573-.805-.09027-.07819.13281-.1593.35907-.01025.45349C211.41223,26.86036,211.52881,26.345,211.8042,26.22883Z"/>
        <path class="cls-1" d="M185.589,7.809c.16327-.07818.39905-.148.396-.41113-.00244-.20239-.186-.24908-.3598-.25031-.2638-.00195-.42792.12183-.41632.38746C185.21723,7.72639,185.3443,7.81508,185.589,7.809Z"/>
        <path class="cls-1" d="M1.48774,52.082a.38639.38639,0,0,0-.38239.36908.30414.30414,0,0,0,.353.35529c.2453-.01557.29809-.21436.33319-.40772C1.76154,52.22847,1.71045,52.06074,1.48774,52.082Z"/>
        <path class="cls-1" d="M165.46283,85.776c-.00818-.00287-.01379-.00232-.022-.00531-.2948-.44366-.65686-.758-1.21137-.61078-.08227,1.1753.806,1.18158,1.745,1.31562-.225-.29493-.3819-.50074-.53882-.70642l.02191.02349C165.45844,85.7859,165.46173,85.7823,165.46283,85.776Z"/>
        <path class="cls-1" d="M166.31525,85.16328c-.17542.34339-.77045.14758-.85242.61267C166.04584,85.98018,166.39093,85.85866,166.31525,85.16328Z"/>
      </g>
    </g>
  </g>
</svg>
