<svg xmlns="http://www.w3.org/2000/svg" xmlns:xlink="http://www.w3.org/1999/xlink" width="60.05637mm" height="46.04726mm" viewBox="0 0 170.23852 130.52767">
  <defs>
    <style>
      .cls-1 {
        fill: url(#linear-gradient);
      }

      .cls-2 {
        fill: url(#linear-gradient-2);
      }

      .cls-3 {
        fill: url(#linear-gradient-3);
      }

      .cls-4 {
        fill: #fff;
      }
    </style>
    <linearGradient id="linear-gradient" x1="-195.13778" y1="468.27029" x2="-194.13778" y2="468.27029" gradientTransform="matrix(12.69656, 0, 0, -20.34924, 2537.2483, 9578.609)" gradientUnits="userSpaceOnUse">
      <stop offset="0" stop-color="#026838"/>
      <stop offset="0.26" stop-color="#00783c"/>
      <stop offset="0.7" stop-color="#008b43"/>
      <stop offset="1" stop-color="#009245"/>
    </linearGradient>
    <linearGradient id="linear-gradient-2" x1="-207.53392" y1="479.80355" x2="-206.53392" y2="479.80355" gradientTransform="matrix(49.50897, 0, 0, -59.8187, 10318.18127, 28731.1317)" xlink:href="#linear-gradient"/>
    <linearGradient id="linear-gradient-3" x1="-202.09324" y1="478.47167" x2="-201.09324" y2="478.47167" gradientTransform="matrix(21.78564, 0, 0, -48.87193, 4489.04981, 23419.21413)" xlink:href="#linear-gradient"/>
  </defs>
  <g id="Layer_2" data-name="Layer 2">
    <g id="Layer_1-2" data-name="Layer 1">
      <g id="LOGO_AMAZE" data-name="LOGO AMAZE">
        <path id="Path_304" data-name="Path 304" class="cls-1" d="M72.014,41.36667a2.974,2.974,0,0,0-1.764-1.613,3.42911,3.42911,0,0,0-1.988-.2,3.19937,3.19937,0,0,0-.9.383,4.03792,4.03792,0,0,0-1.5,1.713,6.4134,6.4134,0,0,0-.249.667l-.1.278-.11.324-.125.371c-.048.137-.094.277-.141.416s-.1.309-.154.463-.113.334-.17.5-.122.361-.184.542l-.2.581c-.071.207-.141.414-.21.618s-.154.439-.224.658-.154.463-.235.7-.165.488-.249.731l-.26.772q-.134.39994-.27.8c-.094.278-.187.555-.281.831l-.292.862-.309.891c-.1.309-.209.618-.309.927s-.215.632-.321.949-.221.649-.331.975-.226.666-.34,1-.23.684-.346,1.026-.238.7-.355,1.047-.243.714-.363,1.071l-.065.188h7.085l5.449-15.959A3.31693,3.31693,0,0,0,72.014,41.36667Z"/>
        <path id="Path_305" data-name="Path 305" class="cls-2" d="M69.222,9.16768l16.634,50.651h7.043L74.008,2.19469a3.331,3.331,0,0,0-3.19-2.194H68.026a3.319,3.319,0,0,0-3.19,2.194L43.39,59.81868h7.018Z"/>
        <path id="Path_306" data-name="Path 306" class="cls-3" d="M92.749,13.15466a3.181,3.181,0,0,0-3.99945-2.05958q-.09485.03035-.18756.06659-2.99195,1-1.994,4.187l14.48505,44.466h7.051Z"/>
        <path id="Path_308" data-name="Path 308" class="cls-4" d="M45.581,69.84766l-6.643,16.5-6.779-16.5h-.83l-3.938,20.386h2.455l2.362-15.053,6.169,15.585.684.008,6.3-15.518,2.171,14.976h2.6l-3.722-20.384Z"/>
        <path id="Path_309" data-name="Path 309" class="cls-4" d="M64.654,69.84763l-8.707,20.392h2.566l2.544-6.167h7.9l2.535,6.16h2.781l-8.974-20.393Zm-3.008,12.43,3.22-8.557,3.328,8.557Z"/>
        <path id="Path_310" data-name="Path 310" class="cls-4" d="M99.025,70.40967H86.005v2.036h9.563l-11.2,17.36v.428H98.915v-2.036H87.894l11.136-17.114Z"/>
        <path id="Path_311" data-name="Path 311" class="cls-4" d="M124.098,72.55365v-2.144H113.329v19.824h10.769v-2.143h-8.386v-7.635h8.386v-2.036h-8.386v-5.866Z"/>
      </g>
      <path id="Path_312" data-name="Path 312" class="cls-4" d="M169.806,109.09467l-21.071-21.012a1.39,1.39,0,0,0-2.377.973v17.05H0v2.777H147.748a1.39,1.39,0,0,0,1.39-1.39v-15.078l17.722,17.708-18.445,18.431,1.976,1.974,19.457-19.46a1.39,1.39,0,0,0-.033-1.965Z"/>
    </g>
  </g>
</svg>
