<svg xmlns="http://www.w3.org/2000/svg" xmlns:xlink="http://www.w3.org/1999/xlink" width="96.707" height="90.778" viewBox="0 0 96.707 90.778"><defs><linearGradient id="a" y1="0.5" x2="1" y2="0.5" gradientUnits="objectBoundingBox"><stop offset="0" stop-color="#006837"/><stop offset="0.26" stop-color="#00773c"/><stop offset="0.7" stop-color="#008b43"/><stop offset="1" stop-color="#009245"/></linearGradient><linearGradient id="b" x1="0" y1="0.5" x2="1" y2="0.5" xlink:href="#a"/><linearGradient id="c" x1="0" y1="0.5" x2="1" y2="0.5" xlink:href="#a"/></defs><g transform="translate(0 -0.02)"><path d="M406.406,415.737a2.974,2.974,0,0,0-1.764-1.613,3.429,3.429,0,0,0-1.988-.2,3.2,3.2,0,0,0-.9.383,4.038,4.038,0,0,0-1.5,1.713,6.415,6.415,0,0,0-.249.667l-.1.278-.11.324-.125.371c-.048.137-.094.277-.141.416s-.1.309-.154.463-.113.334-.17.5-.122.361-.184.542l-.2.581c-.071.207-.141.414-.21.618s-.154.439-.224.658-.154.463-.235.7-.165.488-.249.731l-.26.772q-.134.4-.27.8c-.094.278-.187.555-.281.831l-.292.862-.309.891c-.1.309-.209.618-.309.927s-.215.632-.321.949-.221.649-.331.975-.226.666-.34,1-.23.684-.346,1.026-.238.7-.355,1.047-.243.714-.363,1.071l-.065.188h7.085l5.449-15.959A3.317,3.317,0,0,0,406.406,415.737Z" transform="translate(-361.783 -374.349)" fill="url(#a)"/><path d="M314.472,167.449,331.106,218.1h7.043l-18.891-57.624a3.331,3.331,0,0,0-3.19-2.194h-2.792a3.319,3.319,0,0,0-3.19,2.194L288.64,218.1h7.018Z" transform="translate(-272.641 -158.26)" fill="url(#b)"/><path d="M572.945,231.34a3.181,3.181,0,0,0-4.187-1.993q-2.992,1-1.994,4.187L581.249,278H588.3Z" transform="translate(-507.587 -218.164)" fill="url(#c)"/><path d="M517.82,740.9" transform="translate(-466.415 -650.872)" fill="#fff"/><path d="M18.19,452.15l-6.643,16.5-6.779-16.5h-.83L0,472.536l2.455,0,2.362-15.053,6.169,15.585.684.008,6.3-15.518,2.171,14.976h2.6L19.019,452.15Z" transform="translate(0 -382.281)" fill="#fff"/><path d="M378.627,610.368,369.92,630.76h2.566l2.544-6.167h7.9l2.535,6.16h2.781l-8.974-20.393Zm-3.008,12.43,3.22-8.557,3.328,8.557Z" transform="translate(-341.364 -540.499)" fill="#fff"/><path d="M383.475,455.79h-13.02v2.036h9.563l-11.2,17.36,0,.428h14.547v-2.036H372.344l11.136-17.114Z" transform="translate(-311.841 -385.359)" fill="#fff"/><path d="M567.039,457.934V455.79H556.27v19.824h10.769v-2.143h-8.386v-7.635h8.386V463.8h-8.386v-5.866Z" transform="translate(-470.332 -385.359)" fill="#fff"/></g></svg>