<svg xmlns="http://www.w3.org/2000/svg" width="425.19685" height="48.29041" viewBox="0 0 425.19685 48.29041">
  <defs>
    <style>
      .cls-1 {
        fill: #fff;
      }
    </style>
  </defs>
  <g id="Layer_2" data-name="Layer 2">
    <g id="Layer_1-2" data-name="Layer 1">
      <g>
        <path class="cls-1" d="M0,47.41682V12.6186H16.01592A21.8852,21.8852,0,0,1,24.07241,13.929a16.74142,16.74142,0,0,1,5.72691,3.737,17.04076,17.04076,0,0,1,3.737,5.60532,17.71745,17.71745,0,0,1,1.3104,6.81915,17.16289,17.16289,0,0,1-1.35893,6.81864,16.75955,16.75955,0,0,1-3.83411,5.55729A17.143,17.143,0,0,1,24.0484,46.0819a21.47093,21.47093,0,0,1-8.081,1.33492ZM10.14342,29.41105a8.52393,8.52393,0,0,0,.65545,3.34878,8.15447,8.15447,0,0,0,1.81973,2.69333,8.63509,8.63509,0,0,0,2.71786,1.79572,8.40187,8.40187,0,0,0,3.30025.65545,8.229,8.229,0,0,0,3.27623-.65545,8.71913,8.71913,0,0,0,2.69334-1.79572,8.47557,8.47557,0,0,0,1.84425-2.69333A8.26548,8.26548,0,0,0,27.13,29.41105a7.981,7.981,0,0,0-.67947-3.27624,8.87367,8.87367,0,0,0-4.53759-4.53759,7.981,7.981,0,0,0-3.27623-.67946,8.14793,8.14793,0,0,0-3.30025.67946,8.77743,8.77743,0,0,0-2.71786,1.84426,8.51658,8.51658,0,0,0-1.81973,2.69333A8.229,8.229,0,0,0,10.14342,29.41105Z"/>
        <path class="cls-1" d="M58.628,34.16729l-8.34769-3.78558v5.8725H65.37407V47.41682H38.147V12.6186H65.37407V23.29588H50.28028v6.11517L58.628,25.28573Z"/>
        <path class="cls-1" d="M107.93708,27.51826h13.39513a9.8633,9.8633,0,0,1,.1456,1.01919q.04827.53489.04853,1.50453a19.77055,19.77055,0,0,1-1.1888,6.84316,17.36768,17.36768,0,0,1-3.42184,5.7269A16.30768,16.30768,0,0,1,111.48,46.54322a17.40957,17.40957,0,0,1-7.28,1.456,19.79014,19.79014,0,0,1-7.59517-1.40746,17.458,17.458,0,0,1-5.8485-3.85863,17.71227,17.71227,0,0,1-3.78558-5.70238,18.01456,18.01456,0,0,1,9.537-23.58708,17.70226,17.70226,0,0,1,7.06131-1.40746,20.15,20.15,0,0,1,4.63516.50935,17.65072,17.65072,0,0,1,3.93118,1.40745,14.58341,14.58341,0,0,1,3.13013,2.11145,12.62025,12.62025,0,0,1,2.23252,2.57225l-3.20318,3.59145a8.21575,8.21575,0,0,0-2.912-1.72318,12.06218,12.06218,0,0,0-3.737-.50934,10.57081,10.57081,0,0,0-4.02825.752,9.27139,9.27139,0,0,0-3.15465,2.08692,9.47213,9.47213,0,0,0-2.03839,3.15465,10.42535,10.42535,0,0,0-.728,3.90717,9.0414,9.0414,0,0,0,.75251,3.664,9.55757,9.55757,0,0,0,5.07146,5.04744,9.45847,9.45847,0,0,0,3.78558.75252,10.18,10.18,0,0,0,4.02824-.728,9.10128,9.10128,0,0,0,2.81492-1.82025,8.81625,8.81625,0,0,0,1.77171-2.42665,10.66758,10.66758,0,0,0,.89761-2.4992h-8.88155Z"/>
        <path class="cls-1" d="M159.67284,30.042a17.404,17.404,0,0,1-1.40746,6.98876,18.1112,18.1112,0,0,1-9.585,9.561,18.17584,18.17584,0,0,1-14.02606,0,17.84,17.84,0,0,1-5.7029-3.85863,18.39535,18.39535,0,0,1-3.83411-5.70238,17.38658,17.38658,0,0,1-1.40746-6.98876,17.56663,17.56663,0,0,1,1.40746-7.01329,18.33371,18.33371,0,0,1,3.83411-5.7269,17.86365,17.86365,0,0,1,5.7029-3.85813,18.17584,18.17584,0,0,1,14.02606,0,18.04216,18.04216,0,0,1,9.585,9.585A17.58435,17.58435,0,0,1,159.67284,30.042Zm-27.5668-.33974a9.33452,9.33452,0,0,0,.75252,3.73705,9.90831,9.90831,0,0,0,2.03839,3.05758,9.44872,9.44872,0,0,0,6.77011,2.81492,9.21991,9.21991,0,0,0,3.68852-.75252,9.7022,9.7022,0,0,0,3.05758-2.0624,10.06222,10.06222,0,0,0,2.08692-3.05758,9.0973,9.0973,0,0,0,.77653-3.737,8.82221,8.82221,0,0,0-.77653-3.6645,10.05592,10.05592,0,0,0-5.1445-5.12,8.98645,8.98645,0,0,0-3.68852-.77653,9.09737,9.09737,0,0,0-3.737.77653,9.75018,9.75018,0,0,0-3.03306,2.08692,9.99836,9.99836,0,0,0-2.03839,3.03306A9.05084,9.05084,0,0,0,132.106,29.70224Z"/>
        <path class="cls-1" d="M162.43922,12.6186H172.8253V28.92571a5.70327,5.70327,0,0,0,.36426,2.184,5.05614,5.05614,0,0,0,.94614,1.50453,5.49406,5.49406,0,0,0,1.40746.94614,4.06345,4.06345,0,0,0,1.74719.36425,4.15727,4.15727,0,0,0,1.79572-.38826,5.32288,5.32288,0,0,0,1.50453-1.06773,4.99909,4.99909,0,0,0,.84958-1.456,5.90814,5.90814,0,0,0,.31521-2.08693V12.6186h9.85222V32.1289a18.25387,18.25387,0,0,1-1.11575,6.77011,14.0528,14.0528,0,0,1-3.10663,4.78076,14.3287,14.3287,0,0,1-4.65918,3.10612,14.70016,14.70016,0,0,1-5.7269,1.11626,14.42172,14.42172,0,0,1-5.7269-1.14078,14.266,14.266,0,0,1-4.65918-3.17867A14.6365,14.6365,0,0,1,163.58,38.875a17.8506,17.8506,0,0,1-1.14079-6.79464Z"/>
        <path class="cls-1" d="M195.53828,47.41682V12.6186H211.5542a21.88708,21.88708,0,0,1,8.05649,1.31039,16.74625,16.74625,0,0,1,5.7269,3.737,17.042,17.042,0,0,1,3.73756,5.60532,17.71715,17.71715,0,0,1,1.30989,6.81915,17.17175,17.17175,0,0,1-1.35893,6.81864,16.75815,16.75815,0,0,1-3.8336,5.55729,17.14231,17.14231,0,0,1-5.60634,3.61546,21.4635,21.4635,0,0,1-8.08,1.33492ZM205.6822,29.41105a8.51458,8.51458,0,0,0,.655,3.34878,8.1466,8.1466,0,0,0,1.81973,2.69333,8.63516,8.63516,0,0,0,2.71785,1.79572,8.40194,8.40194,0,0,0,3.30025.65545,8.22478,8.22478,0,0,0,3.27573-.65545,8.71758,8.71758,0,0,0,2.69435-1.79572,8.48371,8.48371,0,0,0,1.84426-2.69333,8.26548,8.26548,0,0,0,.67947-3.34878,7.981,7.981,0,0,0-.67947-3.27624,8.87073,8.87073,0,0,0-4.53861-4.53759,7.9769,7.9769,0,0,0-3.27573-.67946,8.148,8.148,0,0,0-3.30025.67946,8.7775,8.7775,0,0,0-2.71785,1.84426,8.508,8.508,0,0,0-1.81973,2.69333A8.2199,8.2199,0,0,0,205.6822,29.41105Z"/>
        <path class="cls-1" d="M254.16625,34.16729l-8.34769-3.78558v5.8725h15.0943V47.41682H233.68529V12.6186h27.22757V23.29588h-15.0943v6.11517l8.34769-4.12532Z"/>
        <path class="cls-1" d="M264.84353,12.6186h7.42607L286.053,25.47987V12.6186h8.20158V48.29041L273.19122,30.139V47.41682h-8.34769Z"/>
        <path class="cls-1" d="M316.14249,47.41682V12.6186h16.01592A21.88708,21.88708,0,0,1,340.2149,13.929a16.74629,16.74629,0,0,1,5.72691,3.737,17.0422,17.0422,0,0,1,3.73756,5.60532,17.71733,17.71733,0,0,1,1.30988,6.81915,17.17175,17.17175,0,0,1-1.35893,6.81864,16.75815,16.75815,0,0,1-3.8336,5.55729,17.14231,17.14231,0,0,1-5.60634,3.61546,21.4635,21.4635,0,0,1-8.08,1.33492Zm10.14393-18.00577a8.51457,8.51457,0,0,0,.65494,3.34878,8.14675,8.14675,0,0,0,1.81973,2.69333,8.63509,8.63509,0,0,0,2.71786,1.79572,8.40187,8.40187,0,0,0,3.30025.65545,8.22477,8.22477,0,0,0,3.27572-.65545,8.71774,8.71774,0,0,0,2.69436-1.79572,8.48368,8.48368,0,0,0,1.84425-2.69333,8.26548,8.26548,0,0,0,.67947-3.34878,7.981,7.981,0,0,0-.67947-3.27624,8.87063,8.87063,0,0,0-4.53861-4.53759,7.97689,7.97689,0,0,0-3.27572-.67946,8.14793,8.14793,0,0,0-3.30025.67946,8.77743,8.77743,0,0,0-2.71786,1.84426,8.50813,8.50813,0,0,0-1.81973,2.69333A8.21989,8.21989,0,0,0,326.28642,29.41105Z"/>
        <path class="cls-1" d="M354.2895,12.6186h12.13327V47.41682H354.2895Zm.19413-6.7461a5.86471,5.86471,0,0,1,.46081-2.30557,5.7984,5.7984,0,0,1,1.23836-1.86827,5.97228,5.97228,0,0,1,8.34769,0,5.95947,5.95947,0,0,1,1.69815,4.17384,5.82694,5.82694,0,0,1-.46081,2.32959,5.89123,5.89123,0,0,1-1.23734,1.84426,5.79578,5.79578,0,0,1-1.86878,1.23734,5.85746,5.85746,0,0,1-2.30507.46131,5.849,5.849,0,0,1-4.17384-1.69865,5.841,5.841,0,0,1-1.69917-4.17385Z"/>
        <path class="cls-1" d="M391.36878,34.16729l-8.34769-3.78558v5.8725h15.0943V47.41682H370.88781V12.6186h27.22758V23.29588h-15.0943v6.11517l8.34769-4.12532Z"/>
        <path class="cls-1" d="M424.51739,36.54541,414.17933,31.8377V47.41682H402.04606V12.6186h23.15079V23.29588H414.17933V30.867l10.33806-5.04744Z"/>
      </g>
    </g>
  </g>
</svg>
