<?xml version="1.0" encoding="utf-8"?>
<!-- Generator: Adobe Illustrator 24.2.3, SVG Export Plug-In . SVG Version: 6.00 Build 0)  -->
<svg version="1.1" id="Layer_1" xmlns="http://www.w3.org/2000/svg" xmlns:xlink="http://www.w3.org/1999/xlink" x="0px" y="0px"
	 viewBox="0 0 160 159" style="enable-background:new 0 0 160 159;" xml:space="preserve">
<style type="text/css">
	.st0{fill:#FFE000;}
	.st1{fill:none;}
	.st2{fill:none;stroke:#281B16;stroke-width:10;}
	.st3{fill:#281B16;}
</style>
<g transform="translate(-783 -363)">
	<rect x="783" y="363" class="st0" width="160" height="159"/>
	<g transform="translate(793 373)">
		<rect y="0" class="st1" width="140" height="140"/>
		<rect x="5" y="5" class="st2" width="130" height="130"/>
	</g>
	<g transform="translate(814 427)">
		<g transform="translate(41.242)">
			<path class="st3" d="M0,0h16.4L8.2,14.2L0,0z"/>
			<path class="st3" d="M16.4,0L8.2,14.2L0.1,0H16.4 M16.4,0H0l8.2,14.2L16.4,0z"/>
		</g>
		<g transform="translate(10.31 16.323)">
			<path class="st3" d="M0,0h16.4L8.2,14.2L0,0z"/>
			<path class="st3" d="M16.4,0L8.2,14.2L0.1,0H16.4 M16.4,0H0l8.2,14.2L16.4,0z"/>
		</g>
		<g transform="translate(30.931 16.323)">
			<path class="st3" d="M0,0h16.4L8.2,14.2L0,0z"/>
			<path class="st3" d="M16.4,0L8.2,14.2L0.1,0H16.4 M16.4,0H0l8.2,14.2L16.4,0z"/>
		</g>
		<g transform="translate(51.552 16.323)">
			<path class="st3" d="M0,0h16.4L8.2,14.2L0,0z"/>
			<path class="st3" d="M16.4,0L8.2,14.2L0.1,0H16.4 M16.4,0H0l8.2,14.2L16.4,0z"/>
		</g>
		<g transform="translate(72.173 16.323)">
			<path class="st3" d="M0,0h16.4L8.2,14.2L0,0z"/>
			<path class="st3" d="M16.4,0L8.2,14.2L0.1,0H16.4 M16.4,0H0l8.2,14.2L16.4,0z"/>
		</g>
		<g transform="translate(20.621 16.323)">
			<path class="st3" d="M0,14.2L8.2,0l8.2,14.2H0z"/>
			<path class="st3" d="M8.2,0.1l8.2,14.1H0.1L8.2,0.1 M8.2,0L0,14.2h16.4L8.2,0z"/>
		</g>
		<g transform="translate(41.242 16.323)">
			<path class="st3" d="M0,14.2L8.2,0l8.2,14.2H0z"/>
			<path class="st3" d="M8.2,0.1l8.2,14.1H0.1L8.2,0.1 M8.2,0L0,14.2h16.4L8.2,0z"/>
		</g>
		<g transform="translate(61.863 16.323)">
			<path class="st3" d="M0,14.2L8.2,0l8.2,14.2H0z"/>
			<path class="st3" d="M8.2,0.1l8.2,14.1H0.1L8.2,0.1 M8.2,0L0,14.2h16.4L8.2,0z"/>
		</g>
		<g transform="translate(82.483 16.323)">
			<path class="st3" d="M0,14.2L8.2,0l8.2,14.2H0z"/>
			<path class="st3" d="M8.2,0.1l8.2,14.1H0.1L8.2,0.1 M8.2,0L0,14.2h16.4L8.2,0z"/>
		</g>
		<g transform="translate(0 16.323)">
			<path class="st3" d="M0,14.2L8.2,0l8.2,14.2H0z"/>
			<path class="st3" d="M8.2,0.1l8.2,14.1H0.1L8.2,0.1 M8.2,0L0,14.2h16.4L8.2,0z"/>
		</g>
		<g transform="translate(30.931)">
			<path class="st3" d="M0,14.2L8.2,0l8.2,14.2H0z"/>
			<path class="st3" d="M8.2,0.1l8.2,14.1H0.1L8.2,0.1 M8.2,0L0,14.2h16.4L8.2,0z"/>
		</g>
		<g transform="translate(51.552)">
			<path class="st3" d="M0,14.2L8.2,0l8.2,14.2H0z"/>
			<path class="st3" d="M8.2,0.1l8.2,14.1H0.1L8.2,0.1 M8.2,0L0,14.2h16.4L8.2,0z"/>
		</g>
	</g>
</g>
</svg>
