<svg xmlns="http://www.w3.org/2000/svg" width="1414.99994" height="437.03198" viewBox="0 0 1414.99994 437.03198">
  <defs>
    <style>
      .cls-1 {
        fill: #fff;
      }
    </style>
  </defs>
  <g id="Layer_2" data-name="Layer 2">
    <g id="Layer_5" data-name="Layer 5">
      <g>
        <g>
          <polygon class="cls-1" points="590.433 0.25 824.568 0.25 707.5 203.016 590.433 0.25"/>
          <path d="M824.134.5,707.5,202.51587,590.866.5H824.134m.866-.5H590L707.5,203.51587,824.99994,0Z"/>
        </g>
        <g>
          <polygon class="cls-1" points="147.933 233.766 382.068 233.766 265 436.532 147.933 233.766"/>
          <path d="M381.634,234.01587,265,436.032,148.366,234.01587H381.634m.866-.5h-235L265,437.032,382.5,233.51587Z"/>
        </g>
        <g>
          <polygon class="cls-1" points="442.933 233.766 677.068 233.766 560 436.532 442.933 233.766"/>
          <path d="M676.634,234.01587,560,436.032,443.366,234.01587H676.634m.866-.5h-235L560,437.032,677.5,233.51587Z"/>
        </g>
        <g>
          <polygon class="cls-1" points="737.933 233.766 972.068 233.766 855 436.532 737.933 233.766"/>
          <path d="M971.634,234.01587,854.99994,436.032,738.366,234.01587H971.634m.866-.5H737.5L854.99994,437.032l117.5-203.51611Z"/>
        </g>
        <g>
          <polygon class="cls-1" points="1032.933 233.766 1267.068 233.766 1150 436.532 1032.933 233.766"/>
          <path d="M1266.634,234.01587,1149.99994,436.032l-116.634-202.01611H1266.634m.866-.5h-235l117.5,203.51611,117.5-203.51611Z"/>
        </g>
        <g>
          <polygon class="cls-1" points="295.433 436.782 412.5 234.016 529.568 436.782 295.433 436.782"/>
          <path d="M412.5,234.51587,529.134,436.532H295.866L412.5,234.51587m0-1L295,437.032H530L412.5,233.51587Z"/>
        </g>
        <g>
          <polygon class="cls-1" points="590.433 436.782 707.5 234.016 824.568 436.782 590.433 436.782"/>
          <path d="M707.5,234.51587,824.134,436.532H590.866L707.5,234.51587m0-1L590,437.032H824.99994L707.5,233.51587Z"/>
        </g>
        <g>
          <polygon class="cls-1" points="885.433 436.782 1002.5 234.016 1119.568 436.782 885.433 436.782"/>
          <path d="M1002.49994,234.51587,1119.134,436.532H885.86591l116.634-202.01611m0-1-117.5,203.51611h235l-117.5-203.51611Z"/>
        </g>
        <g>
          <polygon class="cls-1" points="1180.433 436.782 1297.5 234.016 1414.568 436.782 1180.433 436.782"/>
          <path d="M1297.49994,234.51587,1414.134,436.532H1180.86591l116.634-202.01611m0-1-117.5,203.51611h235l-117.5-203.51611Z"/>
        </g>
        <g>
          <polygon class="cls-1" points="0.433 436.782 117.5 234.016 234.568 436.782 0.433 436.782"/>
          <path d="M117.5,234.51587,234.134,436.532H.866L117.5,234.51587m0-1L0,437.032H235L117.5,233.51587Z"/>
        </g>
        <g>
          <polygon class="cls-1" points="442.933 203.266 560 0.5 677.068 203.266 442.933 203.266"/>
          <path d="M560,1,676.634,203.01587H443.366L560,1m0-1L442.5,203.51587h235L560,0Z"/>
        </g>
        <g>
          <polygon class="cls-1" points="737.933 203.266 855 0.5 972.068 203.266 737.933 203.266"/>
          <path d="M854.99994,1,971.634,203.01587H738.366L854.99994,1m0-1L737.5,203.51587H972.49994L854.99994,0Z"/>
        </g>
      </g>
    </g>
  </g>
</svg>
