<svg xmlns="http://www.w3.org/2000/svg" width="160" height="159" viewBox="0 0 160 159"><g transform="translate(-783 -363)"><rect width="160" height="159" transform="translate(783 363)" fill="#fff"/><g transform="translate(793 373)" fill="none" stroke="#281b16" stroke-width="10"><rect width="140" height="140" stroke="none"/><rect x="5" y="5" width="130" height="130" fill="none"/></g><g transform="translate(814 427)"><g transform="translate(41.242)"><path d="M590.433.25H606.8l-8.183,14.174Z" transform="translate(-590.403 -0.233)" fill="#281b16"/><path d="M606.366.035l-8.153,14.121L590.06.035h16.306M606.427,0H590l8.213,14.226Z" transform="translate(-590)" fill="#281b16"/></g><g transform="translate(10.31 16.323)"><path d="M147.933,233.766H164.3l-8.183,14.174Z" transform="translate(-147.903 -233.748)" fill="#281b16"/><path d="M163.866,233.551l-8.153,14.121-8.153-14.121h16.306m.061-.035H147.5l8.213,14.226Z" transform="translate(-147.5 -233.516)" fill="#281b16"/></g><g transform="translate(30.931 16.323)"><path d="M442.933,233.766H459.3l-8.183,14.174Z" transform="translate(-442.903 -233.748)" fill="#281b16"/><path d="M458.866,233.551l-8.153,14.121-8.153-14.121h16.306m.061-.035H442.5l8.213,14.226Z" transform="translate(-442.5 -233.516)" fill="#281b16"/></g><g transform="translate(51.552 16.323)"><path d="M737.933,233.766H754.3l-8.183,14.174Z" transform="translate(-737.903 -233.748)" fill="#281b16"/><path d="M753.866,233.551l-8.153,14.121-8.153-14.121h16.306m.06-.035H737.5l8.213,14.226Z" transform="translate(-737.5 -233.516)" fill="#281b16"/></g><g transform="translate(72.173 16.323)"><path d="M1032.933,233.766H1049.3l-8.183,14.174Z" transform="translate(-1032.903 -233.748)" fill="#281b16"/><path d="M1048.866,233.551l-8.153,14.121-8.153-14.121h16.305m.061-.035H1032.5l8.213,14.226Z" transform="translate(-1032.5 -233.516)" fill="#281b16"/></g><g transform="translate(20.621 16.323)"><path d="M295.433,248.19l8.183-14.174L311.8,248.19Z" transform="translate(-295.403 -233.981)" fill="#281b16"/><path d="M303.213,233.586l8.153,14.121H295.061l8.153-14.121m0-.07L295,247.742h16.427Z" transform="translate(-295 -233.516)" fill="#281b16"/></g><g transform="translate(41.242 16.323)"><path d="M590.433,248.19l8.183-14.174L606.8,248.19Z" transform="translate(-590.403 -233.981)" fill="#281b16"/><path d="M598.213,233.586l8.153,14.121H590.06l8.153-14.121m0-.07L590,247.742h16.427Z" transform="translate(-590 -233.516)" fill="#281b16"/></g><g transform="translate(61.863 16.323)"><path d="M885.433,248.19l8.183-14.174L901.8,248.19Z" transform="translate(-885.403 -233.981)" fill="#281b16"/><path d="M893.213,233.586l8.153,14.121H885.06l8.153-14.121m0-.07L885,247.742h16.427Z" transform="translate(-885 -233.516)" fill="#281b16"/></g><g transform="translate(82.483 16.323)"><path d="M1180.433,248.19l8.183-14.174,8.183,14.174Z" transform="translate(-1180.403 -233.981)" fill="#281b16"/><path d="M1188.213,233.586l8.153,14.121H1180.06l8.153-14.121m0-.07L1180,247.742h16.427Z" transform="translate(-1180 -233.516)" fill="#281b16"/></g><g transform="translate(0 16.323)"><path d="M.433,248.19l8.183-14.174L16.8,248.19Z" transform="translate(-0.403 -233.981)" fill="#281b16"/><path d="M8.213,233.586l8.153,14.121H.061l8.153-14.121m0-.07L0,247.742H16.427Z" transform="translate(0 -233.516)" fill="#281b16"/></g><g transform="translate(30.931)"><path d="M442.933,14.674,451.116.5,459.3,14.674Z" transform="translate(-442.903 -0.465)" fill="#281b16"/><path d="M450.713.07l8.153,14.121H442.561L450.713.07m0-.07L442.5,14.226h16.427Z" transform="translate(-442.5)" fill="#281b16"/></g><g transform="translate(51.552)"><path d="M737.933,14.674,746.116.5,754.3,14.674Z" transform="translate(-737.903 -0.465)" fill="#281b16"/><path d="M745.713.07l8.153,14.121H737.56L745.713.07m0-.07L737.5,14.226h16.427Z" transform="translate(-737.5)" fill="#281b16"/></g></g></g></svg>