<svg xmlns="http://www.w3.org/2000/svg" width="825" height="904.0639" viewBox="0 0 825 904.0639">
  <defs>
    <style>
      .cls-1 {
        fill: #fff;
      }
    </style>
  </defs>
  <g id="Layer_2" data-name="Layer 2">
    <g id="Layer_5" data-name="Layer 5">
      <g>
        <g>
          <polygon class="cls-1" points="147.933 203.266 265 0.5 382.067 203.266 147.933 203.266"/>
          <path d="M265,1,381.634,203.016H148.366L265,1m0-1L147.5,203.516h235L265,0Z"/>
        </g>
        <g>
          <polygon class="cls-1" points="147.933 670.298 265 467.532 382.067 670.298 147.933 670.298"/>
          <path d="M265,468.03192l116.634,202.016H148.366L265,468.03192m0-1-117.5,203.516h235L265,467.03192Z"/>
        </g>
        <g>
          <polygon class="cls-1" points="295.433 436.782 412.5 234.016 529.567 436.782 295.433 436.782"/>
          <path d="M412.5,234.51593l116.634,202.016H295.866L412.5,234.51593m0-1L295,437.03192H530l-117.5-203.516Z"/>
        </g>
        <g>
          <polygon class="cls-1" points="147.933 700.798 382.067 700.798 265 903.564 147.933 700.798"/>
          <path d="M381.634,701.04791,265,903.0639l-116.634-202.016H381.634m.866-.5h-235L265,904.0639l117.5-203.516Z"/>
        </g>
        <g>
          <polygon class="cls-1" points="295.433 467.282 529.567 467.282 412.5 670.048 295.433 467.282"/>
          <path d="M529.134,467.53192,412.5,669.54791l-116.634-202.016H529.134m.866-.5H295l117.5,203.516L530,467.03192Z"/>
        </g>
        <g>
          <polygon class="cls-1" points="442.933 233.766 677.067 233.766 560 436.532 442.933 233.766"/>
          <path d="M676.634,234.01593,560,436.03192l-116.634-202.016H676.634m.866-.5h-235L560,437.03192l117.5-203.516Z"/>
        </g>
        <g>
          <polygon class="cls-1" points="0.433 903.814 117.5 701.048 234.567 903.814 0.433 903.814"/>
          <path d="M117.5,701.54791l116.634,202.016H.866L117.5,701.54791m0-1L0,904.0639H235l-117.5-203.516Z"/>
        </g>
        <g>
          <polygon class="cls-1" points="442.933 203.266 560 0.5 677.067 203.266 442.933 203.266"/>
          <path d="M560,1,676.634,203.016H443.366L560,1m0-1L442.5,203.516h235L560,0Z"/>
        </g>
        <g>
          <polygon class="cls-1" points="295.433 0.25 529.567 0.25 412.5 203.016 295.433 0.25"/>
          <path d="M529.134.5,412.5,202.516,295.866.5H529.134M530,0H295L412.5,203.516,530,0Z"/>
        </g>
        <g>
          <polygon class="cls-1" points="590.433 0.25 824.567 0.25 707.5 203.016 590.433 0.25"/>
          <path d="M824.134.5,707.5,202.516,590.866.5H824.134M825,0H590L707.5,203.516,825,0Z"/>
        </g>
        <g>
          <polygon class="cls-1" points="0.433 0.25 234.567 0.25 117.5 203.016 0.433 0.25"/>
          <path d="M234.134.5,117.5,202.516.866.5H234.134M235,0H0L117.5,203.516,235,0Z"/>
        </g>
      </g>
    </g>
  </g>
</svg>
