<svg xmlns="http://www.w3.org/2000/svg" width="159" height="159" viewBox="0 0 159 159"><g transform="translate(-588 -363)"><rect width="159" height="159" transform="translate(588 363)" fill="#fff"/><g transform="translate(598 373)" fill="none" stroke="#281b16" stroke-width="10"><rect width="140" height="140" stroke="none"/><rect x="5" y="5" width="130" height="130" fill="none"/></g><g transform="translate(631 402)"><g transform="translate(13.093)"><path d="M147.933,18.5,158.325.5l10.392,18Z" transform="translate(-147.895 -0.456)" fill="#281b16"/><path d="M157.93.089l10.353,17.933H147.577L157.93.089m0-.089L147.5,18.066h20.861Z" transform="translate(-147.5)" fill="#281b16"/></g><g transform="translate(13.093 41.458)"><path d="M147.933,485.531l10.392-18,10.392,18Z" transform="translate(-147.895 -467.488)" fill="#281b16"/><path d="M157.93,467.121l10.353,17.933H147.577l10.353-17.933m0-.089L147.5,485.1h20.861Z" transform="translate(-147.5 -467.032)" fill="#281b16"/></g><g transform="translate(26.187 20.729)"><path d="M295.433,252.015l10.392-18,10.392,18Z" transform="translate(-295.395 -233.972)" fill="#281b16"/><path d="M305.43,233.6l10.353,17.933H295.077L305.43,233.6m0-.089L295,251.582h20.861Z" transform="translate(-295 -233.516)" fill="#281b16"/></g><g transform="translate(13.093 62.187)"><path d="M147.933,700.8h20.784l-10.392,18Z" transform="translate(-147.895 -700.776)" fill="#281b16"/><path d="M168.284,700.592,157.93,718.525l-10.353-17.933h20.707m.077-.044H147.5l10.43,18.066Z" transform="translate(-147.5 -700.548)" fill="#281b16"/></g><g transform="translate(26.187 41.458)"><path d="M295.433,467.282h20.784l-10.392,18Z" transform="translate(-295.395 -467.26)" fill="#281b16"/><path d="M315.784,467.076,305.43,485.009l-10.353-17.933h20.707m.077-.044H295L305.43,485.1Z" transform="translate(-295 -467.032)" fill="#281b16"/></g><g transform="translate(39.28 20.729)"><path d="M442.933,233.766h20.784l-10.392,18Z" transform="translate(-442.895 -233.744)" fill="#281b16"/><path d="M463.284,233.56,452.93,251.493,442.577,233.56h20.707m.077-.044H442.5l10.43,18.066Z" transform="translate(-442.5 -233.516)" fill="#281b16"/></g><g transform="translate(0 62.187)"><path d="M.433,719.047l10.392-18,10.392,18Z" transform="translate(-0.395 -701.004)" fill="#281b16"/><path d="M10.43,700.637l10.353,17.933H.077L10.43,700.637m0-.089L0,718.614H20.861Z" transform="translate(0 -700.548)" fill="#281b16"/></g><g transform="translate(39.28)"><path d="M442.933,18.5,453.325.5l10.392,18Z" transform="translate(-442.895 -0.456)" fill="#281b16"/><path d="M452.93.089l10.353,17.933H442.577L452.93.089m0-.089L442.5,18.066h20.861Z" transform="translate(-442.5)" fill="#281b16"/></g><g transform="translate(26.187)"><path d="M295.433.25h20.784l-10.392,18Z" transform="translate(-295.395 -0.228)" fill="#281b16"/><path d="M315.784.044,305.43,17.977,295.077.044h20.707M315.861,0H295l10.43,18.066Z" transform="translate(-295)" fill="#281b16"/></g><g transform="translate(52.373)"><path d="M590.433.25h20.784l-10.392,18Z" transform="translate(-590.395 -0.228)" fill="#281b16"/><path d="M610.784.044,600.43,17.977,590.077.044h20.707M610.861,0H590l10.43,18.066Z" transform="translate(-590)" fill="#281b16"/></g><path d="M.433.25H21.217l-10.392,18Z" transform="translate(-0.395 -0.228)" fill="#281b16"/><path d="M20.784.044,10.43,17.977.077.044H20.784M20.861,0H0L10.43,18.066Z" fill="#281b16"/></g></g></svg>