<?xml version="1.0" encoding="utf-8"?>
<!-- Generator: Adobe Illustrator 24.2.3, SVG Export Plug-In . SVG Version: 6.00 Build 0)  -->
<svg version="1.1" id="Layer_1" xmlns="http://www.w3.org/2000/svg" xmlns:xlink="http://www.w3.org/1999/xlink" x="0px" y="0px"
	 viewBox="0 0 159 159" style="enable-background:new 0 0 159 159;" xml:space="preserve">
<style type="text/css">
	.st0{fill:#FFE000;}
	.st1{fill:none;}
	.st2{fill:none;stroke:#281B16;stroke-width:10;}
	.st3{fill:#281B16;}
</style>
<g transform="translate(-588 -363)">
	<rect x="588" y="363" class="st0" width="159" height="159"/>
	<g transform="translate(598 373)">
		<rect y="0" class="st1" width="140" height="140"/>
		<rect x="5" y="5" class="st2" width="130" height="130"/>
	</g>
	<g transform="translate(631 402)">
		<g transform="translate(13.093)">
			<path class="st3" d="M0,18L10.4,0l10.4,18H0z"/>
			<path class="st3" d="M10.4,0.1L20.8,18H0.1L10.4,0.1 M10.4,0L0,18.1h20.9L10.4,0z"/>
		</g>
		<g transform="translate(13.093 41.458)">
			<path class="st3" d="M0,18L10.4,0l10.4,18H0z"/>
			<path class="st3" d="M10.4,0.1L20.8,18H0.1L10.4,0.1 M10.4,0L0,18.1h20.9L10.4,0z"/>
		</g>
		<g transform="translate(26.187 20.729)">
			<path class="st3" d="M0,18L10.4,0l10.4,18H0z"/>
			<path class="st3" d="M10.4,0.1L20.8,18H0.1L10.4,0.1 M10.4,0L0,18.1h20.9L10.4,0z"/>
		</g>
		<g transform="translate(13.093 62.187)">
			<path class="st3" d="M0,0h20.8L10.4,18L0,0z"/>
			<path class="st3" d="M20.8,0L10.4,18L0.1,0L20.8,0 M20.9,0H0l10.4,18.1L20.9,0z"/>
		</g>
		<g transform="translate(26.187 41.458)">
			<path class="st3" d="M0,0h20.8L10.4,18L0,0z"/>
			<path class="st3" d="M20.8,0L10.4,18L0.1,0H20.8 M20.9,0H0l10.4,18.1L20.9,0z"/>
		</g>
		<g transform="translate(39.28 20.729)">
			<path class="st3" d="M0,0h20.8L10.4,18L0,0z"/>
			<path class="st3" d="M20.8,0L10.4,18L0.1,0H20.8 M20.9,0H0l10.4,18.1L20.9,0z"/>
		</g>
		<g transform="translate(0 62.187)">
			<path class="st3" d="M0,18L10.4,0l10.4,18H0z"/>
			<path class="st3" d="M10.4,0.1L20.8,18H0.1L10.4,0.1 M10.4,0L0,18.1h20.9L10.4,0z"/>
		</g>
		<g transform="translate(39.28)">
			<path class="st3" d="M0,18L10.4,0l10.4,18H0z"/>
			<path class="st3" d="M10.4,0.1L20.8,18H0.1L10.4,0.1 M10.4,0L0,18.1h20.9L10.4,0z"/>
		</g>
		<g transform="translate(26.187)">
			<path class="st3" d="M0,0h20.8L10.4,18L0,0z"/>
			<path class="st3" d="M20.8,0L10.4,18L0.1,0H20.8 M20.9,0H0l10.4,18.1L20.9,0z"/>
		</g>
		<g transform="translate(52.373)">
			<path class="st3" d="M0,0h20.8L10.4,18L0,0z"/>
			<path class="st3" d="M20.8,0L10.4,18L0.1,0H20.8 M20.9,0H0l10.4,18.1L20.9,0z"/>
		</g>
		<path class="st3" d="M0,0h20.8L10.4,18L0,0z"/>
		<path class="st3" d="M20.8,0L10.4,18L0.1,0H20.8 M20.9,0H0l10.4,18.1L20.9,0z"/>
	</g>
</g>
</svg>
