<?xml version="1.0" encoding="utf-8"?>
<!-- Generator: Adobe Illustrator 24.2.3, SVG Export Plug-In . SVG Version: 6.00 Build 0)  -->
<svg version="1.1" id="Layer_1" xmlns="http://www.w3.org/2000/svg" xmlns:xlink="http://www.w3.org/1999/xlink" x="0px" y="0px"
	 viewBox="0 0 160 160" style="enable-background:new 0 0 160 160;" xml:space="preserve">
<style type="text/css">
	.st0{fill:#FFE000;}
	.st1{fill:none;}
	.st2{fill:none;stroke:#281B16;stroke-width:10;}
	.st3{fill:#281B16;}
</style>
<g transform="translate(-783 -558)">
	<rect x="783" y="558" class="st0" width="160" height="160"/>
	<g transform="translate(793 568)">
		<rect y="0" class="st1" width="140" height="140"/>
		<rect x="5" y="5" class="st2" width="130" height="130"/>
	</g>
	<g transform="translate(821 592)">
		<g transform="translate(30.01 47.51)">
			<path class="st3" d="M0,20.7L12,0.1l11.9,20.6H0z"/>
			<path class="st3" d="M12,0.1l11.9,20.6H0.1L12,0.1 M12,0L0,20.7h23.9L12,0z"/>
		</g>
		<g transform="translate(30.01 71.265)">
			<path class="st3" d="M0,0h23.8L12,20.7L0,0z"/>
			<path class="st3" d="M23.8,0.1L12,20.6L0.1,0.1H23.8 M23.9,0H0l12,20.7L23.9,0z"/>
		</g>
		<g transform="translate(0 47.51)">
			<path class="st3" d="M0,20.7L12,0.1l11.9,20.6H0z"/>
			<path class="st3" d="M12,0.1l11.9,20.6H0.1L12,0.1 M12,0L0,20.7h23.9L12,0z"/>
		</g>
		<g transform="translate(0 23.755)">
			<path class="st3" d="M0,0h23.8L12,20.7L0,0z"/>
			<path class="st3" d="M23.8,0.1L12,20.6L0.1,0.1H23.8 M23.9,0H0l12,20.7L23.9,0z"/>
		</g>
		<g transform="translate(30.01)">
			<path class="st3" d="M0,20.7L12,0.1l11.9,20.6H0z"/>
			<path class="st3" d="M12,0.1l11.9,20.6H0.1L12,0.1 M12,0L0,20.7h23.9L12,0z"/>
		</g>
		<g transform="translate(60.02 23.755)">
			<path class="st3" d="M0,0h23.8L12,20.7L0,0z"/>
			<path class="st3" d="M23.8,0.1L12,20.6L0.1,0.1H23.8 M23.9,0H0l12,20.7L23.9,0z"/>
		</g>
		<g transform="translate(60.02 47.51)">
			<path class="st3" d="M0,20.7L12,0.1l11.9,20.6H0z"/>
			<path class="st3" d="M12,0.1l11.9,20.6H0.1L12,0.1 M12,0L0,20.7h23.9L12,0z"/>
		</g>
		<g transform="translate(15.005 47.51)">
			<path class="st3" d="M0,0h23.8L12,20.7L0,0z"/>
			<path class="st3" d="M0.1,0.1h23.7L12,20.6L0.1,0.1 M0,0l12,20.7L23.9,0H0z"/>
		</g>
		<g transform="translate(15.005 23.755)">
			<path class="st3" d="M0,20.7L12,0.1l11.9,20.6H0z"/>
			<path class="st3" d="M12,0.1l11.9,20.6H0.1L12,0.1 M12,0L0,20.7h23.9L12,0z"/>
		</g>
		<g transform="translate(30.01 23.755)">
			<path class="st3" d="M0,0h23.8L12,20.7L0,0z"/>
			<path class="st3" d="M23.8,0.1L12,20.6L0.1,0.1H23.8 M23.9,0H0l12,20.7L23.9,0z"/>
		</g>
		<g transform="translate(45.015 47.51)">
			<path class="st3" d="M0,0h23.8L12,20.7L0,0z"/>
			<path class="st3" d="M23.8,0.1L12,20.6L0.1,0.1H23.8 M23.9,0H0l12,20.7L23.9,0z"/>
		</g>
		<g transform="translate(45.015 23.755)">
			<path class="st3" d="M0,20.7L12,0.1l11.9,20.6H0z"/>
			<path class="st3" d="M12,0.1l11.9,20.6H0.1L12,0.1 M12,0L0,20.7h23.9L12,0z"/>
		</g>
	</g>
</g>
</svg>
