<svg xmlns="http://www.w3.org/2000/svg" width="825" height="904.06384" viewBox="0 0 825 904.06384">
  <defs>
    <style>
      .cls-1 {
        fill: #fff;
      }
    </style>
  </defs>
  <g id="Layer_2" data-name="Layer 2">
    <g id="Layer_5" data-name="Layer 5">
      <g>
        <g>
          <polygon class="cls-1" points="295.433 670.297 412.5 467.532 529.567 670.297 295.433 670.297"/>
          <path d="M412.5,468.032,529.13379,670.048l-233.26758-.00012L412.5,468.032m0-1L295,670.54785l235,.00012L412.5,467.032Z"/>
        </g>
        <g>
          <polygon class="cls-1" points="295.433 700.797 529.567 700.797 412.5 903.564 295.433 700.797"/>
          <path d="M529.13379,701.04785,412.5,903.06384l-116.63379-202.016H529.13379m.86621-.5H295l117.5,203.516L530,700.54785Z"/>
        </g>
        <g>
          <polygon class="cls-1" points="0.433 670.297 117.5 467.532 234.567 670.297 0.433 670.297"/>
          <path d="M117.5,468.032,234.13379,670.04785H.86621L117.5,468.032m0-1L0,670.54785H235L117.5,467.032Z"/>
        </g>
        <g>
          <polygon class="cls-1" points="0.433 233.766 234.567 233.766 117.5 436.532 0.433 233.766"/>
          <path d="M234.13379,234.016,117.5,436.032.86621,234.016H234.13379m.86621-.5H0L117.5,437.032,235,233.516Z"/>
        </g>
        <g>
          <polygon class="cls-1" points="295.433 203.266 412.5 0.5 529.567 203.266 295.433 203.266"/>
          <path d="M412.5,1,529.13379,203.01587H295.86621L412.5,1m0-1L295,203.51587H530L412.5,0Z"/>
        </g>
        <g>
          <polygon class="cls-1" points="590.433 233.766 824.567 233.766 707.5 436.532 590.433 233.766"/>
          <path d="M824.134,234.016,707.5,436.032,590.86621,234.016H824.134m.866-.5H590L707.5,437.032,825,233.516Z"/>
        </g>
        <g>
          <polygon class="cls-1" points="590.433 670.297 707.5 467.532 824.567 670.297 590.433 670.297"/>
          <path d="M707.5,468.032,824.134,670.04785H590.86621L707.5,468.032m0-1L590,670.54785H825L707.5,467.032Z"/>
        </g>
        <g>
          <polygon class="cls-1" points="147.933 467.282 382.067 467.282 265 670.047 147.933 467.282"/>
          <path d="M148.36621,467.53186l233.26758.00012L265,669.54785l-116.63379-202.016m-.86621-.5L265,670.54785,382.5,467.032l-235-.00012Z"/>
        </g>
        <g>
          <polygon class="cls-1" points="147.933 436.782 265 234.016 382.067 436.782 147.933 436.782"/>
          <path d="M265,234.516,381.63379,436.532H148.36621L265,234.516m0-1L147.5,437.032h235L265,233.516Z"/>
        </g>
        <g>
          <polygon class="cls-1" points="295.433 233.766 529.567 233.766 412.5 436.532 295.433 233.766"/>
          <path d="M529.13379,234.016,412.5,436.032,295.86621,234.016H529.13379m.86621-.5H295L412.5,437.032,530,233.516Z"/>
        </g>
        <g>
          <polygon class="cls-1" points="442.933 467.282 677.067 467.282 560 670.047 442.933 467.282"/>
          <path d="M676.634,467.532,560,669.548,443.36621,467.532H676.634m.866-.5h-235L560,670.548,677.5,467.032Z"/>
        </g>
        <g>
          <polygon class="cls-1" points="442.933 436.782 560 234.016 677.067 436.782 442.933 436.782"/>
          <path d="M560,234.51587,676.634,436.532l-233.26782-.00012L560,234.51587m0-1-117.5,203.516,235,.00012L560,233.51587Z"/>
        </g>
      </g>
    </g>
  </g>
</svg>
