<svg xmlns="http://www.w3.org/2000/svg" width="160" height="160" viewBox="0 0 160 160"><g transform="translate(-783 -558)"><rect width="160" height="160" transform="translate(783 558)" fill="#fff"/><g transform="translate(793 568)" fill="none" stroke="#281b16" stroke-width="10"><rect width="140" height="140" stroke="none"/><rect x="5" y="5" width="130" height="130" fill="none"/></g><g transform="translate(821 592)"><g transform="translate(30.01 47.51)"><path d="M295.433,488.159l11.909-20.627,11.909,20.627Z" transform="translate(-295.389 -467.481)" fill="#281b16"/><path d="M306.953,467.134l11.865,20.551h-23.73l11.865-20.551m0-.1L295,487.735h23.906Z" transform="translate(-295 -467.032)" fill="#281b16"/></g><g transform="translate(30.01 71.265)"><path d="M295.433,700.8h23.818l-11.909,20.627Z" transform="translate(-295.389 -700.772)" fill="#281b16"/><path d="M318.818,700.6l-11.865,20.551L295.088,700.6h23.73m.088-.051H295l11.953,20.7Z" transform="translate(-295 -700.548)" fill="#281b16"/></g><g transform="translate(0 47.51)"><path d="M.433,488.159l11.909-20.627,11.909,20.627Z" transform="translate(-0.389 -467.481)" fill="#281b16"/><path d="M11.953,467.134l11.865,20.551H.088l11.865-20.551m0-.1L0,487.735H23.906Z" transform="translate(0 -467.032)" fill="#281b16"/></g><g transform="translate(0 23.755)"><path d="M.433,233.766H24.251L12.342,254.393Z" transform="translate(-0.389 -233.741)" fill="#281b16"/><path d="M23.818,233.567,11.953,254.118.088,233.567h23.73m.088-.051H0l11.953,20.7Z" transform="translate(0 -233.516)" fill="#281b16"/></g><g transform="translate(30.01)"><path d="M295.433,21.127,307.342.5l11.909,20.627Z" transform="translate(-295.389 -0.449)" fill="#281b16"/><path d="M306.953.1l11.865,20.551h-23.73L306.953.1m0-.1L295,20.7h23.906Z" transform="translate(-295)" fill="#281b16"/></g><g transform="translate(60.02 23.755)"><path d="M590.433,233.766h23.818l-11.909,20.627Z" transform="translate(-590.389 -233.741)" fill="#281b16"/><path d="M613.818,233.567l-11.865,20.551-11.865-20.551h23.73m.088-.051H590l11.953,20.7Z" transform="translate(-590 -233.516)" fill="#281b16"/></g><g transform="translate(60.02 47.51)"><path d="M590.433,488.159l11.909-20.627,11.909,20.627Z" transform="translate(-590.389 -467.481)" fill="#281b16"/><path d="M601.953,467.134l11.865,20.551h-23.73l11.865-20.551m0-.1L590,487.735h23.906Z" transform="translate(-590 -467.032)" fill="#281b16"/></g><g transform="translate(15.005 47.51)"><path d="M147.933,467.282h23.818l-11.909,20.627Z" transform="translate(-147.889 -467.257)" fill="#281b16"/><path d="M147.588,467.083h23.73l-11.865,20.551-11.865-20.551m-.088-.051,11.953,20.7,11.953-20.7Z" transform="translate(-147.5 -467.032)" fill="#281b16"/></g><g transform="translate(15.005 23.755)"><path d="M147.933,254.643l11.909-20.627,11.909,20.627Z" transform="translate(-147.889 -233.965)" fill="#281b16"/><path d="M159.453,233.618l11.865,20.551h-23.73l11.865-20.551m0-.1-11.953,20.7h23.906Z" transform="translate(-147.5 -233.516)" fill="#281b16"/></g><g transform="translate(30.01 23.755)"><path d="M295.433,233.766h23.818l-11.909,20.627Z" transform="translate(-295.389 -233.741)" fill="#281b16"/><path d="M318.818,233.567l-11.865,20.551-11.865-20.551h23.73m.088-.051H295l11.953,20.7Z" transform="translate(-295 -233.516)" fill="#281b16"/></g><g transform="translate(45.015 47.51)"><path d="M442.933,467.282h23.818l-11.909,20.627Z" transform="translate(-442.889 -467.257)" fill="#281b16"/><path d="M466.318,467.083l-11.865,20.551-11.865-20.551h23.73m.088-.051H442.5l11.953,20.7Z" transform="translate(-442.5 -467.032)" fill="#281b16"/></g><g transform="translate(45.015 23.755)"><path d="M442.933,254.643l11.909-20.627,11.909,20.627Z" transform="translate(-442.889 -233.965)" fill="#281b16"/><path d="M454.453,233.618l11.865,20.551h-23.73l11.865-20.551m0-.1-11.953,20.7h23.906Z" transform="translate(-442.5 -233.516)" fill="#281b16"/></g></g></g></svg>