<?xml version="1.0" encoding="utf-8"?>
<!-- Generator: Adobe Illustrator 24.2.3, SVG Export Plug-In . SVG Version: 6.00 Build 0)  -->
<svg version="1.1" id="Layer_1" xmlns="http://www.w3.org/2000/svg" xmlns:xlink="http://www.w3.org/1999/xlink" x="0px" y="0px"
	 viewBox="0 0 159 160" style="enable-background:new 0 0 159 160;" xml:space="preserve">
<style type="text/css">
	.st0{fill:#FFE000;}
	.st1{fill:none;}
	.st2{fill:none;stroke:#281B16;stroke-width:10;}
	.st3{fill:#281B16;}
</style>
<g transform="translate(-1174 -558)">
	<rect x="1174" y="558" class="st0" width="159" height="160"/>
	<g transform="translate(1183 568)">
		<rect y="0" class="st1" width="141" height="140"/>
		<rect x="5" y="5" class="st2" width="131" height="130"/>
	</g>
	<g transform="translate(1203 614)">
		<g transform="translate(41.949)">
			<path class="st3" d="M0,0h16.6L8.4,14.4L0,0z"/>
			<path class="st3" d="M16.6,0L8.4,14.4L0.1,0H16.6 M16.7,0H0l8.4,14.5L16.7,0z"/>
		</g>
		<g transform="translate(52.437 16.603)">
			<path class="st3" d="M0,0h16.6L8.4,14.4L0,0z"/>
			<path class="st3" d="M16.6,0L8.4,14.4L0.1,0H16.6 M16.7,0H0l8.4,14.5L16.7,0z"/>
		</g>
		<g transform="translate(83.898)">
			<path class="st3" d="M0,0h16.6L8.4,14.4L0,0z"/>
			<path class="st3" d="M16.6,0L8.4,14.4L0.1,0H16.6 M16.7,0H0l8.4,14.5L16.7,0z"/>
		</g>
		<g transform="translate(31.462 16.603)">
			<path class="st3" d="M0,0h16.6L8.4,14.4L0,0z"/>
			<path class="st3" d="M16.6,0L8.4,14.4L0.1,0H16.6 M16.7,0H0l8.4,14.5L16.7,0z"/>
		</g>
		<g transform="translate(62.924)">
			<path class="st3" d="M0,0h16.6L8.4,14.4L0,0z"/>
			<path class="st3" d="M16.6,0L8.4,14.4L0.1,0H16.6 M16.7,0H0l8.4,14.5L16.7,0z"/>
		</g>
		<g transform="translate(41.949 33.206)">
			<path class="st3" d="M0,0h16.6L8.4,14.4L0,0z"/>
			<path class="st3" d="M16.6,0L8.4,14.4L0.1,0H16.6 M16.7,0H0l8.4,14.5L16.7,0z"/>
		</g>
		<g transform="translate(31.462 33.206)">
			<path class="st3" d="M0,14.5L8.4,0l8.3,14.4H0z"/>
			<path class="st3" d="M8.4,0.1l8.3,14.4H0.1L8.4,0.1 M8.4,0L0,14.5h16.7L8.4,0z"/>
		</g>
		<g transform="translate(52.437 33.206)">
			<path class="st3" d="M0,14.5L8.4,0l8.3,14.4H0z"/>
			<path class="st3" d="M8.4,0.1l8.3,14.4H0.1L8.4,0.1 M8.4,0L0,14.5h16.7L8.4,0z"/>
		</g>
		<g transform="translate(73.411)">
			<path class="st3" d="M0,14.5L8.4,0l8.3,14.4H0z"/>
			<path class="st3" d="M8.4,0.1l8.3,14.4H0.1L8.4,0.1 M8.4,0L0,14.5h16.7L8.4,0z"/>
		</g>
		<path class="st3" d="M0,0h16.6L8.4,14.4L0,0z"/>
		<path class="st3" d="M16.6,0L8.4,14.4L0.1,0H16.6 M16.7,0H0l8.4,14.5L16.7,0z"/>
		<g transform="translate(20.975)">
			<path class="st3" d="M0,0h16.6L8.4,14.4L0,0z"/>
			<path class="st3" d="M16.6,0L8.4,14.4L0.1,0H16.6 M16.7,0H0l8.4,14.5L16.7,0z"/>
		</g>
		<g transform="translate(10.487)">
			<path class="st3" d="M0,14.5L8.4,0l8.3,14.4H0z"/>
			<path class="st3" d="M8.4,0.1l8.3,14.4H0.1L8.4,0.1 M8.4,0L0,14.5h16.7L8.4,0z"/>
		</g>
		<g transform="translate(52.437)">
			<path class="st3" d="M0,14.5L8.4,0l8.3,14.4H0z"/>
			<path class="st3" d="M8.4,0.1l8.3,14.4H0.1L8.4,0.1 M8.4,0L0,14.5h16.7L8.4,0z"/>
		</g>
		<g transform="translate(31.462)">
			<path class="st3" d="M0,14.5L8.4,0l8.3,14.4H0z"/>
			<path class="st3" d="M8.4,0.1l8.3,14.4H0.1L8.4,0.1 M8.4,0L0,14.5h16.7L8.4,0z"/>
		</g>
		<g transform="translate(41.949 16.603)">
			<path class="st3" d="M0,14.5L8.4,0l8.3,14.4L0,14.5z"/>
			<path class="st3" d="M8.4,0.1l8.3,14.4H0.1L8.4,0.1 M8.4,0L0,14.5h16.7L8.4,0z"/>
		</g>
	</g>
</g>
</svg>
