<svg xmlns="http://www.w3.org/2000/svg" width="159" height="160" viewBox="0 0 159 160"><g transform="translate(-1174 -558)"><rect width="159" height="160" transform="translate(1174 558)" fill="#fff"/><g transform="translate(1183 568)" fill="none" stroke="#281b16" stroke-width="10"><rect width="141" height="140" stroke="none"/><rect x="5" y="5" width="131" height="130" fill="none"/></g><g transform="translate(1203 614)"><g transform="translate(41.949)"><path d="M590.433.25H607.08l-8.324,14.417Z" transform="translate(-590.402 -0.232)" fill="#281b16"/><path d="M606.647.036,598.354,14.4,590.062.036h16.585M606.709,0H590l8.354,14.47Z" transform="translate(-590)" fill="#281b16"/></g><g transform="translate(52.437 16.603)"><path d="M737.933,233.766H754.58l-8.323,14.417Z" transform="translate(-737.902 -233.748)" fill="#281b16"/><path d="M754.147,233.552l-8.293,14.363-8.293-14.363h16.585m.062-.036H737.5l8.354,14.47Z" transform="translate(-737.5 -233.516)" fill="#281b16"/></g><g transform="translate(83.898)"><path d="M1180.433.25h16.647l-8.323,14.417Z" transform="translate(-1180.402 -0.232)" fill="#281b16"/><path d="M1196.647.036,1188.354,14.4,1180.062.036h16.585m.062-.036H1180l8.354,14.47Z" transform="translate(-1180)" fill="#281b16"/></g><g transform="translate(31.462 16.603)"><path d="M442.933,233.766H459.58l-8.323,14.417Z" transform="translate(-442.902 -233.748)" fill="#281b16"/><path d="M459.147,233.552l-8.293,14.363-8.293-14.363h16.585m.062-.036H442.5l8.354,14.47Z" transform="translate(-442.5 -233.516)" fill="#281b16"/></g><g transform="translate(62.924)"><path d="M885.433.25H902.08l-8.324,14.417Z" transform="translate(-885.402 -0.232)" fill="#281b16"/><path d="M901.647.036,893.354,14.4,885.061.036h16.585M901.709,0H885l8.354,14.47Z" transform="translate(-885)" fill="#281b16"/></g><g transform="translate(41.949 33.206)"><path d="M590.433,467.282H607.08L598.756,481.7Z" transform="translate(-590.402 -467.264)" fill="#281b16"/><path d="M606.647,467.067l-8.293,14.363-8.293-14.363h16.585m.062-.036H590l8.354,14.47Z" transform="translate(-590 -467.032)" fill="#281b16"/></g><g transform="translate(31.462 33.206)"><path d="M442.933,481.949l8.323-14.417,8.323,14.417Z" transform="translate(-442.902 -467.496)" fill="#281b16"/><path d="M450.854,467.1l8.293,14.363H442.562l8.293-14.363m0-.071L442.5,481.5h16.709Z" transform="translate(-442.5 -467.032)" fill="#281b16"/></g><g transform="translate(52.437 33.206)"><path d="M737.933,481.949l8.323-14.417,8.323,14.417Z" transform="translate(-737.902 -467.496)" fill="#281b16"/><path d="M745.854,467.1l8.293,14.363H737.562l8.293-14.363m0-.071L737.5,481.5h16.709Z" transform="translate(-737.5 -467.032)" fill="#281b16"/></g><g transform="translate(73.411)"><path d="M1032.933,14.917,1041.256.5l8.323,14.417Z" transform="translate(-1032.902 -0.464)" fill="#281b16"/><path d="M1040.854.071l8.293,14.363h-16.585L1040.854.071m0-.071L1032.5,14.47h16.709Z" transform="translate(-1032.5)" fill="#281b16"/></g><path d="M.433.25H17.08L8.757,14.667Z" transform="translate(-0.402 -0.232)" fill="#281b16"/><path d="M16.647.036,8.354,14.4.062.036H16.647M16.709,0H0L8.354,14.47Z" fill="#281b16"/><g transform="translate(20.975)"><path d="M295.433.25H312.08l-8.324,14.417Z" transform="translate(-295.402 -0.232)" fill="#281b16"/><path d="M311.647.036,303.354,14.4,295.062.036h16.585M311.709,0H295l8.354,14.47Z" transform="translate(-295)" fill="#281b16"/></g><g transform="translate(10.487)"><path d="M147.933,14.917,156.257.5l8.324,14.417Z" transform="translate(-147.902 -0.464)" fill="#281b16"/><path d="M155.854.071l8.293,14.363H147.562L155.854.071m0-.071L147.5,14.47h16.709Z" transform="translate(-147.5)" fill="#281b16"/></g><g transform="translate(52.437)"><path d="M737.933,14.917,746.256.5l8.323,14.417Z" transform="translate(-737.902 -0.464)" fill="#281b16"/><path d="M745.854.071l8.293,14.363H737.562L745.854.071m0-.071L737.5,14.47h16.709Z" transform="translate(-737.5)" fill="#281b16"/></g><g transform="translate(31.462)"><path d="M442.933,14.917,451.257.5l8.323,14.417Z" transform="translate(-442.902 -0.464)" fill="#281b16"/><path d="M450.854.071l8.293,14.363H442.562L450.854.071m0-.071L442.5,14.47h16.709Z" transform="translate(-442.5)" fill="#281b16"/></g><g transform="translate(41.949 16.603)"><path d="M590.433,248.433l8.323-14.417,8.324,14.417Z" transform="translate(-590.402 -233.98)" fill="#281b16"/><path d="M598.354,233.587l8.293,14.363H590.062l8.293-14.363m0-.071L590,247.986h16.709Z" transform="translate(-590 -233.516)" fill="#281b16"/></g></g></g></svg>