<svg xmlns="http://www.w3.org/2000/svg" width="1415" height="670.54791" viewBox="0 0 1415 670.54791">
  <defs>
    <style>
      .cls-1 {
        fill: #fff;
      }
    </style>
  </defs>
  <g id="Layer_2" data-name="Layer 2">
    <g id="Layer_5" data-name="Layer 5">
      <g>
        <g>
          <polygon class="cls-1" points="590.433 0.25 824.567 0.25 707.5 203.016 590.433 0.25"/>
          <path d="M824.13379.5,707.5,202.516,590.86621.5H824.13379M825,0H590L707.5,203.516,825,0Z"/>
        </g>
        <g>
          <polygon class="cls-1" points="737.933 233.766 972.067 233.766 855 436.532 737.933 233.766"/>
          <path d="M971.63379,234.016,855,436.03192,738.36621,234.016H971.63379m.86621-.5h-235L855,437.03192,972.5,233.516Z"/>
        </g>
        <g>
          <polygon class="cls-1" points="1180.433 0.25 1414.567 0.25 1297.5 203.016 1180.433 0.25"/>
          <path d="M1414.13379.5,1297.5,202.516,1180.86621.5h233.26758M1415,0H1180l117.5,203.516L1415,0Z"/>
        </g>
        <g>
          <polygon class="cls-1" points="442.933 233.766 677.067 233.766 560 436.532 442.933 233.766"/>
          <path d="M676.63379,234.016,560,436.03192,443.36621,234.016H676.63379m.86621-.5h-235L560,437.03192,677.5,233.516Z"/>
        </g>
        <g>
          <polygon class="cls-1" points="885.433 0.25 1119.567 0.25 1002.5 203.016 885.433 0.25"/>
          <path d="M1119.13379.5,1002.5,202.516,885.86621.5h233.26758M1120,0H885l117.5,203.516L1120,0Z"/>
        </g>
        <g>
          <polygon class="cls-1" points="590.433 467.282 824.567 467.282 707.5 670.048 590.433 467.282"/>
          <path d="M824.13379,467.53192,707.5,669.54791l-116.63379-202.016H824.13379m.86621-.5H590l117.5,203.516L825,467.03192Z"/>
        </g>
        <g>
          <polygon class="cls-1" points="442.933 670.298 560 467.532 677.067 670.298 442.933 670.298"/>
          <path d="M560,468.03192l116.63379,202.016H443.36621L560,468.03192m0-1-117.5,203.516h235L560,467.03192Z"/>
        </g>
        <g>
          <polygon class="cls-1" points="737.933 670.298 855 467.532 972.067 670.298 737.933 670.298"/>
          <path d="M855,468.03192l116.63379,202.016H738.36621L855,468.03192m0-1-117.5,203.516h235L855,467.03192Z"/>
        </g>
        <g>
          <polygon class="cls-1" points="1032.933 203.266 1150 0.5 1267.067 203.266 1032.933 203.266"/>
          <path d="M1150,1l116.63379,202.016H1033.36621L1150,1m0-1L1032.5,203.516h235L1150,0Z"/>
        </g>
        <g>
          <polygon class="cls-1" points="0.433 0.25 234.567 0.25 117.5 203.016 0.433 0.25"/>
          <path d="M234.13379.5,117.5,202.516.86621.5H234.13379M235,0H0L117.5,203.516,235,0Z"/>
        </g>
        <g>
          <polygon class="cls-1" points="295.433 0.25 529.567 0.25 412.5 203.016 295.433 0.25"/>
          <path d="M529.13379.5,412.5,202.516,295.86621.5H529.13379M530,0H295L412.5,203.516,530,0Z"/>
        </g>
        <g>
          <polygon class="cls-1" points="147.933 203.266 265 0.5 382.067 203.266 147.933 203.266"/>
          <path d="M265,1,381.63379,203.016H148.36621L265,1m0-1L147.5,203.516h235L265,0Z"/>
        </g>
        <g>
          <polygon class="cls-1" points="737.933 203.266 855 0.5 972.067 203.266 737.933 203.266"/>
          <path d="M855,1,971.63379,203.016H738.36621L855,1m0-1L737.5,203.516h235L855,0Z"/>
        </g>
        <g>
          <polygon class="cls-1" points="442.933 203.266 560 0.5 677.067 203.266 442.933 203.266"/>
          <path d="M560,1,676.63379,203.016H443.36621L560,1m0-1L442.5,203.516h235L560,0Z"/>
        </g>
        <g>
          <polygon class="cls-1" points="590.433 436.782 707.5 234.016 824.567 436.782 590.433 436.782"/>
          <path d="M707.5,234.51593l116.63379,202.016H590.86621L707.5,234.51593m0-1L590,437.03192H825L707.5,233.516Z"/>
        </g>
      </g>
    </g>
  </g>
</svg>
