<svg xmlns="http://www.w3.org/2000/svg" width="241" height="241" viewBox="0 0 241 241"><g transform="translate(-854 -347)"><circle cx="120.5" cy="120.5" r="120.5" transform="translate(854 347)" fill="#fff"/><g transform="translate(862 354)" fill="#fff" stroke="#281b16" stroke-width="10"><circle cx="113" cy="113" r="113" stroke="none"/><circle cx="113" cy="113" r="108" fill="none"/></g><g transform="translate(667.072 -303.177)"><g transform="translate(216.927 684.177)"><path d="M245.048,725.216a53.639,53.639,0,0,0-6.939,28.495c.227,9.077,2.123,19.974,8.233,27.112,5.679,6.633,15.1,8.956,23.376,10.148,8.5,1.222,17.118,1.133,25.682.842,11.268-.46,22.053-3.423,29.311-12.583,6.871-8.672,8.576-20.3,6.973-31C328.8,729,315.31,709.947,296.119,704.243,276.75,698.486,255.181,707.966,245.048,725.216ZM285.256,711.7c16.465.691,29.348,13.771,34.873,28.5,3.483,9.289,4.427,20.585-.3,29.621-5.252,10.051-15.421,12.443-25.97,12.876-11.262.382-25.667.935-36.214-4.612-5.895-3.1-8.139-9.675-9.378-15.873a49.153,49.153,0,0,1,1.457-25.152C254.693,722.439,269.489,711.031,285.256,711.7Z" transform="translate(-193.198 -663.567)"/><path d="M249.351,755.048c5.759,10.129,20.228,10.831,30.514,10.364,12.537-.855,24.293-8.841,25.665-22.04,1.315-12.645-6.614-24.636-17.952-29.821-11.079-5.061-24.918-1.954-33.325,6.682C245.548,729.175,243.068,744,249.351,755.048Zm30.459-34.356a21.282,21.282,0,0,1,16.4,17.269c1.716,11.406-7.647,17.634-17.888,18.332-5.954.269-14.215.115-19.127-3.769-6.139-4.851-4.707-16.794-.974-22.581A21.417,21.417,0,0,1,279.81,720.692Z" transform="translate(-184.502 -653.971)"/><path d="M267.621,740.1c3.659-.189,7.458-1.867,9.2-5.087a9.646,9.646,0,0,0,.878-6.217,11.814,11.814,0,1,0-22.163,7.384C257.369,739.842,263.9,740.287,267.621,740.1Z" transform="translate(-175.035 -645.095)"/><path d="M297.844,687.82q-.006,7.185-.017,14.367,0,3.475-.008,6.951c0,1.343.252,3.163.193,4.762-.925.008-1.882-.074-2.743-.064-1.548.019-3.1.045-4.643.1-.378.013-.753.034-1.131.053a207.075,207.075,0,0,1-1.224-21.452c-.023-4.853-7.577-4.864-7.554,0a206.4,206.4,0,0,0,1.3,22.14c-.388.057-.774.1-1.16.168a39.857,39.857,0,0,0-5.184,1.2Q267.721,701.459,259,687.313c-2.546-4.126-9.083-.341-6.523,3.808q8.467,13.72,16.2,27.867a33.826,33.826,0,0,0-4.1,2.652c-.787.594-1.538,1.22-2.274,1.863a120.248,120.248,0,0,1-14.847-13.661c-3.3-3.576-8.636,1.769-5.343,5.337a127.55,127.55,0,0,0,14.921,13.716,64.51,64.51,0,0,0-4.5,6.05c-.1-.028-.2-.053-.3-.074-1.971-.38-3.623-1.8-5.278-2.87q-2.934-1.9-5.87-3.806-6.065-3.93-12.131-7.864c-4.088-2.652-7.878,3.878-3.81,6.516l12.91,8.37q3.131,2.03,6.262,4.06a24.094,24.094,0,0,0,4.2,2.363q-1.349,2.453-2.6,4.94l-24.2-9.274c-1.9-.728-4.143.808-4.648,2.637a3.859,3.859,0,0,0,2.639,4.639L246.122,754.7a3.462,3.462,0,0,0,3.487-.836,3.28,3.28,0,0,0,1.975-1.78c3.258-6.531,6.7-13.188,11.506-18.741a31.891,31.891,0,0,1,18.958-11.088,75.939,75.939,0,0,1,12.378-.867c4.232-.064,10.375.666,10.9-5.078.409-4.48.049-9.166.055-13.665q.009-7.414.017-14.83C305.4,682.966,297.851,682.958,297.844,687.82Z" transform="translate(-216.927 -684.176)"/><path d="M297.844,799.23q-.006-7.185-.017-14.365,0-3.478-.008-6.953c0-1.343.252-3.163.193-4.762-.925-.011-1.882.074-2.743.064-1.548-.019-3.1-.045-4.643-.1-.378-.011-.753-.036-1.131-.053a207.074,207.074,0,0,0-1.224,21.452c-.023,4.854-7.577,4.864-7.554,0a206.5,206.5,0,0,1,1.3-22.142c-.388-.053-.774-.1-1.16-.166a39.167,39.167,0,0,1-5.184-1.2Q267.721,785.592,259,799.737c-2.546,4.128-9.083.341-6.523-3.808q8.467-13.72,16.2-27.865a34.319,34.319,0,0,1-4.1-2.652c-.787-.6-1.538-1.222-2.274-1.862a120.051,120.051,0,0,0-14.847,13.659c-3.3,3.579-8.636-1.769-5.343-5.335a126.973,126.973,0,0,1,14.921-13.716,64.836,64.836,0,0,1-4.5-6.052c-.1.025-.2.055-.3.074-1.971.38-3.623,1.8-5.278,2.87q-2.934,1.9-5.87,3.805l-12.131,7.864c-4.088,2.652-7.878-3.878-3.81-6.514l12.91-8.373q3.131-2.027,6.262-4.06a24.094,24.094,0,0,1,4.2-2.363q-1.349-2.453-2.6-4.94l-24.2,9.274c-1.9.73-4.143-.808-4.648-2.635a3.86,3.86,0,0,1,2.639-4.641q13.208-5.062,26.416-10.12a3.457,3.457,0,0,1,3.487.834,3.285,3.285,0,0,1,1.975,1.78c3.258,6.531,6.7,13.188,11.506,18.741a31.905,31.905,0,0,0,18.958,11.09,76.177,76.177,0,0,0,12.378.865c4.232.064,10.375-.666,10.9,5.078.409,4.482.049,9.168.055,13.665q.009,7.414.017,14.83C305.4,804.084,297.851,804.092,297.844,799.23Z" transform="translate(-216.927 -630.373)"/><path d="M268.4,799.23q.01-7.185.017-14.365,0-3.478.009-6.953c0-1.343-.253-3.163-.193-4.762.927-.011,1.882.074,2.743.064,1.548-.019,3.1-.045,4.643-.1.378-.011.753-.036,1.131-.053a206.465,206.465,0,0,1,1.224,21.452c.025,4.854,7.579,4.864,7.554,0a207.028,207.028,0,0,0-1.3-22.142c.386-.053.772-.1,1.158-.166a39.089,39.089,0,0,0,5.184-1.2q7.952,14.589,16.675,28.735c2.545,4.128,9.083.341,6.523-3.808q-8.467-13.72-16.2-27.865a34.156,34.156,0,0,0,4.1-2.652c.787-.6,1.538-1.222,2.274-1.862a120.216,120.216,0,0,1,14.849,13.659c3.3,3.579,8.634-1.769,5.341-5.335A126.974,126.974,0,0,0,309.2,758.159a64.833,64.833,0,0,0,4.5-6.052c.1.025.2.055.305.074,1.969.38,3.621,1.8,5.276,2.87q2.934,1.9,5.87,3.805l12.131,7.864c4.088,2.652,7.878-3.878,3.812-6.514l-12.912-8.373q-3.131-2.027-6.262-4.06a24.1,24.1,0,0,0-4.2-2.363q1.349-2.453,2.607-4.94l24.2,9.274c1.9.73,4.143-.808,4.648-2.635a3.858,3.858,0,0,0-2.639-4.641q-13.208-5.062-26.416-10.12a3.458,3.458,0,0,0-3.487.834,3.286,3.286,0,0,0-1.975,1.78c-3.256,6.531-6.7,13.188-11.506,18.741a31.893,31.893,0,0,1-18.958,11.09,76.177,76.177,0,0,1-12.378.865c-4.232.064-10.375-.666-10.9,5.078-.412,4.482-.051,9.168-.057,13.665q-.01,7.414-.017,14.83C260.837,804.084,268.391,804.092,268.4,799.23Z" transform="translate(-167.824 -630.373)"/><path d="M268.4,687.82q.01,7.185.017,14.367,0,3.475.009,6.951c0,1.343-.253,3.163-.193,4.762.927.008,1.882-.074,2.743-.064,1.548.019,3.1.045,4.643.1.378.013.753.034,1.131.053a206.467,206.467,0,0,0,1.224-21.452c.025-4.853,7.579-4.864,7.554,0a206.923,206.923,0,0,1-1.3,22.14c.386.057.772.1,1.158.168a39.776,39.776,0,0,1,5.184,1.2q7.952-14.586,16.675-28.732c2.545-4.126,9.083-.341,6.523,3.808q-8.467,13.72-16.2,27.867a33.668,33.668,0,0,1,4.1,2.652c.787.594,1.538,1.22,2.274,1.863a120.415,120.415,0,0,0,14.849-13.661c3.3-3.576,8.634,1.769,5.341,5.337A127.551,127.551,0,0,1,309.2,728.894a64.507,64.507,0,0,1,4.5,6.05c.1-.028.2-.053.305-.074,1.969-.38,3.621-1.8,5.276-2.87q2.934-1.9,5.87-3.806,6.065-3.93,12.131-7.864c4.088-2.652,7.878,3.878,3.812,6.516l-12.912,8.37q-3.131,2.03-6.262,4.06a24.1,24.1,0,0,1-4.2,2.363q1.349,2.453,2.607,4.94l24.2-9.274c1.9-.728,4.143.808,4.648,2.637a3.857,3.857,0,0,1-2.639,4.639L320.119,754.7a3.464,3.464,0,0,1-3.487-.836,3.28,3.28,0,0,1-1.975-1.78c-3.256-6.531-6.7-13.188-11.506-18.741a31.878,31.878,0,0,0-18.958-11.088,75.939,75.939,0,0,0-12.378-.867c-4.232-.064-10.375.666-10.9-5.078-.412-4.48-.051-9.166-.057-13.665q-.01-7.414-.017-14.83C260.837,682.966,268.391,682.958,268.4,687.82Z" transform="translate(-167.824 -684.176)"/></g></g></g></svg>