<svg xmlns="http://www.w3.org/2000/svg" width="241" height="241" viewBox="0 0 241 241"><g transform="translate(-555 -347)"><circle cx="120.5" cy="120.5" r="120.5" transform="translate(555 347)" fill="#fff"/><g transform="translate(563 354)" fill="#fff" stroke="#281b16" stroke-width="10"><circle cx="113" cy="113" r="113" stroke="none"/><circle cx="113" cy="113" r="108" fill="none"/></g><g transform="translate(385.221 -27.332)"><path d="M219,537.01a70.028,70.028,0,0,1,36.949-21.131c14.092-2.97,30.067.225,42.548-8.485a32.975,32.975,0,0,0,13.761-32.855,32.354,32.354,0,0,0-25.126-25.851,30.355,30.355,0,0,0-31.812,13.2,28.2,28.2,0,0,0,2.222,33.575,26.539,26.539,0,0,0,32.162,6.672c10.946-5.314,18.127-19.29,11.786-30.7-7.044-12.675-26.7-12.861-33.156.537-2.671,5.543-2.1,13.335,3.629,16.755,4.844,2.893,11.706,1.7,14.4-3.477,2.2-4.232-4.206-7.988-6.417-3.746a2.776,2.776,0,0,1-3.861,1.041c-1.932-.992-2.13-3.5-1.75-5.4,1.054-5.254,7.017-8.588,12.1-7.968,11.095,1.35,12.133,14.771,5.876,21.862-5.8,6.574-16.051,8.58-23.705,4.173A20.922,20.922,0,0,1,258.8,472.1c5.52-20.426,33.456-21.7,43.314-4.121a25.287,25.287,0,0,1-1.169,26.668c-6.159,8.955-16.2,11.31-26.475,11.989-11.492.758-22.389,1.606-33.173,6.018a77.333,77.333,0,0,0-27.552,19.105c-3.239,3.505,2,8.765,5.254,5.247Z" transform="translate(8.122 3.586)"/><path d="M254.052,478.515a90.329,90.329,0,0,0-48.613,30.852c-2.972,3.686,2.252,8.968,5.254,5.247a83.782,83.782,0,0,1,45.334-28.942c4.64-1.144,2.676-8.3-1.975-7.158Z" transform="translate(3.363 21.257)"/><path d="M251.444,470.159a91.534,91.534,0,0,0-51.406,20.586c-3.7,3.027,1.582,8.249,5.254,5.246a82.892,82.892,0,0,1,46.153-18.412c4.738-.356,4.777-7.781,0-7.42Z" transform="translate(0 16.453)"/><path d="M250.727,462.733a152.722,152.722,0,0,0-49.186,1.749c-4.686.926-2.7,8.08,1.975,7.158a146.563,146.563,0,0,1,47.211-1.486c4.728.608,4.684-6.819,0-7.42Z" transform="translate(0.049 11.424)"/><path d="M253.6,458.774a99.777,99.777,0,0,0-48.536-8.626c-4.736.362-4.776,7.786,0,7.422a92.131,92.131,0,0,1,44.787,7.61c4.326,1.937,8.11-4.456,3.749-6.406Z" transform="translate(1.584 4.64)"/><path d="M257.053,453.149A97.047,97.047,0,0,0,215.2,441.9c-4.781-.185-4.774,7.237,0,7.42a88.5,88.5,0,0,1,38.1,10.237c4.222,2.233,7.98-4.17,3.749-6.409Z" transform="translate(7.48 0)"/><path d="M277,485.673a83.787,83.787,0,0,1,45.334,28.942c3,3.719,8.226-1.56,5.254-5.247a90.334,90.334,0,0,0-48.613-30.852c-4.643-1.143-6.623,6.012-1.975,7.158Z" transform="translate(44.015 21.257)"/><path d="M282.355,477.579a82.887,82.887,0,0,1,46.153,18.412c3.671,3,8.957-2.217,5.254-5.246a91.53,91.53,0,0,0-51.406-20.586c-4.768-.359-4.746,7.064,0,7.42Z" transform="translate(46.602 16.454)"/><path d="M282.763,470.153a146.573,146.573,0,0,1,47.213,1.486c4.668.921,6.668-6.23,1.975-7.158a152.732,152.732,0,0,0-49.188-1.749c-4.676.6-4.736,8.029,0,7.42Z" transform="translate(46.861 11.424)"/><path d="M283.138,465.18a92.128,92.128,0,0,1,44.787-7.61c4.768.362,4.744-7.059,0-7.422a99.771,99.771,0,0,0-48.536,8.626c-4.357,1.948-.582,8.344,3.749,6.406Z" transform="translate(45.826 4.64)"/><path d="M277.2,459.558a88.492,88.492,0,0,1,38.1-10.237c4.766-.184,4.789-7.605,0-7.42a97.048,97.048,0,0,0-41.85,11.248c-4.227,2.236-.476,8.645,3.75,6.409Z" transform="translate(42.415 0)"/><path d="M272.057,491.871a63.088,63.088,0,0,1,40.514,28.84c2.475,4.078,8.9.353,6.415-3.746a70.5,70.5,0,0,0-44.955-32.252c-4.659-1.022-6.65,6.129-1.975,7.158Z" transform="translate(41.129 24.881)"/></g></g></svg>