<svg xmlns="http://www.w3.org/2000/svg" width="241" height="241" viewBox="0 0 241 241"><g transform="translate(-1167 -347)"><circle cx="120.5" cy="120.5" r="120.5" transform="translate(1167 347)" fill="#fff"/><g transform="translate(1175 354)" fill="#fff" stroke="#281b16" stroke-width="10"><circle cx="113" cy="113" r="113" stroke="none"/><circle cx="113" cy="113" r="108" fill="none"/></g><g transform="translate(982.321 -153.049)"><path d="M355.431,646.144a45.8,45.8,0,0,0-8.926-13.579c2.562-2.122,5.086-4.292,7.6-6.476a4.074,4.074,0,0,0,1.185-4.177,2.782,2.782,0,0,0-.39-1.169c-6.3-10.3-20.771-45.544-66.581-45.544S226.181,611.74,220.9,622.831a3.639,3.639,0,0,0,.826,3.946,3.824,3.824,0,0,0,.819.763c1.566,1.086,4.4.882,5.389-.971,6.227-11.6,18.31-18.348,29.38-24.645,6.613-3.762,13.17-6.34,20.849-6.678,6.108-.267,13.511.162,18.1,4.756a16.576,16.576,0,0,1,4.449,14.389c-.9,5.238-4.771,9.819-9.4,12.257-4.866,2.562-11.634,3.722-15.7-.821a13.949,13.949,0,0,1-3.251-6.7c-.482-2.5-.7-5.942,1.072-8.015,1.808-2.118,5.344-2.349,7.915-2.468,2.353-.11,6.01-.193,7.127,2.048a5.076,5.076,0,0,1-1.131,5.62c-1.828,1.727-4.976,1.667-5.09-1.214-.081-2.088-2.582-3.493-4.457-3.177-2.283.384-3.264,2.358-3.181,4.453.179,4.534,4.247,8.321,8.652,8.807a12.173,12.173,0,0,0,11.407-5.705,13.1,13.1,0,0,0,1.108-11.365c-1.6-4.256-5.711-6.508-10.039-7.055-8.06-1.019-18.48,1.173-20.782,10.133-2.035,7.921.924,17.222,7.511,22.188,7.3,5.507,17.619,3.379,24.744-1.3,6.595-4.325,11.324-11.793,11.461-19.786a25.033,25.033,0,0,0-5.3-15.936,72.166,72.166,0,0,1,15.726,5.252c10.617,4.965,18.958,12.89,26.917,21.251-11.248,9.731-23.407,19.636-38.168,22.917-8.327,1.851-17.17,1.848-25.655,1.458a110.646,110.646,0,0,1-24.044-3.52,75.95,75.95,0,0,1-24.667-11.486c-4.042-2.912-8.468,3.435-4.417,6.353,1.988,1.436,4.043,2.757,6.149,3.98a114.974,114.974,0,0,0-6.158,11.432c-.888,1.893.464,4.287,2.3,4.962a3.96,3.96,0,0,0,4.967-2.3,97.9,97.9,0,0,1,5.579-10.218c.067-.108.125-.217.18-.325,1.586.725,3.2,1.395,4.827,2.021a40.706,40.706,0,0,0-3.789,13.372c-.539,4.962,7.172,5.674,7.71.727a34.58,34.58,0,0,1,3.434-11.62c2.306.671,4.643,1.25,7,1.759a45.383,45.383,0,0,1-2.7,12.444c-1.732,4.673,5.539,7.331,7.271,2.656a52.784,52.784,0,0,0,3.085-13.709q4.311.625,8.646.94a87.914,87.914,0,0,0-1.218,13.576,3.975,3.975,0,0,0,3.491,4.213c1.952.184,4.2-1.389,4.218-3.488a87.979,87.979,0,0,1,1.27-13.888c2.912.088,5.839.09,8.756-.009a101.955,101.955,0,0,0,.606,14.711c.567,4.956,8.2,3.652,7.638-1.276a89.032,89.032,0,0,1-.516-13.375,4.721,4.721,0,0,0-.02-.6c1.375-.151,2.746-.325,4.1-.539,1.384-.22,2.752-.5,4.108-.821a93.744,93.744,0,0,1,3.971,12.271,3.971,3.971,0,0,0,4.457,3.177,3.908,3.908,0,0,0,3.181-4.455,108.946,108.946,0,0,0-4.2-13.278,70.522,70.522,0,0,0,8.392-3.838q3.513,6.755,7.024,13.509c2.288,4.4,9.323,1.171,7.021-3.257l-7.4-14.232c2.737-1.793,5.388-3.7,7.982-5.689a39.622,39.622,0,0,1,7.973,12C350.366,653.984,357.387,650.72,355.431,646.144Z" transform="translate(7.192 25.412)"/><path d="M392.815,585.266a434.686,434.686,0,0,1-33.741,28.411,47.49,47.49,0,0,0-8.736-8.262c-2.192-1.584-4.446-3.132-6.752-4.617a122.866,122.866,0,0,0,25.206-36.617,3.9,3.9,0,0,0-2.306-4.96,3.948,3.948,0,0,0-4.965,2.3,112.972,112.972,0,0,1-24.71,35.112c-.02.02-.038.042-.06.063A88.041,88.041,0,0,0,324.6,591.07a130.412,130.412,0,0,0,17.112-37.055,3.966,3.966,0,0,0-2.306-4.96,3.9,3.9,0,0,0-4.965,2.3,124.118,124.118,0,0,1-17.6,37.345,77.593,77.593,0,0,0-10.986-1.851c.007-.054.018-.1.023-.159q2.027-19.365,2.972-38.816c.244-4.965-7.466-5.705-7.708-.727q-.947,19.446-2.973,38.816a4.651,4.651,0,0,0-.022.52,84.45,84.45,0,0,0-10.3.63c-.043-.175-.092-.348-.153-.521a80.089,80.089,0,0,1-4.316-18.9c-.695-6.6-.321-13.236-.155-19.86a3.963,3.963,0,0,0-3.49-4.215,3.907,3.907,0,0,0-4.218,3.488c-.184,7.289-.543,14.593.226,21.865a87.859,87.859,0,0,0,4.428,19.434,92.209,92.209,0,0,0-13.489,3.977A168.831,168.831,0,0,0,253.7,562.463a3.97,3.97,0,0,0-5.144-1.878,3.9,3.9,0,0,0-1.88,5.137,168.99,168.99,0,0,1,12.9,29.692q-3.559,1.694-6.974,3.672a52.714,52.714,0,0,0-4.978,3.3,209.937,209.937,0,0,0-15.147-26.668c-1.158-1.739-3.995-1.683-5.456-.446-1.748,1.478-1.611,3.706-.447,5.453a195.811,195.811,0,0,1,14.507,25.921,4.145,4.145,0,0,0,.538.862c-1.478,1.422-2.909,2.914-4.316,4.469q-1.518,1.678-3.024,3.36a11.973,11.973,0,0,1-3.437-4.022c-1.247-1.922-2.522-3.825-3.849-5.693-2.654-3.737-5.489-7.338-8.468-10.82-3.235-3.776-9.155,1.212-5.906,5.007,3.145,3.674,6.129,7.484,8.91,11.443,2.317,3.3,4.247,7.443,7.555,9.9q-3.1,3.483-6.2,6.967c-1.393,1.559-.6,4.3.971,5.384,1.887,1.308,3.993.6,5.389-.971q6.228-6.98,12.455-13.958a66.665,66.665,0,0,1,11.45-10.757,72.55,72.55,0,0,1,13.947-7.093,90.6,90.6,0,0,1,15.355-4.976,72.527,72.527,0,0,1,31.077.063c10.416,2.349,19.376,7.45,28.264,13.172A48.384,48.384,0,0,1,354.588,620.2c3.533,4.626,6.185,9.835,8.843,14.99,2.277,4.412,9.31,1.177,7.024-3.258-2.135-4.135-4.329-8.2-6.815-12.02a434.614,434.614,0,0,0,34.188-28.75C401.454,587.781,396.473,581.854,392.815,585.266Z" transform="translate(0 0)"/></g></g></svg>