<svg xmlns="http://www.w3.org/2000/svg" width="160" height="159" viewBox="0 0 160 159"><g transform="translate(-978 -363)"><rect width="160" height="159" transform="translate(978 363)" fill="#fff"/><g transform="translate(988 373)" fill="none" stroke="#281b16" stroke-width="10"><rect width="140" height="140" stroke="none"/><rect x="5" y="5" width="130" height="130" fill="none"/></g><g transform="translate(1030 407)"><g transform="translate(15.776 49.952)"><path d="M147.933,489.219l12.521-21.687,12.521,21.687Z" transform="translate(-147.887 -467.478)" fill="#281b16"/><path d="M160.067,467.139l12.475,21.607H147.592l12.475-21.607m0-.107L147.5,488.8h25.135Z" transform="translate(-147.5 -467.032)" fill="#281b16"/></g><path d="M.433.25H25.475L12.954,21.937Z" transform="translate(-0.387 -0.223)" fill="#281b16"/><path d="M25.042.053,12.567,21.66.093.053H25.042M25.135,0H0L12.567,21.767,25.135,0Z" fill="#281b16"/><g transform="translate(15.776)"><path d="M147.933,22.187,160.454.5l12.521,21.687Z" transform="translate(-147.887 -0.447)" fill="#281b16"/><path d="M160.067.107l12.475,21.607H147.593L160.067.107m0-.107L147.5,21.767h25.135Z" transform="translate(-147.5)" fill="#281b16"/></g><g transform="translate(31.552)"><path d="M295.433.25h25.042L307.954,21.937Z" transform="translate(-295.387 -0.223)" fill="#281b16"/><path d="M320.042.053,307.567,21.66,295.093.053h24.949M320.135,0H295l12.567,21.767Z" transform="translate(-295)" fill="#281b16"/></g><g transform="translate(0 49.952)"><path d="M.433,467.282H25.475L12.954,488.969Z" transform="translate(-0.387 -467.255)" fill="#281b16"/><path d="M.093,467.085H25.042L12.567,488.692.093,467.085M0,467.032,12.567,488.8l12.567-21.767Z" transform="translate(0 -467.032)" fill="#281b16"/></g><g transform="translate(0 24.976)"><path d="M.433,255.7l12.521-21.687L25.475,255.7Z" transform="translate(-0.387 -233.963)" fill="#281b16"/><path d="M12.567,233.623,25.042,255.23H.093l12.475-21.607m0-.107L0,255.283H25.135L12.567,233.516Z" transform="translate(0 -233.516)" fill="#281b16"/></g><g transform="translate(15.776 24.976)"><path d="M147.933,233.766h25.042l-12.521,21.687Z" transform="translate(-147.887 -233.739)" fill="#281b16"/><path d="M147.593,233.569h24.949l-12.475,21.607-12.475-21.607m-.093-.053,12.567,21.767,12.567-21.767Z" transform="translate(-147.5 -233.516)" fill="#281b16"/></g><g transform="translate(31.552 49.952)"><path d="M295.433,467.282h25.042l-12.521,21.687Z" transform="translate(-295.387 -467.255)" fill="#281b16"/><path d="M295.093,467.085h24.949l-12.475,21.607-12.475-21.607m-.093-.053L307.567,488.8l12.567-21.767Z" transform="translate(-295 -467.032)" fill="#281b16"/></g><g transform="translate(31.552 24.976)"><path d="M295.433,255.7l12.521-21.687L320.475,255.7Z" transform="translate(-295.387 -233.963)" fill="#281b16"/><path d="M307.567,233.623l12.475,21.607H295.093l12.475-21.607m0-.107L295,255.283h25.135Z" transform="translate(-295 -233.516)" fill="#281b16"/></g></g></g></svg>