<?xml version="1.0" encoding="utf-8"?>
<!-- Generator: Adobe Illustrator 24.2.3, SVG Export Plug-In . SVG Version: 6.00 Build 0)  -->
<svg version="1.1" id="Layer_1" xmlns="http://www.w3.org/2000/svg" xmlns:xlink="http://www.w3.org/1999/xlink" x="0px" y="0px"
	 viewBox="0 0 160 159" style="enable-background:new 0 0 160 159;" xml:space="preserve">
<style type="text/css">
	.st0{fill:#FFE000;}
	.st1{fill:none;}
	.st2{fill:none;stroke:#281B16;stroke-width:10;}
	.st3{fill:#281B16;}
</style>
<g transform="translate(-978 -363)">
	<rect x="978" y="363" class="st0" width="160" height="159"/>
	<g transform="translate(988 373)">
		<rect y="0" class="st1" width="140" height="140"/>
		<rect x="5" y="5" class="st2" width="130" height="130"/>
	</g>
	<g transform="translate(1030 407)">
		<g transform="translate(15.776 49.952)">
			<path class="st3" d="M0,21.7L12.6,0.1l12.5,21.7H0z"/>
			<path class="st3" d="M12.6,0.1L25,21.7h-25L12.6,0.1 M12.6,0L0,21.8h25.1L12.6,0z"/>
		</g>
		<path class="st3" d="M0,0h25L12.6,21.7L0,0z"/>
		<path class="st3" d="M25,0.1L12.6,21.7L0.1,0.1H25 M25.1,0H0l12.6,21.8L25.1,0z"/>
		<g transform="translate(15.776)">
			<path class="st3" d="M0,21.7L12.6,0.1l12.5,21.7H0z"/>
			<path class="st3" d="M12.6,0.1L25,21.7H0.1L12.6,0.1 M12.6,0L0,21.8h25.1L12.6,0z"/>
		</g>
		<g transform="translate(31.552)">
			<path class="st3" d="M0,0h25L12.6,21.7L0,0z"/>
			<path class="st3" d="M25,0.1L12.6,21.7L0.1,0.1H25 M25.1,0H0l12.6,21.8L25.1,0z"/>
		</g>
		<g transform="translate(0 49.952)">
			<path class="st3" d="M0,0h25L12.6,21.7L0,0z"/>
			<path class="st3" d="M0.1,0.1H25L12.6,21.7L0.1,0.1 M0,0l12.6,21.8L25.1,0L0,0z"/>
		</g>
		<g transform="translate(0 24.976)">
			<path class="st3" d="M0,21.7L12.6,0l12.5,21.7H0z"/>
			<path class="st3" d="M12.6,0.1L25,21.7H0.1L12.6,0.1 M12.6,0L0,21.8h25.1L12.6,0L12.6,0z"/>
		</g>
		<g transform="translate(15.776 24.976)">
			<path class="st3" d="M0,0h25L12.6,21.7L0,0z"/>
			<path class="st3" d="M0.1,0.1H25L12.6,21.7L0.1,0.1 M0,0l12.6,21.8L25.1,0H0z"/>
		</g>
		<g transform="translate(31.552 49.952)">
			<path class="st3" d="M0,0h25L12.6,21.7L0,0z"/>
			<path class="st3" d="M0.1,0.1H25L12.6,21.7L0.1,0.1 M0,0l12.6,21.8L25.1,0L0,0z"/>
		</g>
		<g transform="translate(31.552 24.976)">
			<path class="st3" d="M0,21.7L12.6,0l12.5,21.7H0z"/>
			<path class="st3" d="M12.6,0.1L25,21.7H0.1L12.6,0.1 M12.6,0L0,21.8h25.1L12.6,0z"/>
		</g>
	</g>
</g>
</svg>
