<svg xmlns="http://www.w3.org/2000/svg" width="530.00003" height="670.54797" viewBox="0 0 530.00003 670.54797">
  <defs>
    <style>
      .cls-1 {
        fill: #fff;
      }
    </style>
  </defs>
  <g id="Layer_2" data-name="Layer 2">
    <g id="Layer_5" data-name="Layer 5">
      <g>
        <polygon class="cls-1" points="147.933 670.298 265 467.532 382.067 670.298 147.933 670.298"/>
        <path d="M265,468.032,381.63385,670.048l-233.26794-.00012L265,468.032m0-1L147.49988,670.54785l235,.00012L265,467.032Z"/>
      </g>
      <g>
        <polygon class="cls-1" points="0.433 0.25 234.567 0.25 117.5 203.016 0.433 0.25"/>
        <path d="M234.134.5l-116.634,202.016L.86609.5H234.134m.866-.5h-235l117.5,203.516L235.00006,0Z"/>
      </g>
      <g>
        <polygon class="cls-1" points="147.933 203.266 265 0.5 382.067 203.266 147.933 203.266"/>
        <path d="M265.00006,1,381.634,203.016H148.36609L265.00006,1m0-1-117.5,203.516h235L265.00006,0Z"/>
      </g>
      <g>
        <polygon class="cls-1" points="295.433 0.25 529.567 0.25 412.5 203.016 295.433 0.25"/>
        <path d="M529.134.5,412.50006,202.516,295.86609.5H529.134M530,0h-235l117.5,203.516L530,0Z"/>
      </g>
      <g>
        <polygon class="cls-1" points="0.433 467.282 234.567 467.282 117.5 670.048 0.433 467.282"/>
        <path d="M.866,467.53186,234.134,467.532,117.49988,669.54785.866,467.53186m-.866-.5,117.49988,203.516L235,467.032,0,467.03186Z"/>
      </g>
      <g>
        <polygon class="cls-1" points="0.433 436.782 117.5 234.016 234.567 436.782 0.433 436.782"/>
        <path d="M117.50006,234.516,234.134,436.5321.866,436.532l116.634-202.016m0-1L0,437.032l235,.00012L117.50006,233.516Z"/>
      </g>
      <g>
        <polygon class="cls-1" points="147.933 233.766 382.067 233.766 265 436.532 147.933 233.766"/>
        <path d="M148.366,234.016l233.26794.00012L264.99988,436.032,148.366,234.016m-.866-.5L264.99988,437.032,382.5,233.51611l-235-.00012Z"/>
      </g>
      <g>
        <polygon class="cls-1" points="295.433 467.282 529.567 467.282 412.5 670.048 295.433 467.282"/>
        <path d="M295.866,467.532l233.26791.00012L412.49988,669.548,295.866,467.532m-.866-.5L412.49988,670.548,530,467.0321,295,467.032Z"/>
      </g>
      <g>
        <polygon class="cls-1" points="295.433 436.782 412.5 234.016 529.567 436.782 295.433 436.782"/>
        <path d="M412.50006,234.516,529.13394,436.532,295.866,436.53186,412.50006,234.516m0-1L295,437.03186l235,.00012L412.50006,233.516Z"/>
      </g>
    </g>
  </g>
</svg>
